<?xml version="1.0" encoding="utf-8"?>
<!-- Generator: Adobe Illustrator 26.0.0, SVG Export Plug-In . SVG Version: 6.00 Build 0)  -->
<svg version="1.1" id="圖層_1" xmlns="http://www.w3.org/2000/svg" xmlns:xlink="http://www.w3.org/1999/xlink" x="0px" y="0px"
	 viewBox="0 0 725.67 725.67" style="enable-background:new 0 0 725.67 725.67;" xml:space="preserve">
<style type="text/css">
	.st0{fill:#FFFFFF;}
</style>
<g>
	<path class="st0" d="M146.04,262.39c-1.25-1.68-0.91-4.05,0.77-5.31c1.68-1.25,4.05-0.91,5.31,0.77c1.25,1.68,0.91,4.05-0.77,5.31
		C149.67,264.42,147.3,264.07,146.04,262.39z"/>
	<path class="st0" d="M362.33,359.96c0.1-2.04,1.83-3.61,3.87-3.51c2.04,0.1,3.61,1.83,3.51,3.87c-0.1,2.04-1.83,3.61-3.87,3.51
		S362.23,362,362.33,359.96z"/>
	<path class="st0" d="M345.48,353.01c0.1-2.04,1.83-3.61,3.87-3.51c2.04,0.1,3.61,1.83,3.51,3.87s-1.83,3.61-3.87,3.51
		C346.95,356.79,345.38,355.05,345.48,353.01z"/>
	<path class="st0" d="M328.35,345.96c0.1-2.04,1.83-3.61,3.87-3.51c2.04,0.1,3.61,1.83,3.51,3.87c-0.1,2.04-1.83,3.61-3.87,3.51
		C329.82,349.73,328.25,348,328.35,345.96z"/>
	<path class="st0" d="M311.96,339.2c0.1-2.04,1.83-3.61,3.87-3.51c2.04,0.1,3.61,1.83,3.51,3.87c-0.1,2.04-1.83,3.61-3.87,3.51
		C313.44,342.98,311.86,341.24,311.96,339.2z"/>
	<path class="st0" d="M295.68,332.49c0.1-2.04,1.83-3.61,3.87-3.51c2.04,0.1,3.61,1.83,3.51,3.87c-0.1,2.04-1.83,3.61-3.87,3.51
		C297.15,336.27,295.58,334.53,295.68,332.49z"/>
	<path class="st0" d="M392.07,361.97l16.76,7.01l-14.03,3.61l-5.5,20.99l-5.65-21.93l-15.69-3.95l16.93-4.36
		c0,0,2.61-13.22,2.61-13.23C387.51,350.09,392.07,361.97,392.07,361.97z"/>
	<polygon class="st0" points="129.35,263.97 136.59,272.18 127.54,270.8 126.53,280.96 123.91,273.99 107.55,268.9 118.91,264.54 
		117.87,252.25 123.1,259.07 133.1,257.25 	"/>
	<path class="st0" d="M131.43,482.56c-2.67-0.13-20.39-3.2-20.39-3.2l16.32-5.03l-5.1-14.98l9.85,8.95l4.28-14.98l4.31,12.71
		l13.51-11.86l-6.49,14.43l13.81,0.65l-13.24,6.07l9.57,14.74l-13.39-9.57l-0.55,20.96l-6.01-14.58l-11.58,8.83L131.43,482.56z"/>
	<polygon class="st0" points="99.59,300.01 83.86,298.29 95.3,290.52 88.53,280.56 101.44,285.27 113.1,274.65 111.74,288.52 
		126.42,297.43 110.33,297.57 104.28,312.47 	"/>
	<path class="st0" d="M126.91,427.94c-1.81,0.94-4.04,0.23-4.98-1.58c-0.94-1.81-0.23-4.04,1.58-4.98c1.81-0.94,4.04-0.23,4.98,1.58
		S128.72,427,126.91,427.94z"/>
	<path class="st0" d="M129.42,446.31c-1.81,0.94-4.04,0.23-4.98-1.58c-0.94-1.81-0.23-4.04,1.58-4.98c1.81-0.94,4.04-0.23,4.98,1.58
		C131.94,443.14,131.24,445.37,129.42,446.31z"/>
	<path class="st0" d="M114.97,334c-1.81,0.94-4.04,0.23-4.98-1.58c-0.94-1.81-0.23-4.04,1.58-4.98c1.81-0.94,4.04-0.23,4.98,1.58
		C117.49,330.83,116.78,333.06,114.97,334z"/>
	<path class="st0" d="M117.43,352.06c-1.81,0.94-4.04,0.23-4.98-1.58c-0.94-1.81-0.23-4.04,1.58-4.98c1.81-0.94,4.04-0.23,4.98,1.58
		C119.96,348.89,119.25,351.12,117.43,352.06z"/>
	<path class="st0" d="M119.94,370.41c-1.81,0.94-4.04,0.23-4.98-1.58c-0.94-1.81-0.23-4.04,1.58-4.98c1.81-0.94,4.04-0.23,4.98,1.58
		C122.46,367.24,121.75,369.47,119.94,370.41z"/>
	<path class="st0" d="M122.33,387.97c-1.81,0.94-4.04,0.23-4.98-1.58c-0.94-1.81-0.23-4.04,1.58-4.98c1.81-0.94,4.04-0.23,4.98,1.58
		C124.86,384.8,124.15,387.03,122.33,387.97z"/>
	<path class="st0" d="M124.71,405.42c-1.81,0.94-4.04,0.23-4.98-1.58c-0.94-1.81-0.23-4.04,1.58-4.98c1.81-0.94,4.04-0.23,4.98,1.58
		C127.24,402.25,126.53,404.48,124.71,405.42z"/>
	<polygon class="st0" points="207.35,200.62 203.55,215.98 197.38,203.61 186.6,208.99 192.99,196.82 184.02,183.85 197.59,187.05 
		208.37,173.69 206.36,189.65 220.32,197.64 	"/>
	<path class="st0" d="M188.76,228.21c-2.04,0.08-3.76-1.52-3.83-3.56c-0.08-2.04,1.52-3.76,3.56-3.83c2.04-0.08,3.76,1.52,3.83,3.56
		C192.4,226.42,190.8,228.13,188.76,228.21z"/>
	<path class="st0" d="M183.2,245.88c-2.04,0.08-3.76-1.52-3.83-3.56c-0.08-2.04,1.52-3.76,3.56-3.83c2.04-0.08,3.76,1.52,3.83,3.56
		C186.83,244.09,185.24,245.81,183.2,245.88z"/>
	<path class="st0" d="M443.71,119.01c1.51,1.45,1.56,3.85,0.11,5.36c-1.45,1.51-3.85,1.56-5.36,0.11s-1.56-3.85-0.11-5.36
		C439.8,117.6,442.2,117.56,443.71,119.01z"/>
	<path class="st0" d="M460.43,110.65c1.51,1.45,1.56,3.85,0.11,5.36c-1.45,1.51-3.85,1.56-5.36,0.11c-1.51-1.45-1.56-3.85-0.11-5.36
		C456.52,109.25,458.92,109.2,460.43,110.65z"/>
	<path class="st0" d="M477.43,102.17c1.51,1.45,1.56,3.85,0.11,5.36c-1.45,1.51-3.85,1.56-5.36,0.11c-1.51-1.45-1.56-3.85-0.11-5.36
		C473.52,100.76,475.92,100.71,477.43,102.17z"/>
	<path class="st0" d="M493.69,94.04c1.51,1.45,1.56,3.85,0.11,5.36c-1.45,1.51-3.85,1.56-5.36,0.11c-1.51-1.45-1.56-3.85-0.11-5.36
		C489.78,92.64,492.18,92.59,493.69,94.04z"/>
	<path class="st0" d="M509.85,85.97c1.51,1.45,1.56,3.85,0.11,5.36c-1.45,1.51-3.85,1.56-5.36,0.11c-1.51-1.45-1.56-3.85-0.11-5.36
		C505.94,84.57,508.34,84.52,509.85,85.97z"/>
	<path class="st0" d="M526.57,77.62c1.51,1.45,1.56,3.85,0.11,5.36s-3.85,1.56-5.36,0.11c-1.51-1.45-1.56-3.85-0.11-5.36
		C522.66,76.22,525.06,76.17,526.57,77.62z"/>
	<path class="st0" d="M544.71,68.56c1.51,1.45,1.56,3.85,0.11,5.36c-1.45,1.51-3.85,1.56-5.36,0.11c-1.51-1.45-1.56-3.85-0.11-5.36
		S543.2,67.11,544.71,68.56z"/>
	<path class="st0" d="M562.22,61.47c1.51,1.45,1.56,3.85,0.11,5.36c-1.45,1.51-3.85,1.56-5.36,0.11c-1.51-1.45-1.56-3.85-0.11-5.36
		C558.31,60.07,560.71,60.02,562.22,61.47z"/>
	<path class="st0" d="M578.94,53.12c1.51,1.45,1.56,3.85,0.11,5.36c-1.45,1.51-3.85,1.56-5.36,0.11c-1.51-1.45-1.56-3.85-0.11-5.36
		C575.03,51.72,577.43,51.67,578.94,53.12z"/>
	<path class="st0" d="M597.08,44.06c1.51,1.45,1.56,3.85,0.11,5.36c-1.45,1.51-3.85,1.56-5.36,0.11s-1.56-3.85-0.11-5.36
		C593.17,42.66,595.57,42.61,597.08,44.06z"/>
	<path class="st0" d="M614.18,32.83l-0.96-18.14l9.34,11.07l21.3-4.16l-17.31,14.61l3.25,15.85L618.52,38.7
		c0,0-13.05,3.39-13.05,3.39C605.46,42.1,614.18,32.83,614.18,32.83z"/>
	<polygon class="st0" points="164.14,266.39 159.01,255.82 167.36,260.07 179.01,252.23 172.37,265.3 178.29,273.93 168.21,268.8 
		161.28,274.11 	"/>
	<polygon class="st0" points="407.91,126.59 419.07,110.45 417.03,129.1 432.16,134.67 415.72,136.87 417.19,156.32 410.14,144.94 
		399.16,154.16 400.11,141.81 385.41,140.32 399.12,134.61 391.89,123.11 	"/>
	<path class="st0" d="M336.89,156.4c-1.23-1.63-0.9-3.95,0.74-5.18c1.63-1.23,3.95-0.9,5.18,0.74c1.23,1.63,0.9,3.95-0.74,5.18
		S338.12,158.03,336.89,156.4z"/>
	<path class="st0" d="M319.49,161.82c-1.23-1.63-0.9-3.95,0.74-5.18c1.63-1.23,3.95-0.9,5.18,0.74c1.23,1.63,0.9,3.95-0.74,5.18
		C323.04,163.78,320.72,163.45,319.49,161.82z"/>
	<path class="st0" d="M301.8,167.32c-1.23-1.63-0.9-3.95,0.74-5.18c1.63-1.23,3.95-0.9,5.18,0.74c1.23,1.63,0.9,3.95-0.74,5.18
		C305.35,169.28,303.03,168.95,301.8,167.32z"/>
	<path class="st0" d="M284.88,172.59c-1.23-1.63-0.9-3.95,0.74-5.18c1.63-1.23,3.95-0.9,5.18,0.74s0.9,3.95-0.74,5.18
		S286.11,174.22,284.88,172.59z"/>
	<path class="st0" d="M268.07,177.82c-1.23-1.63-0.9-3.95,0.74-5.18c1.63-1.23,3.95-0.9,5.18,0.74s0.9,3.95-0.74,5.18
		C271.61,179.79,269.29,179.46,268.07,177.82z"/>
	<path class="st0" d="M250.66,183.24c-1.23-1.63-0.9-3.95,0.74-5.18s3.95-0.9,5.18,0.74c1.23,1.63,0.9,3.95-0.74,5.18
		C254.21,185.2,251.89,184.87,250.66,183.24z"/>
	<path class="st0" d="M231.06,189.1c-1.23-1.63-0.9-3.95,0.74-5.18c1.63-1.23,3.95-0.9,5.18,0.74c1.23,1.63,0.9,3.95-0.74,5.18
		C234.6,191.06,232.28,190.73,231.06,189.1z"/>
	<path class="st0" d="M372.54,147.59c-1.23-1.63-0.9-3.95,0.74-5.18c1.63-1.23,3.95-0.9,5.18,0.74c1.23,1.63,0.9,3.95-0.74,5.18
		C376.08,149.56,373.76,149.23,372.54,147.59z"/>
	<path class="st0" d="M353.32,151.1c-1.23-1.63-0.9-3.95,0.74-5.18c1.63-1.23,3.95-0.9,5.18,0.74c1.23,1.63,0.9,3.95-0.74,5.18
		C356.86,153.06,354.54,152.73,353.32,151.1z"/>
	<path class="st0" d="M255.09,285.6c1.23-1.7,3.6-2.08,5.29-0.86c1.7,1.23,2.08,3.6,0.86,5.29c-1.23,1.7-3.6,2.08-5.29,0.86
		C254.24,289.67,253.86,287.3,255.09,285.6z"/>
	<path class="st0" d="M243.58,268.9c1.23-1.7,3.6-2.08,5.29-0.85c1.7,1.23,2.08,3.6,0.86,5.29s-3.6,2.08-5.29,0.85
		C242.74,272.97,242.36,270.6,243.58,268.9z"/>
	<path class="st0" d="M231.97,252.05c1.23-1.7,3.6-2.08,5.29-0.86c1.7,1.23,2.08,3.6,0.86,5.29c-1.23,1.7-3.6,2.08-5.29,0.86
		C231.13,256.11,230.74,253.74,231.97,252.05z"/>
	<path class="st0" d="M221.05,236.19c1.23-1.7,3.6-2.08,5.29-0.86c1.7,1.23,2.08,3.6,0.85,5.29c-1.23,1.7-3.6,2.08-5.29,0.86
		C220.2,240.26,219.82,237.89,221.05,236.19z"/>
	<path class="st0" d="M210.21,220.46c1.23-1.7,3.6-2.08,5.29-0.86c1.7,1.23,2.08,3.6,0.86,5.29s-3.6,2.08-5.29,0.86
		C209.37,224.53,208.98,222.16,210.21,220.46z"/>
	<polygon class="st0" points="278.7,313.81 295.09,311.63 281.89,323.09 284.78,333.37 276.33,323.62 259.61,330.37 269.91,321.43 
		259.87,308.12 268.78,311.12 275.94,301.82 	"/>
	<path class="st0" d="M270.57,655.94c1.71-1.21,4.08-0.8,5.28,0.92c1.21,1.71,0.8,4.08-0.92,5.28c-1.71,1.21-4.08,0.8-5.28-0.92
		C268.45,659.51,268.86,657.14,270.57,655.94z"/>
	<path class="st0" d="M265.14,636.4c1.71-1.21,4.08-0.8,5.28,0.92c1.21,1.71,0.8,4.08-0.92,5.28c-1.71,1.21-4.08,0.8-5.28-0.92
		C263.01,639.97,263.42,637.6,265.14,636.4z"/>
	<path class="st0" d="M259.65,616.68c1.71-1.21,4.08-0.8,5.28,0.92c1.21,1.71,0.8,4.08-0.92,5.28c-1.71,1.21-4.08,0.8-5.28-0.92
		C257.53,620.25,257.94,617.89,259.65,616.68z"/>
	<polygon class="st0" points="283.7,690.3 299.9,693.59 283.69,700.11 283.08,710.77 278.26,698.8 260.25,699.73 272.91,694.64 
		267.76,678.79 275.2,684.53 285,678.07 	"/>
	<polygon class="st0" points="238.53,545.33 231.9,560.47 228.95,543.24 218.66,540.39 231.37,538.21 234.27,520.42 236.57,533.86 
		253.16,532.18 245.97,538.24 250.21,549.18 	"/>
	<path class="st0" d="M204.8,523.63c0.6-1.95,2.66-3.05,4.61-2.46c1.95,0.6,3.05,2.66,2.46,4.62c-0.6,1.95-2.66,3.05-4.62,2.46
		C205.3,527.65,204.2,525.59,204.8,523.63z"/>
	<path class="st0" d="M190.56,513.07c0.6-1.95,2.66-3.05,4.62-2.46c1.95,0.6,3.05,2.66,2.46,4.61c-0.6,1.95-2.66,3.05-4.61,2.46
		C191.07,517.09,189.97,515.03,190.56,513.07z"/>
	<path class="st0" d="M176.42,502.58c0.6-1.95,2.66-3.05,4.62-2.46c1.95,0.6,3.05,2.66,2.46,4.61c-0.6,1.95-2.66,3.05-4.61,2.46
		C176.93,506.6,175.82,504.53,176.42,502.58z"/>
	<path class="st0" d="M161.78,491.72c0.6-1.95,2.66-3.05,4.62-2.46c1.95,0.6,3.05,2.66,2.46,4.62c-0.6,1.95-2.66,3.05-4.61,2.46
		C162.29,495.74,161.19,493.67,161.78,491.72z"/>
	<polygon class="st0" points="246.27,578.97 247.42,559.38 255.36,576.38 271.18,573.28 258.28,583.7 269.64,599.55 257.71,593.49 
		253.12,607.08 247.51,596.03 234.18,602.4 242.92,590.4 230.77,584.32 	"/>
</g>
</svg>
