<?xml version="1.0" encoding="utf-8"?>
<!-- Generator: Adobe Illustrator 26.0.0, SVG Export Plug-In . SVG Version: 6.00 Build 0)  -->
<svg version="1.1" xmlns="http://www.w3.org/2000/svg" xmlns:xlink="http://www.w3.org/1999/xlink" x="0px" y="0px"
	 viewBox="0 0 725.7 725.7" style="enable-background:new 0 0 725.7 725.7;" xml:space="preserve">
<style type="text/css">
	.st0{display:none;}
	.st1{display:inline;}
	.st2{display:none;fill:#592929;}
	.st3{fill:#FF7E5F;}
	.st4{fill:#FFFCF0;}
	.st5{fill:#FFBD9B;}
	.st6{fill:#BF5E47;}
	.st7{fill:#ED6F51;}
	.st8{fill:#46221A;}
	.st9{fill:#592929;}
	.st10{fill:#B04A38;}
	.st11{opacity:0.33;}
	.st12{display:none;fill:#FFBD9B;}
	.st13{display:none;fill:#BF5E47;}
	.st14{fill:#662F2F;}
	.st15{fill:#963F30;}
	.st16{fill:url(#SVGID_1_);}
	.st17{fill:url(#SVGID_00000023981718572324547510000002114867039593275813_);}
	.st18{fill:url(#SVGID_00000088851994456278312440000015477939246228556214_);}
	.st19{fill:url(#SVGID_00000165212584626321230450000015781244737165078685_);}
	.st20{fill:url(#SVGID_00000166643449218269231960000016332441969158435472_);}
	.st21{fill:url(#SVGID_00000032623273393108317430000010903954478721763002_);}
	.st22{fill:url(#SVGID_00000065771361032126729820000014030776393249686169_);}
	.st23{fill:url(#SVGID_00000176012332037909519370000015933925850884615075_);}
	.st24{fill:url(#SVGID_00000067219813205948407040000000474874766183303090_);}
	.st25{fill:url(#SVGID_00000108306221509678744060000001703454088955930526_);}
	.st26{fill:url(#SVGID_00000009554971670440880000000017841083803110254240_);}
	.st27{fill:url(#SVGID_00000018204440465044251120000010104047714366058382_);}
	.st28{fill:url(#SVGID_00000078039641861682815890000014317919619269245592_);}
	.st29{fill:url(#SVGID_00000087391872851351047290000007033722390795029424_);}
	.st30{fill:url(#SVGID_00000026865742102235902650000000778728555137581730_);}
	.st31{fill:url(#SVGID_00000102545079926710863090000010910589735832369324_);}
	.st32{fill:url(#SVGID_00000170254799033681430610000015566360807567433617_);}
	.st33{fill:url(#SVGID_00000122708491827488807570000011437529601461703341_);}
	.st34{fill:url(#SVGID_00000096759514485151148410000015237635697026199218_);}
	.st35{fill:url(#SVGID_00000065051007029108547520000005860328942349332113_);}
	.st36{fill:url(#SVGID_00000117653963762698727180000011966630887799543975_);}
	.st37{fill:url(#SVGID_00000174585571411443304310000018441520292146992521_);}
	.st38{fill:url(#SVGID_00000033357596842397431060000006859721294809774776_);}
	.st39{fill:url(#SVGID_00000124144385848498784130000002000108956325122436_);}
	.st40{fill:url(#SVGID_00000049927316434194488300000009626645407165462207_);}
	.st41{fill:url(#SVGID_00000145022558694700771040000008435990439474749605_);}
	.st42{fill:url(#SVGID_00000031170187106466368020000010376945852046194349_);}
	.st43{fill:url(#SVGID_00000002377730575608870040000011384478928470521258_);}
	.st44{fill:url(#SVGID_00000023976357133746605910000013488152321395797158_);}
	.st45{fill:url(#SVGID_00000071533723289941974160000012818697424828335272_);}
	.st46{fill:#FFFFFF;}
</style>
<g id="圖層_1">
	<g id="圖層_3" class="st0">
		<g class="st1">
			<path class="st2" d="M298,638.8c-81,2.2-162.4-29.4-220.7-85.7C19,496.7-15.5,416.5-16.1,335.4c-0.2-25.5,2.8-51.1,10.6-75.4
				c12.3-38.1,35.8-71.4,59.3-103.8c26.4-36.5,53.9-73.4,91-98.9c38.6-26.5,85.3-39,131.7-44.6C346,4.2,417.1,10,484.2,29.5
				C512.3,37.7,540,48.4,564,65c26.9,18.6,48.3,44.1,68,70.2c33,43.7,62.5,91.1,76.8,144c14.2,52.8,11.7,112-16.4,158.9
				C647.3,513.5,600.4,656.8,298,638.8"/>
			<path class="st3" d="M559.6,314c-28.7-11-43.1,4.2-43.1,4.2c-3.2-0.6-6.1-1.7-8.8-3.1c-11.1-10.7-11.5-31.2-17.3-46.6
				c-3.2-8.6-7.9-16.5-13.2-23.9c-12.1-16.8-27.9-31-45.9-41.2c0,0-0.1,0-0.1-0.1c-3-2-6.6-3.7-10.5-5.3c-10.5-4.8-21.6-8.2-33.1-10
				l0.5,1.6c-31.8-5.2-65.8-4.8-65.8-4.8s-66.7,87-34.6,146.9c32.1,60,103,76.8,118.2,70.9c15.2-5.9,50.7-21.1,63.3,11
				c12.7,32.1,28.7,27.9,28.7,27.9S588.3,324.9,559.6,314z"/>
			<path class="st3" d="M388.5,195c-3.4-11.7,2.6-24.8,12.5-31.8s23-8.5,34.9-6.4c12.6,2.3,25.4,9.4,29.7,21.5
				c4.2,11.8-0.7,24.9,1.3,37.2l-19.7,6.3l32.9,37.2l1.4-10.1c8.9-17.3,14.3-36.4,15.9-55.8c0.8-9.2,0.6-18.8-3-27.3
				c-2.5-5.9-6.6-11-11.1-15.5c-24.8-25.2-66.9-33.8-97.1-15.4c-10.7,6.5-20.1,17.5-19.5,30"/>
			<path class="st4" d="M365.3,153.9c17.7,8.3,35.8,17.9,47.3,33.7c11.3,15.6,14.9,35.2,18.3,54.2c1,5.9,2,12.2-0.9,17.4
				c-4-3.7-8-7.4-12-11.2c2.1,14.4-6.8,29.7-20.4,35"/>
			<path class="st5" d="M471.6,573.2L324,647.3c0,0-126.7-35.5-129.2-160.9s32.9-155.2,32.9-155.2l27.5,5.1l59.5,11
				c0.4,9,2.9,17.8,7.3,25.7c2.1,3.8,4.6,7.3,7.4,10.5c10.5,11.8,32,21,28.8,36.4c-3.8,18.4-1.3,48.8-1.3,48.8s32.3,15.2,60.2,24.7
				C445,502.9,471.6,573.2,471.6,573.2z"/>
			<path class="st6" d="M322,374.6c-4.8,0.4-12.3,0.7-23.1,0.1c-21.6-1.1-42.6-35.2-43.6-36.8l59.5,11
				C315.1,357.9,317.7,366.7,322,374.6z"/>
			<path class="st6" d="M358.8,328.8c-0.9,0.2-1.5,0.3-1.5,0.3l0.8,6.3l-5.9,1.3l2.1,5.5l-8.5,1.7c0,0-6.7,23.7-67.6,0
				c-1.6-0.6-3.1-1.3-4.5-1.9c-53.4-24.3-1.4-71.5-1.4-71.5l101.3,23.4c0.1,0.1,0.2,0.3,0.3,0.4l0,0c-1.9,5.1-2.3,10.6-0.2,15.8
				c1.1,2.8,2.9,5.1,4.6,7.5c1.5,2.1,2.5,4,2.7,5.8C377.4,324.5,363.4,327.8,358.8,328.8z"/>
			<path class="st6" d="M223.7,325c-18.4-24.2-32.4-52.3-35.9-82.5c-3.4-30.2,4.8-62.4,25.8-84.3c33.8-35.3,94.2-35,134.7-7.6
				c25.7,17.4,45.5,45.9,46.1,76.9c0.4,23.5-9.7,45.7-20.3,66.7c-5,9.9-10.4,20-18.5,27.7c-15.4,14.6-38,18.1-59.1,19.6
				c-15.1,1-30.5,1.3-44.9-3.5c-14.3-4.8-27.5-15.4-31.5-30L223.7,325z"/>
			<path class="st4" d="M230.6,228.1c0,0,69.2-11.8,52.4,1.7c-16.9,13.5-25.3,53.2-19.5,69.6c9,25.4,35,41.4,46.2,65.9
				c12.3,27.1,3.8,62.1-19.5,80.5c-9.1,6.7-63.2,16.1-63.2,16.1l-31-156.1L230.6,228.1z"/>
			<path class="st7" d="M486.8,434.7c-6.9-18.5-5.3-39.7,2.1-58s20.1-34,34.8-46.8c6.3-5.5,13.1-10.5,20.9-13
				c7.8-2.5,16.9-2.1,23.6,2.8c6.2,4.6,9.6,12.5,10.5,20.3s-0.4,15.8-1.8,23.5c-1.4,7.9-3,15.9-6.4,23.1
				c-4.1,8.7-10.7,15.9-17.2,22.9c-8.2,8.9-16.6,17.9-26.7,24.3c-10.2,6.4-22.6,10-34.2,7.1"/>
			<path class="st4" d="M499.7,641.1c-18.4,28-48.9,47.8-82,53.4c-33.1,5.5-68.3-3.3-94.9-23.8c-13.6-10.5-25.2-24.4-30.5-40.8
				c-5.3-16.4-3.6-35.5,6.9-49.3c5.8-7.6,14.5-13.5,24-13.6s19.3,7,20.2,16.4c-3.2-7.1-14.7-6.7-19.4-0.5
				c-4.7,6.2-3.8,15.2-0.2,22.1c7.4,14.2,25.3,21.9,40.6,17.6s26.6-20.3,25.4-36.3c-0.8-10.8-6.5-20.6-9.1-31.2
				c-4.2-17.1,1-36.7,14.5-48c13.5-11.3,35.1-12.5,48.7-1.3c15,12.4,21.3,38.1,40.8,39.3c15.9,1,26.3-16.1,31.1-31.3
				c12.9-40.7,10.1-90.7-21.8-119.1c0,0-10.1-42.8,32.5-45.7c29.1-2,59.6,17.4,62.1,46.5c2,23.5-11.8,47.9-3.2,69.8
				c6.3,16.2,24.7,26.2,42,24.7s33-13.2,41.3-28.5c5.5-10.2,8-22.7,3.9-33.5c-4.1-10.9-16.2-19-27.4-16.2
				c17.5-5.4,38.1,2.4,47.6,18.1c7.5,12.3,8.1,27.6,5.9,41.8c-3.7,24.8-15.9,49-36.1,63.9c-20.2,14.9-48.7,19.3-71.1,7.9"/>
			<g>
				<path class="st8" d="M578.4,531.4c-1.2-2.2-2.4-4.4-3.6-6.7c-0.1-0.2-0.3,0-0.3,0.1c1.2,2.2,2.4,4.4,3.6,6.6
					C578.3,531.6,578.4,531.5,578.4,531.4L578.4,531.4z"/>
			</g>
			<g>
				<path class="st8" d="M570.2,494.1c-1.5-3.5-3.1-6.9-5-10.1c-0.1-0.3-0.5,0-0.4,0.2c1.5,3.5,3.2,6.9,5.1,10.1
					C570,494.5,570.2,494.3,570.2,494.1L570.2,494.1z"/>
			</g>
			<path class="st4" d="M530.9,396.7c18.8,2.7,31.8,20.9,36.4,39.3c4.7,18.4,3.3,37.7,5.9,56.5c2.6,18.8,10.6,38.6,27.4,47.3
				c8,4.1,17.2,5.3,25.6,8.7c27,10.8,40.7,44.9,32,72.6c-8.7,27.7-36.4,47.3-65.4,50.1c-28.9,2.9-58.2-9.3-79.7-28.9"/>
			<g>
				<path class="st9" d="M305.6,278.5c7.6,13.7,30.6,20.1,45,15.3c2-0.7,2.1-3.6,0-4.2c-6.7-1.8-14.1-0.3-21.1-1.3
					c-8.8-1.1-16-4.8-22.1-11.2C306.5,276.1,305,277.3,305.6,278.5L305.6,278.5z"/>
			</g>
			<path class="st9" d="M309.6,237.5c19.4-6.7,42.7,0.7,54.7,17.3c1.6,2.2,2.7,6,0.2,7.3L309.6,237.5z"/>
			<path class="st4" d="M200.9,157.7c-8.3,6-18.3,9.7-28.5,10.4c-3.9,0.3-8,0.1-11.2-2c-3.1-2-4.9-5.5-6.6-8.8
				c-3.6-7.3-6.9-15.3-5.5-23.3c1.9-10.2,10.9-17.3,19.4-23.2c8.2-5.7,18.6-11.3,27.6-7c8.2,4,10.7,14.3,11.2,23.4
				c0.7,13.4-2.3,29-14.1,35.6"/>
			<path class="st4" d="M226,241.3c32.9,14.4,87.8-8.4,87.8-8.4l-9.3,21.1c0,0,65-6.8,76-45.6s20.3-40.5-60-75.2
				c-80.2-34.6-119.1,16-125.8,34.7c-19.2,53.2-18.9,112.4-12.3,168.6c2.3,19.7-2,22.2-30.6,58.2c-21.7,27.3-16.5,59.9,41.3,73.6"/>
			<path class="st6" d="M384.2,424l0.1-0.8c-1.2-0.5-2.5-0.7-3.7-0.9l-2.5-1.2l-3.4,1.2c-43.2,20.7-104.8,27.9-104.8,27.9
				s-1-63.2-12.7-94.6c0.3-0.7,0.6-1.4,0.9-2.1l-1.5,0.3c-8.3-21.5-21.6-37.8-43-38.1c-53.5-0.9-64.5,89.7-54.9,142.4
				c2.3,12.7,6.5,25.5,15.2,35.1c7.4,8.3,17.6,13.6,28,17.6c36.3,14,77.9,13.5,113.9-1.4c35.9-14.9,65.7-44,81.4-79.6L384.2,424z"/>
			<path class="st6" d="M372.5,423.3c5.3-0.8-2.4-10,1.6-23.8c0.5-3.7,6.6-4.9,5-21.6c12.4-0.1,3.4,19,7.2,19.4
				c3.7,0.4,7.8-10.2,10.5-16s10.2-15.8,12.6-14s-4.3,15.2-7.7,22.3c4.4-7.4,9.3-14.5,14.7-21.2c2.6-3.3,5.6-6.7,9.6-8.2
				c0.5-0.2,1-0.3,1.4,0s0.4,0.9,0.4,1.4c-0.7,12-15,32-13.5,33.3s16.9-27.8,19.8-25.7c2.9,2.1,0,7.5-1.3,11.1
				c-3.4,9-7.9,17.7-13.3,25.7c4.8-4.1,13.8-12.4,15.7-10.9c4.1,3.3-13.8,24.3-23.5,30.2c-3.4,2.1-7,3.8-10.5,5.5
				c-7.3,3.5-14.6,7.1-21.9,10.6"/>
			<path class="st10" d="M381.3,323.5c-3.9,1.1-17.9,4.3-22.4,5.3l-0.9-0.2c0,0-4.2-1.7-1.2-6.3
				C359.7,317.8,381.3,323.5,381.3,323.5z"/>
			<g>
				<path class="st3" d="M310.7,317.9c-1.7-1.1-2.8-3-3.7-4.8c-1.4-3.1,0.5-3.7,3.4-3.3c2.6,0.3,9.3,1.4,9.4,4.9
					c0.1,3.7-5.3,0.1-6.5-1.2c-0.7-0.7-1-1.8-1.6-2.5c-0.1-0.4-0.2-0.7-0.3-1.1c-1.6,1.4-1.8,2.1-0.6,2.1c0.8,0.7,1.6,0.2,2.4,1.3
					c0.7,1,0.6,2.3,0.5,3.4c1.2-1.6,2.5-3.2,3.7-4.8c-2.1,0.3-4.5-1.2-5.2-3.1c-1.6,2.1-3.2,4.2-4.8,6.2c1.6,0,2.5,0.7,3.8,1.7
					c3.6,2.7,8.9-2.6,6.3-6.3c-2.5-3.4-5.8-5-10-5.3c-3-0.2-5.8,3.3-4.8,6.2c2.8,7.5,9.5,11.3,17.4,10.2c2.3-0.3,3.4-2.8,3.7-4.8
					c0.8-7-3.9-13.4-10.9-14.7c-6.4-1.2-12.9,2.4-11.6,9.6c1,5.8,5.2,10.8,10.5,13.2c5.4,2.5,12.8,2.5,16.3-3.1
					c2.8-4.5,2.1-10.8-1.5-14.8c-4.1-4.6-10.9-6.2-16.9-5.8c-5.3,0.3-11.4,3.5-11.4,9.6c0,5.1,5.1,11.6,10.1,12.5
					C311.7,323.7,313.4,319.8,310.7,317.9L310.7,317.9z"/>
			</g>
			<g>
				<path class="st4" d="M271.2,241.5c-7.3,13.6-10.9,31.6-9,47.1c1.8,14.4,12.8,24.9,22,35.2c24.7,27.3,56.7,61.9,38.2,101.5
					c-1.2,2.6,2.3,4.7,3.9,2.3c17.3-26.8,4.1-58.3-13.8-81.1c-11.4-14.6-25.4-26.9-36.8-41.5c-14.4-18.4-6.9-41.8-2.1-62.5
					C273.9,241.1,272,240.2,271.2,241.5L271.2,241.5z"/>
			</g>
			<g>
				<path class="st4" d="M383.3,186.2c10.7,31.1-17.3,64.6-48.1,66.9c-1.9,0.1-1.9,2.7,0,3c33.1,4.3,66.7-40.7,49.8-70.5
					C384.4,184.7,383,185.2,383.3,186.2L383.3,186.2z"/>
			</g>
			<g>
				<path class="st4" d="M391.8,171.8c21.5,19.5,53.3,44.7,45.9,78.1c-0.3,1.3,1.6,2.3,2.3,0.9c7.3-15.3-1.8-33.1-10.1-46.3
					c-8.7-13.8-21.6-28.4-37.3-34C391.8,170.4,391.3,171.4,391.8,171.8L391.8,171.8z"/>
			</g>
			<g>
				<path class="st4" d="M195.4,166.3c-6.5,9.8-12.8,20-15.4,31.7c-2.9,12.6-1.7,25.4-0.6,38.1c1.2,13.9,2,27.8,1.4,41.7
					c-0.4,9.4-1.1,18.5-5.7,26.9c-3.4,6.2-8.4,11.9-12.9,17.3c-15.2,18.2-37.5,33-46.7,55.4c-7.8,18.9-7.6,42.8,4.5,59.8
					c1.3,1.8,4.9,0.8,4-1.7c-7.9-22.1-9.3-45.7,4.3-66c7.2-10.8,17.9-19,26.7-28.5c7.9-8.6,15.8-17.8,22.1-27.7
					c12.2-19.1,9.5-44.4,7.7-66c-1.1-13.1-3.6-26.4-2.6-39.7c1.1-14.8,7.4-27.9,14.4-40.7C197.2,166.2,195.9,165.5,195.4,166.3
					L195.4,166.3z"/>
			</g>
			<g>
				<path class="st4" d="M198.3,158.8c8.5-4,10.4-13.6,11.5-22.2c1.2-9,4.9-25.9-2.2-33.5c-4.5-4.9-12.1-4.5-17.3-0.9
					c-7.4,5.1-9.5,15-9.7,23.3c0,1.8,2.7,2.1,3.1,0.4c1.5-5.7,2.1-12,5.6-16.9c4.3-5.9,11.8-7.6,16.9-1.8c2.2,2.5,1.7,9.2,1.7,12.4
					c-0.3,12.2-0.6,29-11.1,37.3C195.5,157.7,197.1,159.3,198.3,158.8L198.3,158.8z"/>
			</g>
			<g>
				<path class="st4" d="M203.3,156.8c-10.5,1.8-19.9,7.7-30.7,7.5c-15.1-0.4-28.9-11.4-32.4-26.2c-1.9-8-1.5-17.2,5-23.1
					c6.7-6.1,16.5-9.6,24.6-3.8c9.2,6.6,16.4,15.9,25.6,22.6c1.2,0.9,2.4-1,1.5-2c-7.1-8-15.7-15.3-23.9-22.1
					c-4-3.3-7.9-5.5-13.2-5.1c-13.5,1.1-25.1,12.4-25,25.9c0.1,14.5,9.3,28.3,22.4,34.3c17.3,7.9,30.4-0.3,46.9-5.3
					C205.9,159.1,205.1,156.4,203.3,156.8L203.3,156.8z"/>
			</g>
			<g>
				<path class="st4" d="M198,155.3c15.7-7.9,30.4-21.4,30.3-40.1c-0.1-12.1-9.1-31.1-23.6-22.7c-1.2,0.7-0.4,2.8,1,2.3
					c21.8-7.4,21,25.7,15.2,36.2c-5.3,9.6-15.4,16-23.9,22.4C195.8,154.3,196.7,155.9,198,155.3L198,155.3z"/>
			</g>
			<g>
				<path class="st4" d="M343.3,148.4c9.4,4.5,16.4,12.6,25.7,17.5c8.5,4.5,18.3,4.8,27.3,7.9c22.1,7.6,37.1,23.7,48.6,43.3
					c0.6,1,2.4,0.4,2-0.8c-6.5-19.1-22.6-34.4-40.6-42.8c-10.5-4.9-22-5.5-32.5-9.8c-10.7-4.4-18.6-13.3-29.6-17.3
					C342.9,146,342.1,147.9,343.3,148.4L343.3,148.4z"/>
			</g>
			<g>
				<path class="st4" d="M182,299c-4.7,20.3-16.4,37.5-30.5,52.6c-11.4,12.2-25.8,23-30.3,39.9c-7.4,27.9-1.2,76.2,30.3,87.3
					c2,0.7,3-2.2,1.4-3.3c-17.3-11.5-25.6-27.2-27.8-47.8C123,407.8,124,388.5,138,373c20.2-22.4,42.3-41.6,47.2-73.1
					C185.5,297.8,182.5,296.9,182,299L182,299z"/>
			</g>
			<g>
				<path class="st10" d="M310.2,266.4c14.2-1.5,33.9,4.7,41,17.9c1,1.9,4.2,0.6,3.5-1.5c-5.3-16.5-29.9-21.9-44.8-18.3
					C308.8,264.7,309,266.5,310.2,266.4L310.2,266.4z"/>
			</g>
			<g>
				<path class="st6" d="M489.7,250.1c-4.7-1-9.7-1.2-14.3,0.1c-4.6,1.3-8.9,4.3-11.3,8.5c-0.2,0.4-0.4,0.8-0.3,1.2
					c0.2,0.7,1.2,0.9,2,0.9c4.2-0.1,8.5-0.2,12.7-0.3c5.2-0.1,10.6-0.3,15-2.9c0.7-0.4,1.4-0.9,1.6-1.7c0.2-1.2-1-2.2-2.1-2.9
					c-2.2-1.3-4.5-2.6-7-2.4"/>
				<path class="st6" d="M497.6,264.4c-0.3-2.1-2.9-2.8-5.1-3c-6.3-0.5-12.7,0-18.9,1.5c-2.1,0.5-4.6,2-3.9,4c0.3,0.8,1,1.3,1.7,1.7
					c3.8,2.1,8.2,2.1,12.5,2.1c2.5,0,5,0,7.4,0c2,0,4.3-0.1,5.8-1.4c1.5-1.4,1.4-4.5-0.6-4.9"/>
				<path class="st6" d="M492.2,269.5c-4.4,2.4-8.6,5.2-12.4,8.5c-2.3,2-4.6,4.5-4.4,7.5c8.1-0.6,16.5-1.2,23.5-5.2
					c1.7-1,3.4-2.3,3.9-4.2c0.5-2.4-1.4-4.9-3.6-5.8c-2.3-0.9-4.9-0.8-7.3-0.6"/>
			</g>
			<g>
				<path class="st7" d="M508.2,315.4c-20.4,6.3-39.1,37.7-39.4,58.2c0,2.2,3.4,3.3,4.4,1.2c4.9-10.5,8-21.4,14.4-31.3
					c6.4-9.7,15.8-16.4,22.5-25.7C511,316.7,509.5,315,508.2,315.4L508.2,315.4z"/>
			</g>
			<g>
				<path class="st7" d="M491.7,311.3c-8.6,4.2-17.9,13-18.7,23c-0.2,2.1,2.8,2.6,3.7,1c2.4-3.9,3.9-8,6.8-11.6
					c2.9-3.5,6.4-6.3,10.4-8.5C496.5,313.7,494.3,310,491.7,311.3L491.7,311.3z"/>
			</g>
			<g>
				<path class="st7" d="M448.2,226c-4.4,5.7-3.7,14.9,0.2,20.7c3.2,4.7,9,9.1,14.6,6.4c1.1-0.5,0.8-1.9,0-2.5
					c-3.5-2.5-7.6-3.5-10.1-7.3c-3.3-5.1-1.9-10.2-1.1-15.7C452.3,225.3,449.6,224.2,448.2,226L448.2,226z"/>
			</g>
			<g>
				<path class="st7" d="M399.3,322.4c7.5-21.2,22-33,39.4-46.1c1.2-0.9,0.2-2.6-1.2-2c-19,8.7-37.7,26.2-39.4,48
					C398.1,323,399.1,323,399.3,322.4L399.3,322.4z"/>
			</g>
			<g>
				<g>
					<path class="st5" d="M513.3,381.8c29.6,8.9,40.6,48.4,35.8,75.8c-0.1,0.6,0.8,0.9,1,0.3c3.9-15.9,2.7-32.2-3.8-47.2
						c-5.4-12.6-17.2-31-32.8-29.9C512.9,380.7,512.7,381.6,513.3,381.8L513.3,381.8z"/>
				</g>
				<g>
					<path class="st5" d="M558.3,496.8c-3.2,13.3,1.9,27.2,11.3,36.7c9.3,9.4,21,20.3,35.2,17c1.3-0.3,1-2.4-0.3-2.4
						c-23.3-0.3-47.6-27.6-45.2-51.2C559.4,496.4,558.5,496.3,558.3,496.8L558.3,496.8z"/>
				</g>
				<g>
					<path class="st5" d="M684.8,445.7c1.2,36.8-20.5,70.6-60.6,66.3c-1.4-0.2-1.6,2-0.3,2.4c17.3,5.2,36.5-3,48.1-16.2
						c12.7-14.5,16.7-34,14.1-52.7C685.9,444.8,684.8,445,684.8,445.7L684.8,445.7z"/>
				</g>
				<g>
					<path class="st5" d="M547.8,369.5c9.7,3.1,16.6,10.4,18.1,20.5c0.1,1,1.7,0.7,1.7-0.2c0.1-10.6-8.9-20.8-19.7-21
						C547.4,368.7,547.4,369.4,547.8,369.5L547.8,369.5z"/>
				</g>
				<g>
					<path class="st5" d="M530.6,647.2c-18.5-10.7-22.2-34.4-12.1-52.2c10.4-18.3,31.6-26.7,51.8-27.3c17.7-0.5,54.2,5.8,53.9,29.6
						c-0.1,13.8-15.5,19.2-26.8,20c-10.9,0.7-21.1-2.7-30.6-7.8c-1.4-0.8-3.2,1.3-1.8,2.4c15.5,12.3,49.2,15.9,60.2-5.1
						c12.7-24.4-22.8-38.3-40.2-40.9c-25.2-3.8-54.2,3.4-68.5,26c-12.4,19.6-8,45.6,13.3,56.7C530.7,649.2,531.6,647.7,530.6,647.2
						L530.6,647.2z"/>
				</g>
				<g>
					<path class="st5" d="M433.6,517.1c-23.7,2-6,37.1,2.4,46.1c10.8,11.6,24.1,19.1,31.7,33.7c8.3,16.1,10.3,34.3-1.5,49.1
						c-1.1,1.4,0.3,3.8,2,2.6c16.6-11.7,11.9-37,4.2-52.5c-5.7-11.5-14.4-19.6-24.1-27.8c-6.2-5.2-12-10.4-16.1-17.4
						c-3.5-6.1-13.6-28.9,1.4-30.5C435.7,520.1,435.7,516.9,433.6,517.1L433.6,517.1z"/>
				</g>
				<g>
					<path class="st5" d="M419.1,587.5c9.5,24.4,2.9,53.2-17.4,70.1c-9,7.5-20.2,12.5-31.8,14.3c-15.9,2.4-25.6-4.7-38.3-12.7
						c-2-1.3-4.1,1.6-2.5,3.3c20.8,21.2,51.4,17.7,73.6,0.5c23.4-18.2,31.3-49.4,17.6-75.9C420,586.3,418.8,586.8,419.1,587.5
						L419.1,587.5z"/>
				</g>
				<g>
					<path class="st5" d="M460,557.5c8.6,9,10.6,22.7,20.3,30.9c7.5,6.4,17.5,7.3,25.7,2.1c0.7-0.4,0.3-1.6-0.6-1.4
						c-13.6,3.9-23.9-1.3-31-13.1c-4.1-6.9-7.9-13.7-13.8-19.3C460.2,556.4,459.5,557.1,460,557.5L460,557.5z"/>
				</g>
			</g>
			<g>
				<path class="st4" d="M633.2,448.9c0.2,0.1,0.5,0.2,0.7,0.4c-0.4-0.4-0.7-0.7-1.1-1.1c0.1,0.2,0.2,0.4,0.3,0.6
					c0.6,1.1,1.8,1.7,3,1.7c0.1,0,0.2,0,0.4,0c1.3,0,2.5-0.8,3-2c0.6-1.3,0.2-2.5-0.7-3.6c-0.1-0.1-0.2-0.2-0.2-0.3
					c-0.8-1-2.2-1.1-3.4-0.9c-0.2,0-0.4,0.1-0.6,0.1c0.8,0.1,1.5,0.2,2.3,0.3c-0.2-0.1-0.5-0.2-0.7-0.4c-1.4-0.7-3.3-0.4-4.1,1.1
					C631.3,446.1,631.7,448.2,633.2,448.9L633.2,448.9z"/>
			</g>
			<g>
				<path class="st4" d="M653.9,383.4c0.1-0.1,0.2-0.2,0.3-0.4c0.5-0.5,0.5-1.3,0-1.8c-0.1-0.1-0.2-0.2-0.3-0.4
					c-1.1-1.1-3.1-0.3-3.1,1.3C650.8,383.6,652.8,384.5,653.9,383.4L653.9,383.4z"/>
			</g>
			<g>
				<path class="st4" d="M676.8,394.1c3.2,0,3.2-5,0-5C673.5,389,673.5,394.1,676.8,394.1L676.8,394.1z"/>
			</g>
			<g>
				<path class="st4" d="M660,360.1c2.9,0,2.9-4.5,0-4.5C657.1,355.7,657.1,360.1,660,360.1L660,360.1z"/>
			</g>
			<g>
				<path class="st4" d="M675.2,320.2c-0.3,0.1-0.6,0.2-1,0.3c-1.6,0.5-1.6,2.8,0,3.3c0.3,0.1,0.6,0.2,1,0.3
					c1.3,0.4,2.6-0.7,2.6-1.9C677.7,320.9,676.4,319.8,675.2,320.2L675.2,320.2z"/>
			</g>
			<g>
				<path class="st4" d="M449.3,479c0.2-0.1,0.4-0.1,0.6-0.1c2.2-0.4,2.6-3.3,1.3-4.7c-1.4-1.4-4.4-0.9-4.7,1.3
					c0,0.2-0.1,0.4-0.1,0.6C445.8,477.8,447.5,479.6,449.3,479L449.3,479z"/>
			</g>
			<g>
				<path class="st4" d="M472.8,499.3c3.4,0,3.4-5.3,0-5.3S469.4,499.3,472.8,499.3L472.8,499.3z"/>
			</g>
			<g>
				<path class="st4" d="M490.7,474.4c2.5,0,2.5-3.9,0-3.9S488.2,474.4,490.7,474.4L490.7,474.4z"/>
			</g>
			<g>
				<path class="st4" d="M179.5,592.8c-0.2,0-0.5,0-0.7-0.1c-1.5-0.1-2.8,1.4-2.8,2.8c0,1.4,1.3,2.9,2.8,2.8c0.2,0,0.5,0,0.7-0.1
					C183,597.9,183,593.1,179.5,592.8L179.5,592.8z"/>
			</g>
			<g>
				<path class="st4" d="M209,609.4c3,0,3-4.6,0-4.6C206,604.7,206,609.4,209,609.4L209,609.4z"/>
			</g>
			<g>
				<path class="st4" d="M263.6,578.9c4.3,0,4.3-6.7,0-6.7C259.3,572.2,259.3,578.9,263.6,578.9L263.6,578.9z"/>
			</g>
			<g>
				<path class="st4" d="M275.7,547.7c0.2-0.1,0.4-0.2,0.5-0.3c1.8-0.9,1.8-3.8,0-4.7c-0.2-0.1-0.4-0.2-0.5-0.3
					c-2-1-4.6,0.2-4.6,2.6C271.1,547.4,273.7,548.7,275.7,547.7L275.7,547.7z"/>
			</g>
			<g>
				<path class="st4" d="M290.3,561.6c0,0.2,0.1,0.4,0.1,0.7c0.6,2.6,4.8,2.6,5.3,0c0-0.2,0.1-0.4,0.1-0.7c0.4-1.8-0.8-3.7-2.8-3.7
					C291.1,557.9,289.9,559.7,290.3,561.6L290.3,561.6z"/>
			</g>
			<g>
				<path class="st4" d="M320.4,530.4c0.1,0,0.1-0.2,0-0.2S320.3,530.4,320.4,530.4L320.4,530.4z"/>
			</g>
			<g class="st11">
				<g>
					<path class="st3" d="M67.1,193.4c-0.4,0-0.7,0.1-1.1,0.1c-3.2,0.3-3.2,4.7,0,5c0.4,0,0.7,0.1,1.1,0.1c1.4,0.1,2.6-1.3,2.6-2.6
						S68.5,193.3,67.1,193.4L67.1,193.4z"/>
				</g>
				<g>
					<path class="st3" d="M92.3,225.9c3.3,0,3.3-5.1,0-5.1C89,220.8,89,225.9,92.3,225.9L92.3,225.9z"/>
				</g>
				<g>
					<path class="st3" d="M90.2,167.6c2.6,0,2.6-4,0-4C87.6,163.5,87.6,167.6,90.2,167.6L90.2,167.6z"/>
				</g>
				<g>
					<path class="st3" d="M39.7,233.7c-0.2,0-0.5,0-0.7,0c-2.9,0.1-2.9,4.4,0,4.5c0.2,0,0.5,0,0.7,0
						C42.7,238.4,42.7,233.5,39.7,233.7L39.7,233.7z"/>
				</g>
				<g>
					<path class="st3" d="M485.5,80.7c-0.2,0-0.4,0-0.7,0.1c-3.6,0.3-3.6,5.3,0,5.6c0.2,0,0.4,0,0.7,0.1
						C489.1,86.7,489.1,80.4,485.5,80.7L485.5,80.7z"/>
				</g>
				<g>
					<path class="st3" d="M514.9,71.8c1.6,0,3-1.4,3-3s-1.4-3-3-3s-3,1.4-3,3C511.9,70.5,513.2,71.8,514.9,71.8L514.9,71.8z"/>
				</g>
				<g>
					<path class="st3" d="M534.9,121.8c3.2,0,3.2-5,0-5S531.7,121.8,534.9,121.8L534.9,121.8z"/>
				</g>
				<g>
					<path class="st3" d="M558,96c2.5,0,2.5-3.9,0-3.9S555.5,96,558,96L558,96z"/>
				</g>
			</g>
		</g>
	</g>
	<g id="圖層_4">
		<g>
			<path class="st12" d="M726.3,442.5c-3.2,7.7-6.9,15.2-11.2,22.4c-26.8,44.8-54.2,112.9-132.5,159c-10.2,6-21.2,11.6-33.2,16.7
				c-0.4,0.2-0.7,0.3-1.1,0.5c-1.2,0.5-2.4,1-3.7,1.5c-0.9,0.4-1.9,0.8-2.8,1.1c-0.8,0.3-1.6,0.6-2.4,0.9c-1.5,0.6-3,1.2-4.5,1.7
				c-5.7,2.1-11.5,4.1-17.6,6c-8.8,2.8-18.1,5.3-27.9,7.6c-27.6,6.4-58.9,10.8-94.7,12.5c-18.8,0.9-38.8,1-60.2,0.3l-21.1-1
				l-50.3-2.4c-21.7-2.6-43-7.6-63.7-14.6c-30.1-10.2-58.8-24.9-84.6-43.5c-11.8-8.5-23-17.9-33.5-28C21.2,525.2-14.3,442.5-15,359
				c-0.2-26.3,2.9-52.7,11-77.7c12.7-39.3,36.9-73.6,61.1-107c27.2-37.6,55.5-75.6,93.7-101.9c39.8-27.3,87.9-40.1,135.8-46
				c40.1-4.9,80.8-5.2,121-0.9c31.5,3.3,62.6,9.4,93,18.3c4.9,1.4,9.9,2.9,14.8,4.5c1.4,0.5,2.8,0.9,4.2,1.4
				c22.3,7.6,44,17.3,63.3,30.7c15.7,10.9,29.6,24,42.4,38.3c9.8,10.9,18.9,22.4,27.7,34.1c14.7,19.4,28.7,39.6,41,60.6
				c15.7,26.7,28.8,54.7,37.2,84.5c0.3,1.1,0.6,2.2,0.9,3.3C744.5,347.5,744.4,398.5,726.3,442.5z"/>
			<g>
				<path class="st9" d="M403.8,670.2c-17.7,0.8-36.7,1-56.8,0.3l-20-0.9l-47.4-2.3c-20.4-2.5-40.6-7.1-60.1-13.7
					c70.2-63.8,88.5-181.8,88.5-184.7L403.8,670.2z"/>
				<path class="st9" d="M483.3,220.1c8.6-8.9,12.8-21.8,11.1-34.1c-2.4-16.9-15.7-31-31.5-37.6c-15.8-6.5-33.7-6.3-50.5-2.9
					c-9.1,1.9-18.3,4.9-24.9,11.3c-6.6,6.4-10,17.1-5.6,25.2l4.4,19"/>
				<g>
					<path class="st4" d="M272.7,336.7c-4.6,23.6-5.8,53.1-19.8,73.4c-12.2,17.7-26.7,32.4-34.8,52.8c-11.7,29.5-7.8,72.3,25.9,85.3
						c1.1,0.4,1.8-1.3,0.8-1.9c-37.9-22.7-32.6-69.6-11.9-102.3c9.6-15.1,23.9-27.9,30-44.9c6.9-19.4,8.6-41.8,10.5-62.2
						C273.4,336.4,272.7,336.3,272.7,336.7L272.7,336.7z"/>
				</g>
				<g>
					<path class="st4" d="M442,196.1c22.7,4.9,43.5,18.8,55,39.1c9.4,16.6,6.6,30.9-5.3,45.1c-8,9.5-16.9,17.6-27.1,24.7
						c-1.3,0.9-0.2,2.8,1.3,2.2c13.2-5.7,23.8-17,32.2-28.4c8.7-11.7,11.5-23.8,6-37.6c-10.2-25.7-35-43-62-46.5
						C441.4,194.5,441.2,195.9,442,196.1L442,196.1z"/>
				</g>
				<path class="st4" d="M467.4,288.9c15.7-1.5,29.8-14,33-29.5c3.5-17.1-5.7-35-19.4-46c-13.6-11-35.4-30.1-109-30.1
					c-49.1,0.7,25.9,66.8,25.9,66.8"/>
				<path class="st6" d="M493.2,658.4c-39.7,9.2-87.7,14-146.2,12.1l-20-0.9l1.5-275.7l90-31.2c0,0,0,14.3,0,26v4.3
					c0,6.8,0.6,13.6,1.7,20.3c5.3,31.6,22.8,61.2,48.9,79.9c3.1,2.2,6.4,4.4,8.4,7.6c2.4,4,2.5,8.9,2.5,13.5
					C480.1,562.6,484.5,610.9,493.2,658.4z"/>
				<path class="st9" d="M477.5,500.8c-2-3.3-5.3-5.4-8.4-7.6c-7.6-5.4-14.4-11.8-20.5-18.9c-14.3-2.1-28.4-5.5-41.6-10.8
					c-15.8-6.3-30.8-14.5-45.7-22.6c-7.6-4.1-15.3-8.1-22.9-12.3c-3.3-1.8-6.7-3.7-10.1-5.3l-1.4,246.3l20,0.9
					c58.5,1.9,106.5-2.9,146.2-12.1c-8.7-47.5-13.1-95.8-13.2-144.1C480,509.7,479.9,504.7,477.5,500.8z"/>
				<path class="st9" d="M470.6,322.8c4.8,17.8,28.6,25.9,45,17.7c16.5-8.3,24.6-28.6,22.2-46.9c4.9,24.9,8,52.7-5.7,74.1
					c-5.5,8.6-13.4,15.6-22.1,21.1c-21.1,13.6-50.3,18.8-70.9,4.4l-18.7-21.4L470.6,322.8z"/>
				<g>
					<path class="st6" d="M475.2,312.5L475.2,312.5c-1.6,11.3-3,20.3-4.3,27.6c-0.7,3.9-1.3,7.2-1.9,10.1
						c-2.5,12.6-3.9,16.8-3.9,16.8s1.3,23.9-62.1,21.5c-1.7,0-3.3-0.2-4.8-0.3c-56.8-5.3-24-65.3-24-65.3l100.5-10.7
						C474.8,312.3,475,312.4,475.2,312.5z"/>
					<path class="st6" d="M346.8,388.6c-24.6-16.3-46.5-37.8-59.2-64.4s-15.5-58.8-3.1-85.6c19.9-43.2,75.4-62.1,121.4-49.8
						c29.2,7.8,56.4,27.7,66.8,56c7.9,21.4,5.6,45.1,2.5,67.7c-1.5,10.7-3.2,21.7-8.2,31.3c-9.5,18.3-29.1,28.7-48.1,36.8
						c-13.5,5.7-27.6,10.9-42.3,11.1c-14.7,0.2-30.1-5.4-38.5-17.5L346.8,388.6z"/>
					<path class="st13" d="M491,337c-3.2,2.2-15.1,9.6-18.9,12l-0.9,0.1c0,0-4.4-0.3-3.1-5.4C469.4,338.7,491,337,491,337z"/>
					<path class="st13" d="M378,316.6c0,0-15.9-21.9-29.1-5.8c-13.1,16.1-0.1,42.2,22.8,42.6L378,316.6z"/>
				</g>
				<g>
					<g>
						<path class="st9" d="M365.2,319.7c11.7,10.5,33.9,8.5,46.1-0.1c1.5-1.1,1.2-4.2-1.1-3.9c-6.8,0.7-12.9,4.1-19.7,5.6
							c-8.5,1.8-16.3,0.7-24.1-3.2C365.5,317.4,364.2,318.8,365.2,319.7L365.2,319.7z"/>
					</g>
					<path class="st9" d="M417.8,286c-6.3-11.2-19.7-17.9-32.5-16.2c-10.9,1.5-20.3,8.3-28.1,16c5.2-4.4,12.3-5.5,19.1-5.5
						c4.2,0,8.4,0.4,12.5,0.9c9.1,0.9,18.1,1.8,27.2,2.7L417.8,286z"/>
					<g>
						<path class="st3" d="M382.7,354.4c-2-0.6-4.5-2.2-5.7-3.9c-1.8-2.6,1.6-3.4,3.6-3.7c1.7-0.3,10.5-1.3,9.6,2.7
							c-0.6,2.6-6.6,0.1-7.8-0.8c-0.1-0.1-1.8-2.1-1.9-2.1c-0.4-0.9-0.6-0.6-0.4,1c-0.6,1.5-0.2,1.9,1,1.1c2,0.8,3.1,0.6,3.7,3.3
							c0.7-1.8,1.5-3.7,2.2-5.5c-2.5,1.3-4.9,0.4-6.6-1.7c-0.7,2.7-1.4,5.3-2.1,8c1.6-0.5,2.4-0.3,4,0.2c5,1.6,7.5-5.5,3.4-8.1
							c-3.1-2-6.5-2.2-10-1.3c-3.7,1-4.3,5.3-2.1,8c4.5,5.5,12.2,6.5,18.3,3.3c2-1,2.7-3.5,2.2-5.5c-1.4-6.2-6.8-10.7-13.3-10.5
							c-6,0.2-12.3,4.9-9.7,11.4c4,9.8,23.9,15.7,28.1,3c1.7-5.2-0.8-11.2-5.4-13.9c-5.2-3.1-12-2.4-17.4-0.2
							c-5.2,2-10,7.3-7.3,13.2c2.2,4.8,8.5,8.2,13.5,7.5C385.6,359.4,385.1,355.1,382.7,354.4L382.7,354.4z"/>
					</g>
					<g>
						<path class="st10" d="M365.8,307.2c12.5-5.8,32.5-6.4,43.1,3.4c1.5,1.4,4.3-0.5,2.9-2.3c-10.1-13.5-34.3-10.8-47-2.7
							C363.8,306.2,364.7,307.7,365.8,307.2L365.8,307.2z"/>
					</g>
				</g>
				<g>
					<g>
						<path class="st9" d="M470.6,315.8c-4.3,3.2-8.2,4.6-13.4,2.5c-3.6-1.5-6.5-4.5-10.5-4.7c-1.6-0.1-2.6,1.9-1.8,3.2
							c2.6,4.6,10.2,7.1,15.4,7.1c5,0.1,9.4-2.2,11.8-6.6C472.6,316.4,471.5,315.1,470.6,315.8L470.6,315.8z"/>
					</g>
					<path class="st9" d="M442.5,287.1c3.5-10.1,10.9-16.1,17.9-14.6c6,1.3,11.2,7.5,15.5,14.4c-2.8-3.9-6.8-5-10.5-5
						c-2.3,0-4.6,0.4-6.9,0.8c-5,0.8-10,1.6-15,2.5L442.5,287.1z"/>
					<path class="st3" d="M470.9,340.1c-0.7,3.9-1.3,7.2-1.9,10.1c-1.6,2.1-3.8,3.8-6.4,3.7c-2,0.8-4.2,0.9-6.3,0.2
						c-4.4-1.4-6.4-5.9-6.1-10.3c0.2-4.2,2.3-8.5,6.3-10.3c4.1-1.8,9.4-0.3,12.3,2.9C469.8,337.6,470.5,338.8,470.9,340.1z"/>
					<g>
						<path class="st10" d="M472.2,304.8c-7.1-8.1-23.1-8.6-27.2,2.8c-0.8,2.1,2.3,3,3.4,1.4c3.1-4.2,6.1-5.9,11.5-6
							c4.1-0.1,7.8,0.8,11.2,3.3C471.9,306.9,472.8,305.5,472.2,304.8L472.2,304.8z"/>
					</g>
				</g>
				<g>
					<path class="st4" d="M273.4,262c3.8,15.6,5.4,31.1,2,46.9c-3.1,14.3-10.6,26-17.4,38.7c-12.7,23.6-17.2,51-18,77.5
						c-1.3,44.1,15.6,96,62.7,109.2c3.2,0.9,4.4-3.9,1.4-4.9c-53.8-17.3-63.4-78.8-56.9-127.6c1.8-13.2,4.5-26.4,9.3-38.9
						c4.9-12.6,13.1-23.5,18.4-35.8c8.9-20.6,10.5-45.2,2.4-66.2C276.3,258.5,272.7,259.4,273.4,262L273.4,262z"/>
				</g>
				<path class="st4" d="M303,292.4c32.2,12.7,68.7-1,98.5-18.7c13.4-7.9,26.7-17.1,35.2-30.2c8.4-13.1,10.9-31.1,2.4-44.2
					c-36.9-12.3-77.5-24.5-113.7-10.4c-13.6,5.3-25.7,14.1-34.9,25.4c0,0-6.2-11.9-12,30c-5.9,41.9,4.2,62-7.5,93.8
					s-30.2,85.5-14.2,121.5c15.9,36,47.8,60.3,47.8,60.3s101.6,40.3,94.3-38.5c-4.3-47.1-14.3-95-40-134.7
					c-9.9-15.3-22.7-32-18.5-49.7"/>
				<path class="st6" d="M321.8,660.6c0.3,0.3,0.7,0.5,1.1,0.8c23.5-2.7,47.1-10.2,67.3-22.7c-1.1-1.5-1.5-3.5-1.9-5.3
					c-5.6-32.9-5.1-66.5-8.5-99.7s-6.5-114-60-114c-12.9,0-28.5,40.4-30.2,65.4c-3.5,52.6,3.6,105.8,20.7,155.6
					C312.9,648.1,315.9,655.7,321.8,660.6z"/>
				<g>
					<path class="st10" d="M438.3,313.2c-1,4.5-1.1,8.8-0.5,13.3c0.7,5,6.2,17.4-2.8,17.7c-2.4,0.1-3.6,3.5-1.3,4.8
						c5.2,2.8,11.7-0.7,12.9-6.5c0.9-4.2-1.4-8.7-2.4-12.7c-1.4-5.5-2-11.1-3.2-16.6C440.7,311.9,438.6,311.9,438.3,313.2
						L438.3,313.2z"/>
				</g>
				<path class="st10" d="M420.2,413.2c-7.9-2.2-20.6-9.4-34.6-31.6c0.5,0.4,8.7,7.7,32.9,7v4.3
					C418.5,399.7,419.1,406.5,420.2,413.2z"/>
				<g>
					<path class="st9" d="M247.3,311.2c15.8-7.7,34.9-9.7,51-2.8c16.2,6.9,28.4,23.5,27.9,41.1c-0.3,10.4-4.8,20.2-10.9,28.6
						C299.5,400,273,413,246.1,415.4S192,410.5,168,398c-15.8-8.3-30.9-19.2-40.4-34.3c-7-11.2-10.6-24.2-13.6-37.1
						c-3.3-14.2-6-28.7-5.4-43.2c0.6-15.6,4.9-30.9,11.3-45.1c18-40.5,53.3-73.3,95.7-86.3c42.3-13,91-5.1,125.9,22.1
						c11.1,8.7,21.5,20.9,20.6,35c0,0-29.8,62.8-88.6,50.7c-15.2-3.1-28.5-11.8-43.2-6.9c-7.7,2.6-15.1,6.3-21,11.9
						c-9.3,8.8-14.2,21.7-14.5,34.5s3.6,25.5,9.9,36.6c7.5,13.4,19.1,25.4,34,29.2c14.9,3.8,32.9-2.9,38.4-17.3
						c3.3-8.6,1.5-18.9-4.4-25.9s-15.8-10.5-24.8-8.7"/>
					<g>
						<path class="st14" d="M329.8,206.9c-14.3-34.3-63.9-36.7-94.4-29.2c-37.5,9.3-72.8,36.1-88.2,72.1c-1,2.4,2.3,4.6,3.6,2.1
							c17.1-32.5,44.4-57.5,80-68.2c17.2-5.1,35.6-6.8,53.3-3.4c18.6,3.6,32.3,12.8,43.9,27.5C328.6,208.8,330.2,207.9,329.8,206.9
							L329.8,206.9z"/>
					</g>
				</g>
				<g>
					<path class="st4" d="M335.7,295.5c-4.4,15,4.4,30.6,13.1,42.3c10.6,14.3,22.7,27.2,32.3,42.2c22,34.5,30.3,72.5,21.3,112.7
						c-0.3,1.3,1.7,2.4,2.4,1c14.2-32.2,6.1-69.9-9.4-100.1c-8-15.6-18.2-29.9-29.4-43.4c-6.9-8.3-14.2-16.3-19.7-25.6
						c-5.4-9.3-7.3-18.6-8.9-29C337.3,294.6,335.9,294.8,335.7,295.5L335.7,295.5z"/>
				</g>
				<g>
					<path class="st4" d="M387.7,188.8c18.9,2.2,39.8,4.9,51.8,21.7c14,19.6,3.2,37.3-10.9,52.6c-26.3,28.4-58.3,51-98.8,47.5
						c-1.1-0.1-1.3,1.7-0.3,2c44.2,11.7,88.2-24.5,112.8-57.8c11.5-15.5,11.8-34.2-0.4-49.6c-12.7-16-34.6-21.7-54.2-19.2
						C385.9,186.2,385.9,188.6,387.7,188.8L387.7,188.8z"/>
				</g>
				<g>
					<path class="st4" d="M425,249.3c-12.5,13.1-26.2,26.8-41.5,36.7c-16.4,10.6-34.9,10.5-53.7,11.9c-0.9,0.1-0.9,1.4,0,1.4
						c17.4,0.7,36.3-0.7,51.7-9.8c16.7-9.9,30.8-25.8,43.7-40C425.3,249.3,425.1,249.2,425,249.3L425,249.3z"/>
				</g>
				<g>
					<path class="st14" d="M402.9,158.4c11.5,3.5,17.1,14.4,18.5,25.6c0.1,0.9,1.4,1.2,1.7,0.2c4-13.3-6.9-26-19.2-29.5
						C401.6,154.2,400.6,157.7,402.9,158.4L402.9,158.4z"/>
				</g>
				<path class="st10" d="M422.8,362.1c0.6,0.6,7,7.9,14.7,8.1c7.7,0.1,8-8.6,8-8.6L422.8,362.1z"/>
				<path class="st15" d="M422.8,362.1c0,0,11.7-5.6,11.7-5.2c0,0.5,3.2,2.5,3.2,2.5l4.4-2.8l3.5,4.9
					C445.6,361.5,435.2,364.4,422.8,362.1z"/>
				<g>
					<path class="st14" d="M147.2,316.6c-2.5,32.9,21.9,70.8,56.6,72.7c0.6,0,0.8-1,0.1-1.1c-16-3-29.8-12.6-38.7-26.2
						c-9.3-14.3-11.3-29.9-16.1-45.7C148.8,315.2,147.3,315.5,147.2,316.6L147.2,316.6z"/>
				</g>
				<g>
					<path class="st14" d="M264,313.6c10.7,1.3,21.7,6,27.7,15.4c5.9,9.2,4.2,20.2,4.1,30.5c0,1.9,2.8,2.3,3.3,0.4
						c7.7-26.7-8.1-47.6-35-49.4C262.1,310.5,262.2,313.4,264,313.6L264,313.6z"/>
				</g>
				<g>
					<path class="st14" d="M535.7,318.8c-3.3,11.2-7.8,23.3-16.9,31.2c-9.9,8.6-22,8.3-34,11.4c-2.3,0.6-1.6,3.6,0.5,3.9
						c29.8,3.2,47.3-19.6,52.7-45.8C538.3,317.9,536.1,317.3,535.7,318.8L535.7,318.8z"/>
				</g>
				<g>
					<path class="st14" d="M432.2,164.4c12.6-4,25.4-7.2,37.5,0c0.7,0.4,1.6-0.6,0.9-1.2c-11.4-9.7-26.5-5.6-39-0.3
						C430.7,163.2,431.4,164.7,432.2,164.4L432.2,164.4z"/>
				</g>
				<g>
					<path class="st14" d="M439.6,177c12.4-3.8,23.3-1.5,34.1,5.4c0.9,0.5,1.8-0.7,1.1-1.4c-9.3-9.2-24.2-10.8-35.8-5.5
						C438.1,175.9,438.7,177.2,439.6,177L439.6,177z"/>
				</g>
				<g>
					<path class="st14" d="M454.2,187.5c3.4-0.6,6.6-0.1,10,0.7c0.5,0.1,0.9-0.7,0.4-0.9c-3.4-1.6-7.1-1.5-10.6-0.6
						C453.5,186.9,453.7,187.6,454.2,187.5L454.2,187.5z"/>
				</g>
				<g>
					<path class="st14" d="M316.8,183.8c2.9-4.2,6.1-8.1,9.4-12c0.3-0.4-0.2-1-0.6-0.6c-3.8,3.5-7,7.7-9.6,12.2
						C315.7,183.8,316.5,184.2,316.8,183.8L316.8,183.8z"/>
				</g>
				<g>
					<path class="st14" d="M247.5,150.1c-2.9,4.9-4.7,12.5-3.3,18.2c0.3,1.3,2.3,1.3,2.6,0c0.7-2.8,0.7-5.7,1.1-8.5
						c0.4-3.1,1.1-6.1,1.4-9.2C249.5,149.5,248,149.2,247.5,150.1L247.5,150.1z"/>
				</g>
				<g>
					<path class="st14" d="M274.9,155.4c-1.6,4.2-2.5,8.5-2,13c0.1,1.1,1.6,1.1,1.7,0c0.3-4.2,0.8-8.5,2.2-12.5
						C277.1,154.7,275.3,154.2,274.9,155.4L274.9,155.4z"/>
				</g>
				<g>
					<path class="st14" d="M193,177.6c-0.2,1.6-0.2,3.3-0.2,4.9c0,1.5,0,3.1,0.7,4.4c0.5,1,1.9,0.7,2.2-0.3c0.4-1.2,0.2-2.5,0.3-3.8
						c0.1-1.5,0.4-2.8,0.6-4.2C196.9,176.2,193.3,175.2,193,177.6L193,177.6z"/>
				</g>
				<g>
					<path class="st14" d="M175.8,188.3c-0.1,3.8,0.3,8,2.5,11.2c0.5,0.7,1.9,0.6,1.8-0.5c-0.4-3.6-1.5-7.1-1.7-10.7
						C178.4,186.6,175.8,186.6,175.8,188.3L175.8,188.3z"/>
				</g>
				<g>
					<path class="st14" d="M291.3,315.8c1-0.8,2.1-1.6,3.2-2.3c1-0.6,2.2-1.4,3-2.3c0.6-0.7,0.2-1.7-0.7-1.8c-1.4-0.1-3,0.5-4.2,1.1
						c-1.4,0.7-2.6,1.6-3.7,2.7C287.2,314.9,289.6,317.1,291.3,315.8L291.3,315.8z"/>
				</g>
				<g>
					<path class="st14" d="M300.6,326.1c1.8-1.3,4.1-2.5,5.4-4.3c0.7-0.9-0.4-2.1-1.4-1.8c-2,0.6-3.8,2.3-5.6,3.4
						C297.3,324.5,299,327.3,300.6,326.1L300.6,326.1z"/>
				</g>
				<g>
					<path class="st14" d="M309.8,337.3c2.5-2.2,5.5-3.3,8.4-4.6c1.1-0.5,0.4-2-0.6-2.1c-3.9-0.2-7.4,1.8-10.3,4.3
						C305.7,336.3,308.1,338.8,309.8,337.3L309.8,337.3z"/>
				</g>
				<g>
					<path class="st14" d="M310.8,352.2c1.4-0.6,2.7-1.3,4.1-1.9c1.3-0.6,2.8-1,3.7-2.1c0.7-0.9,0.3-2.3-1-2.3
						c-1.5,0-2.8,0.9-4.1,1.5c-1.5,0.7-2.9,1.3-4.4,2C307.2,350.2,308.9,353,310.8,352.2L310.8,352.2z"/>
				</g>
				<g>
					<path class="st14" d="M506.1,368.7c-0.2,1.5,1.2,3,2,4.2c0.8,1.3,2,2.8,3.4,3.3c0.9,0.3,1.8-0.5,1.8-1.4
						c-0.1-1.6-1.3-3.1-2.2-4.2c-0.9-1.1-2-2.8-3.5-3C506.7,367.5,506.2,367.9,506.1,368.7L506.1,368.7z"/>
				</g>
				<g>
					<path class="st14" d="M517.5,363.6c0.3,2.8,2,5.4,4.9,5.9c0.7,0.1,1.4-0.1,1.8-0.7c0.2-0.3,0.2-0.5,0.2-0.8
						c0-0.6-0.3-1.1-0.8-1.4c-1.3-0.8-2.4-1.9-2.7-3.4C520.6,361.2,517.3,361.6,517.5,363.6L517.5,363.6z"/>
				</g>
				<g>
					<path class="st14" d="M527.9,356.7c0.5,0.5,0.9,0.9,1.5,1.2c0.6,0.2,1.3-0.5,1.1-1.1c-0.2-0.7-0.6-1.1-1.1-1.6
						C528.5,354.2,526.9,355.8,527.9,356.7L527.9,356.7z"/>
				</g>
				<path class="st6" d="M322.9,661.4c64.4,28.2,166.3-71.2,166.3-71.2l-12.9-16.4l-157.4,41.6L322.9,661.4z"/>
				<path class="st6" d="M474.1,574c4.4,2.8,4.6-8.9,16.3-16.5c2.8-2.4,7.9,0.6,17.4-12.7c9.2,7.8-9.6,16.2-7.1,18.8
					c2.5,2.7,12.2-2.5,17.9-5.1s17.6-5.1,18.2-2.3s-12.8,8.5-19.9,11.5c8-2.6,16.1-4.7,24.3-6.3c4.1-0.8,8.4-1.4,12.3,0.1
					c0.4,0.2,0.9,0.4,1,0.9s-0.3,0.9-0.6,1.2c-8.2,8.4-31.4,14-31.1,15.9s30.1-9.7,31-6.3c0.8,3.4-4.8,5.5-8,7.3
					c-8.3,4.5-17,8-26.1,10.5c6.2,0,18.1-0.3,18.4,2c0.9,5-25.6,9.1-36.4,7.3c-3.8-0.6-7.5-1.6-11.3-2.6c-7.6-2.1-15.2-4.1-22.9-6.2
					"/>
			</g>
			<g>
				<g>
					<path class="st4" d="M649.3,319.1c2.9,0,5.7-2.6,5.6-5.6c-0.1-3-2.4-5.6-5.6-5.6c-2.9,0-5.7,2.6-5.6,5.6
						C643.9,316.5,646.2,319.1,649.3,319.1L649.3,319.1z"/>
				</g>
				<g>
					<path class="st4" d="M697.4,328.6c3.6,0,3.6-5.7,0-5.7C693.7,323,693.7,328.6,697.4,328.6L697.4,328.6z"/>
				</g>
				<g>
					<path class="st4" d="M679.5,379.6c-0.2-1.2-0.1,0.5,0,0.7c0.1,0.5,0.6,1,1.1,1.1c0.2,0.1,1.9,0.1,0.7,0c1.2,0.2,2.3-0.1,3-1.2
						c0.6-1,0.4-2.4-0.4-3.2c-0.8-0.8-1.9-0.9-2.9-0.5C679.7,377,679.3,378.3,679.5,379.6L679.5,379.6z"/>
				</g>
				<g>
					<path class="st4" d="M45.2,394.6c-0.2-0.2-0.3-0.5-0.5-0.7c-1.2-1.9-3.8-1.9-5,0c-0.2,0.2-0.3,0.5-0.5,0.7
						c-1.4,2.2,0.4,5.2,3,5.2C44.7,399.7,46.6,396.8,45.2,394.6L45.2,394.6z"/>
				</g>
				<g>
					<path class="st4" d="M64.7,371.2c4.5,0,4.5-6.9,0-6.9C60.2,364.2,60.2,371.2,64.7,371.2L64.7,371.2z"/>
				</g>
				<g>
					<path class="st4" d="M93.9,419.2c0.1,0.3,0.3,0.5,0.4,0.8c0.8,1.5,3.3,1.5,4.1,0c0.1-0.3,0.3-0.5,0.4-0.8
						c0.9-1.9-0.2-4.3-2.4-4.3C94.1,414.9,93,417.3,93.9,419.2L93.9,419.2z"/>
				</g>
				<g>
					<path class="st4" d="M68.8,461.8c4.1,0,4.1-6.4,0-6.4C64.7,455.5,64.7,461.8,68.8,461.8L68.8,461.8z"/>
				</g>
				<g>
					<path class="st4" d="M393.4,97.8c-0.4-1-1.3-1.5-2.1-2.1c-0.8-0.6-2.3-0.6-3,0c-0.8,0.6-1.7,1.1-2.1,2.1
						c-0.6,1.4-0.8,2.8,0,4.3c0.8,1.3,2.2,2.1,3.6,2.1c1.5,0,2.9-0.8,3.6-2.1C394.2,100.6,394,99.2,393.4,97.8L393.4,97.8z"/>
				</g>
			</g>
		</g>
	</g>
</g>
<g id="圖層_2" class="st0">
	<g class="st1">
		<g>
			<g>
				<g>
					
						<radialGradient id="SVGID_1_" cx="469.9547" cy="213.3141" r="53.8344" gradientTransform="matrix(0.9634 0.2684 0.2684 -0.9634 -57.9089 575.0857)" gradientUnits="userSpaceOnUse">
						<stop  offset="9.890110e-02" style="stop-color:#FFFFFF"/>
						<stop  offset="0.3626" style="stop-color:#7A7A7A"/>
						<stop  offset="0.5714" style="stop-color:#2A2A2A"/>
						<stop  offset="0.6633" style="stop-color:#161616"/>
						<stop  offset="0.8265" style="stop-color:#000505"/>
						<stop  offset="0.9643" style="stop-color:#000000"/>
					</radialGradient>
					<path class="st16" d="M503.9,510.2c8-28.6-8.8-58.3-37.4-66.3c-28.6-7.9-58.3,8.8-66.3,37.5c-8,28.6,8.8,58.3,37.4,66.3
						C466.3,555.5,496,538.8,503.9,510.2z"/>
					<g>
						
							<radialGradient id="SVGID_00000068664198713707446900000018039648465996457145_" cx="2525.1221" cy="-10.6857" r="84.6416" gradientTransform="matrix(-2.628618e-02 0.1225 -1.1884 -0.2556 505.7579 183.6789)" gradientUnits="userSpaceOnUse">
							<stop  offset="0" style="stop-color:#FFFFFF"/>
							<stop  offset="0.102" style="stop-color:#D9D9D9"/>
							<stop  offset="0.1684" style="stop-color:#AAAAAA"/>
							<stop  offset="0.2551" style="stop-color:#7A7A7A"/>
							<stop  offset="0.4082" style="stop-color:#424242"/>
							<stop  offset="0.5153" style="stop-color:#2A2A2A"/>
							<stop  offset="0.6633" style="stop-color:#161616"/>
							<stop  offset="0.8265" style="stop-color:#000505"/>
							<stop  offset="0.9643" style="stop-color:#000000"/>
						</radialGradient>
						<path style="fill:url(#SVGID_00000068664198713707446900000018039648465996457145_);" d="M449.8,506.1
							c-55.6-11.9-99.6-26.3-98.4-32c1.2-5.7,47.3-0.7,102.8,11.3c55.6,12,99.6,26.3,98.4,32C551.4,523.1,505.4,518,449.8,506.1z"/>
						
							<radialGradient id="SVGID_00000124147227102529708080000000593770977906196643_" cx="416.9106" cy="282.5998" r="34.8803" gradientTransform="matrix(1.0807 1.5736 0.1626 -0.1117 -44.1195 -128.9578)" gradientUnits="userSpaceOnUse">
							<stop  offset="0" style="stop-color:#FFFFFF"/>
							<stop  offset="0.102" style="stop-color:#D9D9D9"/>
							<stop  offset="0.1684" style="stop-color:#AAAAAA"/>
							<stop  offset="0.2551" style="stop-color:#7A7A7A"/>
							<stop  offset="0.4082" style="stop-color:#424242"/>
							<stop  offset="0.5153" style="stop-color:#2A2A2A"/>
							<stop  offset="0.6633" style="stop-color:#161616"/>
							<stop  offset="0.8265" style="stop-color:#000505"/>
							<stop  offset="0.9643" style="stop-color:#000000"/>
						</radialGradient>
						<path style="fill:url(#SVGID_00000124147227102529708080000000593770977906196643_);" d="M490.1,550.4
							c3.2-2.2-11.2-28.5-32-58.8c-20.8-30.3-40.2-53.2-43.4-51c-3.2,2.1,11.2,28.5,32,58.8C467.6,529.7,487,552.6,490.1,550.4z"/>
						
							<radialGradient id="SVGID_00000052093885200541473550000007478623196757122451_" cx="344.5567" cy="1216.7876" r="34.9425" gradientTransform="matrix(-1.5351 1.2088 9.639181e-02 0.1225 864.0189 -69.9885)" gradientUnits="userSpaceOnUse">
							<stop  offset="0" style="stop-color:#FFFFFF"/>
							<stop  offset="0.102" style="stop-color:#D9D9D9"/>
							<stop  offset="0.1684" style="stop-color:#AAAAAA"/>
							<stop  offset="0.2551" style="stop-color:#7A7A7A"/>
							<stop  offset="0.4082" style="stop-color:#424242"/>
							<stop  offset="0.5153" style="stop-color:#2A2A2A"/>
							<stop  offset="0.6633" style="stop-color:#161616"/>
							<stop  offset="0.8265" style="stop-color:#000505"/>
							<stop  offset="0.9643" style="stop-color:#000000"/>
						</radialGradient>
						<path style="fill:url(#SVGID_00000052093885200541473550000007478623196757122451_);" d="M398.8,537.7
							c1.9,2.4,27.4-14.6,57-37.9c29.6-23.3,52-44.1,50.2-46.4c-1.9-2.4-27.3,14.6-56.9,37.9C419.4,514.6,397,535.4,398.8,537.7z"/>
					</g>
				</g>
				<g>
					
						<radialGradient id="SVGID_00000003817259736014329680000000291145966557933970_" cx="599.3669" cy="221.5854" r="19.0492" gradientTransform="matrix(0.5164 0.8563 -0.8563 0.5164 332.6368 -132.1521)" gradientUnits="userSpaceOnUse">
						<stop  offset="0.3242" style="stop-color:#FFFFFF"/>
						<stop  offset="0.5604" style="stop-color:#C6C6C6"/>
						<stop  offset="0.7308" style="stop-color:#6A6A6A"/>
						<stop  offset="0.8736" style="stop-color:#000505"/>
						<stop  offset="0.9643" style="stop-color:#000000"/>
					</radialGradient>
					<path style="fill:url(#SVGID_00000003817259736014329680000000291145966557933970_);" d="M462.2,511.8
						c-9,5.4-20.7,2.5-26.1-6.5c-5.4-9-2.6-20.7,6.5-26.2c9-5.4,20.7-2.5,26.2,6.5C474.1,494.7,471.2,506.4,462.2,511.8z"/>
				</g>
			</g>
			<g>
				<g>
					
						<radialGradient id="SVGID_00000137846770164542380530000011803856786033943231_" cx="498.2603" cy="86.0471" r="46.3515" gradientTransform="matrix(0.9634 0.2684 0.2684 -0.9634 -57.9089 575.0857)" gradientUnits="userSpaceOnUse">
						<stop  offset="9.890110e-02" style="stop-color:#FFFFFF"/>
						<stop  offset="0.3626" style="stop-color:#7A7A7A"/>
						<stop  offset="0.5714" style="stop-color:#2A2A2A"/>
						<stop  offset="0.6633" style="stop-color:#161616"/>
						<stop  offset="0.8265" style="stop-color:#000505"/>
						<stop  offset="0.9643" style="stop-color:#000000"/>
					</radialGradient>
					<path style="fill:url(#SVGID_00000137846770164542380530000011803856786033943231_);" d="M489.8,638.4
						c6.9-24.7-7.6-50.2-32.2-57.1c-24.6-6.8-50.2,7.6-57.1,32.3c-6.9,24.7,7.6,50.2,32.2,57.1C457.4,677.4,483,663.1,489.8,638.4z"
						/>
					<g>
						
							<radialGradient id="SVGID_00000079483611771553524350000015402738125745239433_" cx="3549.2449" cy="-28.0361" r="64.1954" gradientTransform="matrix(-2.628618e-02 0.1225 -1.1884 -0.2556 505.7579 183.6789)" gradientUnits="userSpaceOnUse">
							<stop  offset="0" style="stop-color:#FFFFFF"/>
							<stop  offset="0.102" style="stop-color:#D9D9D9"/>
							<stop  offset="0.1684" style="stop-color:#AAAAAA"/>
							<stop  offset="0.2551" style="stop-color:#7A7A7A"/>
							<stop  offset="0.4082" style="stop-color:#424242"/>
							<stop  offset="0.5153" style="stop-color:#2A2A2A"/>
							<stop  offset="0.6633" style="stop-color:#161616"/>
							<stop  offset="0.8265" style="stop-color:#000505"/>
							<stop  offset="0.9643" style="stop-color:#000000"/>
						</radialGradient>
						<path style="fill:url(#SVGID_00000079483611771553524350000015402738125745239433_);" d="M444.1,633.4
							c-42.1-9.1-75.5-19.9-74.6-24.3c0.9-4.3,35.8-0.5,78,8.6c42.1,9.1,75.5,19.9,74.6,24.3C521.1,646.3,486.2,642.5,444.1,633.4z"
							/>
						
							<radialGradient id="SVGID_00000062150695072069481020000010483144211974833286_" cx="471.0786" cy="-120.1273" r="30.0309" gradientTransform="matrix(1.0807 1.5736 0.1626 -0.1117 -44.1195 -128.9578)" gradientUnits="userSpaceOnUse">
							<stop  offset="0" style="stop-color:#FFFFFF"/>
							<stop  offset="0.102" style="stop-color:#D9D9D9"/>
							<stop  offset="0.1684" style="stop-color:#AAAAAA"/>
							<stop  offset="0.2551" style="stop-color:#7A7A7A"/>
							<stop  offset="0.4082" style="stop-color:#424242"/>
							<stop  offset="0.5153" style="stop-color:#2A2A2A"/>
							<stop  offset="0.6633" style="stop-color:#161616"/>
							<stop  offset="0.8265" style="stop-color:#000505"/>
							<stop  offset="0.9643" style="stop-color:#000000"/>
						</radialGradient>
						<path style="fill:url(#SVGID_00000062150695072069481020000010483144211974833286_);" d="M477.9,673.1
							c2.7-1.9-9.6-24.5-27.6-50.7c-17.9-26.1-34.7-45.8-37.3-43.9c-2.7,1.8,9.6,24.5,27.6,50.6
							C458.5,655.2,475.2,674.9,477.9,673.1z"/>
						
							<radialGradient id="SVGID_00000089546319443512660210000000472866431748139165_" cx="388.569" cy="1845.8275" r="30.0886" gradientTransform="matrix(-1.5351 1.2088 9.639181e-02 0.1225 864.0189 -69.9885)" gradientUnits="userSpaceOnUse">
							<stop  offset="0" style="stop-color:#FFFFFF"/>
							<stop  offset="0.102" style="stop-color:#D9D9D9"/>
							<stop  offset="0.1684" style="stop-color:#AAAAAA"/>
							<stop  offset="0.2551" style="stop-color:#7A7A7A"/>
							<stop  offset="0.4082" style="stop-color:#424242"/>
							<stop  offset="0.5153" style="stop-color:#2A2A2A"/>
							<stop  offset="0.6633" style="stop-color:#161616"/>
							<stop  offset="0.8265" style="stop-color:#000505"/>
							<stop  offset="0.9643" style="stop-color:#000000"/>
						</radialGradient>
						<path style="fill:url(#SVGID_00000089546319443512660210000000472866431748139165_);" d="M399.3,662.1
							c1.6,2.1,23.6-12.6,49-32.6c25.5-20,44.8-38,43.2-40c-1.6-2.1-23.5,12.6-49,32.6C417.1,642.1,397.7,660.1,399.3,662.1z"/>
					</g>
				</g>
				<g>
					
						<radialGradient id="SVGID_00000168088474844867240340000001358016420528490894_" cx="707.3161" cy="294.7676" r="16.4034" gradientTransform="matrix(0.5164 0.8563 -0.8563 0.5164 332.6368 -132.1521)" gradientUnits="userSpaceOnUse">
						<stop  offset="0.3242" style="stop-color:#FFFFFF"/>
						<stop  offset="0.5604" style="stop-color:#C6C6C6"/>
						<stop  offset="0.7308" style="stop-color:#6A6A6A"/>
						<stop  offset="0.8736" style="stop-color:#000505"/>
						<stop  offset="0.9643" style="stop-color:#000000"/>
					</radialGradient>
					<path style="fill:url(#SVGID_00000168088474844867240340000001358016420528490894_);" d="M453.9,639.8
						c-7.8,4.7-17.8,2.2-22.5-5.6c-4.7-7.8-2.2-17.8,5.6-22.5c7.8-4.7,17.8-2.2,22.5,5.6C464.2,625,461.7,635.1,453.9,639.8z"/>
				</g>
			</g>
			<g>
				
					<radialGradient id="SVGID_00000036242891206231003410000018402721220341958570_" cx="466.1059" cy="45.7612" r="31.403" gradientTransform="matrix(0.9634 0.2684 0.2684 -0.9634 -57.9089 575.0857)" gradientUnits="userSpaceOnUse">
					<stop  offset="9.890110e-02" style="stop-color:#FFFFFF"/>
					<stop  offset="0.3626" style="stop-color:#7A7A7A"/>
					<stop  offset="0.5714" style="stop-color:#2A2A2A"/>
					<stop  offset="0.6633" style="stop-color:#161616"/>
					<stop  offset="0.8265" style="stop-color:#000505"/>
					<stop  offset="0.9643" style="stop-color:#000000"/>
				</radialGradient>
				<path style="fill:url(#SVGID_00000036242891206231003410000018402721220341958570_);" d="M433.7,664.5
					c4.6-16.7-5.1-34-21.8-38.7c-16.7-4.6-34,5.1-38.7,21.8c-4.7,16.7,5.1,34,21.8,38.7C411.7,691,429,681.2,433.7,664.5z"/>
				<g>
					
						<radialGradient id="SVGID_00000052796282220236758690000007404359014016026764_" cx="711.5801" cy="346.2391" r="11.1138" gradientTransform="matrix(0.5164 0.8563 -0.8563 0.5164 332.6368 -132.1521)" gradientUnits="userSpaceOnUse">
						<stop  offset="0.3242" style="stop-color:#FFFFFF"/>
						<stop  offset="0.5604" style="stop-color:#C6C6C6"/>
						<stop  offset="0.7308" style="stop-color:#6A6A6A"/>
						<stop  offset="0.8736" style="stop-color:#000505"/>
						<stop  offset="0.9643" style="stop-color:#000000"/>
					</radialGradient>
					<path style="fill:url(#SVGID_00000052796282220236758690000007404359014016026764_);" d="M409.3,665.5
						c-5.3,3.2-12.1,1.5-15.2-3.8c-3.2-5.3-1.5-12.1,3.8-15.3c5.3-3.2,12.1-1.5,15.3,3.8C416.3,655.5,414.6,662.3,409.3,665.5z"/>
				</g>
			</g>
			<g>
				
					<radialGradient id="SVGID_00000016039285083166655550000015427791262645178502_" cx="359.4911" cy="406.3624" r="31.4057" gradientTransform="matrix(0.9634 0.2684 0.2684 -0.9634 -57.9089 575.0857)" gradientUnits="userSpaceOnUse">
					<stop  offset="9.890110e-02" style="stop-color:#FFFFFF"/>
					<stop  offset="0.3626" style="stop-color:#7A7A7A"/>
					<stop  offset="0.5714" style="stop-color:#2A2A2A"/>
					<stop  offset="0.6633" style="stop-color:#161616"/>
					<stop  offset="0.8265" style="stop-color:#000505"/>
					<stop  offset="0.9643" style="stop-color:#000000"/>
				</radialGradient>
				<path style="fill:url(#SVGID_00000016039285083166655550000015427791262645178502_);" d="M427.7,288.5
					c4.6-16.7-5.1-34-21.8-38.7c-16.7-4.6-34,5.1-38.7,21.8c-4.7,16.7,5.1,34,21.8,38.7C405.8,315,423.1,305.2,427.7,288.5z"/>
				<g>
					
						<radialGradient id="SVGID_00000064325093055651619730000007235571964562982530_" cx="386.5096" cy="157.1412" r="11.1164" gradientTransform="matrix(0.5164 0.8563 -0.8563 0.5164 332.6368 -132.1521)" gradientUnits="userSpaceOnUse">
						<stop  offset="0.3242" style="stop-color:#FFFFFF"/>
						<stop  offset="0.5604" style="stop-color:#C6C6C6"/>
						<stop  offset="0.7308" style="stop-color:#6A6A6A"/>
						<stop  offset="0.8736" style="stop-color:#000505"/>
						<stop  offset="0.9643" style="stop-color:#000000"/>
					</radialGradient>
					<path style="fill:url(#SVGID_00000064325093055651619730000007235571964562982530_);" d="M403.4,289.5
						c-5.3,3.2-12.1,1.5-15.3-3.8c-3.2-5.3-1.5-12.1,3.8-15.3c5.2-3.2,12.1-1.5,15.3,3.8C410.3,279.5,408.6,286.3,403.4,289.5z"/>
				</g>
			</g>
			<g>
				<g>
					
						<radialGradient id="SVGID_00000139278770835759718940000009367271224649184922_" cx="223.4047" cy="327.9026" r="35.0466" gradientTransform="matrix(0.9634 0.2684 0.2684 -0.9634 -57.9089 575.0857)" gradientUnits="userSpaceOnUse">
						<stop  offset="9.890110e-02" style="stop-color:#FFFFFF"/>
						<stop  offset="0.3626" style="stop-color:#7A7A7A"/>
						<stop  offset="0.5714" style="stop-color:#2A2A2A"/>
						<stop  offset="0.6633" style="stop-color:#161616"/>
						<stop  offset="0.8265" style="stop-color:#000505"/>
						<stop  offset="0.9643" style="stop-color:#000000"/>
					</radialGradient>
					<path style="fill:url(#SVGID_00000139278770835759718940000009367271224649184922_);" d="M279.1,328.6
						c5.2-18.6-5.7-38-24.4-43.2c-18.6-5.1-38,5.7-43.2,24.4c-5.2,18.6,5.7,38,24.3,43.2C254.6,358.1,273.9,347.2,279.1,328.6z"/>
					<g>
						
							<radialGradient id="SVGID_00000179641654199270409630000011704388073330232714_" cx="1492.0201" cy="185.8286" r="55.1328" gradientTransform="matrix(-2.628618e-02 0.1225 -1.1884 -0.2556 505.7579 183.6789)" gradientUnits="userSpaceOnUse">
							<stop  offset="0" style="stop-color:#FFFFFF"/>
							<stop  offset="0.102" style="stop-color:#D9D9D9"/>
							<stop  offset="0.1684" style="stop-color:#AAAAAA"/>
							<stop  offset="0.2551" style="stop-color:#7A7A7A"/>
							<stop  offset="0.4082" style="stop-color:#424242"/>
							<stop  offset="0.5153" style="stop-color:#2A2A2A"/>
							<stop  offset="0.6633" style="stop-color:#161616"/>
							<stop  offset="0.8265" style="stop-color:#000505"/>
							<stop  offset="0.9643" style="stop-color:#000000"/>
						</radialGradient>
						<path style="fill:url(#SVGID_00000179641654199270409630000011704388073330232714_);" d="M244.2,325.7
							c-36.2-7.8-64.9-17.1-64.1-20.8c0.8-3.7,30.8-0.4,67,7.3c36.2,7.8,64.9,17.1,64.1,20.8C310.4,336.8,280.4,333.5,244.2,325.7z"
							/>
						
							<radialGradient id="SVGID_00000056401586057199336070000001829342376362570929_" cx="279.3362" cy="-75.3434" r="22.7072" gradientTransform="matrix(1.0807 1.5736 0.1626 -0.1117 -44.1195 -128.9578)" gradientUnits="userSpaceOnUse">
							<stop  offset="0" style="stop-color:#FFFFFF"/>
							<stop  offset="0.102" style="stop-color:#D9D9D9"/>
							<stop  offset="0.1684" style="stop-color:#AAAAAA"/>
							<stop  offset="0.2551" style="stop-color:#7A7A7A"/>
							<stop  offset="0.4082" style="stop-color:#424242"/>
							<stop  offset="0.5153" style="stop-color:#2A2A2A"/>
							<stop  offset="0.6633" style="stop-color:#161616"/>
							<stop  offset="0.8265" style="stop-color:#000505"/>
							<stop  offset="0.9643" style="stop-color:#000000"/>
						</radialGradient>
						<path style="fill:url(#SVGID_00000056401586057199336070000001829342376362570929_);" d="M270.1,354.8
							c2.1-1.4-7.3-18.5-20.9-38.3c-13.6-19.7-26.2-34.6-28.2-33.2c-2.1,1.4,7.3,18.6,20.9,38.3C255.4,341.3,268,356.2,270.1,354.8z
							"/>
						
							<radialGradient id="SVGID_00000163069057844544465080000005319703511408909186_" cx="371.8801" cy="-494.1347" r="22.7459" gradientTransform="matrix(-1.5351 1.2088 9.639181e-02 0.1225 864.0189 -69.9885)" gradientUnits="userSpaceOnUse">
							<stop  offset="0" style="stop-color:#FFFFFF"/>
							<stop  offset="0.102" style="stop-color:#D9D9D9"/>
							<stop  offset="0.1684" style="stop-color:#AAAAAA"/>
							<stop  offset="0.2551" style="stop-color:#7A7A7A"/>
							<stop  offset="0.4082" style="stop-color:#424242"/>
							<stop  offset="0.5153" style="stop-color:#2A2A2A"/>
							<stop  offset="0.6633" style="stop-color:#161616"/>
							<stop  offset="0.8265" style="stop-color:#000505"/>
							<stop  offset="0.9643" style="stop-color:#000000"/>
						</radialGradient>
						<path style="fill:url(#SVGID_00000163069057844544465080000005319703511408909186_);" d="M210.6,346.5
							c1.2,1.6,17.8-9.5,37.1-24.7c19.3-15.2,33.9-28.7,32.7-30.2c-1.2-1.6-17.8,9.5-37.1,24.7C224.1,331.4,209.4,345,210.6,346.5z"
							/>
					</g>
				</g>
				<g>
					
						<radialGradient id="SVGID_00000135654281168197649270000000277401307731249077_" cx="341.3911" cy="307.5963" r="12.403" gradientTransform="matrix(0.5164 0.8563 -0.8563 0.5164 332.6368 -132.1521)" gradientUnits="userSpaceOnUse">
						<stop  offset="0.3242" style="stop-color:#FFFFFF"/>
						<stop  offset="0.5604" style="stop-color:#C6C6C6"/>
						<stop  offset="0.7308" style="stop-color:#6A6A6A"/>
						<stop  offset="0.8736" style="stop-color:#000505"/>
						<stop  offset="0.9643" style="stop-color:#000000"/>
					</radialGradient>
					<path style="fill:url(#SVGID_00000135654281168197649270000000277401307731249077_);" d="M251.9,329.7
						c-5.9,3.5-13.5,1.6-17-4.2c-3.5-5.9-1.7-13.5,4.2-17c5.9-3.5,13.5-1.7,17,4.2C259.7,318.5,257.8,326.1,251.9,329.7z"/>
				</g>
			</g>
			<g>
				<g>
					
						<radialGradient id="SVGID_00000043430208263434561460000009260581213076783509_" cx="165.1764" cy="408.0852" r="35.0458" gradientTransform="matrix(0.9634 0.2684 0.2684 -0.9634 -57.9089 575.0857)" gradientUnits="userSpaceOnUse">
						<stop  offset="9.890110e-02" style="stop-color:#FFFFFF"/>
						<stop  offset="0.3626" style="stop-color:#7A7A7A"/>
						<stop  offset="0.5714" style="stop-color:#2A2A2A"/>
						<stop  offset="0.6633" style="stop-color:#161616"/>
						<stop  offset="0.8265" style="stop-color:#000505"/>
						<stop  offset="0.9643" style="stop-color:#000000"/>
					</radialGradient>
					<path style="fill:url(#SVGID_00000043430208263434561460000009260581213076783509_);" d="M244.5,235.7
						c5.2-18.6-5.7-38-24.4-43.2c-18.6-5.1-38,5.7-43.1,24.4c-5.2,18.6,5.7,38,24.3,43.2C220,265.2,239.3,254.3,244.5,235.7z"/>
					<g>
						
							<radialGradient id="SVGID_00000178913746265457533200000007128813094218630812_" cx="827.6544" cy="229.933" r="55.1321" gradientTransform="matrix(-2.628618e-02 0.1225 -1.1884 -0.2556 505.7579 183.6789)" gradientUnits="userSpaceOnUse">
							<stop  offset="0" style="stop-color:#FFFFFF"/>
							<stop  offset="0.102" style="stop-color:#D9D9D9"/>
							<stop  offset="0.1684" style="stop-color:#AAAAAA"/>
							<stop  offset="0.2551" style="stop-color:#7A7A7A"/>
							<stop  offset="0.4082" style="stop-color:#424242"/>
							<stop  offset="0.5153" style="stop-color:#2A2A2A"/>
							<stop  offset="0.6633" style="stop-color:#161616"/>
							<stop  offset="0.8265" style="stop-color:#000505"/>
							<stop  offset="0.9643" style="stop-color:#000000"/>
						</radialGradient>
						<path style="fill:url(#SVGID_00000178913746265457533200000007128813094218630812_);" d="M209.3,233
							c-36.2-7.8-64.9-17.1-64.1-20.8c0.8-3.7,30.8-0.4,67,7.3c36.2,7.8,64.9,17.1,64.1,20.8C275.5,244.1,245.5,240.8,209.3,233z"/>
						
							<radialGradient id="SVGID_00000132085090509163963240000016649528484196676763_" cx="228.9808" cy="46.7352" r="22.7087" gradientTransform="matrix(1.0807 1.5736 0.1626 -0.1117 -44.1195 -128.9578)" gradientUnits="userSpaceOnUse">
							<stop  offset="0" style="stop-color:#FFFFFF"/>
							<stop  offset="0.102" style="stop-color:#D9D9D9"/>
							<stop  offset="0.1684" style="stop-color:#AAAAAA"/>
							<stop  offset="0.2551" style="stop-color:#7A7A7A"/>
							<stop  offset="0.4082" style="stop-color:#424242"/>
							<stop  offset="0.5153" style="stop-color:#2A2A2A"/>
							<stop  offset="0.6633" style="stop-color:#161616"/>
							<stop  offset="0.8265" style="stop-color:#000505"/>
							<stop  offset="0.9643" style="stop-color:#000000"/>
						</radialGradient>
						<path style="fill:url(#SVGID_00000132085090509163963240000016649528484196676763_);" d="M235.5,261.9
							c2.1-1.4-7.3-18.5-20.9-38.3c-13.6-19.7-26.2-34.6-28.2-33.2c-2.1,1.4,7.3,18.6,20.9,38.3
							C220.8,248.4,233.4,263.3,235.5,261.9z"/>
						
							<radialGradient id="SVGID_00000101096296526205806430000004945948919447004088_" cx="356.3854" cy="-1099.6061" r="22.7563" gradientTransform="matrix(-1.5351 1.2088 9.639181e-02 0.1225 864.0189 -69.9885)" gradientUnits="userSpaceOnUse">
							<stop  offset="0" style="stop-color:#FFFFFF"/>
							<stop  offset="0.102" style="stop-color:#D9D9D9"/>
							<stop  offset="0.1684" style="stop-color:#AAAAAA"/>
							<stop  offset="0.2551" style="stop-color:#7A7A7A"/>
							<stop  offset="0.4082" style="stop-color:#424242"/>
							<stop  offset="0.5153" style="stop-color:#2A2A2A"/>
							<stop  offset="0.6633" style="stop-color:#161616"/>
							<stop  offset="0.8265" style="stop-color:#000505"/>
							<stop  offset="0.9643" style="stop-color:#000000"/>
						</radialGradient>
						<path style="fill:url(#SVGID_00000101096296526205806430000004945948919447004088_);" d="M176.1,253.6
							c1.2,1.6,17.8-9.5,37.1-24.7c19.2-15.2,33.9-28.7,32.7-30.2c-1.2-1.6-17.8,9.5-37.1,24.7C189.5,238.5,174.9,252.1,176.1,253.6
							z"/>
					</g>
				</g>
				<g>
					
						<radialGradient id="SVGID_00000098194576322368188790000016543955161055794087_" cx="243.9947" cy="289.2438" r="12.4018" gradientTransform="matrix(0.5164 0.8563 -0.8563 0.5164 332.6368 -132.1521)" gradientUnits="userSpaceOnUse">
						<stop  offset="0.3242" style="stop-color:#FFFFFF"/>
						<stop  offset="0.5604" style="stop-color:#C6C6C6"/>
						<stop  offset="0.7308" style="stop-color:#6A6A6A"/>
						<stop  offset="0.8736" style="stop-color:#000505"/>
						<stop  offset="0.9643" style="stop-color:#000000"/>
					</radialGradient>
					<path style="fill:url(#SVGID_00000098194576322368188790000016543955161055794087_);" d="M217.3,236.8
						c-5.9,3.5-13.5,1.6-17-4.2c-3.5-5.9-1.7-13.5,4.2-17c5.9-3.5,13.5-1.7,17,4.2C225.1,225.6,223.2,233.2,217.3,236.8z"/>
				</g>
			</g>
			<g>
				
					<radialGradient id="SVGID_00000044881124708204830290000014266780900955508924_" cx="525.9088" cy="179.8023" r="27.5874" gradientTransform="matrix(0.9634 0.2684 0.2684 -0.9634 -57.9089 575.0857)" gradientUnits="userSpaceOnUse">
					<stop  offset="9.890110e-02" style="stop-color:#FFFFFF"/>
					<stop  offset="0.3626" style="stop-color:#7A7A7A"/>
					<stop  offset="0.5714" style="stop-color:#2A2A2A"/>
					<stop  offset="0.6633" style="stop-color:#161616"/>
					<stop  offset="0.8265" style="stop-color:#000505"/>
					<stop  offset="0.9643" style="stop-color:#000000"/>
				</radialGradient>
				<path style="fill:url(#SVGID_00000044881124708204830290000014266780900955508924_);" d="M523.6,550.4
					c4.1-14.7-4.5-29.9-19.2-34c-14.7-4-29.9,4.5-34,19.2c-4.1,14.7,4.5,29.9,19.2,34C504.3,573.7,519.5,565.1,523.6,550.4z"/>
				<g>
					
						<radialGradient id="SVGID_00000004536746185649991060000004669346006465107092_" cx="663.0723" cy="207.7186" r="9.7642" gradientTransform="matrix(0.5164 0.8563 -0.8563 0.5164 332.6368 -132.1521)" gradientUnits="userSpaceOnUse">
						<stop  offset="0.3242" style="stop-color:#FFFFFF"/>
						<stop  offset="0.5604" style="stop-color:#C6C6C6"/>
						<stop  offset="0.7308" style="stop-color:#6A6A6A"/>
						<stop  offset="0.8736" style="stop-color:#000505"/>
						<stop  offset="0.9643" style="stop-color:#000000"/>
					</radialGradient>
					<path style="fill:url(#SVGID_00000004536746185649991060000004669346006465107092_);" d="M502.2,551.3
						c-4.6,2.8-10.6,1.3-13.4-3.3c-2.8-4.6-1.3-10.6,3.3-13.4c4.6-2.8,10.6-1.3,13.4,3.3C508.3,542.5,506.8,548.5,502.2,551.3z"/>
				</g>
			</g>
			<g>
				
					<radialGradient id="SVGID_00000148619506611164222790000016293378315366300319_" cx="265.7271" cy="545.6906" r="27.5871" gradientTransform="matrix(0.9634 0.2684 0.2684 -0.9634 -57.9089 575.0857)" gradientUnits="userSpaceOnUse">
					<stop  offset="9.890110e-02" style="stop-color:#FFFFFF"/>
					<stop  offset="0.3626" style="stop-color:#7A7A7A"/>
					<stop  offset="0.5714" style="stop-color:#2A2A2A"/>
					<stop  offset="0.6633" style="stop-color:#161616"/>
					<stop  offset="0.8265" style="stop-color:#000505"/>
					<stop  offset="0.9643" style="stop-color:#000000"/>
				</radialGradient>
				<path style="fill:url(#SVGID_00000148619506611164222790000016293378315366300319_);" d="M371.1,128.1
					c4.1-14.7-4.5-29.9-19.2-34c-14.7-4-29.9,4.5-34,19.2c-4.1,14.7,4.5,29.9,19.2,34C351.8,151.4,367,142.8,371.1,128.1z"/>
				<g>
					
						<radialGradient id="SVGID_00000159458053312647986520000010264288712586389428_" cx="222.6735" cy="120.1868" r="9.7635" gradientTransform="matrix(0.5164 0.8563 -0.8563 0.5164 332.6368 -132.1521)" gradientUnits="userSpaceOnUse">
						<stop  offset="0.3242" style="stop-color:#FFFFFF"/>
						<stop  offset="0.5604" style="stop-color:#C6C6C6"/>
						<stop  offset="0.7308" style="stop-color:#6A6A6A"/>
						<stop  offset="0.8736" style="stop-color:#000505"/>
						<stop  offset="0.9643" style="stop-color:#000000"/>
					</radialGradient>
					<path style="fill:url(#SVGID_00000159458053312647986520000010264288712586389428_);" d="M349.7,129
						c-4.6,2.8-10.6,1.3-13.4-3.3c-2.8-4.6-1.3-10.6,3.3-13.4c4.6-2.8,10.6-1.3,13.4,3.3C355.8,120.2,354.4,126.2,349.7,129z"/>
				</g>
			</g>
			<g>
				
					<radialGradient id="SVGID_00000129892910733678867550000006470103101835186610_" cx="151.7108" cy="357.4354" r="27.5883" gradientTransform="matrix(0.9634 0.2684 0.2684 -0.9634 -57.9089 575.0857)" gradientUnits="userSpaceOnUse">
					<stop  offset="9.890110e-02" style="stop-color:#FFFFFF"/>
					<stop  offset="0.3626" style="stop-color:#7A7A7A"/>
					<stop  offset="0.5714" style="stop-color:#2A2A2A"/>
					<stop  offset="0.6633" style="stop-color:#161616"/>
					<stop  offset="0.8265" style="stop-color:#000505"/>
					<stop  offset="0.9643" style="stop-color:#000000"/>
				</radialGradient>
				<path style="fill:url(#SVGID_00000129892910733678867550000006470103101835186610_);" d="M210.8,278.9
					c4.1-14.7-4.5-29.9-19.2-34c-14.7-4-29.9,4.5-34,19.2c-4.1,14.7,4.5,29.9,19.2,34C191.4,302.1,206.7,293.5,210.8,278.9z"/>
				<g>
					
						<radialGradient id="SVGID_00000137812611952872730680000007194978419483795113_" cx="268.9688" cy="335.3778" r="9.7652" gradientTransform="matrix(0.5164 0.8563 -0.8563 0.5164 332.6368 -132.1521)" gradientUnits="userSpaceOnUse">
						<stop  offset="0.3242" style="stop-color:#FFFFFF"/>
						<stop  offset="0.5604" style="stop-color:#C6C6C6"/>
						<stop  offset="0.7308" style="stop-color:#6A6A6A"/>
						<stop  offset="0.8736" style="stop-color:#000505"/>
						<stop  offset="0.9643" style="stop-color:#000000"/>
					</radialGradient>
					<path style="fill:url(#SVGID_00000137812611952872730680000007194978419483795113_);" d="M189.4,279.7
						c-4.6,2.8-10.6,1.3-13.4-3.3c-2.8-4.6-1.3-10.6,3.3-13.4c4.6-2.8,10.6-1.3,13.4,3.3C195.5,270.9,194,276.9,189.4,279.7z"/>
				</g>
			</g>
		</g>
		<g>
			<g>
				<polygon class="st46" points="402.5,654.8 446.1,623.6 450.7,495.7 396.5,280.1 343,121.2 346.1,120.2 399.7,279.2 454,495.6 
					449.3,625.3 404.4,657.4 				"/>
			</g>
			<g>
				<polygon class="st46" points="244.3,319.9 210.6,226 213.6,224.9 247.1,318 453.4,494.3 498.2,541.9 495.8,544.1 451.2,496.6 
									"/>
			</g>
			<g>
				<polygon class="st46" points="183.2,272.8 185.2,270.2 246.7,317.6 244.7,320.2 				"/>
			</g>
		</g>
	</g>
</g>
</svg>
