<?xml version="1.0" encoding="utf-8"?>
<!-- Generator: Adobe Illustrator 26.0.0, SVG Export Plug-In . SVG Version: 6.00 Build 0)  -->
<svg version="1.1" id="圖層_1" xmlns="http://www.w3.org/2000/svg" xmlns:xlink="http://www.w3.org/1999/xlink" x="0px" y="0px"
	 viewBox="0 0 725.67 725.67" style="enable-background:new 0 0 725.67 725.67;" xml:space="preserve">
<style type="text/css">
	.st0{fill:#FFFFFF;}
</style>
<g>
	<polygon class="st0" points="686.07,107.17 662.79,101.73 680,118.59 660.59,138.4 684.23,128.87 693.93,142.96 696.05,124.1 
		716.65,119.76 693.36,113.29 694.76,98.31 	"/>
	<polygon class="st0" points="512.71,163.16 489.77,140.68 498.85,170.01 476.28,183.66 503.36,182.09 507.04,213.8 514.83,193.33 
		535.33,204.73 529.97,185.17 553.13,178.22 529.33,173.31 537.38,152.58 	"/>
	<path class="st0" d="M209.72,61.51c-3.13-3.06-26.54-20.89-26.54-20.89l12.13,25.17l-23.63,10.57l21.7,1.84l-13.19,21.81
		l20.04-8.98l0.82,29.41l10.08-23.85l16.16,15.83l-7.46-22.63l28.34-4.94l-26.38-5.41l24.53-24l-24.17,9.02l-2.31-23.72
		L209.72,61.51z"/>
	<polygon class="st0" points="33.94,479.29 8.12,477.49 24.28,493.32 10.49,507.4 32.64,503.56 48.34,524.04 50.17,501.31 
		76.39,491.24 50.53,486.34 45.1,460.59 	"/>
	<polygon class="st0" points="44.64,596.51 29.16,596.67 42.19,609.44 40.77,621.33 47.92,614.03 59.91,625.78 55.07,606.73 
		74.04,594.66 50.31,595.94 46.01,579.47 	"/>
	<path class="st0" d="M74.11,659.89c-2.88,0.88-15.11,4.46-15.11,4.46l15.31-0.81l1.12,21.14l6.47-15.69l17.27,8.58l-9.75-18.48
		l10.73-18.11l-20.63,10.6l-10.71-8.93L74.11,659.89z"/>
	<path class="st0" d="M643.86,143.77c2.45,2.4,6.38,2.36,8.77-0.09c2.4-2.45,2.36-6.38-0.09-8.77c-2.45-2.4-6.38-2.36-8.77,0.09
		C641.37,137.45,641.41,141.37,643.86,143.77z"/>
	<path class="st0" d="M613.9,151.64c2.45,2.4,6.38,2.36,8.77-0.09c2.4-2.45,2.36-6.38-0.09-8.77c-2.45-2.4-6.38-2.36-8.77,0.09
		C611.41,145.32,611.45,149.25,613.9,151.64z"/>
	<path class="st0" d="M585.71,162.17c2.45,2.4,6.38,2.36,8.77-0.09s2.36-6.38-0.09-8.77c-2.45-2.4-6.38-2.36-8.77,0.09
		C583.22,155.85,583.26,159.78,585.71,162.17z"/>
	<path class="st0" d="M556.39,171.2c2.45,2.4,6.38,2.36,8.77-0.09c2.4-2.45,2.36-6.38-0.09-8.77c-2.45-2.4-6.38-2.36-8.77,0.09
		C553.9,164.88,553.94,168.81,556.39,171.2z"/>
	<path class="st0" d="M461.22,171.95c2.45,2.4,6.38,2.36,8.77-0.09c2.4-2.45,2.36-6.38-0.09-8.77c-2.45-2.4-6.38-2.36-8.77,0.09
		C458.73,165.63,458.77,169.55,461.22,171.95z"/>
	<path class="st0" d="M427.25,159.61c2.45,2.4,6.38,2.36,8.77-0.09c2.4-2.45,2.36-6.38-0.09-8.77c-2.45-2.4-6.38-2.36-8.77,0.09
		C424.76,153.29,424.8,157.21,427.25,159.61z"/>
	<path class="st0" d="M396.83,149.82c2.45,2.4,6.38,2.36,8.77-0.09c2.4-2.45,2.36-6.38-0.09-8.77c-2.45-2.4-6.38-2.36-8.77,0.09
		C394.34,143.5,394.38,147.42,396.83,149.82z"/>
	<path class="st0" d="M363.27,138.38c2.45,2.4,6.38,2.36,8.77-0.09c2.4-2.45,2.36-6.38-0.09-8.77c-2.45-2.4-6.38-2.36-8.77,0.09
		C360.78,132.05,360.82,135.98,363.27,138.38z"/>
	<path class="st0" d="M330.25,126.97c2.45,2.4,6.38,2.36,8.77-0.09c2.4-2.45,2.36-6.38-0.09-8.77c-2.45-2.4-6.38-2.36-8.77,0.09
		C327.76,120.64,327.8,124.57,330.25,126.97z"/>
	<path class="st0" d="M295.12,116.29c2.45,2.4,6.38,2.36,8.77-0.09c2.4-2.45,2.36-6.38-0.09-8.77s-6.38-2.36-8.77,0.09
		C292.63,109.96,292.67,113.89,295.12,116.29z"/>
	<path class="st0" d="M262.81,105.1c2.45,2.4,6.38,2.36,8.77-0.09c2.4-2.45,2.36-6.38-0.09-8.77c-2.45-2.4-6.38-2.36-8.77,0.09
		C260.32,98.78,260.36,102.71,262.81,105.1z"/>
	<path class="st0" d="M183.71,137.88c2.45,2.4,6.38,2.36,8.77-0.09c2.4-2.45,2.36-6.38-0.09-8.77c-2.45-2.4-6.38-2.36-8.77,0.09
		C181.22,131.56,181.26,135.49,183.71,137.88z"/>
	<path class="st0" d="M170.6,165.52c2.45,2.4,6.38,2.36,8.77-0.09c2.4-2.45,2.36-6.38-0.09-8.77c-2.45-2.4-6.38-2.36-8.77,0.09
		C168.11,159.19,168.15,163.12,170.6,165.52z"/>
	<path class="st0" d="M159.46,194.62c2.45,2.4,6.38,2.36,8.77-0.09c2.4-2.45,2.36-6.38-0.09-8.77c-2.45-2.4-6.38-2.36-8.77,0.09
		C156.97,188.29,157.01,192.22,159.46,194.62z"/>
	<path class="st0" d="M148.15,222.15c2.45,2.4,6.38,2.36,8.77-0.09c2.4-2.45,2.36-6.38-0.09-8.77c-2.45-2.4-6.38-2.36-8.77,0.09
		C145.66,215.83,145.7,219.75,148.15,222.15z"/>
	<path class="st0" d="M136.45,249.3c2.45,2.4,6.38,2.36,8.77-0.09c2.4-2.45,2.36-6.38-0.09-8.77c-2.45-2.4-6.38-2.36-8.77,0.09
		C133.96,242.97,134,246.9,136.45,249.3z"/>
	<path class="st0" d="M123.34,276.93c2.45,2.4,6.38,2.36,8.77-0.09c2.4-2.45,2.36-6.38-0.09-8.77c-2.45-2.4-6.38-2.36-8.77,0.09
		C120.85,270.61,120.89,274.53,123.34,276.93z"/>
	<path class="st0" d="M109.47,307.08c2.45,2.4,6.38,2.36,8.77-0.09c2.4-2.45,2.36-6.38-0.09-8.77c-2.45-2.4-6.38-2.36-8.77,0.09
		C106.98,300.75,107.02,304.68,109.47,307.08z"/>
	<path class="st0" d="M96.55,338c2.45,2.4,6.38,2.36,8.77-0.09s2.36-6.38-0.09-8.77c-2.45-2.4-6.38-2.36-8.77,0.09
		C94.06,331.67,94.1,335.6,96.55,338z"/>
	<path class="st0" d="M85.1,367.42c2.45,2.4,6.38,2.36,8.77-0.09c2.4-2.45,2.36-6.38-0.09-8.77c-2.45-2.4-6.38-2.36-8.77,0.09
		S82.65,365.02,85.1,367.42z"/>
	<path class="st0" d="M72.67,396.1c2.45,2.4,6.38,2.36,8.77-0.09c2.4-2.45,2.36-6.38-0.09-8.77c-2.45-2.4-6.38-2.36-8.77,0.09
		C70.18,389.77,70.22,393.7,72.67,396.1z"/>
	<path class="st0" d="M59.95,424.51c2.45,2.4,6.38,2.36,8.77-0.09c2.4-2.45,2.36-6.38-0.09-8.77c-2.45-2.4-6.38-2.36-8.77,0.09
		C57.46,418.18,57.51,422.11,59.95,424.51z"/>
	<path class="st0" d="M37.72,544.46c2.45,2.4,6.38,2.36,8.77-0.09c2.4-2.45,2.36-6.38-0.09-8.77c-2.45-2.4-6.38-2.36-8.77,0.09
		C35.24,538.13,35.28,542.06,37.72,544.46z"/>
	<path class="st0" d="M39.67,565.64c2.45,2.4,6.38,2.36,8.77-0.09c2.4-2.45,2.36-6.38-0.09-8.77s-6.38-2.36-8.77,0.09
		C37.18,559.31,37.22,563.24,39.67,565.64z"/>
	<path class="st0" d="M53.34,644.86c3.42-0.18,6.05-3.1,5.87-6.53c-0.18-3.42-3.1-6.05-6.53-5.87c-3.42,0.18-6.05,3.1-5.87,6.53
		C47,642.42,49.92,645.05,53.34,644.86z"/>
	<path class="st0" d="M50.45,451.94c2.45,2.4,6.38,2.36,8.77-0.09c2.4-2.45,2.36-6.38-0.09-8.77c-2.45-2.4-6.38-2.36-8.77,0.09
		C47.96,445.62,48,449.55,50.45,451.94z"/>
</g>
</svg>
