<?xml version="1.0" encoding="utf-8"?>
<!-- Generator: Adobe Illustrator 26.0.0, SVG Export Plug-In . SVG Version: 6.00 Build 0)  -->
<svg version="1.1" id="圖層_1" xmlns="http://www.w3.org/2000/svg" xmlns:xlink="http://www.w3.org/1999/xlink" x="0px" y="0px"
	 viewBox="0 0 725.7 725.7" style="enable-background:new 0 0 725.7 725.7;" xml:space="preserve">
<style type="text/css">
	.st0{fill:#FFFFFF;}
</style>
<g>
	<g>
		<polygon class="st0" points="312.9,292.6 335.7,305.7 335.7,421 312.9,434 		"/>
		<polygon class="st0" points="627.2,87.7 627.2,637.9 312.9,637.9 312.9,520.9 335.7,507.8 335.7,615.1 604.4,615.1 604.4,110.6 
			335.7,110.6 335.7,219 312.9,205.9 312.9,87.7 		"/>
	</g>
	<g>
		<g>
			<polygon class="st0" points="615.8,99.1 615.8,626.5 324.3,626.5 335.8,611.4 567.9,586.9 569.3,145.4 335.8,114.7 324.3,99.1 
							"/>
		</g>
	</g>
	<g>
		<g>
			<g>
				<polygon class="st0" points="264.5,476 264.5,411 98.5,411 98.5,301.9 264.5,301.9 264.5,250.7 461,363.3 				"/>
			</g>
		</g>
	</g>
</g>
</svg>
