<?xml version="1.0" encoding="utf-8"?>
<!-- Generator: Adobe Illustrator 26.0.0, SVG Export Plug-In . SVG Version: 6.00 Build 0)  -->
<svg version="1.1" id="圖層_1" xmlns="http://www.w3.org/2000/svg" xmlns:xlink="http://www.w3.org/1999/xlink" x="0px" y="0px"
	 viewBox="0 0 725.67 725.67" style="enable-background:new 0 0 725.67 725.67;" xml:space="preserve">
<style type="text/css">
	.st0{fill:#FFFFFF;}
</style>
<g>
	<path class="st0" d="M146.04,262.39c-1.25-1.68-0.91-4.05,0.77-5.31c1.68-1.25,4.05-0.91,5.31,0.77c1.25,1.68,0.91,4.05-0.77,5.31
		C149.67,264.42,147.3,264.07,146.04,262.39z"/>
	<path class="st0" d="M362.33,359.96c0.1-2.04,1.83-3.61,3.87-3.51c2.04,0.1,3.61,1.83,3.51,3.87c-0.1,2.04-1.83,3.61-3.87,3.51
		S362.23,362,362.33,359.96z"/>
	<path class="st0" d="M345.48,353.01c0.1-2.04,1.83-3.61,3.87-3.51c2.04,0.1,3.61,1.83,3.51,3.87s-1.83,3.61-3.87,3.51
		C346.95,356.79,345.38,355.05,345.48,353.01z"/>
	<path class="st0" d="M328.35,345.96c0.1-2.04,1.83-3.61,3.87-3.51c2.04,0.1,3.61,1.83,3.51,3.87c-0.1,2.04-1.83,3.61-3.87,3.51
		C329.82,349.73,328.25,348,328.35,345.96z"/>
	<path class="st0" d="M311.96,339.2c0.1-2.04,1.83-3.61,3.87-3.51c2.04,0.1,3.61,1.83,3.51,3.87c-0.1,2.04-1.83,3.61-3.87,3.51
		C313.44,342.98,311.86,341.24,311.96,339.2z"/>
	<path class="st0" d="M295.68,332.49c0.1-2.04,1.83-3.61,3.87-3.51c2.04,0.1,3.61,1.83,3.51,3.87c-0.1,2.04-1.83,3.61-3.87,3.51
		C297.15,336.27,295.58,334.53,295.68,332.49z"/>
	<path class="st0" d="M392.07,361.97l16.76,7.01l-14.03,3.61l-5.5,20.99l-5.65-21.93l-15.69-3.95l16.93-4.36
		c0,0,2.61-13.22,2.61-13.23C387.51,350.09,392.07,361.97,392.07,361.97z"/>
	<polygon class="st0" points="129.35,263.97 136.59,272.18 127.54,270.8 126.53,280.96 123.91,273.99 107.55,268.9 118.91,264.54 
		117.87,252.25 123.1,259.07 133.1,257.25 	"/>
	<path class="st0" d="M131.43,482.56c-2.67-0.13-20.39-3.2-20.39-3.2l16.32-5.03l-5.1-14.98l9.85,8.95l4.28-14.98l4.31,12.71
		l13.51-11.86l-6.49,14.43l13.81,0.65l-13.24,6.07l9.57,14.74l-13.39-9.57l-0.55,20.96l-6.01-14.58l-11.58,8.83L131.43,482.56z"/>
	<polygon class="st0" points="99.59,300.01 83.86,298.29 95.3,290.52 88.53,280.56 101.44,285.27 113.1,274.65 111.74,288.52 
		126.42,297.43 110.33,297.57 104.28,312.47 	"/>
	<path class="st0" d="M126.91,427.94c-1.81,0.94-4.04,0.23-4.98-1.58c-0.94-1.81-0.23-4.04,1.58-4.98c1.81-0.94,4.04-0.23,4.98,1.58
		S128.72,427,126.91,427.94z"/>
	<path class="st0" d="M129.42,446.31c-1.81,0.94-4.04,0.23-4.98-1.58c-0.94-1.81-0.23-4.04,1.58-4.98c1.81-0.94,4.04-0.23,4.98,1.58
		C131.94,443.14,131.24,445.37,129.42,446.31z"/>
	<path class="st0" d="M114.97,334c-1.81,0.94-4.04,0.23-4.98-1.58c-0.94-1.81-0.23-4.04,1.58-4.98c1.81-0.94,4.04-0.23,4.98,1.58
		C117.49,330.83,116.78,333.06,114.97,334z"/>
	<path class="st0" d="M117.43,352.06c-1.81,0.94-4.04,0.23-4.98-1.58c-0.94-1.81-0.23-4.04,1.58-4.98c1.81-0.94,4.04-0.23,4.98,1.58
		C119.96,348.89,119.25,351.12,117.43,352.06z"/>
	<path class="st0" d="M119.94,370.41c-1.81,0.94-4.04,0.23-4.98-1.58c-0.94-1.81-0.23-4.04,1.58-4.98c1.81-0.94,4.04-0.23,4.98,1.58
		C122.46,367.24,121.75,369.47,119.94,370.41z"/>
	<path class="st0" d="M122.33,387.97c-1.81,0.94-4.04,0.23-4.98-1.58c-0.94-1.81-0.23-4.04,1.58-4.98c1.81-0.94,4.04-0.23,4.98,1.58
		C124.86,384.8,124.15,387.03,122.33,387.97z"/>
	<path class="st0" d="M124.71,405.42c-1.81,0.94-4.04,0.23-4.98-1.58c-0.94-1.81-0.23-4.04,1.58-4.98c1.81-0.94,4.04-0.23,4.98,1.58
		C127.24,402.25,126.53,404.48,124.71,405.42z"/>
	<polygon class="st0" points="207.35,200.62 203.55,215.98 197.38,203.61 186.6,208.99 192.99,196.82 184.02,183.85 197.59,187.05 
		208.37,173.69 206.36,189.65 220.32,197.64 	"/>
	<path class="st0" d="M188.76,228.21c-2.04,0.08-3.76-1.52-3.83-3.56c-0.08-2.04,1.52-3.76,3.56-3.83c2.04-0.08,3.76,1.52,3.83,3.56
		C192.4,226.42,190.8,228.13,188.76,228.21z"/>
	<path class="st0" d="M183.2,245.88c-2.04,0.08-3.76-1.52-3.83-3.56c-0.08-2.04,1.52-3.76,3.56-3.83c2.04-0.08,3.76,1.52,3.83,3.56
		C186.83,244.09,185.24,245.81,183.2,245.88z"/>
	<path class="st0" d="M443.71,119.01c1.51,1.45,1.56,3.85,0.11,5.36c-1.45,1.51-3.85,1.56-5.36,0.11s-1.56-3.85-0.11-5.36
		C439.8,117.6,442.2,117.56,443.71,119.01z"/>
	<path class="st0" d="M460.43,110.65c1.51,1.45,1.56,3.85,0.11,5.36c-1.45,1.51-3.85,1.56-5.36,0.11c-1.51-1.45-1.56-3.85-0.11-5.36
		C456.52,109.25,458.92,109.2,460.43,110.65z"/>
	<path class="st0" d="M477.43,102.17c1.51,1.45,1.56,3.85,0.11,5.36c-1.45,1.51-3.85,1.56-5.36,0.11c-1.51-1.45-1.56-3.85-0.11-5.36
		C473.52,100.76,475.92,100.71,477.43,102.17z"/>
	<path class="st0" d="M493.69,94.04c1.51,1.45,1.56,3.85,0.11,5.36c-1.45,1.51-3.85,1.56-5.36,0.11c-1.51-1.45-1.56-3.85-0.11-5.36
		C489.78,92.64,492.18,92.59,493.69,94.04z"/>
	<path class="st0" d="M509.85,85.97c1.51,1.45,1.56,3.85,0.11,5.36c-1.45,1.51-3.85,1.56-5.36,0.11c-1.51-1.45-1.56-3.85-0.11-5.36
		C505.94,84.57,508.34,84.52,509.85,85.97z"/>
	<path class="st0" d="M526.57,77.62c1.51,1.45,1.56,3.85,0.11,5.36s-3.85,1.56-5.36,0.11c-1.51-1.45-1.56-3.85-0.11-5.36
		C522.66,76.22,525.06,76.17,526.57,77.62z"/>
	<path class="st0" d="M544.71,68.56c1.51,1.45,1.56,3.85,0.11,5.36c-1.45,1.51-3.85,1.56-5.36,0.11c-1.51-1.45-1.56-3.85-0.11-5.36
		S543.2,67.11,544.71,68.56z"/>
	<path class="st0" d="M562.22,61.47c1.51,1.45,1.56,3.85,0.11,5.36c-1.45,1.51-3.85,1.56-5.36,0.11c-1.51-1.45-1.56-3.85-0.11-5.36
		C558.31,60.07,560.71,60.02,562.22,61.47z"/>
	<path class="st0" d="M578.94,53.12c1.51,1.45,1.56,3.85,0.11,5.36c-1.45,1.51-3.85,1.56-5.36,0.11c-1.51-1.45-1.56-3.85-0.11-5.36
		C575.03,51.72,577.43,51.67,578.94,53.12z"/>
	<path class="st0" d="M597.08,44.06c1.51,1.45,1.56,3.85,0.11,5.36c-1.45,1.51-3.85,1.56-5.36,0.11s-1.56-3.85-0.11-5.36
		C593.17,42.66,595.57,42.61,597.08,44.06z"/>
	<path class="st0" d="M614.18,32.83l-0.96-18.14l9.34,11.07l21.3-4.16l-17.31,14.61l3.25,15.85L618.52,38.7
		c0,0-13.05,3.39-13.05,3.39C605.46,42.1,614.18,32.83,614.18,32.83z"/>
	<polygon class="st0" points="164.14,266.39 159.01,255.82 167.36,260.07 179.01,252.23 172.37,265.3 178.29,273.93 168.21,268.8 
		161.28,274.11 	"/>
	<polygon class="st0" points="407.91,126.59 419.07,110.45 417.03,129.1 432.16,134.67 415.72,136.87 417.19,156.32 410.14,144.94 
		399.16,154.16 400.11,141.81 385.41,140.32 399.12,134.61 391.89,123.11 	"/>
	<path class="st0" d="M336.89,156.4c-1.23-1.63-0.9-3.95,0.74-5.18c1.63-1.23,3.95-0.9,5.18,0.74c1.23,1.63,0.9,3.95-0.74,5.18
		S338.12,158.03,336.89,156.4z"/>
	<path class="st0" d="M319.49,161.82c-1.23-1.63-0.9-3.95,0.74-5.18c1.63-1.23,3.95-0.9,5.18,0.74c1.23,1.63,0.9,3.95-0.74,5.18
		C323.04,163.78,320.72,163.45,319.49,161.82z"/>
	<path class="st0" d="M301.8,167.32c-1.23-1.63-0.9-3.95,0.74-5.18c1.63-1.23,3.95-0.9,5.18,0.74c1.23,1.63,0.9,3.95-0.74,5.18
		C305.35,169.28,303.03,168.95,301.8,167.32z"/>
	<path class="st0" d="M284.88,172.59c-1.23-1.63-0.9-3.95,0.74-5.18c1.63-1.23,3.95-0.9,5.18,0.74s0.9,3.95-0.74,5.18
		S286.11,174.22,284.88,172.59z"/>
	<path class="st0" d="M268.07,177.82c-1.23-1.63-0.9-3.95,0.74-5.18c1.63-1.23,3.95-0.9,5.18,0.74s0.9,3.95-0.74,5.18
		C271.61,179.79,269.29,179.46,268.07,177.82z"/>
	<path class="st0" d="M250.66,183.24c-1.23-1.63-0.9-3.95,0.74-5.18s3.95-0.9,5.18,0.74c1.23,1.63,0.9,3.95-0.74,5.18
		C254.21,185.2,251.89,184.87,250.66,183.24z"/>
	<path class="st0" d="M231.06,189.1c-1.23-1.63-0.9-3.95,0.74-5.18c1.63-1.23,3.95-0.9,5.18,0.74c1.23,1.63,0.9,3.95-0.74,5.18
		C234.6,191.06,232.28,190.73,231.06,189.1z"/>
	<path class="st0" d="M372.54,147.59c-1.23-1.63-0.9-3.95,0.74-5.18c1.63-1.23,3.95-0.9,5.18,0.74c1.23,1.63,0.9,3.95-0.74,5.18
		C376.08,149.56,373.76,149.23,372.54,147.59z"/>
	<path class="st0" d="M353.32,151.1c-1.23-1.63-0.9-3.95,0.74-5.18c1.63-1.23,3.95-0.9,5.18,0.74c1.23,1.63,0.9,3.95-0.74,5.18
		C356.86,153.06,354.54,152.73,353.32,151.1z"/>
	<path class="st0" d="M255.09,285.6c1.23-1.7,3.6-2.08,5.29-0.86c1.7,1.23,2.08,3.6,0.86,5.29c-1.23,1.7-3.6,2.08-5.29,0.86
		C254.24,289.67,253.86,287.3,255.09,285.6z"/>
	<path class="st0" d="M243.58,268.9c1.23-1.7,3.6-2.08,5.29-0.85c1.7,1.23,2.08,3.6,0.86,5.29s-3.6,2.08-5.29,0.85
		C242.74,272.97,242.36,270.6,243.58,268.9z"/>
	<path class="st0" d="M231.97,252.05c1.23-1.7,3.6-2.08,5.29-0.86c1.7,1.23,2.08,3.6,0.86,5.29c-1.23,1.7-3.6,2.08-5.29,0.86
		C231.13,256.11,230.74,253.74,231.97,252.05z"/>
	<path class="st0" d="M221.05,236.19c1.23-1.7,3.6-2.08,5.29-0.86c1.7,1.23,2.08,3.6,0.85,5.29c-1.23,1.7-3.6,2.08-5.29,0.86
		C220.2,240.26,219.82,237.89,221.05,236.19z"/>
	<path class="st0" d="M210.21,220.46c1.23-1.7,3.6-2.08,5.29-0.86c1.7,1.23,2.08,3.6,0.86,5.29s-3.6,2.08-5.29,0.86
		C209.37,224.53,208.98,222.16,210.21,220.46z"/>
	<polygon class="st0" points="278.7,313.81 295.09,311.63 281.89,323.09 284.78,333.37 276.33,323.62 259.61,330.37 269.91,321.43 
		259.87,308.12 268.78,311.12 275.94,301.82 	"/>
	<path class="st0" d="M270.57,655.94c1.71-1.21,4.08-0.8,5.28,0.92c1.21,1.71,0.8,4.08-0.92,5.28c-1.71,1.21-4.08,0.8-5.28-0.92
		C268.45,659.51,268.86,657.14,270.57,655.94z"/>
	<path class="st0" d="M265.14,636.4c1.71-1.21,4.08-0.8,5.28,0.92c1.21,1.71,0.8,4.08-0.92,5.28c-1.71,1.21-4.08,0.8-5.28-0.92
		C263.01,639.97,263.42,637.6,265.14,636.4z"/>
	<path class="st0" d="M259.65,616.68c1.71-1.21,4.08-0.8,5.28,0.92c1.21,1.71,0.8,4.08-0.92,5.28c-1.71,1.21-4.08,0.8-5.28-0.92
		C257.53,620.25,257.94,617.89,259.65,616.68z"/>
	<polygon class="st0" points="283.7,690.3 299.9,693.59 283.69,700.11 283.08,710.77 278.26,698.8 260.25,699.73 272.91,694.64 
		267.76,678.79 275.2,684.53 285,678.07 	"/>
	<polygon class="st0" points="238.53,545.33 231.9,560.47 228.95,543.24 218.66,540.39 231.37,538.21 234.27,520.42 236.57,533.86 
		253.16,532.18 245.97,538.24 250.21,549.18 	"/>
	<path class="st0" d="M204.8,523.63c0.6-1.95,2.66-3.05,4.61-2.46c1.95,0.6,3.05,2.66,2.46,4.62c-0.6,1.95-2.66,3.05-4.62,2.46
		C205.3,527.65,204.2,525.59,204.8,523.63z"/>
	<path class="st0" d="M190.56,513.07c0.6-1.95,2.66-3.05,4.62-2.46c1.95,0.6,3.05,2.66,2.46,4.61c-0.6,1.95-2.66,3.05-4.61,2.46
		C191.07,517.09,189.97,515.03,190.56,513.07z"/>
	<path class="st0" d="M176.42,502.58c0.6-1.95,2.66-3.05,4.62-2.46c1.95,0.6,3.05,2.66,2.46,4.61c-0.6,1.95-2.66,3.05-4.61,2.46
		C176.93,506.6,175.82,504.53,176.42,502.58z"/>
	<path class="st0" d="M161.78,491.72c0.6-1.95,2.66-3.05,4.62-2.46c1.95,0.6,3.05,2.66,2.46,4.62c-0.6,1.95-2.66,3.05-4.61,2.46
		C162.29,495.74,161.19,493.67,161.78,491.72z"/>
	<polygon class="st0" points="246.27,578.97 247.42,559.38 255.36,576.38 271.18,573.28 258.28,583.7 269.64,599.55 257.71,593.49 
		253.12,607.08 247.51,596.03 234.18,602.4 242.92,590.4 230.77,584.32 	"/>
</g>
<g>
	<path class="st0" d="M689.64,84.16c0.77,1.47,0.21,3.28-1.25,4.05c-1.47,0.77-3.28,0.21-4.05-1.25c-0.77-1.47-0.21-3.28,1.25-4.05
		C687.05,82.13,688.86,82.69,689.64,84.16z"/>
	<path class="st0" d="M689.3,68.71c0.77,1.47,0.21,3.28-1.25,4.05c-1.47,0.77-3.28,0.21-4.05-1.25c-0.77-1.47-0.21-3.28,1.25-4.05
		C686.71,66.68,688.53,67.24,689.3,68.71z"/>
	<path class="st0" d="M153.83,369.16c1.21,1.13,1.28,3.03,0.15,4.24c-1.13,1.21-3.03,1.28-4.24,0.15c-1.21-1.13-1.28-3.03-0.15-4.24
		C150.72,368.1,152.62,368.03,153.83,369.16z"/>
	<path class="st0" d="M277.98,619.53c-1.25-1.09-1.38-2.98-0.29-4.23c1.09-1.25,2.98-1.38,4.23-0.29c1.25,1.09,1.38,2.98,0.29,4.23
		C281.12,620.48,279.23,620.61,277.98,619.53z"/>
	<path class="st0" d="M687.13,131.1c-1.53,0.63-3.29-0.09-3.92-1.62c-0.64-1.53,0.09-3.29,1.62-3.92c1.53-0.63,3.29,0.09,3.92,1.62
		C689.39,128.71,688.66,130.46,687.13,131.1z"/>
	<path class="st0" d="M687.95,147.12c-1.53,0.63-3.29-0.09-3.92-1.62c-0.63-1.53,0.09-3.29,1.62-3.92c1.53-0.63,3.29,0.09,3.92,1.62
		C690.2,144.73,689.48,146.49,687.95,147.12z"/>
	<path class="st0" d="M570.88,184.8c-1.32-0.93-1.64-2.75-0.72-4.07c0.93-1.32,2.75-1.64,4.07-0.72c1.32,0.93,1.64,2.75,0.72,4.07
		C574.03,185.4,572.2,185.73,570.88,184.8z"/>
	<path class="st0" d="M559.12,193.14c-1.32-0.93-1.64-2.75-0.72-4.07c0.93-1.32,2.75-1.64,4.07-0.72c1.32,0.93,1.64,2.75,0.72,4.07
		C562.26,193.75,560.44,194.07,559.12,193.14z"/>
	<path class="st0" d="M547.16,201.63c-1.32-0.93-1.64-2.75-0.72-4.07c0.93-1.32,2.75-1.64,4.07-0.72s1.64,2.75,0.72,4.07
		C550.31,202.23,548.49,202.55,547.16,201.63z"/>
	<path class="st0" d="M74.35,314.49c0.13,1.65-1.11,3.09-2.76,3.22c-1.65,0.13-3.09-1.11-3.22-2.76c-0.13-1.65,1.11-3.09,2.76-3.22
		C72.78,311.6,74.23,312.84,74.35,314.49z"/>
	<path class="st0" d="M89.83,318.71c0.13,1.65-1.11,3.09-2.76,3.22c-1.65,0.13-3.09-1.11-3.22-2.76c-0.13-1.65,1.11-3.09,2.76-3.22
		C88.27,315.82,89.71,317.06,89.83,318.71z"/>
	<path class="st0" d="M270.6,661.79c-1.08,1.26-2.97,1.41-4.23,0.33c-1.26-1.08-1.41-2.97-0.33-4.23c1.08-1.26,2.97-1.4,4.23-0.33
		S271.68,660.53,270.6,661.79z"/>
	<path class="st0" d="M231.13,593.03c-1.08,1.26-2.97,1.4-4.23,0.33c-1.26-1.08-1.4-2.97-0.33-4.23c1.08-1.26,2.97-1.41,4.23-0.33
		C232.07,589.88,232.21,591.77,231.13,593.03z"/>
	<path class="st0" d="M584.79,165.74l11.77-8.26l-3.5,10.91l11.72,12.54l-17.07-5.48l-9.27,8.83l4.23-13.17c0,0-7.75-7.33-7.75-7.33
		C574.91,163.78,584.79,165.74,584.79,165.74z"/>
	<path class="st0" d="M233.93,605.74c-1.36,0.87-3.17,0.48-4.04-0.88c-0.87-1.36-0.48-3.17,0.88-4.04c1.36-0.87,3.17-0.48,4.04,0.88
		C235.68,603.05,235.29,604.86,233.93,605.74z"/>
	<path class="st0" d="M237.2,619.78c-1.36,0.87-3.17,0.48-4.04-0.88c-0.87-1.36-0.48-3.17,0.88-4.04c1.36-0.87,3.17-0.48,4.04,0.88
		C238.95,617.1,238.55,618.91,237.2,619.78z"/>
	<path class="st0" d="M240.52,634.06c-1.36,0.87-3.17,0.48-4.04-0.88c-0.87-1.36-0.48-3.17,0.88-4.04c1.36-0.87,3.17-0.48,4.04,0.88
		C242.27,631.38,241.87,633.19,240.52,634.06z"/>
	<path class="st0" d="M243.69,647.72c-1.36,0.87-3.17,0.48-4.04-0.88s-0.48-3.17,0.88-4.04c1.36-0.87,3.17-0.48,4.04,0.88
		C245.44,645.04,245.05,646.85,243.69,647.72z"/>
	<path class="st0" d="M246.85,661.29c-1.36,0.87-3.17,0.48-4.04-0.88c-0.87-1.36-0.48-3.17,0.88-4.04c1.36-0.87,3.17-0.48,4.04,0.88
		C248.6,658.61,248.21,660.42,246.85,661.29z"/>
	<path class="st0" d="M630.05,100.84c1.26,1.01,1.46,2.85,0.44,4.11c-1.01,1.26-2.86,1.46-4.11,0.44c-1.26-1.01-1.46-2.86-0.44-4.11
		C626.95,100.03,628.79,99.83,630.05,100.84z"/>
	<path class="st0" d="M692.18,45.63l-0.33,14.74l-6.89-9.53l-17.49,2.06l14.9-10.77l-1.66-13.02l8.31,11.5
		c0,0,10.76-1.95,10.77-1.95S692.18,45.63,692.18,45.63z"/>
	<polygon class="st0" points="693.62,166.17 706.25,162.76 697.08,173.11 700.42,180.88 692.78,174.11 680.36,181.13 687.52,173.05 
		678.26,163.65 685.57,165.09 690.22,157.05 	"/>
	<path class="st0" d="M660.48,102.05c0.21-1.64,1.71-2.81,3.35-2.6c1.64,0.21,2.81,1.71,2.6,3.35c-0.21,1.64-1.71,2.81-3.35,2.6
		C661.44,105.19,660.27,103.69,660.48,102.05z"/>
	<polygon class="st0" points="379.39,383.41 367.43,378.1 381.08,375.84 383.38,367.7 385.05,377.77 399.12,380.13 388.47,381.9 
		389.74,395.03 384.97,389.32 376.29,392.64 	"/>
	<path class="st0" d="M601.32,149.01c1.61-0.13,3.02,1.07,3.15,2.68c0.13,1.61-1.07,3.02-2.68,3.15c-1.61,0.13-3.02-1.07-3.15-2.68
		C598.51,150.56,599.71,149.14,601.32,149.01z"/>
	<path class="st0" d="M605.1,134.85c1.61-0.13,3.02,1.07,3.15,2.68c0.13,1.61-1.07,3.02-2.68,3.15c-1.61,0.13-3.02-1.07-3.15-2.68
		C602.29,136.39,603.49,134.98,605.1,134.85z"/>
	<polygon class="st0" points="605.39,117.57 594.74,109.98 608.56,110.49 612.44,102.98 612.06,113.18 625.38,118.31 614.59,117.91 
		613.21,131.03 609.68,124.48 600.51,125.99 	"/>
	<polygon class="st0" points="254.08,681.72 241.76,686.13 250.07,675.07 246.13,667.6 254.28,673.74 266.1,665.74 259.61,674.37 
		269.59,683 262.2,682.15 258.2,690.54 	"/>
	<polygon class="st0" points="147.98,456.2 138,448.5 151.29,449.5 155.3,442.41 154.56,452.22 167.19,457.65 156.82,456.87 
		155.01,469.45 151.85,463.01 142.97,464.13 	"/>
	<polygon class="st0" points="110.03,320.87 116.43,326.71 109.19,326.4 109.26,334.47 106.61,329.21 93.3,326.6 101.87,322.2 
		100,312.62 104.7,317.55 112.41,315.26 	"/>
	<path class="st0" d="M151.07,430.29c1.54-0.61,3.28,0.15,3.89,1.7c0.61,1.54-0.15,3.28-1.7,3.89c-1.54,0.61-3.28-0.15-3.89-1.7
		C148.77,432.64,149.52,430.9,151.07,430.29z"/>
	<path class="st0" d="M150.59,415.51c1.54-0.61,3.28,0.15,3.89,1.7c0.61,1.54-0.15,3.28-1.7,3.89c-1.54,0.61-3.28-0.15-3.89-1.7
		C148.29,417.86,149.05,416.11,150.59,415.51z"/>
	<path class="st0" d="M150.08,399.47c1.54-0.61,3.28,0.15,3.89,1.7c0.61,1.54-0.15,3.28-1.7,3.89c-1.54,0.61-3.28-0.15-3.89-1.7
		C147.78,401.82,148.54,400.08,150.08,399.47z"/>
	<path class="st0" d="M149.57,383.28c1.54-0.61,3.28,0.15,3.89,1.7c0.61,1.54-0.15,3.28-1.7,3.89c-1.54,0.61-3.28-0.15-3.89-1.7
		C147.26,385.63,148.02,383.89,149.57,383.28z"/>
	<path class="st0" d="M432.71,327.56c-1.52-0.55-2.3-2.23-1.75-3.75c0.55-1.52,2.23-2.3,3.75-1.75c1.52,0.55,2.3,2.23,1.75,3.75
		S434.23,328.11,432.71,327.56z"/>
	<path class="st0" d="M423.52,338.67c-1.52-0.55-2.3-2.23-1.75-3.75c0.55-1.52,2.23-2.3,3.75-1.75c1.52,0.55,2.3,2.23,1.75,3.75
		C426.71,338.44,425.04,339.22,423.52,338.67z"/>
	<path class="st0" d="M414.17,349.96c-1.52-0.55-2.3-2.23-1.75-3.75c0.55-1.52,2.23-2.3,3.75-1.75s2.3,2.23,1.75,3.75
		C417.37,349.73,415.69,350.51,414.17,349.96z"/>
	<path class="st0" d="M405.23,360.76c-1.52-0.55-2.3-2.23-1.75-3.75c0.55-1.52,2.23-2.3,3.75-1.75s2.3,2.23,1.75,3.75
		C408.42,360.53,406.74,361.31,405.23,360.76z"/>
	<path class="st0" d="M396.34,371.49c-1.52-0.55-2.3-2.23-1.75-3.75c0.55-1.52,2.23-2.3,3.75-1.75c1.52,0.55,2.3,2.23,1.75,3.75
		C399.54,371.26,397.86,372.05,396.34,371.49z"/>
	<path class="st0" d="M459.36,295.15c-1.52-0.55-2.3-2.23-1.75-3.75c0.55-1.52,2.23-2.3,3.75-1.75c1.52,0.55,2.3,2.23,1.75,3.75
		C462.56,294.92,460.88,295.7,459.36,295.15z"/>
	<path class="st0" d="M450,306.45c-1.52-0.55-2.3-2.23-1.75-3.75c0.55-1.52,2.23-2.3,3.75-1.75c1.52,0.55,2.3,2.23,1.75,3.75
		C453.2,306.22,451.52,307.01,450,306.45z"/>
	<path class="st0" d="M441.31,316.95c-1.52-0.55-2.3-2.23-1.75-3.75c0.55-1.52,2.23-2.3,3.75-1.75c1.52,0.55,2.3,2.23,1.75,3.75
		S442.83,317.5,441.31,316.95z"/>
	<path class="st0" d="M507.71,237.91c-1.52-0.55-2.3-2.23-1.75-3.75c0.55-1.52,2.23-2.3,3.75-1.75c1.52,0.55,2.3,2.23,1.75,3.75
		C510.9,237.68,509.23,238.46,507.71,237.91z"/>
	<path class="st0" d="M498.5,249.01c-1.52-0.55-2.3-2.23-1.75-3.75c0.55-1.52,2.23-2.3,3.75-1.75c1.52,0.55,2.3,2.23,1.75,3.75
		C501.7,248.78,500.02,249.56,498.5,249.01z"/>
	<path class="st0" d="M489.15,260.29c-1.52-0.55-2.3-2.23-1.75-3.75c0.55-1.52,2.23-2.3,3.75-1.75c1.52,0.55,2.3,2.23,1.75,3.75
		C492.35,260.07,490.67,260.85,489.15,260.29z"/>
	<path class="st0" d="M480.2,271.09c-1.52-0.55-2.3-2.23-1.75-3.75c0.55-1.52,2.23-2.3,3.75-1.75c1.52,0.55,2.3,2.23,1.75,3.75
		C483.4,270.86,481.72,271.65,480.2,271.09z"/>
	<path class="st0" d="M471.31,281.82c-1.52-0.55-2.3-2.23-1.75-3.75c0.55-1.52,2.23-2.3,3.75-1.75c1.52,0.55,2.3,2.23,1.75,3.75
		C474.5,281.59,472.82,282.37,471.31,281.82z"/>
	<path class="st0" d="M516.92,214.5c-1.16-1.77-7.4-14.56-7.4-14.56l10.79,8.13l7.24-10.21l-1.17,10.46l11.59-4.2l-6.15,8.66
		l13.87,3.16l-12.26,2.53l5.98,9.16l-10.03-5.67l-5.02,12.97l-0.07-13.02l-13.7,9.37l6.56-10.61l-11.03-3.33L516.92,214.5z"/>
	<polygon class="st0" points="39.59,245.18 43.72,256.99 34.27,251.47 29.47,259.7 28.43,248.88 16.88,244.17 27.25,240.41 
		28.6,226.9 34.18,238.34 46.89,237.59 	"/>
	<path class="st0" d="M39.22,271.5c-1.32,0.93-3.14,0.62-4.08-0.7c-0.93-1.32-0.62-3.14,0.7-4.08c1.32-0.93,3.14-0.62,4.08,0.7
		C40.85,268.74,40.54,270.56,39.22,271.5z"/>
	<path class="st0" d="M43.19,285.61c-1.32,0.93-3.14,0.62-4.08-0.7c-0.93-1.32-0.62-3.14,0.7-4.08c1.32-0.93,3.14-0.62,4.08,0.7
		C44.82,282.85,44.51,284.68,43.19,285.61z"/>
	<path class="st0" d="M225.56,573.33l-8.62,11.51l-0.06-11.46l-15.04-8.28l17.92-0.09l6.07-11.27l0.07,13.83
		c0,0,9.64,4.56,9.65,4.56S225.56,573.33,225.56,573.33z"/>
	<path class="st0" d="M325.2,460.1c-1.65,0.13-3.1-1.11-3.22-2.76c-0.13-1.65,1.11-3.1,2.76-3.22c1.65-0.13,3.1,1.11,3.22,2.76
		C328.09,458.53,326.85,459.97,325.2,460.1z"/>
	<path class="st0" d="M321.27,474.61c-1.65,0.13-3.1-1.11-3.22-2.76c-0.13-1.65,1.11-3.1,2.76-3.22c1.65-0.13,3.1,1.11,3.22,2.76
		C324.16,473.04,322.92,474.48,321.27,474.61z"/>
	<path class="st0" d="M317.51,488.49c-1.65,0.13-3.1-1.11-3.22-2.76c-0.13-1.65,1.11-3.1,2.76-3.22c1.65-0.13,3.1,1.11,3.22,2.76
		C320.4,486.92,319.16,488.36,317.51,488.49z"/>
	<path class="st0" d="M313.78,502.29c-1.65,0.13-3.1-1.11-3.22-2.76c-0.13-1.65,1.11-3.1,2.76-3.22c1.65-0.13,3.1,1.11,3.22,2.76
		C316.66,500.71,315.43,502.16,313.78,502.29z"/>
	<path class="st0" d="M309.91,516.56c-1.65,0.13-3.1-1.11-3.22-2.76c-0.13-1.65,1.11-3.1,2.76-3.22c1.65-0.13,3.1,1.11,3.22,2.76
		C312.8,514.99,311.56,516.43,309.91,516.56z"/>
	<path class="st0" d="M305.72,532.05c-1.65,0.13-3.1-1.11-3.22-2.76c-0.13-1.65,1.11-3.1,2.76-3.22c1.65-0.13,3.1,1.11,3.22,2.76
		C308.6,530.48,307.37,531.92,305.72,532.05z"/>
	<path class="st0" d="M300.69,546.13c-1.65,0.13-3.1-1.11-3.22-2.76s1.11-3.1,2.76-3.22c1.65-0.13,3.1,1.11,3.22,2.76
		S302.34,546,300.69,546.13z"/>
	<path class="st0" d="M296.82,560.4c-1.65,0.13-3.1-1.11-3.22-2.76c-0.13-1.65,1.11-3.1,2.76-3.22c1.65-0.13,3.1,1.11,3.22,2.76
		C299.71,558.83,298.48,560.27,296.82,560.4z"/>
	<path class="st0" d="M292.63,575.89c-1.65,0.13-3.1-1.11-3.22-2.76c-0.13-1.65,1.11-3.1,2.76-3.22c1.65-0.13,3.1,1.11,3.22,2.76
		C295.52,574.32,294.28,575.76,292.63,575.89z"/>
	<path class="st0" d="M197.15,535.64c0.99-1.27,2.83-1.5,4.11-0.51c1.27,0.99,1.5,2.83,0.51,4.11c-0.99,1.27-2.83,1.5-4.11,0.51
		C196.39,538.75,196.16,536.91,197.15,535.64z"/>
	<path class="st0" d="M189.41,523.47c0.99-1.27,2.83-1.5,4.11-0.51c1.27,0.99,1.5,2.83,0.51,4.11c-0.99,1.28-2.83,1.5-4.11,0.51
		C188.64,526.58,188.41,524.75,189.41,523.47z"/>
	<path class="st0" d="M181.53,511.11c0.99-1.27,2.83-1.5,4.11-0.51c1.27,0.99,1.5,2.83,0.51,4.11c-0.99,1.27-2.83,1.5-4.11,0.51
		C180.77,514.22,180.54,512.38,181.53,511.11z"/>
	<path class="st0" d="M174,499.28c0.99-1.27,2.83-1.5,4.11-0.51c1.27,0.99,1.5,2.83,0.51,4.11c-0.99,1.27-2.83,1.5-4.11,0.51
		C173.24,502.39,173.01,500.55,174,499.28z"/>
	<path class="st0" d="M166.51,487.52c0.99-1.27,2.83-1.5,4.11-0.51c1.27,0.99,1.5,2.83,0.51,4.11c-0.99,1.28-2.83,1.5-4.11,0.51
		C165.75,490.63,165.52,488.8,166.51,487.52z"/>
	<path class="st0" d="M158.77,475.36c0.99-1.27,2.83-1.5,4.11-0.51c1.27,0.99,1.5,2.83,0.51,4.11c-0.99,1.27-2.83,1.5-4.11,0.51
		C158.01,478.47,157.78,476.63,158.77,475.36z"/>
	<g>
		<path class="st0" d="M352.89,404.5c1.32-1,3.2-0.74,4.2,0.58c1,1.32,0.74,3.2-0.58,4.2c-1.32,1-3.2,0.74-4.2-0.58
			C351.31,407.38,351.57,405.5,352.89,404.5z"/>
		<path class="st0" d="M367.2,393.68c1.51,0.57,2.28,2.26,1.71,3.77c-0.57,1.51-2.26,2.28-3.77,1.71c-1.51-0.57-2.28-2.26-1.71-3.77
			C364,393.88,365.68,393.11,367.2,393.68z"/>
	</g>
	<path class="st0" d="M204.6,547.08c0.99-1.27,2.83-1.5,4.11-0.51c1.27,0.99,1.5,2.83,0.51,4.11c-0.99,1.27-2.83,1.5-4.11,0.51
		C203.84,550.19,203.61,548.35,204.6,547.08z"/>
	<path class="st0" d="M647.87,205.89c-0.66,1.52-2.43,2.22-3.95,1.55c-1.52-0.66-2.22-2.43-1.55-3.95c0.66-1.52,2.43-2.22,3.95-1.55
		C647.84,202.61,648.53,204.37,647.87,205.89z"/>
	<path class="st0" d="M659.72,195.97c-0.66,1.52-2.43,2.22-3.95,1.55c-1.52-0.66-2.22-2.43-1.55-3.95c0.66-1.52,2.43-2.22,3.95-1.55
		C659.69,192.69,660.38,194.45,659.72,195.97z"/>
	<path class="st0" d="M672.68,184.74c-0.66,1.52-2.43,2.22-3.95,1.55c-1.52-0.66-2.22-2.43-1.55-3.95c0.66-1.52,2.43-2.22,3.95-1.55
		C672.65,181.46,673.34,183.22,672.68,184.74z"/>
	<polygon class="st0" points="643.07,94.82 634.01,92.7 640.78,89.69 641.78,78.62 646.5,89.22 654.75,89.88 646.57,93.52 
		646.38,100.42 	"/>
	<path class="st0" d="M128.51,332.3c-0.6,1.5-2.3,2.24-3.8,1.64c-1.5-0.6-2.24-2.3-1.64-3.8c0.6-1.5,2.3-2.24,3.8-1.64
		C128.37,329.09,129.1,330.79,128.51,332.3z"/>
	<path class="st0" d="M140.37,342.71c-0.6,1.5-2.3,2.24-3.8,1.64c-1.5-0.6-2.24-2.3-1.64-3.8c0.6-1.5,2.3-2.24,3.8-1.64
		C140.24,339.51,140.97,341.21,140.37,342.71z"/>
	<polygon class="st0" points="149.98,353.37 149.32,344.09 154.2,349.67 165.07,347.35 156.34,354.99 158.15,363.07 152.25,356.34 
		145.6,358.19 	"/>
	<polygon class="st0" points="678.73,104.4 687.84,95.02 685.25,108.61 692.08,113.58 682.06,111.66 674.97,124.05 677,113.44 
		664.24,110.09 671.25,107.59 671.14,98.31 	"/>
	<polygon class="st0" points="341.02,435.11 344.69,450.2 334.74,439.18 323.49,445.18 330.84,434.31 318.57,424.94 329,426.77 
		329.34,415.43 336.14,422.49 344.75,414.59 340.91,425.69 351.51,427.47 	"/>
	<polygon class="st0" points="45.67,309.49 36.88,319.18 39.01,305.51 32.01,300.78 42.1,302.35 48.76,289.74 47.09,300.4 
		59.96,303.32 53.04,306.05 53.46,315.33 	"/>
	<polygon class="st0" points="280.43,645.36 278.95,658.36 272.7,646.02 264.25,646.27 273.35,641.65 271.39,627.52 276.27,637.15 
		288.42,632 284.4,638.26 290.16,645.54 	"/>
	<path class="st0" d="M631.53,221.17c2.05,0.52,15.31,5.67,15.31,5.67l-13.44,1.35l1.61,12.42l-6.24-8.49l-5.67,10.95l-1.35-10.53
		l-12.34,7.09l7.29-10.18l-10.61-2.67l11.22-2.64l-5.12-12.94l8.89,9.52l3.71-16.17l2.38,12.25l10.37-5.03L631.53,221.17z"/>
	<polygon class="st0" points="288.49,599.01 285.05,611.02 279.05,599.32 270.26,603.84 275.7,594.26 271.32,585.74 281.63,591.22 
		290.24,586.8 289.76,592.44 296.21,598.43 	"/>
</g>
</svg>
