<?xml version="1.0" encoding="utf-8"?>
<!-- Generator: Adobe Illustrator 26.0.0, SVG Export Plug-In . SVG Version: 6.00 Build 0)  -->
<svg version="1.1" id="圖層_1" xmlns="http://www.w3.org/2000/svg" xmlns:xlink="http://www.w3.org/1999/xlink" x="0px" y="0px"
	 viewBox="0 0 725.7 725.7" style="enable-background:new 0 0 725.7 725.7;" xml:space="preserve">
<style type="text/css">
	.st0{display:none;}
	.st1{display:inline;}
	.st2{fill:#FFFCF0;}
	.st3{fill:#BF5E47;}
	.st4{fill:#FF7E5F;}
	.st5{display:none;fill:#BF5E47;}
	.st6{fill:#592929;}
	.st7{fill:#B04A38;}
	.st8{fill:#662F2F;}
	.st9{fill:#873E3E;}
	.st10{fill:#3D1C1C;}
	.st11{fill:#4F2424;}
	.st12{fill:#441F1F;}
	.st13{fill:#46221A;}
	.st14{fill:#FFFFFF;}
	.st15{fill:#FFBD9B;}
	.st16{fill:url(#SVGID_1_);}
	.st17{fill:url(#SVGID_00000041985208830847052440000009409049244924545157_);}
	.st18{fill:url(#SVGID_00000142867636462750972860000000336353521085433223_);}
	.st19{fill:url(#SVGID_00000143609316102936054730000003431144092597057211_);}
	.st20{fill:url(#SVGID_00000049906073143961656170000011072305901011382932_);}
	.st21{fill:url(#SVGID_00000005983223035760375640000000216215932511861903_);}
	.st22{fill:url(#SVGID_00000061473467445289141540000007823620933941642628_);}
	.st23{fill:url(#SVGID_00000029724443258823867040000017628758755076238267_);}
	.st24{fill:url(#SVGID_00000166667410438173858860000009115160021977045162_);}
	.st25{fill:url(#SVGID_00000077313447195888616480000011642568664144797361_);}
	.st26{fill:url(#SVGID_00000109736543864774727480000016530108385238588558_);}
	.st27{fill:url(#SVGID_00000122678880218794185430000013716131794831169962_);}
	.st28{fill:url(#SVGID_00000158024440903530151090000013068611339061136312_);}
	.st29{fill:url(#SVGID_00000075147760286856243590000009354525772470778541_);}
	.st30{fill:url(#SVGID_00000072999895858679338750000008764457975715246229_);}
	.st31{fill:url(#SVGID_00000161613119792776336460000003114813369330496914_);}
	.st32{fill:url(#SVGID_00000165927867544641356100000000321693028907215236_);}
	.st33{fill:url(#SVGID_00000066517591923127399450000017595733300229925000_);}
	.st34{fill:url(#SVGID_00000172430607658513700550000014101456101620484517_);}
	.st35{fill:url(#SVGID_00000074406242316312055110000006249689668468134536_);}
	.st36{fill:url(#SVGID_00000100341489956425247750000000233880550042825404_);}
	.st37{fill:url(#SVGID_00000168798526996190966370000008292764858544916138_);}
	.st38{fill:url(#SVGID_00000003071491574091133700000002324802049865652873_);}
	.st39{fill:url(#SVGID_00000007402732695237710820000002620612598286407867_);}
	.st40{fill:url(#SVGID_00000177466973281144462230000006833443888138618550_);}
	.st41{fill:url(#SVGID_00000124862703980009265140000018214798292727716752_);}
	.st42{fill:url(#SVGID_00000146494794985799283900000000110076895175798957_);}
	.st43{fill:url(#SVGID_00000064317067754738138090000012063333710788523967_);}
	.st44{fill:url(#SVGID_00000026136889072922738280000004949842565251566729_);}
	.st45{fill:url(#SVGID_00000118390021961141739370000004263110411415813534_);}
	.st46{fill:url(#SVGID_00000063596728615929213790000007278970570674694316_);}
	.st47{fill:url(#SVGID_00000110452561044887375830000007574012187169259966_);}
	.st48{fill:url(#SVGID_00000174560096620408872180000000313003045467974836_);}
	.st49{fill:url(#SVGID_00000046329892548084622000000004700670340054213516_);}
	.st50{fill:url(#SVGID_00000045605621515977230660000004937871039647530908_);}
	.st51{fill:url(#SVGID_00000105426212175032147520000006224080917272525466_);}
	.st52{fill:url(#SVGID_00000070115854385230560840000006041705833828499899_);}
	.st53{fill:url(#SVGID_00000136369337554701724680000003949612973429295508_);}
	.st54{fill:url(#SVGID_00000149349886278250623450000018092127925685350796_);}
	.st55{fill:url(#SVGID_00000016065852724027887870000014947404074222112439_);}
	.st56{fill:url(#SVGID_00000127006916053120164180000007224750798512253863_);}
	.st57{fill:url(#SVGID_00000139997256505296995400000006175809302385716103_);}
	.st58{fill:url(#SVGID_00000103258683171325400300000014055948615223778183_);}
	.st59{fill:url(#SVGID_00000179603562675978400810000015467534288033321633_);}
	.st60{fill:url(#SVGID_00000153696649455182203220000012930103320185210804_);}
	.st61{fill:url(#SVGID_00000005953246480765272450000018200553631147457463_);}
	.st62{fill:url(#SVGID_00000123423766643005888520000002164342376100478337_);}
	.st63{fill:url(#SVGID_00000047748846314435364480000011795516591451895217_);}
	.st64{fill:url(#SVGID_00000073687421419757325020000003389000549761925528_);}
</style>
<g id="圖層_1_00000096059870388649480750000015015458544567382662_" class="st0">
	<g class="st1">
		<g>
			<g>
				<g>
					<path class="st2" d="M400.8,365.4c-3.8,16-5,33.1,2,48.4c7.7,16.7,23.9,27,37.9,37.8c30.9,24,71.4,51.6,78.1,92.9
						c0.2,1.2,2.2,0.9,2.2-0.3c0-34-33.2-58.9-56.8-78.4c-15.1-12.5-32.3-23.4-46.3-37.2c-17.4-17.2-19.6-39.6-14.8-62.6
						C403.4,364.6,401.2,364,400.8,365.4L400.8,365.4z"/>
				</g>
				<g>
					<path class="st2" d="M496.8,629.6c-2.7,1.2-5.4,2.3-8.2,3.5c13.6-23.7,14.4-49.3,6.9-74.4c-2.8-9.3-6.7-18.6-11.5-27.6
						c-4.9-9.2-10.2-18.3-15.9-27.1c-16.7-26.2-36.3-50.9-55.7-74.5c-0.4-0.6-0.5-1.2-0.3-1.7c0.3-1.2,1.8-1.9,2.8-0.8
						c3.7,4.5,7.5,9.1,11.3,13.6c16.4,19.9,32.9,40.8,46.9,62.8c7.7,12,14.6,24.4,20.4,37.1c2.3,5,4.4,10.5,6.2,16.2
						C507,580.4,508.8,608.4,496.8,629.6z"/>
				</g>
			</g>
			<path class="st2" d="M286.7,178c-11.2,3.1-24.5,5.9-34.1,0.1c-5.7-3.5-8.6-9.2-10.3-14.9c-2.6-8.4-3.5-17.3-0.5-25.5
				s10.1-15.6,19.9-18.5c5.8-1.7,12.2-1.8,18.3-1.4c5.4,0.3,10.9,1,16,2.4c11.6,3.4,21.2,11.2,25.5,20.7c4.2,9.5,2.9,20.5-3.5,28.9
				L286.7,178z"/>
			<path class="st2" d="M383.4,658.8c-8.4,1-17.1,1.8-26.1,2.4c-7.1,0.5-14.5,0.9-22,1.2c-6.3,0.3-12.8,0.4-19.4,0.4
				c-16,0.1-32.9-0.2-50.7-1.1c-0.3,0.1-0.6,0.1-1,0.1c-13.9,2-28.6,2-43.8-1c-1.9-0.5-3.7-1-5.4-1.5c-18.1-2.1-36-5.8-53.5-11.1
				c0.1-1.3,0.3-2.6,0.4-3.8c2.8-23.9,5.6-47.8,8.4-71.6c-3.1,4.6-7.6,8.1-12.7,9.9c-0.6-13.4,0.4-26.9,2.8-40
				c1.2-6.5,2.8-13,4.7-19.3l0,0c0.8-2.4,1.6-4.8,2.4-7.2c4.5-12.4,10.3-24.2,16.2-36c0.1-0.1,0.1-0.2,0.1-0.3
				c3.4-6.8,6.8-13.6,9.9-20.5c0-0.1,0.1-0.1,0.1-0.2c1.6-3.4,3-6.8,4.3-10.2c0.1-0.1,0.1-0.3,0.2-0.4c1-2.4,1.9-4.9,2.7-7.4
				c0.9-2.7,1.8-5.4,2.7-8.2l0,0c0.6-1.9,1.1-3.8,1.6-5.7c1.3-4.6,2.4-9.1,3.4-13.8c0-0.1,0-0.1,0-0.1c0.8-3.9,1.6-7.8,2.3-11.7
				c0.2-1.1,0.4-2.3,0.6-3.4l0,0c0.2-1.1,0.4-2.2,0.6-3.3l0,0c0.3-2.1,0.6-4.2,0.9-6.3c0.6-3.8,1.1-7.7,1.5-11.6
				c1.8-15.2,2.9-30.5,4.1-45.7l-1-34.5l0,0l-1.3-42.9l-0.5-17.4c0,0,8.8-2.5,20.6-4.1c24.5-3.5,61.6-3.6,58.1,28.9
				c-0.6,5.9-0.9,11.3-0.7,16.4c0,0.8,0,1.7,0.1,2.5c0,0.9,0.1,1.8,0.1,2.6c0.2,2.6,0.5,5,0.8,7.4c0.2,1.3,0.4,2.6,0.7,3.8
				c0.3,1.8,0.7,3.5,1.2,5.2c2.4,9,6,16.9,10.1,24.4c1,1.8,2.1,3.7,3.1,5.5c0.2,0.3,0.4,0.7,0.6,1c0.4,0.7,0.8,1.4,1.2,2
				c0,0,0,0,0.1,0.1c2.1,3.5,4.3,6.9,6.4,10.5c0.7,1.2,1.4,2.4,2.1,3.6c0.1,0.2,0.3,0.5,0.4,0.7c2.1,3.5,4.1,7.1,6,11
				c0.2,0.3,0.3,0.6,0.5,0.9c0.3,0.6,0.6,1.1,0.9,1.7c2,4.1,4,8.6,6.1,13.7c0.3,0.6,0.5,1.3,0.8,1.9c0.1,0.3,0.3,0.7,0.4,1
				c1.5,3.8,3.1,7.8,4.6,12.1c6.5,17.8,13.3,40.2,19.9,67.6c0.2,0.8,0.4,1.7,0.6,2.5c2.1,9,4.2,18.5,6.2,28.5
				c0.4,1.8,0.7,3.5,1.1,5.3c2.9,14.8,5.7,30.7,8.3,47.7l0,0c0.8,5.1,1.6,10.3,2.3,15.7c0.6,4.2,1.1,8.4,1.6,12.4
				c0,0.2,0.1,0.4,0.1,0.7c0.7,6.2,1.4,12.1,1.8,17.9c0.1,1.4,0.3,2.9,0.3,4.3C384.6,618.2,384.5,640.6,383.4,658.8z"/>
			<path class="st2" d="M492.4,604.7c-1.8-7.1-5.2-13.8-10.1-19.4c-2.2,19.4-7.7,38.4-16.2,55.9c-9.6,3.1-19.8,6-30.6,8.5
				c-16,3.7-33.4,6.8-52.2,9c-8.4,1-17.1,1.8-26.1,2.4l-11.1-36l-14.4-46.6l-6.4-20.7l-0.8-2.7L314.2,522l-0.5-1.5l-0.6-1.8
				l-2.7-8.6l-11-35.6v-0.1l-4.3-13.8l0,0l-1.3-4.3l-10.5-33.8l-0.1-0.3l-0.5-1.6l-1.1-3.5l-3.3-10.6l3.3-3.3l23.8-23.8l8.6-8.6
				l8.9-8.9l3.8-3.8l51.9-51.9l14-14l0.8,7.9l0.1,0.7l0.8,7.4l1.4,13.6l2,19.3l0.4,4.2l2.2,21v0.1l0,0l0.9,8.9l0,0l3.7,34.7l0,0
				l0.9,8.1c0.3,1.1,0.6,2.3,1,3.4l0,0l0,0c4.9,15.1,15.5,27.8,25.9,39.8c11.9,13.9,23.9,27.8,34.3,42.8c5,7.2,9.5,14.6,13.5,22.4
				c5.4,10.5,9.6,21.8,12.1,33.3C496,574.7,496.3,590,492.4,604.7z"/>
			<g>
				<g>
					<path class="st2" d="M210.4,228.8c-0.4,45.9-11.9,86.6-33.3,127.1c-17.3,32.7-37.1,70-25.7,107.9c0.5,1.6,2.7,0.9,2.4-0.7
						c-8.8-45.4,16.7-83.3,35.5-122.2c16.9-34.9,25.8-73.3,22.5-112.1C211.7,227.9,210.4,227.9,210.4,228.8L210.4,228.8z"/>
				</g>
				<g>
					<path class="st2" d="M196.2,395.6c0.7,22.2-3.4,43.4-14.5,62.8c-9.9,17.4-23.5,32.2-35.6,48c-17.8,23.2-38.3,59.3-23,88.8
						c1.2,2.4,4.7,0.7,4.2-1.8c-4.5-21.6-2-40.2,8.4-59.8c8.8-16.5,21.1-30.6,32.6-45.3c21.3-27.3,36.4-57.6,31.3-93.1
						C199.2,393.3,196.1,393.7,196.2,395.6L196.2,395.6z"/>
				</g>
				<g>
					<path class="st2" d="M209.1,405.4c0,2.7-0.1,5.3-0.3,8v0.1c-0.3,5.5-1,10.9-1.9,16.4c-0.6,3.4-1.2,6.8-2,10.2
						c-0.1,0.7-0.3,1.4-0.4,2.1c-0.6,2.3-1.1,4.7-1.8,7c-3.5,13.2-8.3,26.2-13.7,38.7c-0.3,0.6-0.5,1.2-0.8,1.8
						c-4.4,10-9.2,19.7-14.2,28.8c-4.4,8.1-9.1,16-13.6,24.1c-6.3,11.5-12.2,23.2-15.7,35.9c-6.1,21.5-4.7,43.2,1,64.5
						c-1.8-0.6-3.6-1.3-5.4-2c-12.7-38.7,1.3-76,20.8-110.5c1.4-2.4,2.7-4.8,4-7.2l0,0c7.3-13.2,14.1-26.6,19.9-40.5
						c0.1-0.3,0.3-0.7,0.4-1c1.8-4.4,3.6-8.9,5.2-13.5c1.1-3,2.1-6.1,3.1-9.1c0-0.1,0.1-0.1,0.1-0.2c1.1-3.4,2.1-6.8,3.1-10.3
						c0.8-2.7,1.5-5.5,2.3-8.2c1.4-5.3,2.8-10.6,4.2-15.9c0-0.1,0.1-0.2,0.1-0.3c1.7-6.4,3.4-12.8,5.3-19.2
						C208.8,405.1,209.1,405.2,209.1,405.4z"/>
				</g>
			</g>
			<g>
				<g>
					<path class="st2" d="M383.7,176.7c23.6,5,45.2,19.5,57.2,40.7c9.8,17.3,6.8,32.1-5.5,46.8c-8.3,9.9-17.6,18.3-28.1,25.7
						c-1.4,1-0.2,2.9,1.3,2.2c13.7-6,24.7-17.7,33.5-29.5c9-12.2,12-24.8,6.2-39.1c-10.6-26.7-36.4-44.7-64.4-48.3
						C383,175,382.8,176.5,383.7,176.7L383.7,176.7z"/>
				</g>
				<path class="st2" d="M410.1,273.2c16.4-1.5,31-14.6,34.3-30.7c3.7-17.8-6-36.4-20.1-47.8c-14.2-11.4-36.8-31.3-113.3-31.3
					c-51,0.7,26.9,69.4,26.9,69.4L410.1,273.2z"/>
				<path class="st3" d="M435.5,649.8c-16,3.7-33.4,6.8-52.2,9c-8.4,1-17.1,1.8-26.1,2.4c-7.1,0.5-14.5,0.9-22,1.2
					c-6.3,0.3-12.8,0.4-19.4,0.4c-16,0.1-32.9-0.2-50.7-1.1c-0.3,0.1-0.6,0.1-1,0.1v-0.2l0.1-11.4l0.3-51.8l0,0l0.4-72.4v-4.7v-8.1
					l0,0l0.1-20.9v-5.8v-6.7l0.3-52.8v-4.9l0.1-12.2l0.1-20.3v-7.3l17.8-6.2l0.6-0.2l5.5-1.9l22.2-7.7l0.5-0.2l5.5-1.9l4.4-1.5
					l1.2-0.4l0,0l4.8-1.7l30.9-10.7c0,0,0,9.1,0,18.9v12.6c0,7.1,0.6,14.2,1.8,21.1c3.9,23.3,14.2,45.5,29.5,63.4
					c4.3,5,8.9,9.7,14,13.9c0,0,0.1,0,0.1,0.1c0.3,0.2,0.6,0.5,0.9,0.7c0.2,0.2,0.4,0.4,0.7,0.6c0.9,0.8,1.9,1.5,2.8,2.3
					c1,0.7,1.9,1.5,2.9,2.2c3.2,2.3,6.7,4.6,8.7,7.9c1.9,3.1,2.4,6.8,2.5,10.5c0,1.2,0,2.4,0,3.6c0,3,0,6.1,0.1,9.1
					c0,2.6,0.1,5.1,0.1,7.7l0,0c0.1,6.1,0.3,12.2,0.6,18.4l0,0c0,1.1,0.1,2.2,0.1,3.3c0.1,2,0.2,4,0.3,5.9l0,0
					c0.1,2.2,0.2,4.4,0.4,6.6C426.7,589.1,430.3,619.6,435.5,649.8z"/>
				<path class="st4" d="M435.5,649.8c-16,3.7-33.4,6.8-52.2,9c-8.4,1-17.1,1.8-26.1,2.4c-7.1,0.5-14.5,0.9-22,1.2
					c-6.3,0.3-12.8,0.4-19.4,0.4c-16,0.1-32.9-0.2-50.7-1.1c-0.3,0.1-0.6,0.1-1,0.1v-0.2l0.1-11.4l0.3-51.8l0,0l0.4-72.4v-4.7v-8.1
					l0.1-20.9v-5.8v-6.7l0.3-52.8v-4.9v-9.3c3.6,1.7,7.1,3.7,10.5,5.6c0.8,0.5,1.7,0.9,2.5,1.4c1.5,0.8,3.1,1.7,4.6,2.5
					c0.1,0,0.1,0.1,0.2,0.1c0.7,0.4,1.4,0.8,2.1,1.1l0,0c4.8,2.6,9.6,5.1,14.3,7.7c11.4,6.2,22.8,12.5,34.6,17.9
					c3.8,1.8,7.7,3.5,11.6,5.1c0.4,0.1,0.8,0.3,1.2,0.5c1.6,0.6,3.2,1.3,4.9,1.8c2.8,1,5.7,2,8.6,2.8c3,0.9,6.1,1.7,9.1,2.5l0,0
					c6.8,1.7,13.6,3,20.6,4h0.1c4.3,5.1,9.1,9.8,14.2,14.1c0.2,0.2,0.4,0.4,0.7,0.6c0.2,0.2,0.4,0.4,0.7,0.6
					c0.9,0.8,1.9,1.5,2.8,2.3c1,0.7,1.9,1.5,2.9,2.2c3.2,2.3,6.7,4.6,8.7,7.9c1.9,3.1,2.4,6.8,2.5,10.5c0,1.2,0,2.4,0,3.6
					c0,3,0,6.1,0.1,9.1c0,2.6,0.1,5.1,0.1,7.7l0,0c0.1,6.1,0.3,12.2,0.6,18.4l0,0c0,1.1,0.1,2.2,0.1,3.3c0.1,2,0.2,4,0.3,5.9l0,0
					c0.1,2.2,0.2,4.4,0.4,6.6C426.7,589.1,430.3,619.6,435.5,649.8z"/>
				<g>
					<path class="st3" d="M418.1,297.7L418.1,297.7c-1.6,11.7-3.1,21.1-4.4,28.7c-0.7,4-1.3,7.5-1.9,10.5
						c-2.6,13.1-4.1,17.5-4.1,17.5s1.4,24.8-64.5,22.3c-1.7,0-3.4-0.2-5-0.3c-59.1-5.5-25-67.9-25-67.9l104.5-11.2
						C417.8,297.5,418,297.6,418.1,297.7z"/>
					<path class="st3" d="M284.6,376.8c-25.5-17-48.3-39.2-61.6-66.9c-13.3-27.7-16.1-61.2-3.3-89c20.6-44.9,78.4-64.6,126.2-51.8
						c30.3,8.1,58.6,28.8,69.5,58.2c8.2,22.3,5.9,46.9,2.6,70.4c-1.5,11.2-3.3,22.5-8.5,32.5c-9.9,19-30.3,29.9-50,38.3
						c-14,6-28.7,11.3-44,11.5s-31.3-5.7-40-18.2L284.6,376.8z"/>
					<path class="st5" d="M434.6,323.2c-3.3,2.3-15.6,10-19.7,12.5l-0.9,0.1c0,0-4.6-0.3-3.3-5.6
						C412.1,324.9,434.6,323.2,434.6,323.2z"/>
					<path class="st5" d="M317.1,301.9c0,0-16.6-22.8-30.2-6s-0.1,43.9,23.7,44.3L317.1,301.9z"/>
				</g>
				<g>
					<g>
						<path class="st6" d="M303.8,305.2c12.2,10.9,35.3,8.8,48-0.1c1.6-1.1,1.3-4.3-1.1-4.1c-7.1,0.8-13.5,4.3-20.4,5.8
							c-8.8,1.9-17,0.8-25-3.4C304.1,302.8,302.8,304.3,303.8,305.2L303.8,305.2z"/>
					</g>
					<path class="st6" d="M358.5,270.2c-6.5-11.6-20.5-18.6-33.7-16.8c-11.3,1.5-21.1,8.7-29.2,16.6c5.4-4.5,12.8-5.8,19.8-5.7
						c4.4,0,8.7,0.5,13,0.9c9.4,0.9,18.8,1.9,28.3,2.8L358.5,270.2z"/>
					<g>
						<path class="st4" d="M322,341.3c-2.1-0.6-4.7-2.3-6-4.1c-1.9-2.7,1.6-3.5,3.7-3.9c1.7-0.3,10.9-1.3,10,2.9
							c-0.6,2.7-6.9,0.1-8.1-0.8c-0.1-0.1-1.8-2.1-2-2.2c-0.5-1-0.6-0.7-0.4,1c-0.6,1.6-0.3,2,1,1.1c2.1,0.9,3.3,0.6,3.9,3.4
							c0.8-1.9,1.6-3.8,2.3-5.7c-2.6,1.4-5.1,0.4-6.9-1.8c-0.7,2.8-1.5,5.5-2.2,8.3c1.6-0.5,2.5-0.4,4.1,0.2
							c5.2,1.7,7.8-5.7,3.6-8.5c-3.2-2.1-6.7-2.3-10.3-1.3c-3.9,1-4.5,5.5-2.2,8.3c4.7,5.7,12.6,6.7,19,3.4c2.1-1.1,2.8-3.6,2.3-5.7
							c-1.4-6.5-7.1-11.2-13.8-11c-6.3,0.2-12.8,5.1-10.1,11.9c4.1,10.2,24.8,16.3,29.2,3.1c1.8-5.4-0.8-11.6-5.6-14.5
							c-5.4-3.3-12.5-2.5-18.1-0.3c-5.4,2.1-10.4,7.6-7.6,13.7c2.3,5,8.8,8.5,14.1,7.8C325,346.4,324.5,342,322,341.3L322,341.3z"/>
					</g>
					<g>
						<path class="st7" d="M304.4,292.1c13-6,33.8-6.6,44.8,3.5c1.5,1.4,4.4-0.5,3.1-2.4c-10.5-14-35.6-11.3-48.8-2.9
							C302.3,291.1,303.3,292.7,304.4,292.1L304.4,292.1z"/>
					</g>
				</g>
				<g>
					<g>
						<path class="st6" d="M413.3,301.2c-4.5,3.3-8.5,4.8-13.9,2.6c-3.8-1.6-6.8-4.6-10.9-4.9c-1.7-0.1-2.7,1.9-1.9,3.3
							c2.7,4.8,10.6,7.3,16,7.4c5.2,0.1,9.8-2.3,12.3-6.8C415.4,301.8,414.3,300.4,413.3,301.2L413.3,301.2z"/>
					</g>
					<path class="st6" d="M384.2,271.3c3.6-10.5,11.3-16.8,18.6-15.2c6.2,1.4,11.6,7.8,16.1,15c-3-4.1-7.1-5.2-10.9-5.2
						c-2.4,0-4.8,0.4-7.2,0.8c-5.2,0.9-10.4,1.7-15.6,2.6L384.2,271.3z"/>
					<path class="st4" d="M413.7,326.4c-0.7,4-1.3,7.5-1.9,10.5c-1.7,2.2-4,4-6.6,3.9c-2.1,0.8-4.4,1-6.6,0.2
						c-4.5-1.5-6.6-6.2-6.4-10.7c0.3-4.4,2.4-8.8,6.5-10.7c4.2-1.9,9.8-0.3,12.8,3.1C412.5,323.8,413.2,325.1,413.7,326.4z"/>
					<g>
						<path class="st7" d="M415,289.7c-7.4-8.4-24-9-28.3,2.9c-0.8,2.2,2.3,3.1,3.6,1.5c3.2-4.4,6.3-6.1,11.9-6.2
							c4.3-0.1,8.1,0.8,11.6,3.4C414.8,291.9,415.7,290.5,415,289.7L415,289.7z"/>
					</g>
				</g>
				<path class="st2" d="M234.9,276.8c34.5,13.2,73.5-1.1,105.4-19.4c14.4-8.3,28.6-17.8,37.6-31.4c9-13.6,11.7-32.4,2.5-45.9
					c-39.5-12.7-82.8-25.4-121.6-10.8c-14.5,5.5-27.5,14.7-37.3,26.4c0,0-6.6-12.3-12.9,31.2c-6.3,43.5,4.5,64.4-8.1,97.5
					c-12.5,33.1-33,101.8-15.2,126.3c9.3-97.7,51.1,62.7,51.1,62.7s108.6,41.9,100.9-40c-4.6-49-15.3-98.8-42.7-140
					c-10.6-15.9-24.3-33.2-19.8-51.7L234.9,276.8z"/>
				<path class="st3" d="M200.1,651.4c0.3,0.4,0.6,0.7,0.9,1.1c24.3,3.5,50,2.2,73.6-4.9c-0.7-1.8-0.6-3.9-0.5-5.8
					c3.1-34.5,12.5-68.2,17.9-102.4c5.5-34.4,23.8-116.4-30-130.6c-13-3.4-39.4,33-47.7,57.8c-17.4,51.9-24.5,107.3-20.5,161.9
					C194.4,636.5,195.4,644.9,200.1,651.4z"/>
				<g>
					<path class="st7" d="M379.7,298.5c-1,4.6-1.1,9.1-0.5,13.8c0.7,5.2,6.5,18.1-2.9,18.4c-2.5,0.1-3.8,3.7-1.3,5
						c5.4,2.9,12.2-0.7,13.4-6.7c0.9-4.4-1.5-9.1-2.5-13.2c-1.4-5.7-2.1-11.5-3.3-17.3C382.3,297.1,380.1,297.1,379.7,298.5
						L379.7,298.5z"/>
				</g>
				<path class="st7" d="M361,402.4c-8.2-2.3-21.4-9.8-36-32.8c0.5,0.4,9.1,8,34.2,7.3v4.4C359.2,388.4,359.8,395.5,361,402.4z"/>
				<g>
					<path class="st2" d="M273.1,280.1c-4.6,15.6,4.6,31.8,13.6,43.9c11,14.8,23.6,28.2,33.6,43.9c22.9,35.8,31.5,75.4,22.1,117.1
						c-0.3,1.4,1.8,2.5,2.5,1c14.8-33.5,6.3-72.6-9.8-104.1c-8.3-16.2-18.9-31.1-30.5-45.1c-7.2-8.6-14.8-16.9-20.4-26.7
						c-5.6-9.7-7.6-19.3-9.2-30.2C274.8,279.1,273.4,279.3,273.1,280.1L273.1,280.1z"/>
				</g>
				<g>
					<path class="st2" d="M327.2,169.1c19.7,2.2,41.4,5.1,53.8,22.5c14.6,20.4,3.3,38.8-11.4,54.7c-27.4,29.5-60.6,53-102.7,49.4
						c-1.2-0.1-1.4,1.8-0.3,2.1c45.9,12.1,91.7-25.4,117.3-60.1c11.9-16.1,12.3-35.6-0.4-51.6c-13.2-16.6-36-22.6-56.4-19.9
						C325.3,166.4,325.3,168.9,327.2,169.1L327.2,169.1z"/>
				</g>
				<g>
					<path class="st2" d="M366,232c-13,13.7-27.2,27.8-43.1,38.1c-17.1,11-36.3,10.9-55.8,12.4c-1,0.1-1,1.5,0,1.5
						c18.1,0.7,37.8-0.7,53.7-10.2c17.4-10.3,32-26.8,45.4-41.6C366.2,232,366.1,231.9,366,232L366,232z"/>
				</g>
				<path class="st8" d="M363.7,349.2c0.7,0.7,7.3,8.2,15.3,8.4c8,0.1,8.4-9,8.4-9L363.7,349.2z"/>
				<path class="st6" d="M363.7,349.2c0,0,12.1-5.9,12.1-5.4s3.3,2.6,3.3,2.6l4.6-3l3.6,5.1C387.3,348.6,376.6,351.6,363.7,349.2z"
					/>
				<path class="st3" d="M391,581.8c0,0-0.4,0.5-1.1,1.5l0,0c-1.4,1.7-3.8,4.7-7.3,8.5c-7.6,8.4-20.1,21.1-36.4,33.4
					c-4.9,3.7-10.2,7.4-15.8,11c-6.2,3.9-12.8,7.7-19.8,11c-13.9,6.8-29.1,12-45.4,14.5c-0.3,0.1-0.6,0.1-1,0.1
					c-13.9,2-28.6,2-43.8-1c-1.9-0.5-3.7-1-5.4-1.5c-6.1-2-10.5-4.3-13.6-6.8l0,0c-0.4-0.3-0.8-0.7-1.2-1.1c0,0-0.1,0-0.1-0.1
					c-3.5-3.4-4.8-7.1-4.7-10.8c0.4-13.5,19.3-27.5,19.3-27.5l29.5-8.7l5.3-1.6l15-4.4l0,0l17.1-5.1l15.9-4.7l23-6.8l11.1-3.3
					l37.3-11l6.1-1.8l2-0.6l3.2,3.8l0.6,0.7L391,581.8z"/>
				<g>
					<path class="st6" d="M330.5,662.2c-6.6,0.3-13.4,0.4-20.4,0.5c-0.6-2.2-1.2-4.4-2-6.4c-1.1-3.3-2.3-6.6-3.5-9.9
						c-4-10.5-8.6-20.7-13.8-30.6l0,0l2.9-3.3l7.4-8.6l5.6-6.5c0.8,0.9,1.7,1.9,2.4,2.9c8,9.9,12.6,22.2,16.2,34.6
						c0.8,2.8,1.6,5.7,2.3,8.5c1.3,4.9,2.5,9.9,2.8,14.9C330.6,659.4,330.6,660.8,330.5,662.2z"/>
					<g>
						<path class="st8" d="M630.9,288c-11.6-12.7-33.8-13.4-46.1-1.4c-11.8,11.5-13.2,29.9-21.8,43.9c-4.9,8-12.7,14.7-21.9,16.5
							s-19.8-2.1-24.1-10.4c6.9,14.4,21.8,24.6,37.7,25.9s32.2-6.3,41.4-19.3c3.4-4.8,5.9-10.3,9.9-14.5c4-4.3,10.4-7.1,15.8-4.9
							c3.6,1.5,7.2,5,10.6,3.2c1.6-0.8,2.4-2.6,3-4.3c4.8-14.5-2.4-32-16-38.9L630.9,288z"/>
						<path class="st6" d="M633.3,311.8c2.2-5.7,10-7.5,15.7-5.4c5.7,2.2,9.9,7.1,13.8,11.8c16.9,20.3,33.9,41.1,44.5,65.3
							c0.9,2.1,1.8,4.4,1.1,6.6c-0.5,1.8-2,3.1-3.5,4.1c-16.6,12.2-41.4,6.3-56.4-7.8c-15-14.2-22.3-34.4-28.2-54.2L633.3,311.8z"/>
						<path class="st8" d="M701.6,392.1c21.8,18.5,5.6,57.4-14.1,78.2c-2.3,2.5-4.9,4.9-8.1,6c-10.2,3.5-19.1-7.1-28-13.1
							c-8-5.4-19.7-10.7-18.1-20.1c0.7-3.8,3.5-6.7,6.2-9.4c11.2-11.3,22.5-22.5,33.7-33.8C673.3,399.8,685,378,701.6,392.1z"/>
						<path class="st6" d="M668.3,471.9c1.5,4,5.5,6.8,4.6,11s-3.7,7.7-6.5,10.9c-15.3,17.3-34.9,30.8-56.5,39
							c-8.2,3.1-18.4,5.1-24.9-0.8c-7.8-7.1-4.3-19.9-0.2-29.7c5.5-13.2,11.3-26.8,21.2-37.2c9.9-10.4,25-17.1,38.8-13.1
							C644.7,451.9,662.3,455.8,668.3,471.9z"/>
						<path class="st8" d="M572.4,538.2c-13.1,8.5-28.6,13.3-44.2,13.7c-6.8,0.2-15.2-1.5-17.3-8c-1.2-3.8,0.2-7.8,1.5-11.5
							c4-10.8,8.1-21.7,15.4-30.7c7.2-8.9,18.2-15.6,29.6-14.7c7.5,0.6,14.3,4.2,20.8,7.9c0,0,19.5,5.7,19.5,16.2
							S572.4,538.2,572.4,538.2z"/>
						<path class="st6" d="M447.3,547.5c-12.5-9.2-15.7-30.1-4.2-40.7c2.6-2.3,5.6-4.1,8.7-5.5c20.1-9.4,44.8-8.1,63.8,3.4
							c0,0,21.2,16.9,7.6,30.6C509.6,548.9,486.5,569.8,447.3,547.5z"/>
					</g>
					<path class="st6" d="M193.5,369.7c10.7-11.3,29-12,43.5-6.2c14.4,5.8,26.1,16.7,37.9,26.8c28.3,24.3,59.6,45.1,93,61.7
						c27.2,13.6,58,26.5,71.4,53.8c1.6,3.3,3,7,2.7,10.7c-0.3,4-2.5,7.5-4.7,10.9c-9.1,14.3-19.4,29.6-35.4,35.4
						c-14.3,5.1-30,1.5-44.7-2.3c-40.5-10.5-82.5-23-112.9-51.9c-11.5-10.9-20.8-23.8-29.6-36.9c-8.9-13.4-17.5-27.4-21.1-43.1
						s-1.6-33.4,8.7-45.7L193.5,369.7z"/>
					<g>
						<path class="st6" d="M205.4,386.6c-20.6,8.4-42.8,12.2-64.7,15.9c-4.2,0.7-8.7,1.4-12.6-0.3c-3.9-1.7-6.7-6.8-4.4-10.4
							c1-1.6,2.8-2.6,4.6-3.4c8.1-3.7,17.1-5.1,26-6.4c16.9-2.5,33.9-5.1,50.8-7.6L205.4,386.6z"/>
						<path class="st6" d="M125.7,401.7c-8.3-3.5-16.5-7-24.8-10.4c-7.8-3.3-15.6-6.6-22.5-11.3c-18-12.5-28.1-34.2-31-56
							c-0.1-1.1-0.3-2.3,0.3-3.3c0.5-0.9,1.3-1.4,2.2-1.8c4.5-1.9,9.8-0.7,13.8,1.9c4.1,2.6,7.2,6.5,10.2,10.2
							c17.9,22.3,35.9,44.6,53.8,66.9L125.7,401.7z"/>
						<path class="st8" d="M49.5,321.7c-10.2-5.7-12.6-19.9-8.9-31c3.7-11.1,11.8-20,18.6-29.5c11-15.2,19.1-32.6,23.6-50.8
							c3-11.9,4.8-24.7,12.6-34.1c-7.3,19.2-10.2,40-8.5,60.5c14.1-17.7,24.8-38.1,31.5-59.7c-0.6,25.5-1.8,52.8-16.8,73.5
							c-8.7,12-21.6,20.9-28.4,34c-6.7,12.9-6.6,28.1-6.4,42.7L49.5,321.7z"/>
					</g>
					<g>
						<path class="st6" d="M231.6,366c8.6-6.2,16.3-13.7,22.6-22.1c2.8-3.7,5.4-7.7,9.6-9.9c4.2-2.2,10.4-1.5,12.5,2.5
							c2,4-1,8.6-4.1,12c-10.6,11.2-24.3,19.7-39.4,24.3L231.6,366z"/>
						<path class="st6" d="M266.9,333.6c1.1-8.3-3-16.5-8.2-23.3c-5.2-6.8-11.6-12.8-16.2-19.9c-2.5-3.9-4.5-8.3-4.6-12.9
							s2.2-9.4,6.4-11.7c5.1-2.7,11.8-1.1,16.1,2.5c4.4,3.6,6.8,8.9,8.6,14.1c5.7,16.4,6.3,34.4,1.8,51.1L266.9,333.6z"/>
						<path class="st8" d="M251.1,267.8c-5.3,5.4-15.3,5.7-20.9,0.6c-4.8-4.3-5.8-11.1-8.4-16.8c-6.6-14.7-22.8-22.9-37.2-31.3
							c-14.4-8.4-29.2-20.4-29.7-36.3c10.6,6.9,21.1,13.9,31.7,20.8c5,3.3,12.2,6.4,16.5,2.4c5-4.6-0.1-12.3-4.5-17.4
							c-6.8-7.9-12.1-17-15.5-26.6c23.1,25.1,46.3,50.2,69.4,75.3c4.2,4.6,8.6,9.4,10.2,15.3c1.6,5.9-0.5,13.2-6.4,15.7L251.1,267.8
							z"/>
					</g>
					<g>
						<path class="st6" d="M216.3,435.6c-25.2-2-49.3-16.9-74.3-12.9c-1.4,4.3,1.6,9.1,5.5,11.3c3.9,2.2,8.6,2.5,13.2,2.8
							c21.1,1.2,42.2,2.3,63.3,3.5L216.3,435.6z"/>
						<path class="st6" d="M137.1,434.9c8.7,8.8,17.4,17.6,26,26.4c4.2,4.3,8.5,8.6,11.7,13.7c7.1,11.2,8.6,25.7,3.8,38.1
							c2.2-4.7,3.9-9.9,3.5-15.1c-0.3-5-2.5-9.7-4.6-14.2c-8.1-17.3-16.2-34.6-24.3-51.9L137.1,434.9z"/>
					</g>
					<g>
						<path class="st6" d="M265.1,478.4c-22.8,14.2-43.9,31.1-62.8,50.2c-2.3,2.3-4.7,4.8-5.9,7.9c-1.2,3.1-1,6.9,1.4,9.2
							c1.5,1.5,3.7,2.1,5.8,2.3c9,0.7,16.7-6,23.2-12.3c13.1-12.8,26-25.7,38.6-38.9L265.1,478.4z"/>
						<path class="st6" d="M201.4,549.7c13,14.8,24.3,31.1,33.4,48.6c5.3-4.7,2.6-13.2-0.4-19.6c-5.8-12.2-11.6-24.4-17.4-36.6
							L201.4,549.7z"/>
						<path class="st6" d="M234,596.7c2.6,12.9,5.3,25.8,7.9,38.7c3.9-14.3,2.4-29.2-4.4-43.1L234,596.7z"/>
					</g>
					<path class="st6" d="M303.6,514.5c1.4,29.7-11.3,58.2-16.2,87.5c-0.7,4.4-1.1,9.5,2.1,12.6c3.4,3.3,9.4,2.2,12.8-1
						c3.5-3.2,5.1-7.9,6.5-12.4c8.5-27.7,13.5-56.5,14.9-85.5L303.6,514.5z"/>
					<g>
						<g>
							<path class="st8" d="M206.9,407.3c-0.6,29.9,27.3,52.2,48.5,69c12.5,9.9,25.5,19,39.2,27.2c13.2,7.9,29.1,18.6,44.4,21.7
								c2.7,0.5,4-2.8,1.8-4.3c-11.5-8.1-26.1-12.9-38.4-19.9c-13.1-7.5-25.7-15.7-37.8-24.8c-23.6-17.7-50-38.7-55.7-69.2
								C208.7,405.9,207,406.2,206.9,407.3L206.9,407.3z"/>
						</g>
						<g>
							<path class="st8" d="M227.6,432.8c-2.8-13.6,8.1-24.1,21.3-20.5c5.1,1.4,9.3,3.8,14.8,3.4c7.1-0.6,13.6-4.7,15.6-11.7
								c0.4-1.5-1.5-2.6-2.6-1.5c-4.2,4-7.9,8-14.3,8.2c-4.4,0.1-8-2.1-12-3.3c-5.3-1.5-10.6-1.7-15.8,0.7
								c-10.3,4.6-13.9,15.5-10.6,25.8C224.7,436.2,228.1,435.2,227.6,432.8L227.6,432.8z"/>
						</g>
						<g>
							<path class="st8" d="M273.2,461.2c4.9-6.5,11.6-11.3,20-11.5c5.8-0.2,11.2,2.4,16.9,2.4c8.1,0,14.1-4.9,18.3-11.4
								c0.8-1.3-0.8-2.8-2.1-2.1c-8.5,5.4-13.7,8.5-24.3,6.9c-4.2-0.6-8.2-1.2-12.4-0.4c-8.4,1.6-15.3,6.9-19.1,14.5
								C269.6,461.4,272,462.7,273.2,461.2L273.2,461.2z"/>
						</g>
						<g>
							<path class="st8" d="M329.4,498.2c5-8,12.4-11.6,21.7-11.9c5.6-0.2,10.3-0.1,15.6-2.4c6.8-3.1,13.2-8.9,13.7-16.7
								c0.1-1.3-1.7-2-2.6-1.1c-4.9,5.1-8.1,10.8-15.1,13.4c-5.5,2-11.4,0.9-17,2c-8.5,1.7-15.1,7.6-19,15.1
								C325.7,498.4,328.3,499.9,329.4,498.2L329.4,498.2z"/>
						</g>
						<g>
							<path class="st8" d="M135.5,431.9c1.2,5.1,8.1,7.1,11.5,2.7c1.2-1.6,1.7-3.6,1.2-5.6c-0.5-1.9-2-3.8-4-4.2
								c-2.4-0.5-4.4,0.3-5.8,2.3c-0.3,0.4-0.5,0.9-0.6,1.3c0.6-1.7,1.7-2.7,3.2-3.2c0.5-0.1,1-0.1,1.5-0.2c-0.1,0-0.1,0-0.2,0
								c0.5,0.1,1,0.1,1.6,0.2c-0.9-0.4-0.4,0.2,1.6,1.7c1.4,2.1,1.9,2.6,1.7,1.6c-0.2-1.4-1.6-3-2.8-3.6c-1.3-0.8-3.2-1.1-4.7-0.6
								C136.6,425.4,134.8,428.6,135.5,431.9L135.5,431.9z"/>
						</g>
						<g>
							<path class="st8" d="M205.1,550.5c2.7-0.8,6-3,6.5-5.9c0.4-2,0.1-3.8-1.4-5.3c-1.4-1.4-3.4-1.9-5.3-1.4
								c-0.6,0.2-1.7,0.4-2.1,0.9c0.9-0.4,1.1-0.4,0.5-0.2c-0.2,0.1-0.4,0.1-0.6,0.1c0.5-0.1,1.1-0.1,1.6-0.2c-0.3,0-0.6,0-0.9,0
								c-3.7-0.2-6.5,3.5-6,6.9C197.9,549,201.5,551.5,205.1,550.5L205.1,550.5z"/>
						</g>
						<g>
							<path class="st8" d="M301,603.4c-0.1-0.2-0.2-0.3-0.3-0.5c-2.5-3.7-7.3-3.7-9.9,0c-0.1,0.2-0.2,0.3-0.3,0.5
								c-2.7,3.9,0.9,9.2,5.3,9.2C300.1,612.6,303.7,607.3,301,603.4L301,603.4z"/>
						</g>
						<g>
							<path class="st8" d="M193.1,374.5c0.2,0.4-0.1-0.5-0.2-0.6c-0.1,0.7-0.2,1.4-0.3,2.2c0.2-0.3,0.4-0.7,0.5-1.1
								c0.1-1,0.1-1.1,0.1-0.5c0-0.1,0.1-0.2,0.1-0.4c0.1-0.3,0.1-0.2-0.1,0.3c0.1-0.2,0.2-0.3,0.3-0.4c0.2-0.3,0.2-0.3,0,0
								c-0.2,0.2-0.2,0.2,0,0c-0.5,0.3-0.5,0.4-0.1,0.2c-0.6,0.2-0.6,0.3-0.2,0.1c-0.2,0-0.4,0.1-0.6,0.1
								C192.8,374.4,193,374.4,193.1,374.5c-0.7-0.2-0.8-0.2-0.3-0.1c-0.2-0.1-0.3-0.2-0.5-0.2c0.2,0.1,0.3,0.2,0.5,0.3
								c-0.5-0.4-0.6-0.5-0.3-0.2c-0.4-0.6-0.5-0.6-0.3-0.2c0.2-1.8,0.5-3.6,0.7-5.4c-1,1.3-2.4,2.6-3.2,4.1c2.7,0.3,5.3,0.7,8,1
								c-0.2-0.9-0.5-1.6-0.9-2.4c-1.1-2.6-5.4-2.4-6.6,0c-0.4,0.8-0.7,1.6-1,2.4c-0.5,1.8,0.3,4.1,2,5c1.9,1,3.7,0.6,5.3-0.7
								c1-0.8,1.8-2.1,2.6-3.1c1.5-1.9,1.8-4.4,0-6.3c-2.5-2.6-6.6-3.4-9.7-1.4c-1.7,1.1-2.9,3-3,5c-0.1,1.9,0.5,3.9,2.3,4.9
								c-0.3-0.3-0.7-0.7-1-1c0.5,0.8,1.1,1.4,1.9,1.9c0.9,0.6,2.3,0.4,3-0.4C193.6,376.7,193.6,375.5,193.1,374.5L193.1,374.5z"/>
						</g>
						<g>
							<path class="st8" d="M231.6,362.2c-0.3,0.2-0.4,0.3-0.2,0.1c0.2-0.1,0.2-0.1-0.3,0.1c0.8,0.1-0.8,0,0.1-0.1
								c0.3,0,0.5,0,0.8-0.1c0.2,0,0.3,0,0.5,0c-0.5-0.1-0.7-0.1-0.3,0c0.2,0.1,0.5,0.2,0.7,0.2c-0.5-0.2-0.6-0.3-0.3-0.1
								c0.3,0.2,0.2,0.1-0.2-0.2c0.2,0.2,0.7,0.9,0.1,0c-0.3-0.5-0.2-0.5,0,0.1c0.6,3.3,5.1,4,7.3,1.9c3.3-3.1,1.1-9.6-3.8-9.2
								c-2.1,0.2-3.9,1.5-4.2,3.7c-0.2,2,0.9,4.3,3,4.7c-1.3-0.6-2-1.5-2.2-2.7c0.2-0.7,0.4-1.5,0.6-2.2c0.1-0.1,0.2-0.3,0.4-0.4
								c2.4,0.6,4.8,1.3,7.3,1.9c-1.5-6.5-11.7-8.5-14.8-2.2C224.1,361.5,228.4,364.9,231.6,362.2L231.6,362.2z"/>
						</g>
					</g>
				</g>
				<path class="st3" d="M373.5,570.2c5.3-1.1-3-10,0.3-24.1c0.3-3.8,6.4-5.3,3.9-22.1c12.5-0.8,4.5,19,8.3,19.2s7.3-10.7,9.7-16.8
					c2.4-6.1,9.5-16.6,11.9-14.8c2.5,1.7-3.5,15.6-6.6,22.9c4.1-7.7,8.6-15.1,13.6-22.3c2.5-3.5,5.2-7.1,9.2-8.8
					c0.5-0.2,1-0.4,1.4-0.1s0.5,0.9,0.5,1.3c0,12.2-13.3,33.2-11.7,34.3c1.6,1.2,15.5-29.1,18.6-27.1c3.1,2,0.4,7.6-0.7,11.2
					c-2.9,9.3-7,18.3-11.9,26.7c4.7-4.4,13.3-13.3,15.2-11.8c4.3,3.1-12.5,25.2-22,31.8c-3.3,2.3-6.8,4.2-10.3,6.2
					c-7.2,4-14.4,8-21.5,11.9L373.5,570.2z"/>
			</g>
			<g>
				<path class="st2" d="M348.7,193.5c2.5,0,2.5-3.9,0-3.9S346.2,193.5,348.7,193.5L348.7,193.5z"/>
			</g>
			<g>
				<path class="st2" d="M254.4,173.7c-16.1,2.1-30.7-7.5-31.1-24.9c-0.4-16.5,13.3-29.8,28.6-33.6c33.1-8.4,59.1,23.8,53.3,54.7
					c-0.2,1,1.3,1.4,1.5,0.4c9.7-37.5-29.1-69.1-64.2-53c-14.5,6.7-24.1,22.1-21.2,38.2c2.7,15.1,18.2,26.8,33.4,21
					C256.1,175.9,256.1,173.5,254.4,173.7L254.4,173.7z"/>
			</g>
			<g>
				<path class="st2" d="M317.4,173.9c8.1-2.5,13.2-8.2,16.2-16c3.3-8.9,6.2-25.1,1.8-33.9c-4.1-8.3-16.2-12-24.3-14.4
					c-12.4-3.7-24.7-4.3-37.5-2.3c-0.6,0.1-0.4,1,0.1,1c16.4-0.5,35.5,1.4,50.1,9.6c11.2,6.4,12.4,17.1,11.4,28.7
					c-1.1,11.5-6.6,22.1-18.2,25.7C315.9,172.6,316.4,174.3,317.4,173.9L317.4,173.9z"/>
			</g>
			<g>
				<path class="st2" d="M239.1,165.2c7.5,8.6,17.9,14,29.4,14.3c0.5,0,0.5-0.7,0-0.7c-11.4-0.8-21.3-5.4-28.9-14
					C239.3,164.3,238.8,164.8,239.1,165.2L239.1,165.2z"/>
			</g>
			<g>
				<path class="st2" d="M301.5,121.5c17.3-0.3,29.4,17.4,27.7,34c-1.7,15.8-24.3,15.7-36.7,19.1c-1.6,0.4-1.3,3,0.4,2.9
					c10.9-0.7,22.2-3.2,32.1-7.8c8-3.7,8.5-9.1,7.9-17.7c-1.1-17.1-12.2-34.9-31.4-32.5C300.3,119.6,300.2,121.5,301.5,121.5
					L301.5,121.5z"/>
			</g>
			<g>
				<path class="st2" d="M334.3,167.3c36.1,4.7,71,4,105.2,18.6c15.4,6.6,31.5,15.3,38,31.8c7.6,19.2,1.3,38.8-14,52
					c-0.1,0.1,0,0.2,0.1,0.1c12.1-10.3,20.2-25.4,19-41.6c-1.2-16.1-12.2-28.3-25.6-36.3c-37.8-22.6-80.6-20.3-122.6-25.2
					C333.9,166.6,333.9,167.3,334.3,167.3L334.3,167.3z"/>
			</g>
			<g>
				<path class="st2" d="M381,172.3c25,6.8,48.1,22.5,66.7,40.3c10.2,9.8,18.4,21.7,17,36.5c-1.4,14.4-10.3,25.5-18.5,36.7
					c-0.4,0.5,0.5,1.2,0.9,0.7c17.3-20.3,28.7-44.1,10-67.4c-18.1-22.6-47.8-41-75.8-47.8C380.6,171.1,380.3,172.1,381,172.3
					L381,172.3z"/>
			</g>
		</g>
		<g>
			<g>
				<path class="st2" d="M598.4,223.6c1.8,0,3.4-1.5,3.4-3.4c-0.1-1.8-1.5-3.4-3.4-3.4c-1.8,0-3.4,1.5-3.4,3.4
					C595.1,222,596.5,223.6,598.4,223.6L598.4,223.6z"/>
			</g>
			<g>
				<path class="st2" d="M618.2,238.6c0,0.2-0.1,0.5-0.1,0.7c-0.3,1.7,0.8,3.5,2.7,3.5s3-1.8,2.7-3.5c0-0.2-0.1-0.5-0.1-0.7
					C622.8,236.1,618.6,236.1,618.2,238.6L618.2,238.6z"/>
			</g>
			<g>
				<path class="st2" d="M585.7,252.3c2.9,0,3-4.6,0-4.6S582.7,252.3,585.7,252.3L585.7,252.3z"/>
			</g>
			<g>
				<path class="st2" d="M62.9,186c5.1,0,5.1-8,0-8S57.8,186,62.9,186L62.9,186z"/>
			</g>
			<g>
				<path class="st2" d="M75.4,160.7c0.2-0.1,0.4-0.1,0.7-0.2c2.9-0.7,2.9-5.3,0-5.9c-0.2-0.1-0.4-0.1-0.7-0.2c-2-0.5-4.1,1-4.1,3.1
					C71.3,159.7,73.4,161.1,75.4,160.7L75.4,160.7z"/>
			</g>
			<g>
				<path class="st2" d="M87.3,179.4c3.5,0,3.5-5.5,0-5.5S83.8,179.4,87.3,179.4L87.3,179.4z"/>
			</g>
			<g>
				<path class="st2" d="M-3.8,464.9c2,0,3.9-1.7,3.8-3.8c-0.1-2.1-1.7-3.8-3.8-3.8c-2,0-3.9,1.7-3.8,3.8
					C-7.5,463.2-5.9,464.9-3.8,464.9L-3.8,464.9z"/>
			</g>
			<g>
				<path class="st2" d="M16.3,451c0.6,0.2,1.2,0.4,1.9,0.5c1.4,0.3,2.8-0.2,3.6-1.4c0.7-1.1,0.6-2.9-0.5-3.8
					c-0.7-0.6-1.5-1.1-2.2-1.7c-1.7-1.3-4.2-0.1-5,1.7C13.2,448.2,14.2,450.4,16.3,451L16.3,451z"/>
			</g>
			<g>
				<path class="st2" d="M30,506.6c4.8,0,4.8-7.5,0-7.5C25.1,499.1,25.1,506.6,30,506.6L30,506.6z"/>
			</g>
			<g>
				<path class="st2" d="M508.1,109.7c0.6-0.8,1.2-1.3,1-2.4c-0.1-0.3-0.4-0.6-0.7-0.7c-1-0.2-1.6,0.4-2.4,1
					C504.5,108.8,506.9,111.2,508.1,109.7L508.1,109.7z"/>
			</g>
		</g>
	</g>
</g>
<g id="圖層_2_00000181805715782847748530000012822404872520680379_">
	<g>
		<path class="st5" d="M504.1,412.9c-15.7,26.3-31.9,69.9-96.2,88c-23.4,6.5-53.1,9.7-91.4,7.4c-11,0.3-22-0.7-32.8-2.9
			c-27-5.6-52.4-18.7-72.2-37.8c-27.7-26.8-44.1-64.9-44.4-103.5c-0.1-12.1,1.3-24.3,5.1-35.9c5.9-18.1,17-34,28.2-49.4
			c12.6-17.3,25.6-34.9,43.3-47c18.3-12.6,40.6-18.5,62.7-21.2c33-4,66.8-1.3,98.8,8c13.4,3.9,26.5,9,38,16.9
			c12.8,8.9,23,21,32.4,33.4c15.7,20.8,29.7,43.3,36.5,68.5C518.7,362.4,517.4,390.6,504.1,412.9z"/>
		<g>
			<path class="st9" d="M433,629.1c-45.3,12.7-103,18.9-177.4,14.4c-21.4,0.6-42.7-1.4-63.6-5.7c8-35.4,23.3-69.1,45-98.1l135.7-10
				C399.4,558.2,420,592.3,433,629.1z"/>
			<path class="st6" d="M603.1,365.6c4.5,2,3-9.1,13-17.8c2.2-2.6,7.5-0.6,14.5-14.4c9.8,6-6.7,16.6-4,18.7s11.1-4.1,16.1-7.3
				c5-3.2,15.8-7.3,16.7-4.8c1,2.6-10.8,9.8-17,13.6c7.1-3.6,14.4-6.7,21.9-9.4c3.7-1.3,7.7-2.5,11.5-1.7c0.4,0.1,0.9,0.3,1.1,0.7
				c0.2,0.4-0.1,0.9-0.4,1.2c-6.5,9.1-27.4,17.7-26.9,19.4c0.6,1.7,26.9-13.5,28.1-10.3c1.3,3.1-3.7,5.9-6.5,8
				c-7.1,5.4-14.8,9.9-23,13.6c5.8-0.9,16.9-2.9,17.6-0.8c1.6,4.6-22.7,12.2-33.1,12.1c-3.7,0-7.3-0.4-11-0.9
				c-7.4-0.8-14.9-1.7-22.3-2.5L603.1,365.6z"/>
			<path class="st6" d="M409.5,447.4c52-3.6,142.1-34.5,211.2-64.3l-8.2-22.2c-91.4,21.2-186.3,20.9-279.5,10.4l-49-9.9
				c0,0,37.8,70.8,40.7,71.8C327.6,434.1,357.5,451,409.5,447.4z"/>
			<g>
				<g>
					<g>
						<path class="st2" d="M290.9,144.4c22,0.1,44.1,8.9,58.8,25.5c12,13.6,12.2,27.4,4,42.9c-5.5,10.4-12.2,19.7-20.3,28.2
							c-1.1,1.1,0.4,2.6,1.6,1.8c11.1-7.9,18.7-20.5,24.3-32.7c5.8-12.6,6-24.4-1.8-36.1c-14.5-21.8-41-33.1-66.7-31
							C290,143,290.1,144.4,290.9,144.4L290.9,144.4z"/>
					</g>
					<path class="st2" d="M275.8,151.8c15.2-1,30.9-0.8,44.9,5.1c14,5.9,26,18.6,27.2,33.8c1,13.7-7.7,27.6-20.5,32.5"/>
					<path class="st2" d="M332.7,225.6c14.3-4.4,24.9-18.9,24.8-33.9c-0.1-16.6-12.2-31.4-27-38.9s-38.8-21-107.1-6.5
						c-45.4,10.3,37.2,56.9,37.2,56.9L332.7,225.6z"/>
					<path class="st6" d="M426.6,557.1c-13.6,6.4-28.5,12.4-44.9,17.9c-7.3,2.5-15,4.8-22.9,7.1c-6.3,1.8-12.8,3.5-19.4,5.2
						c-5.6,1.4-11.3,2.8-17.2,4.1c-14.3,3.2-29.4,6-45.5,8.6c-0.3,0.1-0.5,0.2-0.8,0.3v-0.2l-2.1-10.2l-9.5-46.3l0,0L251,478.9
						l-0.9-4.2l-1.5-7.3l0,0l-3.8-18.7l-1.1-5.2l-1.2-6l-9.7-47.2l-0.9-4.4l-2.3-10.9l-3.7-18.2l23.9,18.7l-0.2-48.4l18.2-2.8
						l3.7-2.2l1-0.6l0,0l4-2.4l25.6-15.4c0,0,1.7,8.1,3.6,16.9l2.4,11.3c1.3,6.3,3.2,12.5,5.6,18.5c7.9,20.1,21.3,38,38.3,51
						c4.8,3.7,9.8,6.9,15.1,9.8h0.1c0.3,0.2,0.6,0.3,0.9,0.5c0.2,0.1,0.5,0.3,0.7,0.4c1,0.5,2,1,3,1.5s2,0.9,3,1.4
						c3.3,1.5,6.8,2.8,9.3,5.5c2.3,2.4,3.4,5.6,4.2,8.9c0.3,1.1,0.5,2.1,0.7,3.2c0.6,2.7,1.2,5.4,1.8,8.1c0.5,2.3,1,4.6,1.6,6.9l0,0
						c1.3,5.5,2.6,10.9,4,16.3l0,0c0.2,1,0.5,1.9,0.7,2.9c0.4,1.7,0.9,3.5,1.4,5.2l0,0c0.5,2,1,3.9,1.6,5.8
						C407.3,504.6,416.2,531.2,426.6,557.1z"/>
					<path class="st4" d="M231.7,385.9c0.9,4.4-54.1,184-54.1,184s22,25.9,107.3,28.5c85.4,2.6,141.6-41.2,141.6-41.2l-104-129.6"/>
					<path class="st4" d="M426.6,557.1c-13.6,6.4-28.5,12.4-44.9,17.9c-7.3,2.5-15,4.8-22.9,7.1c-6.3,1.8-12.8,3.5-19.4,5.2
						c-5.6,1.4-11.3,2.8-17.2,4.1c-14.3,3.2-29.4,6-45.5,8.6c-0.3,0.1-0.5,0.2-0.8,0.3v-0.2l-2.1-10.2l-9.5-46.3l0,0L251,478.9
						l-0.8-4.2l-1.5-7.3l-3.9-18.7l-1.1-5.2l-1.2-6l-9.7-47.2l-0.9-4.4l-1.7-8.3c3.5,0.9,7,1.9,10.4,3c0.8,0.3,1.7,0.5,2.5,0.8
						c1.5,0.5,3,0.9,4.6,1.3c0.1,0,0.1,0,0.2,0.1c0.7,0.2,1.4,0.4,2.1,0.6l0,0c4.8,1.4,9.5,2.7,14.3,4.1c11.4,3.4,22.8,6.8,34.3,9.5
						c3.8,0.9,7.5,1.7,11.4,2.3c0.4,0.1,0.8,0.1,1.1,0.2c1.6,0.3,3.1,0.5,4.7,0.7c2.7,0.4,5.5,0.7,8.2,0.9c2.9,0.2,5.7,0.4,8.6,0.5
						l0,0c6.4,0.2,12.7,0.1,19.1-0.3h0.1c4.8,3.7,10,7,15.3,9.9c0.2,0.1,0.5,0.3,0.7,0.4s0.5,0.3,0.7,0.4c1,0.5,2,1,3,1.5
						s2,0.9,3,1.4c3.3,1.5,6.8,2.8,9.3,5.5c2.3,2.4,3.4,5.6,4.2,8.9c0.3,1.1,0.5,2.1,0.7,3.2c0.6,2.7,1.2,5.4,1.8,8.1
						c0.5,2.3,1,4.6,1.6,6.9l0,0c1.3,5.5,2.6,10.9,4,16.3l0,0c0.2,1,0.5,1.9,0.7,2.9c0.4,1.7,0.9,3.5,1.4,5.2l0,0
						c0.5,2,1,3.9,1.6,5.8C407.3,504.6,416.2,531.2,426.6,557.1z"/>
					<g>
						<path class="st6" d="M344.5,245.9C344.5,246,344.5,246,344.5,245.9c0.8,10.8,1.2,19.5,1.5,26.5c0.1,3.7,0.2,7,0.3,9.8
							c0.2,12.2-0.4,16.4-0.4,16.4s5.9,21.9-53.4,32.1c-1.6,0.3-3.1,0.5-4.5,0.7c-53.8,6.2-35.1-55.9-35.1-55.9l91.2-29.7
							C344.2,245.8,344.4,245.9,344.5,245.9z"/>
						<path class="st6" d="M172.6,293.7c-17.1-22.2-25.9-51.6-19.7-78.9c10-44,57.8-72.5,102.9-70.1c28.6,1.5,57.8,14.6,73.1,38.9
							c11.5,18.3,14.1,40.8,15.7,62.4c0.7,10.3,1.3,20.8-1.4,30.7c-5.2,18.8-21.4,32.4-37.4,43.6c-11.4,8-23.5,15.6-37.1,18.6
							c-11.4-3.1-39.2-8.7-39.2-8.7S189.7,315.9,172.6,293.7z"/>
						<path class="st5" d="M364.1,265.6c-2.5,2.7-12.1,11.9-15.2,14.9l-0.8,0.3c0,0-4.2,0.6-4-4.4
							C344.3,271.4,364.1,265.6,364.1,265.6z"/>
						<path class="st5" d="M255.1,268.8c0,0-19.1-17.2-28.1,0.3c-9,17.6,8.2,39.2,29.5,35.1L255.1,268.8z"/>
					</g>
					<g>
						<g>
							<path class="st10" d="M243.9,274.2c12.9,7.4,33.2,1.2,42.8-9.2c1.2-1.3,0.3-4.1-1.8-3.4c-6.2,2-11.2,6.4-17.2,9
								c-7.5,3.3-15,3.9-23,1.7C243.7,272.1,242.8,273.6,243.9,274.2L243.9,274.2z"/>
						</g>
						<path class="st10" d="M286.1,232.7c-8-9.2-21.8-12.7-33.3-8.6c-9.8,3.5-17.2,11.7-22.9,20.4c3.9-5.1,10.3-7.6,16.6-8.9
							c3.9-0.8,7.9-1.2,11.8-1.7c8.6-0.9,17.2-1.9,25.8-2.8L286.1,232.7z"/>
						<g>
							<path class="st11" d="M242,262.5c10.4-7.8,29-12.3,40.6-5.3c1.6,1,3.9-1.3,2.3-2.7c-12-10.5-33.9-3.3-44.2,6.7
								C239.9,262,241,263.2,242,262.5L242,262.5z"/>
						</g>
					</g>
					<g>
						<g>
							<path class="st10" d="M340.9,250c-3.4,3.8-6.7,5.9-12,4.9c-3.7-0.7-6.9-2.9-10.6-2.3c-1.5,0.2-2,2.2-1.1,3.3
								c3.4,3.8,10.9,4.5,15.7,3.6c4.6-0.9,8.3-3.9,9.7-8.4C342.9,250.1,341.6,249.1,340.9,250L340.9,250z"/>
						</g>
						<path class="st10" d="M309.3,228.8c1.2-10.1,6.9-17.1,13.8-17.1c5.8,0,11.8,4.8,17.2,10.4c-3.4-3.1-7.3-3.3-10.7-2.6
							c-2.1,0.5-4.2,1.3-6.3,2.1c-4.5,1.7-9,3.5-13.4,5.2L309.3,228.8z"/>
						<g>
							<path class="st9" d="M274.4,286.8c-5.5-1.9-11.6,0.2-16.2,3.2c-4.4,2.9-7.9,8.7-4.2,13.7c3,4,9.5,6,14,4.3
								c0.1,0,0.1-0.1,0.2-0.1c6.6,0.5,13.2-2.1,14-9.2C282.8,293.5,279.3,288.5,274.4,286.8z"/>
							<path class="st9" d="M343.4,269.6c-3.4-2.5-8.6-2.8-12-0.3c-3.4,2.4-4.4,6.8-3.8,10.8c0.6,4.1,3.4,7.9,7.7,8.3
								c2.1,0.2,4.1-0.3,5.8-1.4c2.4-0.4,4.1-2.5,5.2-4.7c0-2.8-0.1-6.1-0.3-9.8C345.3,271.3,344.5,270.3,343.4,269.6z"/>
						</g>
						<g>
							<path class="st11" d="M340.2,239.4c-8.2-6.1-23.1-3.5-24.7,7.9c-0.3,2.1,2.7,2.3,3.5,0.7c2.1-4.5,4.5-6.7,9.5-7.8
								c3.8-0.9,7.4-0.8,11,0.8C340.4,241.4,341,240,340.2,239.4L340.2,239.4z"/>
						</g>
					</g>
					<g>
						<path class="st11" d="M310.4,253.9c-0.1,4.3,0.7,8.4,2.2,12.4c1.6,4.5,9.2,14.9,0.9,17c-2.2,0.6-2.7,4-0.3,4.7
							c5.3,1.6,10.8-3,10.7-8.5c0-4.1-3-7.8-4.8-11.4c-2.4-4.8-4.1-9.9-6.2-14.8C312.4,252.2,310.4,252.6,310.4,253.9L310.4,253.9z"
							/>
					</g>
					<path class="st11" d="M313.3,350.3c-7.8-0.5-21-4.7-38.3-22.5c0.5,0.3,9.6,5.4,31.9,0l0.8,4
						C309.1,338.1,310.9,344.3,313.3,350.3z"/>
					<g>
						<path class="st2" d="M239,148.3c18-1.7,37.9-3.3,52.3,10c16.9,15.5,10.3,34,0.2,51c-18.9,31.5-44.1,58.8-82.4,63.5
							c-1.1,0.1-0.9,1.8,0.1,1.9c43.3,2.2,77.1-40,93.4-75.8c7.6-16.7,4.3-34.1-10.1-46c-14.9-12.3-36.4-13.4-54.1-7.2
							C236.9,146.3,237.3,148.5,239,148.3L239,148.3z"/>
					</g>
					<g>
						<path class="st2" d="M285.5,197.1c-9,14.7-19,30-31.3,42.2c-13.2,13.1-30.3,16.6-47.5,21.6c-0.8,0.2-0.6,1.5,0.3,1.3
							c16.3-2.8,33.6-7.8,46-19.3c13.6-12.5,23.5-30,32.7-45.7C285.8,197.1,285.6,197,285.5,197.1L285.5,197.1z"/>
					</g>
					<path class="st12" d="M305.7,302.3c0.7,0.5,8.1,6,15.2,4.6s5.8-9.6,5.8-9.6L305.7,302.3z"/>
					<path class="st10" d="M305.7,302.3c0,0,9.7-7.5,9.8-7.1c0.1,0.4,3.4,1.7,3.4,1.7l3.6-3.5l4.2,3.9
						C326.7,297.3,317.6,302,305.7,302.3z"/>
				</g>
				<g>
					<path class="st2" d="M287.7,141c23.6,1.3,47.2,11,67.2,23.4c11,6.8,20.5,15.9,22,29.4c1.5,13.1-4.4,24.7-9.6,36.3
						c-0.2,0.5,0.7,1,0.9,0.5c11.6-21.4,17.3-44.8-3.8-62.1C344,151.7,314,140.9,287.7,140C287.1,140,287,141,287.7,141L287.7,141z"
						/>
				</g>
			</g>
			<g>
				<path class="st2" d="M151.4,197.9c5-13.5,13.4-25.3,24-34c28.4-23.2,68.1-21.5,104.6-18.8c11.3,10.7,14.2,29.1,10.3,44.2
					c-3.8,15.1-13.2,27.5-22.9,38.8c-21.7,25-50.4,47.9-82.9,43.6"/>
				<g>
					<path class="st13" d="M262.1,142.4c-0.6,0.2-1.1,0.4-1.7,0.5c-0.4,0.1-0.2,0.7,0.2,0.6c0.6-0.1,1.1-0.3,1.7-0.4
						C262.7,142.9,262.5,142.2,262.1,142.4L262.1,142.4z"/>
				</g>
				<g>
					<path class="st6" d="M442.6,153.8c13.4,2.9,11.6-19.3-3.4-20c-14.7-0.7-24.6,14.8-15.7,26.9c16.2,22.1,60.1-5,81.9-6.6
						c64.9-4.8,114.4,36.6,135.5,95.7c10.9,30.6,10.5,74.1,36.8,96.6l-52.2,11.3l-14.1-35.9c-10-38.3-25.1-75.2-44.6-109.7
						c-6.2-11-13.3-22.1-24-28.9c-10.9-6.9-24.5-12.2-37.2-9.8c-10,1.9-54.9,15.2-76.9,0.9c-22-14.2-17.8-46.6,13.6-42.4
						c31.4,4.2,22,27.2,9.4,27.8C439.2,160.5,442.6,153.8,442.6,153.8z"/>
				</g>
				<g>
					<path class="st6" d="M579.4,632.3c11.8-6.9,20.1,10.2,7.7,18.8c-12.1,8.4-28.7,0.4-27.6-14.5c2-27.3,53.6-27.5,73.1-37.7
						c57.6-30.2,77.8-91.5,64.5-152.8c-6.9-31.7-30.2-68.4-19.8-101.5L634,400.5c11.7,37.8,18.4,77.1,20,116.7
						c0.5,12.6,0.4,25.8-5.1,37.2c-5.6,11.6-14.7,22.4-26.4,27.9c-15.5,7.4-61.1,16.1-68.2,49.1s31,34.6,43,23.3s5.5-35.2-10.7-32.7
						c-16.2,2.6-21.7,8.4-18.4,14.5c3.2,6.1,6.5,5.8,11,5.8C583.7,642.3,572.1,636.6,579.4,632.3z"/>
				</g>
				<g>
					<path class="st14" d="M473.9,162.5c-4.7,8.3-7.6,18-10.9,27c-6.5,17.7-12.7,35.5-18.9,53.4c-16,46.3-31.6,92.8-46.7,139.4
						c-7.7,23.6-15.2,47.2-22.5,70.9c-0.3,0.9,1.1,1.3,1.4,0.4c26.3-86,54.9-171.4,85.2-256.1c4.2-11.6,8.4-23.2,12.9-34.7
						C474.6,162.4,474.1,162.1,473.9,162.5L473.9,162.5z"/>
				</g>
				<g>
					<path class="st14" d="M380.5,460.2c35.5,22.1,69.5,46.4,101.4,73.3c29.5,24.8,56.3,55.1,88.9,76c0.6,0.4,1.4-0.6,0.8-1.1
						c-15.8-12.8-31.7-25.2-46.8-38.8c-15.2-13.7-30.3-27.4-46.1-40.4c-30.9-25.5-63.7-48.8-98-69.5
						C380.4,459.4,380.1,460,380.5,460.2L380.5,460.2z"/>
				</g>
				<path class="st15" d="M610.8,324.4c0,0,11.4,35.5,15.7,45.8s8.4,37.3,8.4,37.3l45.2-15.1c-7-17.8-5.8-33.5-0.2-48
					c-13.1-7.3-20-20.4-24.5-35.7L610.8,324.4z"/>
				<g>
					<path class="st13" d="M654.1,305.6c-9.5,2.2-18.7,5.6-28,8.7c-7.4,2.4-15.7,3.8-21.7,8.9c-1.9,1.6-0.2,4.5,1.9,4.6
						c8.5,0.3,17.4-4.6,25.3-7.4c8.3-2.9,16.8-5.7,24.8-9.4C659.6,309.6,657.3,304.9,654.1,305.6L654.1,305.6z"/>
				</g>
				<g>
					<path class="st13" d="M631.3,408.5c9.5-1.7,18.7-5.2,27.9-8.2c7.2-2.4,16-3.6,21.2-9.4c1-1.2,0.8-3.6-1-3.8
						c-8.2-1.3-16.3,3.8-23.9,6.7c-8.7,3.4-17.6,6.5-25.7,11.1C627.7,406,629.1,408.9,631.3,408.5L631.3,408.5z"/>
				</g>
			</g>
			<g>
				<g>
					<path class="st9" d="M322.3,462.4c-9.1-3-18.2-6.1-27.4-9.1c-3.2-1.1-6.5-2.1-9.8-2.1c-3.1,0.1-6,1.1-8.9,2.1
						c-12,4.2-23.8,8.7-35.6,13.5c14,2.7,27.7,7.2,40.5,13.5L260,516.5l54.9-18.6L322.3,462.4z"/>
				</g>
				<g>
					<path class="st13" d="M267.9,485.8c38.6-10.9,76.7-23.7,114.9-36c72.6-23.3,145.3-46.3,218.1-69c31.8-9.9,63.5-20,95.5-29.2
						c3.7-1.1,2.1-7-1.6-5.8c-63.6,19.2-127,39.3-190.3,59.6c-65.6,21-131.3,41.8-196.7,63.6c-13.6,4.5-27.2,9.1-40.6,14
						C265.4,483.7,266.1,486.4,267.9,485.8L267.9,485.8z"/>
				</g>
				<path class="st9" d="M678.8,332c14.6,1.4,29.1,3.5,43.5,6.2c-5.5,8.8-17.2,25.1-29,34.8c2-12.2,4-25.2,4-25.2"/>
			</g>
			<path class="st6" d="M340,502.4c-45.6,20-93.4,35.4-142.2,45.9c-16.8,3.6-36.7,6-47.7-4.3c-6.7-6.3-8.2-15.7-8.3-24.6
				c-0.9-46.1,23.1-91.5,47.3-134.6c4.6-8.2,26.6-45.3,57.8-30.6c7.4,4.2,11.7,11.4,15.1,18.5c17.6,37.1-26.8,113.4-26.8,113.4
				c35.7-6.7,66.6-4.6,100.2-6.6c0,0,2.6,14.3,5.1,25.9"/>
			<path class="st6" d="M320.8,482.9c4.5,2,3-9.1,13-17.8c2.2-2.6,7.5-0.6,14.5-14.4c9.8,6-6.7,16.6-4,18.7s11.1-4.1,16.1-7.3
				s15.8-7.3,16.7-4.8c1,2.6-10.8,9.8-17,13.6c7.1-3.6,14.4-6.7,21.9-9.4c3.7-1.3,7.7-2.5,11.5-1.7c0.4,0.1,0.9,0.3,1.1,0.7
				c0.2,0.4-0.1,0.9-0.4,1.2c-6.5,9.1-27.4,17.7-26.9,19.4c0.6,1.7,26.9-13.5,28.1-10.3c1.3,3.1-3.7,5.9-6.5,8
				c-7.1,5.4-14.8,9.9-23,13.6c5.8-0.9,16.9-2.9,17.6-0.8c1.6,4.6-22.7,12.2-33.1,12.1c-3.7,0-7.3-0.4-11-0.9
				c-7.4-0.8-14.9-1.7-22.3-2.5L320.8,482.9z"/>
			<g>
				<path class="st14" d="M459.8,165.5c0.5,5.8,1.6,11.4,3,17.1c0.3,1.1,1.9,0.6,1.7-0.5c-0.8-5.5-1.6-11-2.4-16.6
					c-0.6,0.2-1.2,0.3-1.8,0.5c1.1,4.2,2.5,8.1,4.3,12c0.4,0.8,1.8,0.4,1.7-0.5c-0.7-5.8-1.4-11.7-2.1-17.5c-0.1-1.1-1.8-1.1-1.7,0
					c0.7,7.4,2.6,14.4,6,21.1c0.4,0.7,1.4,0.3,1.4-0.4c0.2-5.4-0.1-10.8-0.9-16.2c-0.1-0.7-1.3-0.7-1.4,0
					c-1.1,6.5,0.5,12.6,4.6,17.8c0.4,0.5,1.3,0.1,1.3-0.5c0.1-6.9-0.5-13.7-2-20.5c-0.2-1-1.7-0.6-1.6,0.4c1,5.8,2,11.7,3,17.5
					c0.2,1,1.6,0.6,1.6-0.2c0.6-5.9,0.3-11.8-0.8-17.7c-0.2-1-1.7-0.7-1.7,0.2c-0.1,6,0.6,11.7,2.2,17.5c0.3,0.9,1.7,0.8,1.7-0.2
					c0-1.5-0.1-3-0.2-4.6c-0.1-1-1.5-1-1.5,0c-0.1,1.5,0,3,0,4.6c0.6-0.1,1.1-0.2,1.7-0.2c-1.5-5.6-2.2-11.2-2.2-17
					c-0.6,0.1-1.1,0.2-1.7,0.2c1.1,5.7,1.3,11.4,0.8,17.2c0.5-0.1,1.1-0.1,1.6-0.2c-1-5.8-2-11.7-3.1-17.5c-0.5,0.1-1,0.3-1.6,0.4
					c1.5,6.6,2.2,13.3,2.1,20.1c0.4-0.2,0.9-0.4,1.3-0.5c-3.8-4.7-5.2-10.4-4.2-16.3c-0.5,0-1,0-1.4,0c0.8,5.2,1.1,10.5,0.8,15.8
					c0.5-0.1,1-0.3,1.4-0.4c-3.1-6.4-5-13.2-5.6-20.3c-0.6,0-1.1,0-1.7,0c0.7,5.8,1.3,11.7,2,17.5c0.6-0.2,1.1-0.3,1.7-0.5
					c-1.8-3.7-3.1-7.5-4.1-11.5c-0.3-1.2-1.9-0.7-1.8,0.5c0.8,5.5,1.7,11,2.5,16.5c0.6-0.2,1.1-0.3,1.7-0.5
					c-1.5-5.5-2.6-11.1-3.4-16.8C461,164.6,459.7,164.7,459.8,165.5L459.8,165.5z"/>
			</g>
			<g>
				<path class="st14" d="M566.9,602c1.3,6.3,3.6,12.1,6.4,17.8c0.3,0.7,1.5,0.4,1.4-0.4c-0.1-7.7-0.8-15.4-2.1-23.1
					c-0.6,0.2-1.2,0.3-1.8,0.5c1.4,5.5,2.8,11,4.2,16.5c0.3,1.1,1.8,0.8,1.9-0.3c0.3-5.5-0.1-10.9-1-16.4c-0.6,0.2-1.2,0.3-1.9,0.5
					c1.7,6,3.3,12,5,18c0.3,1,2,0.9,1.9-0.3c-0.4-5.6-0.8-11.1-1.2-16.7c-0.1-1.3-2-1.3-2,0c0,5.1,1,9.7,3.2,14.3
					c0.4,1,1.8,0.4,1.9-0.5c0.2-4.8-0.2-9.5-1.1-14.2c-0.6,0.2-1.3,0.4-1.9,0.5c1.3,5.6,3.1,10.9,5.4,16.1c0.5,1,1.8,0.4,1.9-0.5
					c0.8-6.6,0.2-12.8-1.9-19.1c-0.3-0.8-1.6-0.5-1.3,0.4c1.5,6.2,2,12.4,1.2,18.7c0.6-0.2,1.2-0.3,1.9-0.5
					c-2.3-5.1-4-10.3-5.2-15.7c-0.3-1.3-2.2-0.7-1.9,0.5c0.9,4.6,1.2,9,1,13.6c0.6-0.2,1.2-0.3,1.9-0.5c-2-4.3-2.9-8.6-2.9-13.3
					c-0.7,0-1.3,0-2,0c0.4,5.6,0.8,11.1,1.2,16.7c0.6-0.1,1.3-0.2,1.9-0.3c-1.7-6-3.3-12-5-17.9c-0.3-1.2-2.1-0.7-1.9,0.5
					c0.9,5.3,1.2,10.5,1,15.9c0.6-0.1,1.2-0.2,1.9-0.3c-1.4-5.5-2.8-11-4.3-16.5c-0.3-1.2-2-0.7-1.8,0.5c1.3,7.5,2,15,2.3,22.6
					c0.5-0.1,1-0.3,1.4-0.4c-3.1-5.5-5.2-11.3-6.7-17.3C567.7,601,566.7,601.3,566.9,602L566.9,602z"/>
			</g>
			<path class="st2" d="M229.4,330.2l-34.6-78.4l-43.6-57.2c0,0-20.4,32-22.3,55.3C126.9,273.1,180.6,339.7,229.4,330.2z"/>
			<path class="st6" d="M204.5,271.6c-1.9-0.5-17.5-6.3-15.5,10.2c1.9,16.5,17,19.9,31.5,15"/>
			<path class="st2" d="M154.8,200.2c-1.4-13.3-17.8-19-31.1-19c-27.7,0.1-55.1,12.6-73.3,33.4c-6.9,7.9-12.8,17.8-12,28.3
				c0.7,8.3,5.4,15.7,10.1,22.6s9.7,14.1,10.9,22.3c1.2,8.3-2.8,18-10.8,20.3s-17.5-7.4-13-14.4c-6.2-1.6-11.6,5.4-12,11.8
				c-0.5,8.1,4,16.2,11.1,20.1c7.1,3.8,16.4,3.2,22.9-1.7c1.6,6-1.3,12.4-5.4,17s-9.4,8.1-13.9,12.4c-12.9,12.3-17.6,34.3-6.6,48.4
				c7.4,9.6,19.8,13.5,30.1,19.9c10.2,6.5,19.2,19.2,13.9,30.1c-3.3,6.7-11.8,10.2-18.8,7.8c11.8,9.8,31.3,4.8,40.5-7.6
				c9.1-12.4,9.5-29.4,5.5-44.2c15.2,7.3,21.5,28.6,12.7,43c17.2-6.3,28.1-24.6,29.4-42.8c1.3-18.3-5.5-36.3-15-51.9
				c4,8.5,10.7,16.1,19.6,19.1c8.9,3,20,0.2,24.9-7.8c-14.7-5.3-25.4-18.6-31.1-33.1c-5.8-14.5-7.3-30.3-8.4-45.8
				c-1-14.6-1.2-30.8,8.5-41.7"/>
			<g>
				<path class="st2" d="M157.1,193.9c-5-18.6-24.7-29.2-42.8-29.9c-0.3,0-0.3,0.4,0,0.4c19.2,1.4,31.5,14.6,39.4,30.9
					C154.6,197.3,157.6,195.9,157.1,193.9L157.1,193.9z"/>
			</g>
			<g>
				<path class="st2" d="M50.7,188.3c-9.2,11.9-14.1,26-12.5,41.1c0.1,0.5,0.8,0.5,0.8,0C38.9,214.6,42.3,200.7,50.7,188.3
					C51,188.3,50.8,188.2,50.7,188.3L50.7,188.3z"/>
			</g>
			<g>
				<path class="st2" d="M54,273.3c1.5,8.2,2.2,16.9,0.4,25.1c-1.2,5.4-3.5,10.7-9.9,10.7c-6.1,0-9-5.4-9.6-10.7
					c-0.2-1.3-2.1-1.8-2.5-0.3c-2.5,10.3,8.4,18.4,17.8,14.1c13.3-6.1,9.4-28.5,6-39.4C55.7,271.4,53.7,271.9,54,273.3L54,273.3z"/>
			</g>
			<g>
				<path class="st2" d="M54.7,323.8c-3.2,18.9-26.5,18.4-38.5,29.5c-9.8,9-14.9,22.8-12.7,36c2.1,12.7,10.3,24.3,21.9,29.9
					c7.4,3.6,15.5,4.8,23.1,7.6c11.1,4,28.8,20.1,12.5,30.5c-1.8,1.2-0.2,4,1.7,2.9c9.3-5.5,9.9-17.8,3.6-26
					c-11.8-15.6-35.4-12.7-48.7-26.6c-16.4-17.2-10.9-45.5,9.8-56.3c11.4-6,32-9.9,29.9-27.1C57.3,322.7,55,322.1,54.7,323.8
					L54.7,323.8z"/>
			</g>
			<g>
				<path class="st2" d="M133.1,269c-5.5,19.7-7.6,42.8,6,59.9c6.5,8.2,15.7,12.2,24.9,16.5c12.2,5.6,27.9,17.4,17.6,32.1
					c-0.7,1,0.8,2.1,1.7,1.3c15-13.5-3-30.6-15.4-36.9c-13.6-6.9-25.7-12.4-31.6-27.7c-5.5-14.3-3.9-30.1-1.8-44.9
					C134.5,268.5,133.3,268.1,133.1,269L133.1,269z"/>
			</g>
			<g>
				<path class="st2" d="M226.3,326.8c-20.3,3.7-43,11.3-61.4-2.4c-17.6-13-17.7-36.7-21.6-56.2c-0.1-0.5-1-0.4-0.9,0.1
					c2.7,20.1,3,45.2,20.8,58.7c18.2,13.7,43.9,9.4,63.7,2.2C228.4,328.6,227.8,326.5,226.3,326.8L226.3,326.8z"/>
			</g>
			<g>
				<path class="st2" d="M129.8,361.5c1.3,5.4,4.4,9.3,8,13.4c7.7,8.9,11.5,18,10,30c-1.3,9.9-5.8,19.1-11.5,27.3
					c-6.9,10-17,11.9-27.1,17.2c-1.9,1-0.6,4.1,1.5,3.4c9.3-3.1,20-6.7,26.1-14.7c5.8-7.6,10.6-17.3,12.9-26.6
					c2.2-8.8,2.1-18.5-1.8-26.8c-4.2-8.9-13.7-14.1-16.7-23.6C131,360.2,129.6,360.5,129.8,361.5L129.8,361.5z"/>
			</g>
			<g>
				<path class="st2" d="M145,185.3c-29.5-12.7-70.4-8.9-92.9,15.9c-10.8,12-14.1,26.9-11.9,42.7c1.4,9.9,4.3,19.6,6.3,29.4
					c1.6,8.1,4.2,18.2-3.8,23.9c-7.6,5.3-16.5-2.9-19.5-9.2c-0.5-1.1-2.4-0.3-2,0.9c3.5,10.5,16,18.3,25.8,9.9
					c5.3-4.5,5.3-11.3,4.4-17.7c-1.6-11.6-5.9-22.6-7.9-34.1c-4.4-25.3,6.2-46.3,29-58.2c22.7-11.8,48.5-9.8,72.3-2.7
					C145.1,186.3,145.4,185.5,145,185.3L145,185.3z"/>
			</g>
		</g>
		<g>
			<g>
				<path class="st4" d="M69,546.6c-1.1-0.1-2.2-0.2-3,0.8c-0.9,1.1-0.9,2.3,0,3.4c0.8,1,1.9,1,3,0.8c1.4-0.2,2.5-1,2.5-2.5
					C71.5,547.7,70.4,546.8,69,546.6L69,546.6z"/>
			</g>
			<g>
				<path class="st4" d="M81,530.7c0.2,0.3,0.5,0.6,0.8,0.8c0.2,0.2,0.4,0.3,0.7,0.4c0.4,0.2,0.5,0.2,0.3,0.1c2.5,1.5,5.5-1.5,4-4
					c0.3,0.5-0.5-0.9-0.5-1c-0.3-0.3-0.5-0.5-0.8-0.8c-1.3-1-3.1-1.3-4.4,0C79.8,527.7,80,529.3,81,530.7L81,530.7z"/>
			</g>
			<g>
				<path class="st4" d="M98.7,572.4c5,0,5-7.7,0-7.7C93.8,564.7,93.8,572.4,98.7,572.4L98.7,572.4z"/>
			</g>
			<g>
				<path class="st4" d="M367.7,110.7c0.1-0.7,0.2-1.1,0-1.9c-0.1-0.5-0.2-1-0.4-1.4c-0.3-1.1-0.9-2.2-2.2-2.2
					c-1.3,0-1.9,1.1-2.2,2.2c-0.1,0.5-0.3,1-0.4,1.4c-0.2,0.8,0,1.2,0,1.9c0.1,1.4,1.1,2.6,2.6,2.6
					C366.6,113.3,367.6,112.1,367.7,110.7L367.7,110.7z"/>
			</g>
			<g>
				<path class="st4" d="M388.4,90.2c3.5,0,3.5-5.4,0-5.4C385,84.8,385,90.2,388.4,90.2L388.4,90.2z"/>
			</g>
			<g>
				<path class="st4" d="M399.3,114.3c0.2,0.5,0.4,1.1,0.7,1.6c0.9,2,4.4,2,5.3,0c0.2-0.5,0.5-1.1,0.7-1.6c0.9-2.1-1.3-4.4-3.4-4.4
					C400.6,109.9,398.4,112.1,399.3,114.3L399.3,114.3z"/>
			</g>
			<g>
				<path class="st4" d="M544.9,516.7C544.7,516.9,544.7,516.9,544.9,516.7c1.2,0.4,2.4,0.8,3.5,1.3c-0.1-0.7-0.5-1.3-1-1.8
					c-0.4-0.4,0.3,0.5,0-0.1c-0.1-0.1-0.1-0.2-0.2-0.4c-0.4-0.5-0.5-0.7-0.3-0.4c0.1,0.1,0.1,0.1,0-0.1c0-0.1-0.1-0.2-0.2-0.3
					c-0.5-0.8-0.9-1-1.9-0.8c-0.9,0.1-1.3,0.4-1.8,1.2c-0.3,0.5-0.4,1-0.5,1.6c-0.2,1.3,0.3,2.5,1.2,3.5c1,1.1,3.1,1.1,4,0
					c0.3-0.4,0.6-0.7,0.8-1.1c0.5-1,0.3-2.2-0.6-2.9C547.1,515.9,545.7,515.8,544.9,516.7L544.9,516.7z"/>
			</g>
			<g>
				<path class="st4" d="M553.4,493.8c0.8-0.3,1.6-0.6,2.4-1.2c1.2-0.8,1.2-2.4,0-3.3c-0.8-0.5-1.6-0.8-2.4-1.2
					c-1.8-0.7-3.7,1.1-3.7,2.8C549.8,492.7,551.7,494.5,553.4,493.8L553.4,493.8z"/>
			</g>
			<g>
				<path class="st4" d="M568.2,509.4c3.7,0,3.8-5.8,0-5.8C564.5,503.6,564.4,509.4,568.2,509.4L568.2,509.4z"/>
			</g>
		</g>
	</g>
</g>
<g class="st0">
	<g class="st1">
		<g>
			<g>
				
					<radialGradient id="SVGID_1_" cx="187.7458" cy="181.4268" r="26.4416" gradientTransform="matrix(-0.7492 0.6624 0.6624 0.7492 331.579 25.5597)" gradientUnits="userSpaceOnUse">
					<stop  offset="9.890110e-02" style="stop-color:#FFFFFF"/>
					<stop  offset="0.3626" style="stop-color:#7A7A7A"/>
					<stop  offset="0.5714" style="stop-color:#2A2A2A"/>
					<stop  offset="0.6633" style="stop-color:#161616"/>
					<stop  offset="0.8265" style="stop-color:#000505"/>
					<stop  offset="0.9643" style="stop-color:#000000"/>
				</radialGradient>
				<path class="st16" d="M291.3,303.4c9.7,10.9,26.4,12,37.3,2.3c10.9-9.7,12-26.4,2.3-37.3c-9.7-10.9-26.4-12-37.3-2.3
					C282.6,275.7,281.6,292.4,291.3,303.4z"/>
				<g>
					
						<radialGradient id="SVGID_00000121266464660430407330000017404553204305345692_" cx="2642.9563" cy="222.5622" r="37.0574" gradientTransform="matrix(-8.846474e-02 -8.872046e-02 0.8609 -0.8582 353.2925 711.3354)" gradientUnits="userSpaceOnUse">
						<stop  offset="0" style="stop-color:#FFFFFF"/>
						<stop  offset="0.102" style="stop-color:#D9D9D9"/>
						<stop  offset="0.1684" style="stop-color:#AAAAAA"/>
						<stop  offset="0.2551" style="stop-color:#7A7A7A"/>
						<stop  offset="0.4082" style="stop-color:#424242"/>
						<stop  offset="0.5153" style="stop-color:#2A2A2A"/>
						<stop  offset="0.6633" style="stop-color:#161616"/>
						<stop  offset="0.8265" style="stop-color:#000505"/>
						<stop  offset="0.9643" style="stop-color:#000000"/>
					</radialGradient>
					<path style="fill:url(#SVGID_00000121266464660430407330000017404553204305345692_);" d="M307.8,282.6
						c17.6-17.6,33.4-30.3,35.2-28.5c1.8,1.8-11,17.5-28.6,35.1c-17.6,17.6-33.4,30.3-35.2,28.5
						C277.4,315.8,290.2,300.1,307.8,282.6z"/>
					
						<radialGradient id="SVGID_00000136409282861547200790000009815460737360940185_" cx="314.1488" cy="-763.7195" r="17.1325" gradientTransform="matrix(-1.9083 5.093993e-02 5.297831e-03 0.1972 914.6236 420.6079)" gradientUnits="userSpaceOnUse">
						<stop  offset="0" style="stop-color:#FFFFFF"/>
						<stop  offset="0.102" style="stop-color:#D9D9D9"/>
						<stop  offset="0.1684" style="stop-color:#AAAAAA"/>
						<stop  offset="0.2551" style="stop-color:#7A7A7A"/>
						<stop  offset="0.4082" style="stop-color:#424242"/>
						<stop  offset="0.5153" style="stop-color:#2A2A2A"/>
						<stop  offset="0.6633" style="stop-color:#161616"/>
						<stop  offset="0.8265" style="stop-color:#000505"/>
						<stop  offset="0.9643" style="stop-color:#000000"/>
					</radialGradient>
					<path style="fill:url(#SVGID_00000136409282861547200790000009815460737360940185_);" d="M278.4,286.9c0.1,1.9,14.7,3,32.8,2.5
						c18.1-0.5,32.7-2.4,32.6-4.3c0-1.9-14.7-3-32.8-2.5C292.9,283.1,278.3,285,278.4,286.9z"/>
					
						<radialGradient id="SVGID_00000089543631855366961660000000812425622641006258_" cx="443.2723" cy="-126.9033" r="17.1603" gradientTransform="matrix(-0.1793 -1.9457 -0.1552 1.426462e-02 370.8755 1150.2828)" gradientUnits="userSpaceOnUse">
						<stop  offset="0" style="stop-color:#FFFFFF"/>
						<stop  offset="0.102" style="stop-color:#D9D9D9"/>
						<stop  offset="0.1684" style="stop-color:#AAAAAA"/>
						<stop  offset="0.2551" style="stop-color:#7A7A7A"/>
						<stop  offset="0.4082" style="stop-color:#424242"/>
						<stop  offset="0.5153" style="stop-color:#2A2A2A"/>
						<stop  offset="0.6633" style="stop-color:#161616"/>
						<stop  offset="0.8265" style="stop-color:#000505"/>
						<stop  offset="0.9643" style="stop-color:#000000"/>
					</radialGradient>
					<path style="fill:url(#SVGID_00000089543631855366961660000000812425622641006258_);" d="M308,252.7
						c-1.5,0.1-1.3,15.2,0.4,33.6c1.7,18.4,4.3,33.2,5.7,33.1c1.5-0.1,1.3-15.2-0.4-33.6C312.1,267.4,309.5,252.5,308,252.7z"/>
				</g>
			</g>
			<g>
				
					<radialGradient id="SVGID_00000053523175780614491110000014339508122105393294_" cx="415.3853" cy="438.8281" r="9.3571" gradientTransform="matrix(-0.9995 -3.248347e-02 3.248347e-02 -0.9995 712.0092 738.1098)" gradientUnits="userSpaceOnUse">
					<stop  offset="0.3242" style="stop-color:#FFFFFF"/>
					<stop  offset="0.5604" style="stop-color:#C6C6C6"/>
					<stop  offset="0.7308" style="stop-color:#6A6A6A"/>
					<stop  offset="0.8736" style="stop-color:#000505"/>
					<stop  offset="0.9643" style="stop-color:#000000"/>
				</radialGradient>
				<path style="fill:url(#SVGID_00000053523175780614491110000014339508122105393294_);" d="M301.7,285.7c0.2-5.2,4.5-9.2,9.7-9
					c5.2,0.2,9.2,4.5,9.1,9.7c-0.2,5.2-4.5,9.2-9.7,9C305.6,295.2,301.6,290.9,301.7,285.7z"/>
			</g>
		</g>
		<g>
			<g>
				
					<radialGradient id="SVGID_00000139283089864011693960000000284455739810083511_" cx="236.9273" cy="352.8025" r="26.4401" gradientTransform="matrix(-0.7492 0.6624 0.6624 0.7492 331.579 25.5597)" gradientUnits="userSpaceOnUse">
					<stop  offset="9.890110e-02" style="stop-color:#FFFFFF"/>
					<stop  offset="0.3626" style="stop-color:#7A7A7A"/>
					<stop  offset="0.5714" style="stop-color:#2A2A2A"/>
					<stop  offset="0.6633" style="stop-color:#161616"/>
					<stop  offset="0.8265" style="stop-color:#000505"/>
					<stop  offset="0.9643" style="stop-color:#000000"/>
				</radialGradient>
				<path style="fill:url(#SVGID_00000139283089864011693960000000284455739810083511_);" d="M368,464.3c9.7,10.9,26.4,12,37.3,2.3
					c10.9-9.7,12-26.4,2.3-37.3c-9.7-10.9-26.4-12-37.3-2.3C359.3,436.7,358.3,453.4,368,464.3z"/>
				<g>
					
						<radialGradient id="SVGID_00000119805774573701606490000004677604201122763429_" cx="1300.8866" cy="173.735" r="37.0671" gradientTransform="matrix(-8.846474e-02 -8.872046e-02 0.8609 -0.8582 353.2925 711.3354)" gradientUnits="userSpaceOnUse">
						<stop  offset="0" style="stop-color:#FFFFFF"/>
						<stop  offset="0.102" style="stop-color:#D9D9D9"/>
						<stop  offset="0.1684" style="stop-color:#AAAAAA"/>
						<stop  offset="0.2551" style="stop-color:#7A7A7A"/>
						<stop  offset="0.4082" style="stop-color:#424242"/>
						<stop  offset="0.5153" style="stop-color:#2A2A2A"/>
						<stop  offset="0.6633" style="stop-color:#161616"/>
						<stop  offset="0.8265" style="stop-color:#000505"/>
						<stop  offset="0.9643" style="stop-color:#000000"/>
					</radialGradient>
					<path style="fill:url(#SVGID_00000119805774573701606490000004677604201122763429_);" d="M384.5,443.5
						c17.6-17.6,33.4-30.3,35.2-28.5c1.8,1.8-11,17.5-28.6,35.1c-17.6,17.6-33.4,30.3-35.2,28.5
						C354.1,476.8,366.9,461.1,384.5,443.5z"/>
					
						<radialGradient id="SVGID_00000090275544017969908700000007199505989851292045_" cx="276.2629" cy="62.4611" r="17.1399" gradientTransform="matrix(-1.9083 5.093993e-02 5.297831e-03 0.1972 914.6236 420.6079)" gradientUnits="userSpaceOnUse">
						<stop  offset="0" style="stop-color:#FFFFFF"/>
						<stop  offset="0.102" style="stop-color:#D9D9D9"/>
						<stop  offset="0.1684" style="stop-color:#AAAAAA"/>
						<stop  offset="0.2551" style="stop-color:#7A7A7A"/>
						<stop  offset="0.4082" style="stop-color:#424242"/>
						<stop  offset="0.5153" style="stop-color:#2A2A2A"/>
						<stop  offset="0.6633" style="stop-color:#161616"/>
						<stop  offset="0.8265" style="stop-color:#000505"/>
						<stop  offset="0.9643" style="stop-color:#000000"/>
					</radialGradient>
					<path style="fill:url(#SVGID_00000090275544017969908700000007199505989851292045_);" d="M355.1,447.9c0.1,1.9,14.7,3,32.8,2.5
						c18.1-0.5,32.7-2.4,32.6-4.2c0-1.9-14.7-3-32.8-2.5C369.6,444.1,355,446,355.1,447.9z"/>
					
						<radialGradient id="SVGID_00000078738958225330131910000016142256758237232264_" cx="357.6385" cy="-521.9023" r="17.1653" gradientTransform="matrix(-0.1793 -1.9457 -0.1552 1.426462e-02 370.8755 1150.2828)" gradientUnits="userSpaceOnUse">
						<stop  offset="0" style="stop-color:#FFFFFF"/>
						<stop  offset="0.102" style="stop-color:#D9D9D9"/>
						<stop  offset="0.1684" style="stop-color:#AAAAAA"/>
						<stop  offset="0.2551" style="stop-color:#7A7A7A"/>
						<stop  offset="0.4082" style="stop-color:#424242"/>
						<stop  offset="0.5153" style="stop-color:#2A2A2A"/>
						<stop  offset="0.6633" style="stop-color:#161616"/>
						<stop  offset="0.8265" style="stop-color:#000505"/>
						<stop  offset="0.9643" style="stop-color:#000000"/>
					</radialGradient>
					<path style="fill:url(#SVGID_00000078738958225330131910000016142256758237232264_);" d="M384.7,413.7
						c-1.5,0.1-1.3,15.2,0.4,33.6c1.7,18.4,4.3,33.2,5.7,33.1c1.5-0.1,1.3-15.2-0.4-33.6C388.7,428.3,386.2,413.5,384.7,413.7z"/>
				</g>
			</g>
			<g>
				
					<radialGradient id="SVGID_00000173124171262789744630000013540009960965756032_" cx="333.5207" cy="280.422" r="9.3569" gradientTransform="matrix(-0.9995 -3.248347e-02 3.248347e-02 -0.9995 712.0092 738.1098)" gradientUnits="userSpaceOnUse">
					<stop  offset="0.3242" style="stop-color:#FFFFFF"/>
					<stop  offset="0.5604" style="stop-color:#C6C6C6"/>
					<stop  offset="0.7308" style="stop-color:#6A6A6A"/>
					<stop  offset="0.8736" style="stop-color:#000505"/>
					<stop  offset="0.9643" style="stop-color:#000000"/>
				</radialGradient>
				<path style="fill:url(#SVGID_00000173124171262789744630000013540009960965756032_);" d="M378.4,446.7c0.2-5.2,4.5-9.2,9.6-9
					c5.2,0.2,9.2,4.5,9.1,9.6c-0.2,5.2-4.5,9.2-9.7,9.1C382.3,456.2,378.3,451.8,378.4,446.7z"/>
			</g>
		</g>
		<g>
			<g>
				
					<radialGradient id="SVGID_00000003079456473600104000000017067735441093546141_" cx="-99.9693" cy="240.1595" r="26.4397" gradientTransform="matrix(-0.7492 0.6624 0.6624 0.7492 331.579 25.5597)" gradientUnits="userSpaceOnUse">
					<stop  offset="9.890110e-02" style="stop-color:#FFFFFF"/>
					<stop  offset="0.3626" style="stop-color:#7A7A7A"/>
					<stop  offset="0.5714" style="stop-color:#2A2A2A"/>
					<stop  offset="0.6633" style="stop-color:#161616"/>
					<stop  offset="0.8265" style="stop-color:#000505"/>
					<stop  offset="0.9643" style="stop-color:#000000"/>
				</radialGradient>
				<path style="fill:url(#SVGID_00000003079456473600104000000017067735441093546141_);" d="M545.8,156.8
					c9.7,10.9,26.4,12,37.3,2.3c10.9-9.7,12-26.4,2.3-37.3c-9.7-10.9-26.4-12-37.3-2.3C537.1,129.1,536.1,145.8,545.8,156.8z"/>
				<g>
					
						<radialGradient id="SVGID_00000038384367400507492500000015325554034991509657_" cx="178.8338" cy="-1472.189" r="17.1399" gradientTransform="matrix(-1.9083 5.093993e-02 5.297831e-03 0.1972 914.6236 420.6079)" gradientUnits="userSpaceOnUse">
						<stop  offset="0" style="stop-color:#FFFFFF"/>
						<stop  offset="0.102" style="stop-color:#D9D9D9"/>
						<stop  offset="0.1684" style="stop-color:#AAAAAA"/>
						<stop  offset="0.2551" style="stop-color:#7A7A7A"/>
						<stop  offset="0.4082" style="stop-color:#424242"/>
						<stop  offset="0.5153" style="stop-color:#2A2A2A"/>
						<stop  offset="0.6633" style="stop-color:#161616"/>
						<stop  offset="0.8265" style="stop-color:#000505"/>
						<stop  offset="0.9643" style="stop-color:#000000"/>
					</radialGradient>
					<path style="fill:url(#SVGID_00000038384367400507492500000015325554034991509657_);" d="M532.8,140.3c0.1,1.9,14.7,3,32.8,2.5
						c18.1-0.5,32.7-2.4,32.6-4.2c0-1.9-14.7-3-32.8-2.5C547.4,136.5,532.8,138.4,532.8,140.3z"/>
					
						<radialGradient id="SVGID_00000146488972297829982360000003033245928166669242_" cx="506.0607" cy="-1838.5311" r="17.1592" gradientTransform="matrix(-0.1793 -1.9457 -0.1552 1.426462e-02 370.8755 1150.2828)" gradientUnits="userSpaceOnUse">
						<stop  offset="0" style="stop-color:#FFFFFF"/>
						<stop  offset="0.102" style="stop-color:#D9D9D9"/>
						<stop  offset="0.1684" style="stop-color:#AAAAAA"/>
						<stop  offset="0.2551" style="stop-color:#7A7A7A"/>
						<stop  offset="0.4082" style="stop-color:#424242"/>
						<stop  offset="0.5153" style="stop-color:#2A2A2A"/>
						<stop  offset="0.6633" style="stop-color:#161616"/>
						<stop  offset="0.8265" style="stop-color:#000505"/>
						<stop  offset="0.9643" style="stop-color:#000000"/>
					</radialGradient>
					<path style="fill:url(#SVGID_00000146488972297829982360000003033245928166669242_);" d="M562.5,106.1
						c-1.5,0.1-1.3,15.2,0.4,33.6c1.7,18.4,4.3,33.2,5.7,33.1c1.5-0.1,1.3-15.2-0.4-33.6C566.5,120.8,563.9,106,562.5,106.1z"/>
				</g>
			</g>
			<g>
				
					<radialGradient id="SVGID_00000033337879330633235690000009452406290576941232_" cx="165.8176" cy="593.5941" r="9.3578" gradientTransform="matrix(-0.9995 -3.248347e-02 3.248347e-02 -0.9995 712.0092 738.1098)" gradientUnits="userSpaceOnUse">
					<stop  offset="0.3242" style="stop-color:#FFFFFF"/>
					<stop  offset="0.5604" style="stop-color:#C6C6C6"/>
					<stop  offset="0.7308" style="stop-color:#6A6A6A"/>
					<stop  offset="0.8736" style="stop-color:#000505"/>
					<stop  offset="0.9643" style="stop-color:#000000"/>
				</radialGradient>
				<path style="fill:url(#SVGID_00000033337879330633235690000009452406290576941232_);" d="M556.2,139.1c0.2-5.2,4.5-9.2,9.7-9
					c5.2,0.2,9.2,4.5,9.1,9.6c-0.2,5.2-4.5,9.2-9.7,9.1C560.1,148.6,556,144.3,556.2,139.1z"/>
			</g>
		</g>
		<g>
			
				<radialGradient id="SVGID_00000099631370324446010720000002696014185217773189_" cx="176.4727" cy="138.7729" r="16.6718" gradientTransform="matrix(-0.7492 0.6624 0.6624 0.7492 331.579 25.5597)" gradientUnits="userSpaceOnUse">
				<stop  offset="9.890110e-02" style="stop-color:#FFFFFF"/>
				<stop  offset="0.3626" style="stop-color:#7A7A7A"/>
				<stop  offset="0.5714" style="stop-color:#2A2A2A"/>
				<stop  offset="0.6633" style="stop-color:#161616"/>
				<stop  offset="0.8265" style="stop-color:#000505"/>
				<stop  offset="0.9643" style="stop-color:#000000"/>
			</radialGradient>
			<path style="fill:url(#SVGID_00000099631370324446010720000002696014185217773189_);" d="M278.8,257.5c6.1,6.9,16.6,7.5,23.5,1.5
				c6.9-6.1,7.5-16.6,1.4-23.5c-6.1-6.9-16.6-7.6-23.5-1.5C273.3,240,272.7,250.6,278.8,257.5z"/>
			<g>
				
					<radialGradient id="SVGID_00000172416330864223317930000003822891667794297001_" cx="436.4645" cy="477.6469" r="5.8991" gradientTransform="matrix(-0.9995 -3.248347e-02 3.248347e-02 -0.9995 712.0092 738.1098)" gradientUnits="userSpaceOnUse">
					<stop  offset="0.3242" style="stop-color:#FFFFFF"/>
					<stop  offset="0.5604" style="stop-color:#C6C6C6"/>
					<stop  offset="0.7308" style="stop-color:#6A6A6A"/>
					<stop  offset="0.8736" style="stop-color:#000505"/>
					<stop  offset="0.9643" style="stop-color:#000000"/>
				</radialGradient>
				<path style="fill:url(#SVGID_00000172416330864223317930000003822891667794297001_);" d="M285.4,246.3c0.1-3.3,2.8-5.8,6.1-5.7
					c3.3,0.1,5.8,2.8,5.7,6.1c-0.1,3.3-2.8,5.8-6.1,5.7C287.8,252.3,285.3,249.6,285.4,246.3z"/>
			</g>
		</g>
		<g>
			
				<radialGradient id="SVGID_00000025418112176013697080000003667769206481468585_" cx="276.369" cy="173.2407" r="16.672" gradientTransform="matrix(-0.7492 0.6624 0.6624 0.7492 331.579 25.5597)" gradientUnits="userSpaceOnUse">
				<stop  offset="9.890110e-02" style="stop-color:#FFFFFF"/>
				<stop  offset="0.3626" style="stop-color:#7A7A7A"/>
				<stop  offset="0.5714" style="stop-color:#2A2A2A"/>
				<stop  offset="0.6633" style="stop-color:#161616"/>
				<stop  offset="0.8265" style="stop-color:#000505"/>
				<stop  offset="0.9643" style="stop-color:#000000"/>
			</radialGradient>
			<path style="fill:url(#SVGID_00000025418112176013697080000003667769206481468585_);" d="M226.8,349.5c6.1,6.9,16.6,7.5,23.5,1.5
				c6.9-6.1,7.5-16.6,1.4-23.5c-6.1-6.9-16.6-7.6-23.5-1.5C221.3,332,220.7,342.6,226.8,349.5z"/>
			<g>
				
					<radialGradient id="SVGID_00000051354199635793736960000007796413271523052700_" cx="485.4633" cy="384.0112" r="5.9006" gradientTransform="matrix(-0.9995 -3.248347e-02 3.248347e-02 -0.9995 712.0092 738.1098)" gradientUnits="userSpaceOnUse">
					<stop  offset="0.3242" style="stop-color:#FFFFFF"/>
					<stop  offset="0.5604" style="stop-color:#C6C6C6"/>
					<stop  offset="0.7308" style="stop-color:#6A6A6A"/>
					<stop  offset="0.8736" style="stop-color:#000505"/>
					<stop  offset="0.9643" style="stop-color:#000000"/>
				</radialGradient>
				<path style="fill:url(#SVGID_00000051354199635793736960000007796413271523052700_);" d="M233.4,338.3c0.1-3.3,2.8-5.8,6.1-5.7
					c3.3,0.1,5.8,2.8,5.7,6.1c-0.1,3.3-2.8,5.8-6.1,5.7C235.8,344.3,233.3,341.6,233.4,338.3z"/>
			</g>
		</g>
		<g>
			
				<radialGradient id="SVGID_00000123425245923833915070000002595335590507710870_" cx="251.6857" cy="218.4694" r="16.6708" gradientTransform="matrix(-0.7492 0.6624 0.6624 0.7492 331.579 25.5597)" gradientUnits="userSpaceOnUse">
				<stop  offset="9.890110e-02" style="stop-color:#FFFFFF"/>
				<stop  offset="0.3626" style="stop-color:#7A7A7A"/>
				<stop  offset="0.5714" style="stop-color:#2A2A2A"/>
				<stop  offset="0.6633" style="stop-color:#161616"/>
				<stop  offset="0.8265" style="stop-color:#000505"/>
				<stop  offset="0.9643" style="stop-color:#000000"/>
			</radialGradient>
			<path style="fill:url(#SVGID_00000123425245923833915070000002595335590507710870_);" d="M275.2,367c6.1,6.9,16.6,7.5,23.5,1.5
				c6.9-6.1,7.5-16.6,1.4-23.5c-6.1-6.9-16.6-7.6-23.5-1.5C269.8,349.6,269.1,360.1,275.2,367z"/>
			<g>
				
					<radialGradient id="SVGID_00000093887883631269814510000009310934823439861404_" cx="436.4645" cy="368.0565" r="5.8977" gradientTransform="matrix(-0.9995 -3.248347e-02 3.248347e-02 -0.9995 712.0092 738.1098)" gradientUnits="userSpaceOnUse">
					<stop  offset="0.3242" style="stop-color:#FFFFFF"/>
					<stop  offset="0.5604" style="stop-color:#C6C6C6"/>
					<stop  offset="0.7308" style="stop-color:#6A6A6A"/>
					<stop  offset="0.8736" style="stop-color:#000505"/>
					<stop  offset="0.9643" style="stop-color:#000000"/>
				</radialGradient>
				<path style="fill:url(#SVGID_00000093887883631269814510000009310934823439861404_);" d="M281.8,355.9c0.1-3.3,2.8-5.8,6.1-5.7
					c3.3,0.1,5.8,2.8,5.7,6.1c-0.1,3.3-2.8,5.8-6.1,5.7C284.3,361.9,281.7,359.1,281.8,355.9z"/>
			</g>
		</g>
		<g>
			
				<radialGradient id="SVGID_00000034090719208661953830000001753001048199430846_" cx="312.3012" cy="290.9932" r="16.6735" gradientTransform="matrix(-0.7492 0.6624 0.6624 0.7492 331.579 25.5597)" gradientUnits="userSpaceOnUse">
				<stop  offset="9.890110e-02" style="stop-color:#FFFFFF"/>
				<stop  offset="0.3626" style="stop-color:#7A7A7A"/>
				<stop  offset="0.5714" style="stop-color:#2A2A2A"/>
				<stop  offset="0.6633" style="stop-color:#161616"/>
				<stop  offset="0.8265" style="stop-color:#000505"/>
				<stop  offset="0.9643" style="stop-color:#000000"/>
			</radialGradient>
			<path style="fill:url(#SVGID_00000034090719208661953830000001753001048199430846_);" d="M277.9,461.5c6.1,6.9,16.6,7.5,23.5,1.5
				c6.9-6.1,7.5-16.6,1.4-23.5c-6.1-6.9-16.6-7.6-23.5-1.5C272.4,444,271.8,454.6,277.9,461.5z"/>
			<g>
				
					<radialGradient id="SVGID_00000050641010539996658280000002824648543360527780_" cx="430.7668" cy="273.7051" r="5.9006" gradientTransform="matrix(-0.9995 -3.248347e-02 3.248347e-02 -0.9995 712.0092 738.1098)" gradientUnits="userSpaceOnUse">
					<stop  offset="0.3242" style="stop-color:#FFFFFF"/>
					<stop  offset="0.5604" style="stop-color:#C6C6C6"/>
					<stop  offset="0.7308" style="stop-color:#6A6A6A"/>
					<stop  offset="0.8736" style="stop-color:#000505"/>
					<stop  offset="0.9643" style="stop-color:#000000"/>
				</radialGradient>
				<path style="fill:url(#SVGID_00000050641010539996658280000002824648543360527780_);" d="M284.5,450.4c0.1-3.3,2.8-5.8,6.1-5.7
					c3.3,0.1,5.8,2.8,5.7,6.1c-0.1,3.3-2.8,5.8-6.1,5.7C286.9,456.3,284.4,453.6,284.5,450.4z"/>
			</g>
		</g>
		<g>
			<g>
				
					<radialGradient id="SVGID_00000091704623304807318620000015732499278069021859_" cx="140.6866" cy="471.4877" r="21.822" gradientTransform="matrix(-0.7492 0.6624 0.6624 0.7492 331.579 25.5597)" gradientUnits="userSpaceOnUse">
					<stop  offset="9.890110e-02" style="stop-color:#FFFFFF"/>
					<stop  offset="0.3626" style="stop-color:#7A7A7A"/>
					<stop  offset="0.5714" style="stop-color:#2A2A2A"/>
					<stop  offset="0.6633" style="stop-color:#161616"/>
					<stop  offset="0.8265" style="stop-color:#000505"/>
					<stop  offset="0.9643" style="stop-color:#000000"/>
				</radialGradient>
				<path style="fill:url(#SVGID_00000091704623304807318620000015732499278069021859_);" d="M522.1,486.4c8,9,21.8,9.9,30.8,1.9
					c9-8,9.9-21.8,1.9-30.8c-8-9-21.8-9.9-30.8-1.9C515,463.6,514.1,477.4,522.1,486.4z"/>
				<g>
					
						<radialGradient id="SVGID_00000091012193643091238300000010814442974008184470_" cx="308.4805" cy="246.8227" r="29.5133" gradientTransform="matrix(-8.846474e-02 -8.872046e-02 0.8609 -0.8582 353.2925 711.3354)" gradientUnits="userSpaceOnUse">
						<stop  offset="0" style="stop-color:#FFFFFF"/>
						<stop  offset="0.102" style="stop-color:#D9D9D9"/>
						<stop  offset="0.1684" style="stop-color:#AAAAAA"/>
						<stop  offset="0.2551" style="stop-color:#7A7A7A"/>
						<stop  offset="0.4082" style="stop-color:#424242"/>
						<stop  offset="0.5153" style="stop-color:#2A2A2A"/>
						<stop  offset="0.6633" style="stop-color:#161616"/>
						<stop  offset="0.8265" style="stop-color:#000505"/>
						<stop  offset="0.9643" style="stop-color:#000000"/>
					</radialGradient>
					<path style="fill:url(#SVGID_00000091012193643091238300000010814442974008184470_);" d="M535.9,469.5c14-14,26.6-24.2,28-22.7
						c1.4,1.4-8.8,14-22.8,28c-14,14-26.6,24.2-28,22.7C511.6,496,521.8,483.5,535.9,469.5z"/>
					
						<radialGradient id="SVGID_00000143585816998029996530000014014458637975929241_" cx="197.6889" cy="210.2737" r="14.1453" gradientTransform="matrix(-1.9083 5.093993e-02 5.297831e-03 0.1972 914.6236 420.6079)" gradientUnits="userSpaceOnUse">
						<stop  offset="0" style="stop-color:#FFFFFF"/>
						<stop  offset="0.102" style="stop-color:#D9D9D9"/>
						<stop  offset="0.1684" style="stop-color:#AAAAAA"/>
						<stop  offset="0.2551" style="stop-color:#7A7A7A"/>
						<stop  offset="0.4082" style="stop-color:#424242"/>
						<stop  offset="0.5153" style="stop-color:#2A2A2A"/>
						<stop  offset="0.6633" style="stop-color:#161616"/>
						<stop  offset="0.8265" style="stop-color:#000505"/>
						<stop  offset="0.9643" style="stop-color:#000000"/>
					</radialGradient>
					<path style="fill:url(#SVGID_00000143585816998029996530000014014458637975929241_);" d="M511.5,472.9c0,1.5,12.2,2.5,27.1,2.1
						c14.9-0.4,27-2,26.9-3.5c0-1.5-12.2-2.5-27.1-2.1C523.5,469.8,511.5,471.3,511.5,472.9z"/>
					
						<radialGradient id="SVGID_00000046308559679441925890000012752345646515747765_" cx="337.7662" cy="-1469.8035" r="14.1702" gradientTransform="matrix(-0.1793 -1.9457 -0.1552 1.426462e-02 370.8755 1150.2828)" gradientUnits="userSpaceOnUse">
						<stop  offset="0" style="stop-color:#FFFFFF"/>
						<stop  offset="0.102" style="stop-color:#D9D9D9"/>
						<stop  offset="0.1684" style="stop-color:#AAAAAA"/>
						<stop  offset="0.2551" style="stop-color:#7A7A7A"/>
						<stop  offset="0.4082" style="stop-color:#424242"/>
						<stop  offset="0.5153" style="stop-color:#2A2A2A"/>
						<stop  offset="0.6633" style="stop-color:#161616"/>
						<stop  offset="0.8265" style="stop-color:#000505"/>
						<stop  offset="0.9643" style="stop-color:#000000"/>
					</radialGradient>
					<path style="fill:url(#SVGID_00000046308559679441925890000012752345646515747765_);" d="M536,444.6
						c-1.2,0.1-1.1,12.5,0.3,27.7c1.4,15.2,3.5,27.4,4.7,27.3c1.2-0.1,1.1-12.5-0.3-27.7C539.3,456.7,537.2,444.5,536,444.6z"/>
				</g>
			</g>
			<g>
				
					<radialGradient id="SVGID_00000134234048090177504450000010668065282003257237_" cx="182.0618" cy="260.1884" r="7.7222" gradientTransform="matrix(-0.9995 -3.248347e-02 3.248347e-02 -0.9995 712.0092 738.1098)" gradientUnits="userSpaceOnUse">
					<stop  offset="0.3242" style="stop-color:#FFFFFF"/>
					<stop  offset="0.5604" style="stop-color:#C6C6C6"/>
					<stop  offset="0.7308" style="stop-color:#6A6A6A"/>
					<stop  offset="0.8736" style="stop-color:#000505"/>
					<stop  offset="0.9643" style="stop-color:#000000"/>
				</radialGradient>
				<path style="fill:url(#SVGID_00000134234048090177504450000010668065282003257237_);" d="M530.8,471.9c0.1-4.3,3.7-7.6,8-7.5
					c4.3,0.1,7.6,3.7,7.5,8c-0.1,4.3-3.7,7.6-8,7.5C534,479.7,530.6,476.1,530.8,471.9z"/>
			</g>
		</g>
		<g>
			
				<radialGradient id="SVGID_00000049906920742070932840000015031859957495707322_" cx="396.4294" cy="309.0594" r="16.6736" gradientTransform="matrix(-0.7492 0.6624 0.6624 0.7492 331.579 25.5597)" gradientUnits="userSpaceOnUse">
				<stop  offset="9.890110e-02" style="stop-color:#FFFFFF"/>
				<stop  offset="0.3626" style="stop-color:#7A7A7A"/>
				<stop  offset="0.5714" style="stop-color:#2A2A2A"/>
				<stop  offset="0.6633" style="stop-color:#161616"/>
				<stop  offset="0.8265" style="stop-color:#000505"/>
				<stop  offset="0.9643" style="stop-color:#000000"/>
			</radialGradient>
			<path style="fill:url(#SVGID_00000049906920742070932840000015031859957495707322_);" d="M226.8,530.8c6.1,6.9,16.6,7.5,23.5,1.5
				c6.9-6.1,7.5-16.6,1.4-23.5c-6.1-6.9-16.6-7.6-23.5-1.5C221.4,513.3,220.7,523.9,226.8,530.8z"/>
			<g>
				
					<radialGradient id="SVGID_00000085216466665117161340000009230264393683603373_" cx="479.552" cy="202.8216" r="5.9012" gradientTransform="matrix(-0.9995 -3.248347e-02 3.248347e-02 -0.9995 712.0092 738.1098)" gradientUnits="userSpaceOnUse">
					<stop  offset="0.3242" style="stop-color:#FFFFFF"/>
					<stop  offset="0.5604" style="stop-color:#C6C6C6"/>
					<stop  offset="0.7308" style="stop-color:#6A6A6A"/>
					<stop  offset="0.8736" style="stop-color:#000505"/>
					<stop  offset="0.9643" style="stop-color:#000000"/>
				</radialGradient>
				<path style="fill:url(#SVGID_00000085216466665117161340000009230264393683603373_);" d="M233.4,519.6c0.1-3.3,2.8-5.8,6.1-5.7
					c3.3,0.1,5.8,2.8,5.7,6.1c-0.1,3.3-2.8,5.8-6.1,5.7C235.9,525.6,233.3,522.9,233.4,519.6z"/>
			</g>
		</g>
		<g>
			
				<radialGradient id="SVGID_00000036229224395255954440000004344360535396327345_" cx="245.7567" cy="325.5113" r="13.0093" gradientTransform="matrix(-0.7492 0.6624 0.6624 0.7492 331.579 25.5597)" gradientUnits="userSpaceOnUse">
				<stop  offset="9.890110e-02" style="stop-color:#FFFFFF"/>
				<stop  offset="0.3626" style="stop-color:#7A7A7A"/>
				<stop  offset="0.5714" style="stop-color:#2A2A2A"/>
				<stop  offset="0.6633" style="stop-color:#161616"/>
				<stop  offset="0.8265" style="stop-color:#000505"/>
				<stop  offset="0.9643" style="stop-color:#000000"/>
			</radialGradient>
			<path style="fill:url(#SVGID_00000036229224395255954440000004344360535396327345_);" d="M353.3,440.8c4.8,5.4,13,5.9,18.4,1.1
				c5.4-4.8,5.9-13,1.1-18.4c-4.8-5.4-13-5.9-18.4-1.1C349.1,427.2,348.6,435.5,353.3,440.8z"/>
			<g>
				
					<radialGradient id="SVGID_00000064324808982474172680000016492087091993229975_" cx="358.6783" cy="294.3025" r="4.6054" gradientTransform="matrix(-0.9995 -3.248347e-02 3.248347e-02 -0.9995 712.0092 738.1098)" gradientUnits="userSpaceOnUse">
					<stop  offset="0.3242" style="stop-color:#FFFFFF"/>
					<stop  offset="0.5604" style="stop-color:#C6C6C6"/>
					<stop  offset="0.7308" style="stop-color:#6A6A6A"/>
					<stop  offset="0.8736" style="stop-color:#000505"/>
					<stop  offset="0.9643" style="stop-color:#000000"/>
				</radialGradient>
				<path style="fill:url(#SVGID_00000064324808982474172680000016492087091993229975_);" d="M358.5,432.2c0.1-2.5,2.2-4.5,4.8-4.5
					c2.5,0.1,4.5,2.2,4.5,4.7s-2.2,4.5-4.8,4.5C360.4,436.8,358.4,434.7,358.5,432.2z"/>
			</g>
		</g>
		<g>
			
				<radialGradient id="SVGID_00000114037337461258788380000011571167529220962999_" cx="193.4615" cy="359.7219" r="13.0083" gradientTransform="matrix(-0.7492 0.6624 0.6624 0.7492 331.579 25.5597)" gradientUnits="userSpaceOnUse">
				<stop  offset="9.890110e-02" style="stop-color:#FFFFFF"/>
				<stop  offset="0.3626" style="stop-color:#7A7A7A"/>
				<stop  offset="0.5714" style="stop-color:#2A2A2A"/>
				<stop  offset="0.6633" style="stop-color:#161616"/>
				<stop  offset="0.8265" style="stop-color:#000505"/>
				<stop  offset="0.9643" style="stop-color:#000000"/>
			</radialGradient>
			<path style="fill:url(#SVGID_00000114037337461258788380000011571167529220962999_);" d="M415.2,431.8c4.8,5.4,13,5.9,18.4,1.1
				c5.4-4.8,5.9-13,1.1-18.4c-4.8-5.4-13-5.9-18.4-1.1C410.9,418.2,410.4,426.5,415.2,431.8z"/>
			<g>
				
					<radialGradient id="SVGID_00000078752424323525339130000016762939878606436021_" cx="297.1603" cy="305.3121" r="4.6061" gradientTransform="matrix(-0.9995 -3.248347e-02 3.248347e-02 -0.9995 712.0092 738.1098)" gradientUnits="userSpaceOnUse">
					<stop  offset="0.3242" style="stop-color:#FFFFFF"/>
					<stop  offset="0.5604" style="stop-color:#C6C6C6"/>
					<stop  offset="0.7308" style="stop-color:#6A6A6A"/>
					<stop  offset="0.8736" style="stop-color:#000505"/>
					<stop  offset="0.9643" style="stop-color:#000000"/>
				</radialGradient>
				<path style="fill:url(#SVGID_00000078752424323525339130000016762939878606436021_);" d="M420.3,423.2c0.1-2.5,2.2-4.5,4.8-4.5
					c2.5,0.1,4.5,2.2,4.5,4.7c-0.1,2.5-2.2,4.5-4.8,4.5C422.2,427.8,420.2,425.7,420.3,423.2z"/>
			</g>
		</g>
		<g>
			
				<radialGradient id="SVGID_00000105388380651169531920000016768769624595270832_" cx="262.9458" cy="455.9834" r="16.6709" gradientTransform="matrix(-0.7492 0.6624 0.6624 0.7492 331.579 25.5597)" gradientUnits="userSpaceOnUse">
				<stop  offset="9.890110e-02" style="stop-color:#FFFFFF"/>
				<stop  offset="0.3626" style="stop-color:#7A7A7A"/>
				<stop  offset="0.5714" style="stop-color:#2A2A2A"/>
				<stop  offset="0.6633" style="stop-color:#161616"/>
				<stop  offset="0.8265" style="stop-color:#000505"/>
				<stop  offset="0.9643" style="stop-color:#000000"/>
			</radialGradient>
			<path style="fill:url(#SVGID_00000105388380651169531920000016768769624595270832_);" d="M424.1,552.4c6.1,6.9,16.6,7.6,23.5,1.5
				c6.9-6.1,7.5-16.6,1.4-23.5c-6.1-6.9-16.6-7.5-23.5-1.5C418.7,535,418,545.5,424.1,552.4z"/>
			<g>
				
					<radialGradient id="SVGID_00000097497526166631780040000000726539100346969221_" cx="281.6244" cy="187.5823" r="5.9004" gradientTransform="matrix(-0.9995 -3.248347e-02 3.248347e-02 -0.9995 712.0092 738.1098)" gradientUnits="userSpaceOnUse">
					<stop  offset="0.3242" style="stop-color:#FFFFFF"/>
					<stop  offset="0.5604" style="stop-color:#C6C6C6"/>
					<stop  offset="0.7308" style="stop-color:#6A6A6A"/>
					<stop  offset="0.8736" style="stop-color:#000505"/>
					<stop  offset="0.9643" style="stop-color:#000000"/>
				</radialGradient>
				<path style="fill:url(#SVGID_00000097497526166631780040000000726539100346969221_);" d="M430.7,541.3c0.1-3.3,2.8-5.8,6.1-5.7
					c3.3,0.1,5.8,2.8,5.7,6.1c-0.1,3.3-2.8,5.8-6.1,5.7C433.2,547.3,430.6,544.5,430.7,541.3z"/>
			</g>
		</g>
		<g>
			
				<radialGradient id="SVGID_00000033355845281641587830000009500915317961684890_" cx="36.7476" cy="487.1263" r="16.6708" gradientTransform="matrix(-0.7492 0.6624 0.6624 0.7492 331.579 25.5597)" gradientUnits="userSpaceOnUse">
				<stop  offset="9.890110e-02" style="stop-color:#FFFFFF"/>
				<stop  offset="0.3626" style="stop-color:#7A7A7A"/>
				<stop  offset="0.5714" style="stop-color:#2A2A2A"/>
				<stop  offset="0.6633" style="stop-color:#161616"/>
				<stop  offset="0.8265" style="stop-color:#000505"/>
				<stop  offset="0.9643" style="stop-color:#000000"/>
			</radialGradient>
			<path style="fill:url(#SVGID_00000033355845281641587830000009500915317961684890_);" d="M614.2,425.9c6.1,6.9,16.6,7.5,23.5,1.4
				c6.9-6.1,7.5-16.6,1.4-23.5c-6.1-6.9-16.6-7.6-23.5-1.5C608.8,408.5,608.1,419,614.2,425.9z"/>
			<g>
				
					<radialGradient id="SVGID_00000069381140426649781950000006586076817736389010_" cx="95.7312" cy="320.1995" r="5.9012" gradientTransform="matrix(-0.9995 -3.248347e-02 3.248347e-02 -0.9995 712.0092 738.1098)" gradientUnits="userSpaceOnUse">
					<stop  offset="0.3242" style="stop-color:#FFFFFF"/>
					<stop  offset="0.5604" style="stop-color:#C6C6C6"/>
					<stop  offset="0.7308" style="stop-color:#6A6A6A"/>
					<stop  offset="0.8736" style="stop-color:#000505"/>
					<stop  offset="0.9643" style="stop-color:#000000"/>
				</radialGradient>
				<path style="fill:url(#SVGID_00000069381140426649781950000006586076817736389010_);" d="M620.8,414.8c0.1-3.3,2.8-5.8,6.1-5.7
					c3.3,0.1,5.8,2.8,5.7,6.1c-0.1,3.3-2.8,5.8-6.1,5.7C623.3,420.8,620.7,418,620.8,414.8z"/>
			</g>
		</g>
		<g>
			
				<radialGradient id="SVGID_00000066475288319017407710000014921336929280654733_" cx="-59.5403" cy="353.5632" r="16.6719" gradientTransform="matrix(-0.7492 0.6624 0.6624 0.7492 331.579 25.5597)" gradientUnits="userSpaceOnUse">
				<stop  offset="9.890110e-02" style="stop-color:#FFFFFF"/>
				<stop  offset="0.3626" style="stop-color:#7A7A7A"/>
				<stop  offset="0.5714" style="stop-color:#2A2A2A"/>
				<stop  offset="0.6633" style="stop-color:#161616"/>
				<stop  offset="0.8265" style="stop-color:#000505"/>
				<stop  offset="0.9643" style="stop-color:#000000"/>
			</radialGradient>
			<path style="fill:url(#SVGID_00000066475288319017407710000014921336929280654733_);" d="M597.9,262.1c6.1,6.9,16.6,7.5,23.5,1.4
				c6.9-6.1,7.5-16.6,1.4-23.5c-6.1-6.9-16.6-7.5-23.5-1.5C592.5,244.6,591.8,255.1,597.9,262.1z"/>
			<g>
				
					<radialGradient id="SVGID_00000089547711150600344940000000338668946436376733_" cx="117.38" cy="483.4307" r="5.9021" gradientTransform="matrix(-0.9995 -3.248347e-02 3.248347e-02 -0.9995 712.0092 738.1098)" gradientUnits="userSpaceOnUse">
					<stop  offset="0.3242" style="stop-color:#FFFFFF"/>
					<stop  offset="0.5604" style="stop-color:#C6C6C6"/>
					<stop  offset="0.7308" style="stop-color:#6A6A6A"/>
					<stop  offset="0.8736" style="stop-color:#000505"/>
					<stop  offset="0.9643" style="stop-color:#000000"/>
				</radialGradient>
				<path style="fill:url(#SVGID_00000089547711150600344940000000338668946436376733_);" d="M604.5,250.9c0.1-3.3,2.8-5.8,6.1-5.7
					c3.3,0.1,5.8,2.8,5.7,6.1c-0.1,3.3-2.8,5.8-6.1,5.7C606.9,256.9,604.4,254.2,604.5,250.9z"/>
			</g>
		</g>
		<g>
			
				<radialGradient id="SVGID_00000034776332624921299430000001697315318159625122_" cx="-18.5991" cy="226.776" r="16.6725" gradientTransform="matrix(-0.7492 0.6624 0.6624 0.7492 331.579 25.5597)" gradientUnits="userSpaceOnUse">
				<stop  offset="9.890110e-02" style="stop-color:#FFFFFF"/>
				<stop  offset="0.3626" style="stop-color:#7A7A7A"/>
				<stop  offset="0.5714" style="stop-color:#2A2A2A"/>
				<stop  offset="0.6633" style="stop-color:#161616"/>
				<stop  offset="0.8265" style="stop-color:#000505"/>
				<stop  offset="0.9643" style="stop-color:#000000"/>
			</radialGradient>
			<path style="fill:url(#SVGID_00000034776332624921299430000001697315318159625122_);" d="M483.2,194.2c6.1,6.9,16.6,7.5,23.5,1.5
				c6.9-6.1,7.5-16.6,1.4-23.5c-6.1-6.9-16.6-7.6-23.5-1.5C477.8,176.7,477.1,187.3,483.2,194.2z"/>
			<g>
				
					<radialGradient id="SVGID_00000142863682980622468110000016598490672076606607_" cx="234.1841" cy="547.5432" r="5.9013" gradientTransform="matrix(-0.9995 -3.248347e-02 3.248347e-02 -0.9995 712.0092 738.1098)" gradientUnits="userSpaceOnUse">
					<stop  offset="0.3242" style="stop-color:#FFFFFF"/>
					<stop  offset="0.5604" style="stop-color:#C6C6C6"/>
					<stop  offset="0.7308" style="stop-color:#6A6A6A"/>
					<stop  offset="0.8736" style="stop-color:#000505"/>
					<stop  offset="0.9643" style="stop-color:#000000"/>
				</radialGradient>
				<path style="fill:url(#SVGID_00000142863682980622468110000016598490672076606607_);" d="M489.8,183.1c0.1-3.3,2.8-5.8,6.1-5.7
					c3.3,0.1,5.8,2.8,5.7,6.1c-0.1,3.3-2.8,5.8-6.1,5.7C492.3,189,489.7,186.3,489.8,183.1z"/>
			</g>
		</g>
		<g>
			
				<radialGradient id="SVGID_00000093155161661554591220000012457668627256639392_" cx="-34.9794" cy="166.2504" r="16.6729" gradientTransform="matrix(-0.7492 0.6624 0.6624 0.7492 331.579 25.5597)" gradientUnits="userSpaceOnUse">
				<stop  offset="9.890110e-02" style="stop-color:#FFFFFF"/>
				<stop  offset="0.3626" style="stop-color:#7A7A7A"/>
				<stop  offset="0.5714" style="stop-color:#2A2A2A"/>
				<stop  offset="0.6633" style="stop-color:#161616"/>
				<stop  offset="0.8265" style="stop-color:#000505"/>
				<stop  offset="0.9643" style="stop-color:#000000"/>
			</radialGradient>
			<path style="fill:url(#SVGID_00000093155161661554591220000012457668627256639392_);" d="M455.4,138c6.1,6.9,16.6,7.5,23.5,1.5
				c6.9-6.1,7.5-16.6,1.4-23.5c-6.1-6.9-16.6-7.6-23.5-1.5C450,120.5,449.3,131.1,455.4,138z"/>
			<g>
				
					<radialGradient id="SVGID_00000006701490720396435290000010398327284674032571_" cx="263.8149" cy="602.8063" r="5.9021" gradientTransform="matrix(-0.9995 -3.248347e-02 3.248347e-02 -0.9995 712.0092 738.1098)" gradientUnits="userSpaceOnUse">
					<stop  offset="0.3242" style="stop-color:#FFFFFF"/>
					<stop  offset="0.5604" style="stop-color:#C6C6C6"/>
					<stop  offset="0.7308" style="stop-color:#6A6A6A"/>
					<stop  offset="0.8736" style="stop-color:#000505"/>
					<stop  offset="0.9643" style="stop-color:#000000"/>
				</radialGradient>
				<path style="fill:url(#SVGID_00000006701490720396435290000010398327284674032571_);" d="M462,126.9c0.1-3.3,2.8-5.8,6.1-5.7
					c3.3,0.1,5.8,2.8,5.7,6.1c-0.1,3.3-2.8,5.8-6.1,5.7C464.5,132.8,461.9,130.1,462,126.9z"/>
			</g>
		</g>
		<g>
			
				<radialGradient id="SVGID_00000062912036171637134360000002689875897914357654_" cx="187.1574" cy="324.4173" r="13.0083" gradientTransform="matrix(-0.7492 0.6624 0.6624 0.7492 331.579 25.5597)" gradientUnits="userSpaceOnUse">
				<stop  offset="9.890110e-02" style="stop-color:#FFFFFF"/>
				<stop  offset="0.3626" style="stop-color:#7A7A7A"/>
				<stop  offset="0.5714" style="stop-color:#2A2A2A"/>
				<stop  offset="0.6633" style="stop-color:#161616"/>
				<stop  offset="0.8265" style="stop-color:#000505"/>
				<stop  offset="0.9643" style="stop-color:#000000"/>
			</radialGradient>
			<path style="fill:url(#SVGID_00000062912036171637134360000002689875897914357654_);" d="M396.5,401.2c4.8,5.4,13,5.9,18.4,1.1
				c5.4-4.8,5.9-13,1.1-18.4c-4.8-5.4-13-5.9-18.4-1.1C392.3,387.6,391.7,395.8,396.5,401.2z"/>
			<g>
				
					<radialGradient id="SVGID_00000099624044836431288940000000722701088445904024_" cx="316.8145" cy="335.316" r="4.6041" gradientTransform="matrix(-0.9995 -3.248347e-02 3.248347e-02 -0.9995 712.0092 738.1098)" gradientUnits="userSpaceOnUse">
					<stop  offset="0.3242" style="stop-color:#FFFFFF"/>
					<stop  offset="0.5604" style="stop-color:#C6C6C6"/>
					<stop  offset="0.7308" style="stop-color:#6A6A6A"/>
					<stop  offset="0.8736" style="stop-color:#000505"/>
					<stop  offset="0.9643" style="stop-color:#000000"/>
				</radialGradient>
				<path style="fill:url(#SVGID_00000099624044836431288940000000722701088445904024_);" d="M401.7,392.5c0.1-2.5,2.2-4.5,4.8-4.4
					c2.5,0.1,4.5,2.2,4.5,4.7c-0.1,2.5-2.2,4.5-4.8,4.5C403.6,397.2,401.6,395.1,401.7,392.5z"/>
			</g>
		</g>
		<g>
			
				<radialGradient id="SVGID_00000100357220062507735980000002438015056102756233_" cx="258.9207" cy="511.6917" r="13.0087" gradientTransform="matrix(-0.7492 0.6624 0.6624 0.7492 331.579 25.5597)" gradientUnits="userSpaceOnUse">
				<stop  offset="9.890110e-02" style="stop-color:#FFFFFF"/>
				<stop  offset="0.3626" style="stop-color:#7A7A7A"/>
				<stop  offset="0.5714" style="stop-color:#2A2A2A"/>
				<stop  offset="0.6633" style="stop-color:#161616"/>
				<stop  offset="0.8265" style="stop-color:#000505"/>
				<stop  offset="0.9643" style="stop-color:#000000"/>
			</radialGradient>
			<path style="fill:url(#SVGID_00000100357220062507735980000002438015056102756233_);" d="M466.8,589.1c4.8,5.4,13,5.9,18.4,1.1
				c5.4-4.8,5.9-13,1.1-18.4c-4.8-5.4-13-5.9-18.4-1.1C462.6,575.4,462,583.7,466.8,589.1z"/>
			<g>
				
					<radialGradient id="SVGID_00000072276633802712242590000016028651561911231405_" cx="240.4561" cy="149.8563" r="4.6054" gradientTransform="matrix(-0.9995 -3.248347e-02 3.248347e-02 -0.9995 712.0092 738.1098)" gradientUnits="userSpaceOnUse">
					<stop  offset="0.3242" style="stop-color:#FFFFFF"/>
					<stop  offset="0.5604" style="stop-color:#C6C6C6"/>
					<stop  offset="0.7308" style="stop-color:#6A6A6A"/>
					<stop  offset="0.8736" style="stop-color:#000505"/>
					<stop  offset="0.9643" style="stop-color:#000000"/>
				</radialGradient>
				<path style="fill:url(#SVGID_00000072276633802712242590000016028651561911231405_);" d="M471.9,580.4c0.1-2.5,2.2-4.5,4.8-4.4
					c2.5,0.1,4.5,2.2,4.5,4.7c-0.1,2.5-2.2,4.5-4.8,4.5C473.9,585,471.9,582.9,471.9,580.4z"/>
			</g>
		</g>
		<g>
			
				<radialGradient id="SVGID_00000069385308398671486210000006160504771920746371_" cx="280.8577" cy="545.051" r="13.0077" gradientTransform="matrix(-0.7492 0.6624 0.6624 0.7492 331.579 25.5597)" gradientUnits="userSpaceOnUse">
				<stop  offset="9.890110e-02" style="stop-color:#FFFFFF"/>
				<stop  offset="0.3626" style="stop-color:#7A7A7A"/>
				<stop  offset="0.5714" style="stop-color:#2A2A2A"/>
				<stop  offset="0.6633" style="stop-color:#161616"/>
				<stop  offset="0.8265" style="stop-color:#000505"/>
				<stop  offset="0.9643" style="stop-color:#000000"/>
			</radialGradient>
			<path style="fill:url(#SVGID_00000069385308398671486210000006160504771920746371_);" d="M472.5,628.6c4.8,5.4,13,5.9,18.4,1.1
				c5.4-4.8,5.9-13,1.1-18.4c-4.8-5.4-13-5.9-18.4-1.1C468.2,615,467.7,623.2,472.5,628.6z"/>
			<g>
				
					<radialGradient id="SVGID_00000085211678103405350170000011636945122756737197_" cx="233.5159" cy="110.5366" r="4.604" gradientTransform="matrix(-0.9995 -3.248347e-02 3.248347e-02 -0.9995 712.0092 738.1098)" gradientUnits="userSpaceOnUse">
					<stop  offset="0.3242" style="stop-color:#FFFFFF"/>
					<stop  offset="0.5604" style="stop-color:#C6C6C6"/>
					<stop  offset="0.7308" style="stop-color:#6A6A6A"/>
					<stop  offset="0.8736" style="stop-color:#000505"/>
					<stop  offset="0.9643" style="stop-color:#000000"/>
				</radialGradient>
				<path style="fill:url(#SVGID_00000085211678103405350170000011636945122756737197_);" d="M477.6,619.9c0.1-2.5,2.2-4.5,4.7-4.4
					c2.5,0.1,4.5,2.2,4.5,4.7c-0.1,2.5-2.2,4.5-4.8,4.5C479.5,624.6,477.5,622.4,477.6,619.9z"/>
			</g>
		</g>
	</g>
	<g class="st1">
		<g>
			<polygon class="st14" points="468.1,125.7 566.5,138 566.8,138.8 611.6,251.7 628.1,415.5 538.6,473.6 426.4,425.2 437.9,540.8 
				477.8,579.8 483.5,619.8 480.9,620.1 475.3,581.1 435.4,542 435.3,541.5 423.4,421.1 538.4,470.7 625.4,414.2 609.1,252.2 
				564.6,140.4 467.8,128.2 			"/>
		</g>
		<g>
			
				<rect x="489.4" y="159.9" transform="matrix(0.8468 -0.5319 0.5319 0.8468 -4.4369 306.963)" class="st14" width="82.5" height="2.6"/>
		</g>
		<g>
			<path class="st14" d="M406.5,390.6l20.1,32.9l-38.9,25l-26.9-16.1L406.5,390.6z M423.2,422.7L406,394.6L365.2,432l22.5,13.5
				L423.2,422.7z"/>
		</g>
		<g>
			<polygon class="st14" points="362.8,431 363.4,433.5 291.7,450.7 240.1,520.5 238,518.9 290.2,448.4 290.7,448.3 			"/>
		</g>
		<g>
			<polygon class="st14" points="292.4,246.6 312.5,285.9 289,356.1 292.2,449.5 289.7,449.6 286.4,355.8 286.5,355.5 309.7,286.1 
				290.1,247.8 			"/>
		</g>
		<g>
			
				<rect x="262.2" y="321.4" transform="matrix(0.3404 -0.9403 0.9403 0.3404 -152.6453 476.7771)" class="st14" width="2.6" height="51.5"/>
		</g>
	</g>
</g>
</svg>
