<?xml version="1.0" encoding="utf-8"?>
<!-- Generator: Adobe Illustrator 26.0.0, SVG Export Plug-In . SVG Version: 6.00 Build 0)  -->
<svg version="1.1" id="圖層_1" xmlns="http://www.w3.org/2000/svg" xmlns:xlink="http://www.w3.org/1999/xlink" x="0px" y="0px"
	 viewBox="0 0 725.67 725.67" style="enable-background:new 0 0 725.67 725.67;" xml:space="preserve">
<style type="text/css">
	.st0{fill:#FFFFFF;}
</style>
<g>
	<polygon class="st0" points="308.38,508.66 322.34,488.62 319.71,511.82 338.51,518.82 318.05,521.49 319.79,545.7 311.07,531.51 
		297.36,542.93 298.6,527.56 280.31,525.64 297.4,518.6 288.45,504.25 	"/>
	<path class="st0" d="M475.81,188.44c0.62,2.53-0.93,5.09-3.46,5.71c-2.53,0.62-5.09-0.93-5.71-3.46s0.93-5.09,3.46-5.71
		C472.64,184.36,475.19,185.91,475.81,188.44z"/>
	<path class="st0" d="M480.9,161.43c0.62,2.53-0.93,5.09-3.46,5.71c-2.53,0.62-5.09-0.93-5.71-3.46s0.93-5.09,3.46-5.71
		C477.72,157.35,480.28,158.9,480.9,161.43z"/>
	<path class="st0" d="M486.28,137.73c0.62,2.53-0.93,5.09-3.46,5.71c-2.53,0.62-5.09-0.93-5.71-3.46c-0.62-2.53,0.93-5.09,3.46-5.71
		C483.1,133.65,485.66,135.2,486.28,137.73z"/>
	<path class="st0" d="M330.29,563.52c-1.78,1.9-4.77,1.99-6.67,0.21c-1.9-1.78-1.99-4.77-0.21-6.67c1.78-1.9,4.77-1.99,6.67-0.21
		C331.99,558.64,332.08,561.62,330.29,563.52z"/>
	<path class="st0" d="M341.1,584.58c-1.78,1.9-4.77,1.99-6.67,0.21c-1.9-1.78-1.99-4.77-0.21-6.67c1.78-1.9,4.77-1.99,6.67-0.21
		C342.79,579.7,342.88,582.68,341.1,584.58z"/>
	<path class="st0" d="M351.13,604.13c-1.78,1.9-4.77,1.99-6.67,0.21c-1.9-1.78-1.99-4.77-0.21-6.67c1.78-1.9,4.77-1.99,6.67-0.21
		C352.82,599.25,352.91,602.23,351.13,604.13z"/>
	<path class="st0" d="M61.32,621.08c-2.51-0.69-3.99-3.29-3.3-5.8c0.69-2.51,3.29-3.99,5.8-3.3c2.51,0.69,3.99,3.29,3.3,5.8
		C66.43,620.29,63.83,621.77,61.32,621.08z"/>
	<path class="st0" d="M571.37,275.41c-0.13-2.54,1.82-4.7,4.36-4.83c2.54-0.13,4.7,1.82,4.83,4.36c0.13,2.54-1.82,4.7-4.36,4.83
		C573.66,279.9,571.5,277.95,571.37,275.41z"/>
	<path class="st0" d="M549.64,268.9c-0.13-2.54,1.82-4.7,4.36-4.83c2.54-0.13,4.7,1.82,4.83,4.36c0.13,2.54-1.82,4.7-4.36,4.83
		C551.94,273.39,549.77,271.44,549.64,268.9z"/>
	<path class="st0" d="M527.56,262.29c-0.13-2.54,1.82-4.7,4.36-4.83c2.54-0.13,4.7,1.82,4.83,4.36c0.13,2.54-1.82,4.7-4.36,4.83
		C529.85,266.77,527.69,264.82,527.56,262.29z"/>
	<path class="st0" d="M506.43,255.96c-0.13-2.54,1.82-4.7,4.36-4.83c2.54-0.13,4.7,1.82,4.83,4.36c0.13,2.54-1.82,4.7-4.36,4.83
		C508.73,260.45,506.56,258.49,506.43,255.96z"/>
	<path class="st0" d="M485.44,249.67c-0.13-2.54,1.82-4.7,4.36-4.83c2.54-0.13,4.7,1.82,4.83,4.36c0.13,2.54-1.82,4.7-4.36,4.83
		C487.73,254.16,485.57,252.21,485.44,249.67z"/>
	<path class="st0" d="M338.7,396.33c2.16-1.46,5.09-0.9,6.55,1.25c1.46,2.16,0.9,5.09-1.25,6.55c-2.16,1.46-5.09,0.9-6.55-1.25
		C335.98,400.73,336.54,397.79,338.7,396.33z"/>
	<path class="st0" d="M332.34,371.9c2.16-1.46,5.09-0.9,6.55,1.25c1.46,2.16,0.9,5.09-1.25,6.55c-2.16,1.46-5.09,0.9-6.55-1.25
		C329.63,376.3,330.19,373.37,332.34,371.9z"/>
	<path class="st0" d="M325.93,347.26c2.16-1.46,5.09-0.9,6.55,1.25c1.46,2.16,0.9,5.09-1.25,6.55c-2.16,1.46-5.09,0.9-6.55-1.25
		C323.22,351.65,323.78,348.72,325.93,347.26z"/>
	<path class="st0" d="M319.9,324.07c2.16-1.46,5.09-0.9,6.55,1.25c1.46,2.16,0.9,5.09-1.25,6.55c-2.16,1.46-5.09,0.9-6.55-1.25
		C317.18,328.47,317.74,325.53,319.9,324.07z"/>
	<path class="st0" d="M313.92,301.07c2.16-1.46,5.09-0.9,6.55,1.25c1.46,2.16,0.9,5.09-1.25,6.55c-2.16,1.46-5.09,0.9-6.55-1.25
		C311.2,305.46,311.76,302.53,313.92,301.07z"/>
	<path class="st0" d="M608.44,274.22l21.62,6.6l-16.92,6.21l-4.21,26.67l-9.72-26.46l-19.91-2.95l20.42-7.5
		c0,0,1.59-16.7,1.59-16.71C601.32,260.08,608.44,274.22,608.44,274.22z"/>
	<path class="st0" d="M499.46,103.63l-6.12,22.36l-6.87-17.16l-27.47-3.52l26.83-10.75l2.43-20.5l8.3,20.71
		c0,0,17.16,1.14,17.17,1.13C513.75,95.9,499.46,103.63,499.46,103.63z"/>
	<polygon class="st0" points="367.91,626.74 381.29,629.26 371.35,634.83 378.13,645.57 370.23,640.73 350.27,648.24 358.09,635.28 
		347.67,624.01 358.02,626.71 366.45,617.27 	"/>
	<path class="st0" d="M305.53,271.83c-2.52,2.18-21.12,14.61-21.12,14.61l10.38-18.54l-17.45-9.13l16.56-0.38l-9-17.18l14.79,7.75
		l2-22.29l6.53,18.57L321.23,234l-6.72,16.83l21.28,5.07l-20.28,2.87l17.5,19.36l-17.92-7.98l-2.86,17.9L305.53,271.83z"/>
	<polygon class="st0" points="120.2,134.62 104.55,146.57 108.19,129.75 93.54,126.58 109.22,119.75 110.62,100.18 121.29,113.85 
		142.16,109.28 127.78,123.2 135.11,141.83 	"/>
	<path class="st0" d="M254.58,226.48c-0.83,2.4-3.44,3.68-5.85,2.85c-2.4-0.83-3.68-3.44-2.85-5.85c0.83-2.4,3.44-3.68,5.85-2.85
		C254.13,221.46,255.41,224.07,254.58,226.48z"/>
	<path class="st0" d="M272.61,240.87c-0.83,2.4-3.44,3.68-5.85,2.85c-2.4-0.83-3.68-3.44-2.85-5.85c0.83-2.4,3.44-3.68,5.85-2.85
		C272.16,235.85,273.44,238.47,272.61,240.87z"/>
	<path class="st0" d="M163.22,152.06c-0.83,2.4-3.45,3.68-5.85,2.85c-2.4-0.83-3.68-3.45-2.85-5.85c0.83-2.4,3.45-3.68,5.85-2.85
		C162.77,147.04,164.05,149.65,163.22,152.06z"/>
	<path class="st0" d="M180.93,166.22c-0.83,2.4-3.45,3.68-5.85,2.85c-2.4-0.83-3.68-3.45-2.85-5.85c0.83-2.4,3.45-3.68,5.85-2.85
		C180.49,161.2,181.76,163.82,180.93,166.22z"/>
	<path class="st0" d="M198.94,180.61c-0.83,2.4-3.45,3.68-5.85,2.85c-2.4-0.83-3.68-3.45-2.85-5.85c0.83-2.4,3.45-3.68,5.85-2.85
		C198.49,175.59,199.77,178.21,198.94,180.61z"/>
	<path class="st0" d="M216.17,194.38c-0.83,2.4-3.45,3.68-5.85,2.85c-2.4-0.83-3.68-3.45-2.85-5.85s3.45-3.68,5.85-2.85
		C215.72,189.36,217,191.98,216.17,194.38z"/>
	<path class="st0" d="M233.29,208.07c-0.83,2.4-3.45,3.68-5.85,2.85c-2.4-0.83-3.68-3.45-2.85-5.85c0.83-2.4,3.45-3.68,5.85-2.85
		C232.84,203.04,234.11,205.66,233.29,208.07z"/>
	<polygon class="st0" points="449.67,600.3 432.79,610.42 438.29,594.11 424.08,589.32 440.43,584.29 444,564.99 453.08,579.77 
		474.33,577.56 458.49,589.8 463.69,609.12 	"/>
	<path class="st0" d="M409.02,608.1c-1.86-1.73-1.96-4.64-0.22-6.5s4.64-1.96,6.5-0.22s1.96,4.64,0.22,6.5
		C413.79,609.74,410.88,609.84,409.02,608.1z"/>
	<path class="st0" d="M388.55,618.7c-1.86-1.73-1.96-4.64-0.22-6.5c1.73-1.86,4.64-1.96,6.5-0.22c1.86,1.73,1.96,4.64,0.22,6.5
		S390.41,620.43,388.55,618.7z"/>
	<path class="st0" d="M650.78,269.15c1.57,2,1.22,4.89-0.78,6.46c-2,1.57-4.89,1.22-6.46-0.78c-1.57-2-1.22-4.89,0.78-6.46
		C646.32,266.81,649.21,267.15,650.78,269.15z"/>
	<path class="st0" d="M674.33,261.27c1.57,2,1.22,4.89-0.78,6.46s-4.89,1.22-6.46-0.78s-1.22-4.89,0.78-6.46
		S672.76,259.27,674.33,261.27z"/>
	<path class="st0" d="M696.4,256.66l-13.13-6.45l11.45-2.22l5.45-16.6l3.47,17.91l12.42,3.95l-13.82,2.68c0,0-2.74,10.5-2.74,10.51
		C699.49,266.43,696.4,256.66,696.4,256.66z"/>
	<path class="st0" d="M230.25,543.77c-1.52-2.04-1.1-4.92,0.94-6.44c2.04-1.52,4.92-1.1,6.44,0.94c1.52,2.04,1.1,4.92-0.94,6.44
		C234.65,546.22,231.77,545.8,230.25,543.77z"/>
	<path class="st0" d="M208.57,550.43c-1.52-2.04-1.1-4.92,0.94-6.44c2.04-1.52,4.92-1.1,6.44,0.94c1.52,2.04,1.1,4.92-0.94,6.44
		C212.97,552.89,210.09,552.46,208.57,550.43z"/>
	<path class="st0" d="M186.53,557.2c-1.52-2.04-1.1-4.92,0.94-6.44c2.04-1.52,4.92-1.1,6.44,0.94c1.52,2.04,1.1,4.92-0.94,6.44
		C190.93,559.66,188.05,559.24,186.53,557.2z"/>
	<path class="st0" d="M165.45,563.67c-1.52-2.04-1.1-4.92,0.94-6.44c2.04-1.52,4.92-1.1,6.44,0.94c1.52,2.04,1.1,4.92-0.94,6.44
		C169.85,566.13,166.97,565.71,165.45,563.67z"/>
	<path class="st0" d="M144.5,570.11c-1.52-2.04-1.1-4.92,0.94-6.44c2.04-1.52,4.92-1.1,6.44,0.94c1.52,2.04,1.1,4.92-0.94,6.44
		C148.91,572.57,146.02,572.15,144.5,570.11z"/>
	<path class="st0" d="M122.83,576.77c-1.52-2.04-1.1-4.92,0.94-6.44c2.04-1.52,4.92-1.1,6.44,0.94c1.52,2.04,1.1,4.92-0.94,6.44
		C127.23,579.23,124.34,578.81,122.83,576.77z"/>
	<path class="st0" d="M250.71,537.25c-1.52-2.04-1.1-4.92,0.94-6.44s4.92-1.1,6.44,0.94c1.52,2.04,1.1,4.92-0.94,6.44
		C255.11,539.71,252.23,539.29,250.71,537.25z"/>
	<polygon class="st0" points="37.74,502.78 50.95,518.56 30.11,512.31 21.24,522.21 25.85,506.83 7.61,493.76 23.88,498.63 
		31.17,479.21 33.95,490.57 48.5,491.9 	"/>
	<polygon class="st0" points="354.32,439.36 374.41,443.78 354.1,451.56 353.11,464.81 347.37,449.82 324.95,450.6 340.8,444.53 
		334.72,424.7 343.86,432 356.19,424.17 	"/>
	
		<ellipse transform="matrix(0.9894 -0.1453 0.1453 0.9894 -65.4069 53.493)" class="st0" cx="333.51" cy="474.53" rx="4.6" ry="4.6"/>
	<polygon class="st0" points="460.9,228.5 469.67,247.11 451.1,235.78 440.01,243.1 448.37,229.4 434.05,212.13 448.54,220.97 
		460.53,204.03 460.33,215.73 474.07,220.7 	"/>
	<path class="st0" d="M412.96,242.39c-1.34-2.16-0.69-4.99,1.47-6.34c2.16-1.34,4.99-0.69,6.34,1.47c1.34,2.16,0.69,4.99-1.47,6.34
		C417.14,245.2,414.3,244.54,412.96,242.39z"/>
	<path class="st0" d="M391.42,247.1c-1.34-2.16-0.69-4.99,1.47-6.34c2.16-1.34,4.99-0.69,6.34,1.47c1.34,2.16,0.69,4.99-1.47,6.34
		C395.6,249.91,392.76,249.25,391.42,247.1z"/>
	<path class="st0" d="M370.01,251.77c-1.34-2.16-0.69-4.99,1.47-6.34c2.16-1.34,4.99-0.69,6.34,1.47c1.34,2.16,0.69,4.99-1.47,6.34
		C374.19,254.59,371.35,253.93,370.01,251.77z"/>
	<path class="st0" d="M347.85,256.62c-1.34-2.16-0.69-4.99,1.47-6.34c2.16-1.34,4.99-0.69,6.34,1.47c1.34,2.16,0.69,4.99-1.47,6.34
		C352.03,259.43,349.19,258.77,347.85,256.62z"/>
	<polygon class="st0" points="71.19,577.71 57.33,557.6 78.13,568.21 91.29,553.07 86.59,573.16 109.87,580.04 93.52,583.22 
		99.41,600.06 85.45,593.5 77.23,609.95 76.64,591.49 60.06,594.82 	"/>
	<path class="st0" d="M53.21,538.97c-1.09,2.36-3.9,3.39-6.26,2.3c-2.36-1.09-3.39-3.9-2.3-6.26c1.09-2.36,3.9-3.39,6.26-2.3
		C53.28,533.8,54.31,536.61,53.21,538.97z"/>
	<polygon class="st0" points="50.1,640.36 55.43,659.26 37.73,648.59 29.71,661.9 29.06,644.59 16.15,636.81 34.48,635.61 
		42.33,622.58 46.36,630.52 59.93,633.19 	"/>
</g>
</svg>
