<?xml version="1.0" encoding="utf-8"?>
<!-- Generator: Adobe Illustrator 26.0.0, SVG Export Plug-In . SVG Version: 6.00 Build 0)  -->
<svg version="1.1" xmlns="http://www.w3.org/2000/svg" xmlns:xlink="http://www.w3.org/1999/xlink" x="0px" y="0px"
	 viewBox="0 0 725.7 725.7" style="enable-background:new 0 0 725.7 725.7;" xml:space="preserve">
<style type="text/css">
	.st0{opacity:0.65;}
	.st1{fill:#FFFCF0;}
	.st2{fill:#BF5E47;}
	.st3{fill:#FF7E5F;}
	.st4{display:none;fill:#BF5E47;}
	.st5{fill:#592929;}
	.st6{fill:#B04A38;}
	.st7{fill:#662F2F;}
	.st8{display:none;}
	.st9{font-family:'AdobeMingStd-Light-B5pc-H';}
	.st10{font-size:12px;}
	.st11{display:inline;}
	.st12{display:inline;fill:#CC9689;}
</style>
<g id="圖層_1">
	<g class="st0">
		<g>
			<g>
				<g>
					<path class="st1" d="M409.1,368.1c-3.8,15.8-5,32.8,2,47.9c7.6,16.5,23.6,26.7,37.5,37.5c30.6,23.7,70.7,51.1,77.3,91.9
						c0.2,1.2,2.1,0.9,2.1-0.3c0-33.7-32.8-58.3-56.2-77.6c-15-12.4-32-23.2-45.8-36.8c-17.2-17-19.4-39.2-14.7-62
						C411.7,367.3,409.5,366.7,409.1,368.1L409.1,368.1z"/>
				</g>
				<g>
					<path class="st1" d="M504.1,629.6c-2.7,1.2-5.4,2.3-8.1,3.4c13.5-23.5,14.3-48.8,6.9-73.6c-2.7-9.2-6.6-18.4-11.4-27.4
						c-4.8-9.1-10.1-18.1-15.7-26.8c-16.5-25.9-35.9-50.4-55.2-73.8c-0.4-0.5-0.5-1.2-0.3-1.7c0.3-1.2,1.8-1.9,2.8-0.8
						c3.7,4.5,7.4,9,11.2,13.5c16.2,19.7,32.5,40.4,46.4,62.2c7.6,11.9,14.5,24.2,20.2,36.8c2.3,5,4.4,10.4,6.1,16
						C514.2,580.9,516,608.6,504.1,629.6z"/>
				</g>
			</g>
			<path class="st1" d="M296.2,182.7c-11,3-24.2,5.9-33.7,0.1c-5.6-3.4-8.5-9.2-10.2-14.7c-2.6-8.3-3.4-17.1-0.5-25.3
				c2.9-8.1,10-15.5,19.7-18.3c5.7-1.7,12-1.8,18.2-1.4c5.4,0.3,10.8,0.9,15.8,2.4c11.5,3.3,21,11.1,25.2,20.5
				c4.2,9.4,2.9,20.2-3.4,28.6L296.2,182.7z"/>
			<path class="st1" d="M391.8,658.5c-8.3,1-17,1.8-25.9,2.4c-7.1,0.5-14.3,0.9-21.8,1.2c-6.2,0.3-12.7,0.4-19.2,0.4
				c-15.9,0.1-32.6-0.2-50.2-1.1c-0.3,0.1-0.6,0.1-0.9,0.1c-13.8,2-28.3,2-43.4-1c-1.9-0.5-3.7-1-5.3-1.5c-17.9-2.1-35.7-5.8-53-11
				c0.1-1.3,0.3-2.5,0.4-3.8c2.8-23.6,5.6-47.3,8.3-70.9c-3.1,4.5-7.5,8-12.6,9.8c-0.6-13.3,0.4-26.6,2.8-39.6
				c1.2-6.5,2.8-12.8,4.7-19.1c0,0,0,0,0,0c0.8-2.4,1.6-4.8,2.4-7.2c4.4-12.3,10.2-24,16-35.7c0.1-0.1,0.1-0.2,0.1-0.3
				c3.4-6.7,6.7-13.5,9.8-20.3c0-0.1,0.1-0.1,0.1-0.2c1.5-3.3,2.9-6.7,4.3-10.1c0.1-0.1,0.1-0.3,0.2-0.4c0.9-2.4,1.9-4.8,2.7-7.3
				c0.9-2.7,1.8-5.4,2.7-8.1v-0.1c0.6-1.9,1.1-3.8,1.6-5.7c1.3-4.5,2.4-9,3.4-13.7c0-0.1,0-0.1,0-0.1c0.8-3.8,1.6-7.7,2.3-11.6
				c0.2-1.1,0.4-2.2,0.6-3.4c0,0,0,0,0,0c0.2-1.1,0.4-2.1,0.5-3.2v0c0.3-2.1,0.6-4.1,0.9-6.2c0.5-3.8,1.1-7.7,1.5-11.5
				c1.8-15,2.9-30.2,4-45.2l-1-34.2c0,0,0,0,0,0l-1.2-42.5l-0.5-17.2c0,0,8.7-2.4,20.4-4.1c24.2-3.4,61-3.6,57.5,28.6
				c-0.6,5.8-0.9,11.2-0.7,16.2c0,0.8,0,1.7,0.1,2.5c0,0.9,0.1,1.7,0.1,2.6c0.2,2.5,0.5,5,0.8,7.3c0.2,1.3,0.4,2.5,0.7,3.8
				c0.3,1.8,0.7,3.5,1.2,5.1c2.3,8.9,5.9,16.7,10,24.1c1,1.8,2,3.6,3.1,5.4c0.2,0.3,0.4,0.7,0.6,1c0.4,0.7,0.8,1.3,1.2,2
				c0,0,0,0,0.1,0.1c2.1,3.4,4.2,6.9,6.4,10.4c0.7,1.2,1.4,2.3,2.1,3.5c0.1,0.2,0.3,0.5,0.4,0.7c2,3.5,4.1,7.1,6,10.9
				c0.2,0.3,0.3,0.6,0.5,0.9c0.3,0.5,0.5,1.1,0.8,1.7c2,4,4,8.5,6.1,13.5c0.3,0.6,0.5,1.3,0.8,1.9c0.1,0.3,0.3,0.7,0.4,1
				c1.5,3.7,3,7.7,4.6,12c6.5,17.6,13.2,39.8,19.7,66.9c0.2,0.8,0.4,1.7,0.6,2.5c2.1,8.9,4.1,18.3,6.1,28.2c0.4,1.7,0.7,3.5,1.1,5.3
				c2.9,14.6,5.6,30.4,8.2,47.2v0c0.8,5.1,1.5,10.2,2.3,15.5c0.6,4.2,1.1,8.3,1.6,12.3c0,0.2,0.1,0.4,0.1,0.7
				c0.7,6.1,1.3,12,1.8,17.7c0.1,1.4,0.3,2.8,0.3,4.2C393.1,618.3,392.9,640.5,391.8,658.5z"/>
			<path class="st1" d="M499.8,605c-1.7-7-5.2-13.7-10-19.2c-2.2,19.2-7.6,38-16,55.3c-9.5,3.1-19.6,5.9-30.3,8.4
				c-15.9,3.7-33,6.7-51.6,8.9c-8.3,1-17,1.8-25.9,2.4l-11-35.6l-14.3-46.1l-6.4-20.5l-0.8-2.6l-10.1-32.8l-0.5-1.5l-0.6-1.8
				l-2.6-8.5l-10.9-35.2V476l-4.3-13.7v0l-1.3-4.3l-10.3-33.5l-0.1-0.3l-0.5-1.6l-1.1-3.4l-3.3-10.5l3.3-3.3l23.6-23.6l8.5-8.5
				l8.9-8.9l3.8-3.8l51.3-51.3l13.8-13.8l0.8,7.8l0.1,0.7l0.8,7.3l1.4,13.5l2,19.1l0.4,4.2l2.2,20.8l0,0.1v0l0.9,8.8v0l3.6,34.4v0
				l0.8,8c0.3,1.1,0.6,2.3,1,3.4c0,0,0,0,0,0v0c4.8,14.9,15.4,27.5,25.6,39.4c11.8,13.7,23.7,27.5,33.9,42.4
				c4.9,7.1,9.4,14.4,13.3,22.1c5.3,10.4,9.5,21.6,11.9,33C503.3,575.2,503.6,590.4,499.8,605z"/>
			<g>
				<g>
					<path class="st1" d="M220.6,232.9c-0.4,45.5-11.8,85.7-33,125.8c-17.1,32.4-36.7,69.3-25.5,106.8c0.5,1.5,2.7,0.9,2.4-0.7
						c-8.7-44.9,16.5-82.4,35.1-121c16.7-34.6,25.5-72.5,22.3-111C221.9,232,220.6,232,220.6,232.9L220.6,232.9z"/>
				</g>
				<g>
					<path class="st1" d="M206.6,398c0.6,21.9-3.3,42.9-14.3,62.1c-9.8,17.2-23.3,31.9-35.3,47.5c-17.6,23-37.9,58.7-22.8,87.9
						c1.2,2.4,4.6,0.7,4.1-1.7c-4.4-21.3-1.9-39.8,8.3-59.2c8.7-16.3,20.9-30.3,32.2-44.8c21.1-27,36-57,31-92.2
						C209.6,395.7,206.5,396.2,206.6,398L206.6,398z"/>
				</g>
				<g>
					<path class="st1" d="M219.4,407.7c0,2.6-0.1,5.3-0.3,7.9c0,0,0,0.1,0,0.1c-0.3,5.4-1,10.8-1.9,16.2c-0.5,3.4-1.2,6.8-2,10.1
						c-0.1,0.7-0.3,1.4-0.4,2.1c-0.5,2.3-1.1,4.6-1.7,7c-3.5,13-8.2,25.9-13.6,38.3c-0.3,0.6-0.5,1.2-0.8,1.8
						c-4.4,9.9-9.1,19.5-14.1,28.5c-4.3,8-9,15.9-13.4,23.9c-6.3,11.4-12,22.9-15.6,35.5c-6,21.3-4.6,42.8,1,63.9
						c-1.8-0.6-3.6-1.3-5.3-2c-12.6-38.3,1.3-75.2,20.6-109.3c1.3-2.4,2.7-4.8,4-7.2c0,0,0,0,0,0c7.2-13.1,13.9-26.3,19.7-40.1
						c0.1-0.3,0.3-0.7,0.4-1c1.8-4.4,3.6-8.8,5.2-13.3c1.1-3,2.1-6,3-9c0-0.1,0.1-0.1,0.1-0.2c1.1-3.4,2.1-6.8,3.1-10.2
						c0.8-2.7,1.5-5.4,2.2-8.1c1.4-5.2,2.8-10.5,4.1-15.8c0-0.1,0.1-0.2,0.1-0.3c1.7-6.4,3.4-12.7,5.2-19
						C219.1,407.4,219.4,407.5,219.4,407.7z"/>
				</g>
			</g>
			<g>
				<path class="st1" d="M357.5,198c2.5,0,2.5-3.9,0-3.9C355,194.1,355,198,357.5,198L357.5,198z"/>
			</g>
			<g>
				<path class="st1" d="M264.2,178.4c-15.9,2.1-30.4-7.5-30.7-24.6c-0.4-16.3,13.2-29.5,28.3-33.3c32.7-8.3,58.5,23.6,52.8,54.1
					c-0.2,1,1.3,1.4,1.5,0.4c9.6-37.1-28.8-68.4-63.6-52.5c-14.4,6.6-23.9,21.9-21,37.8c2.7,14.9,18,26.5,33.1,20.8
					C265.9,180.6,265.9,178.2,264.2,178.4L264.2,178.4z"/>
			</g>
			<g>
				<path class="st1" d="M326.6,178.6c8-2.5,13.1-8.1,16-15.9c3.3-8.8,6.2-24.8,1.8-33.6c-4.1-8.2-16-11.9-24.1-14.3
					c-12.3-3.7-24.5-4.2-37.1-2.3c-0.6,0.1-0.4,1,0.1,1c16.2-0.5,35.1,1.4,49.6,9.5c11.1,6.3,12.3,16.9,11.2,28.4
					c-1,11.3-6.6,21.8-18,25.4C325.1,177.3,325.5,178.9,326.6,178.6L326.6,178.6z"/>
			</g>
			<g>
				<path class="st1" d="M249.1,169.9c7.4,8.5,17.8,13.8,29.1,14.1c0.5,0,0.5-0.7,0-0.7c-11.2-0.8-21.1-5.3-28.6-13.9
					C249.3,169.1,248.8,169.6,249.1,169.9L249.1,169.9z"/>
			</g>
			<g>
				<path class="st1" d="M310.9,126.7c17.2-0.2,29.1,17.2,27.4,33.6c-1.7,15.7-24.1,15.6-36.3,18.9c-1.5,0.4-1.3,3,0.4,2.9
					c10.8-0.7,22-3.1,31.8-7.7c7.9-3.7,8.4-9,7.8-17.5c-1.1-17-12.1-34.6-31-32.2C309.6,124.8,309.5,126.7,310.9,126.7L310.9,126.7z
					"/>
			</g>
			<g>
				<path class="st1" d="M343.3,172c35.7,4.7,70.3,4,104.1,18.4c15.3,6.5,31.2,15.2,37.6,31.4c7.5,19,1.3,38.4-13.9,51.5
					c-0.1,0.1,0,0.2,0.1,0.1c12-10.2,20-25.2,18.8-41.2c-1.2-16-12.1-28-25.3-36c-37.4-22.4-79.8-20.1-121.4-24.9
					C342.9,171.4,342.9,172,343.3,172L343.3,172z"/>
			</g>
			<g>
				<path class="st1" d="M389.5,177c24.8,6.7,47.6,22.3,66,39.9c10.1,9.7,18.2,21.5,16.8,36.1c-1.4,14.2-10.2,25.2-18.3,36.4
					c-0.4,0.5,0.5,1.2,0.9,0.7c17.1-20.1,28.4-43.6,9.9-66.7c-17.9-22.4-47.3-40.5-75-47.4C389.1,175.8,388.8,176.8,389.5,177
					L389.5,177z"/>
			</g>
		</g>
		<g>
			<g>
				<path class="st1" d="M604.7,227.7c1.7,0,3.4-1.5,3.3-3.3c-0.1-1.8-1.5-3.3-3.3-3.3c-1.7,0-3.4,1.5-3.3,3.3
					C601.4,226.2,602.8,227.7,604.7,227.7L604.7,227.7z"/>
			</g>
			<g>
				<path class="st1" d="M624.2,242.7c0,0.2-0.1,0.4-0.1,0.7c-0.3,1.7,0.8,3.5,2.6,3.5c1.9,0,2.9-1.7,2.6-3.5c0-0.2-0.1-0.4-0.1-0.7
					C628.8,240.2,624.7,240.2,624.2,242.7L624.2,242.7z"/>
			</g>
			<g>
				<path class="st1" d="M592.1,256.1c2.9,0,2.9-4.5,0-4.5C589.1,251.6,589.1,256.1,592.1,256.1L592.1,256.1z"/>
			</g>
			<g>
				<path class="st1" d="M74.7,190.5c5.1,0,5.1-7.9,0-7.9C69.6,182.6,69.6,190.5,74.7,190.5L74.7,190.5z"/>
			</g>
			<g>
				<path class="st1" d="M87.1,165.5c0.2-0.1,0.4-0.1,0.7-0.1c2.9-0.7,2.9-5.2,0-5.9c-0.2,0-0.4-0.1-0.7-0.1c-2-0.5-4.1,0.9-4.1,3.1
					C83,164.5,85.1,165.9,87.1,165.5L87.1,165.5z"/>
			</g>
			<g>
				<path class="st1" d="M98.8,184c3.5,0,3.5-5.4,0-5.4C95.4,178.6,95.4,184,98.8,184L98.8,184z"/>
			</g>
			<g>
				<path class="st1" d="M8.7,466.6c2,0,3.8-1.7,3.8-3.8c-0.1-2-1.7-3.8-3.8-3.8c-2,0-3.8,1.7-3.8,3.8C5,464.9,6.6,466.6,8.7,466.6
					L8.7,466.6z"/>
			</g>
			<g>
				<path class="st1" d="M28.5,452.8c0.6,0.2,1.2,0.4,1.8,0.5c1.4,0.3,2.8-0.2,3.5-1.4c0.7-1.1,0.6-2.9-0.5-3.8
					c-0.7-0.6-1.5-1.1-2.2-1.7c-1.7-1.2-4.2-0.1-4.9,1.7C25.4,450.1,26.5,452.2,28.5,452.8L28.5,452.8z"/>
			</g>
			<g>
				<path class="st1" d="M42.1,507.9c4.8,0,4.8-7.4,0-7.4C37.3,500.4,37.3,507.9,42.1,507.9L42.1,507.9z"/>
			</g>
			<g>
				<path class="st1" d="M515.3,115c0.6-0.8,1.2-1.3,1-2.3c-0.1-0.3-0.4-0.6-0.7-0.7c-1-0.2-1.6,0.4-2.3,1
					C511.7,114.1,514.1,116.5,515.3,115L515.3,115z"/>
			</g>
		</g>
	</g>
	<g class="st0">
		<g>
			<path class="st1" d="M392.1,181.3c23.3,5,44.8,19.3,56.6,40.3c9.7,17.1,6.8,31.8-5.4,46.4c-8.2,9.8-17.4,18.1-27.8,25.4
				c-1.4,1-0.2,2.9,1.3,2.2c13.5-5.9,24.4-17.5,33.1-29.2c8.9-12,11.8-24.5,6.2-38.7c-10.5-26.4-36.1-44.3-63.8-47.9
				C391.5,179.6,391.3,181.1,392.1,181.3L392.1,181.3z"/>
		</g>
		<path class="st1" d="M418.3,276.8c16.2-1.5,30.6-14.4,33.9-30.4c3.6-17.6-5.9-36-19.9-47.3c-14-11.3-36.4-30.9-112.1-30.9
			c-50.5,0.7,26.6,68.7,26.6,68.7L418.3,276.8z"/>
		<path class="st2" d="M443.5,649.6c-15.9,3.7-33,6.7-51.6,8.9c-8.3,1-17,1.8-25.9,2.4c-7.1,0.5-14.3,0.9-21.8,1.2
			c-6.2,0.3-12.7,0.4-19.2,0.4c-15.9,0.1-32.6-0.2-50.2-1.1c-0.3,0.1-0.6,0.1-0.9,0.1v-0.2l0.1-11.3l0.3-51.3v0l0.4-71.6l0-4.6l0-8
			c0,0,0,0,0,0l0.1-20.7l0-5.8l0-6.6l0.3-52.3l0-4.8l0.1-12.1l0.1-20.1l0-7.3l17.6-6.1l0.5-0.2l5.4-1.9l22-7.6l0.5-0.2l5.5-1.9
			l4.4-1.5l1.2-0.4h0l4.8-1.7l30.6-10.6c0,0,0,9,0,18.7v12.5c0,7,0.6,14,1.8,20.9c3.9,23.1,14,45,29.2,62.7
			c4.2,4.9,8.9,9.6,13.8,13.8c0,0,0.1,0,0.1,0.1c0.3,0.2,0.6,0.5,0.9,0.7c0.2,0.2,0.4,0.4,0.7,0.5c0.9,0.8,1.9,1.5,2.8,2.2
			c0.9,0.7,1.9,1.5,2.9,2.1c3.2,2.3,6.6,4.5,8.6,7.9c1.9,3.1,2.4,6.7,2.5,10.4c0,1.2,0,2.4,0,3.6c0,3,0,6,0.1,9
			c0,2.5,0.1,5.1,0.1,7.7c0,0,0,0,0,0c0.1,6.1,0.3,12.1,0.6,18.2v0c0,1.1,0.1,2.1,0.1,3.2c0.1,2,0.2,3.9,0.3,5.9c0,0,0,0,0,0
			c0.1,2.2,0.2,4.4,0.4,6.6C434.7,589.5,438.3,619.7,443.5,649.6z"/>
		<path class="st3" d="M443.5,649.6c-15.9,3.7-33,6.7-51.6,8.9c-8.3,1-17,1.8-25.9,2.4c-7.1,0.5-14.3,0.9-21.8,1.2
			c-6.2,0.3-12.7,0.4-19.2,0.4c-15.9,0.1-32.6-0.2-50.2-1.1c-0.3,0.1-0.6,0.1-0.9,0.1v-0.2l0.1-11.3l0.3-51.3v0l0.4-71.6l0-4.6
			l0-8.1l0.1-20.7l0-5.8l0-6.6l0.3-52.3l0-4.8l0-9.2c3.5,1.7,7,3.6,10.4,5.5c0.8,0.5,1.6,0.9,2.5,1.4c1.5,0.8,3,1.6,4.5,2.4
			c0.1,0,0.1,0.1,0.2,0.1c0.7,0.4,1.4,0.8,2.1,1.1h0c4.7,2.5,9.5,5,14.2,7.6c11.3,6.2,22.6,12.3,34.3,17.8c3.8,1.8,7.6,3.4,11.5,5
			c0.4,0.1,0.8,0.3,1.2,0.5c1.6,0.6,3.2,1.2,4.8,1.8c2.8,1,5.7,2,8.5,2.8c3,0.9,6,1.7,9,2.5c0,0,0,0,0,0c6.7,1.7,13.5,3,20.4,4
			c0,0,0.1,0,0.1,0c4.3,5,9,9.7,14,13.9c0.2,0.2,0.4,0.4,0.7,0.6c0.2,0.2,0.4,0.4,0.7,0.5c0.9,0.8,1.9,1.5,2.8,2.2
			c0.9,0.7,1.9,1.5,2.9,2.1c3.2,2.3,6.6,4.5,8.6,7.9c1.9,3.1,2.4,6.7,2.5,10.4c0,1.2,0,2.4,0,3.6c0,3,0,6,0.1,9
			c0,2.5,0.1,5.1,0.1,7.7c0,0,0,0,0,0c0.1,6.1,0.3,12.1,0.6,18.2v0c0,1.1,0.1,2.1,0.1,3.2c0.1,2,0.2,3.9,0.3,5.9c0,0,0,0,0,0
			c0.1,2.2,0.2,4.4,0.4,6.6C434.7,589.5,438.3,619.7,443.5,649.6z"/>
		<g>
			<path class="st2" d="M426.2,301.1C426.2,301.1,426.2,301.1,426.2,301.1c-1.6,11.6-3.1,20.9-4.4,28.4c-0.7,4-1.3,7.4-1.9,10.4
				c-2.5,13-4.1,17.3-4.1,17.3s1.4,24.6-63.9,22.1c-1.7,0-3.4-0.2-4.9-0.3c-58.4-5.5-24.7-67.2-24.7-67.2l103.4-11
				C425.9,300.9,426.1,301,426.2,301.1z"/>
			<path class="st2" d="M294.1,379.4c-25.3-16.8-47.8-38.8-60.9-66.2c-13.1-27.4-15.9-60.5-3.2-88.1c20.4-44.4,77.6-63.9,124.9-51.3
				c30,8,58,28.5,68.8,57.6c8.1,22,5.8,46.4,2.6,69.7c-1.5,11.1-3.3,22.3-8.4,32.2c-9.8,18.8-30,29.6-49.5,37.9
				c-13.9,5.9-28.4,11.2-43.5,11.4c-15.1,0.2-31-5.6-39.6-18L294.1,379.4z"/>
			<path class="st4" d="M442.6,326.3c-3.3,2.3-15.5,9.9-19.5,12.4l-0.9,0.1c0,0-4.5-0.3-3.2-5.6C420.3,328,442.6,326.3,442.6,326.3z
				"/>
			<path class="st4" d="M326.2,305.3c0,0-16.4-22.6-29.9-6c-13.5,16.6-0.1,43.4,23.4,43.8L326.2,305.3z"/>
		</g>
		<g>
			<g>
				<path class="st5" d="M313.1,308.5c12.1,10.8,34.9,8.7,47.5-0.1c1.6-1.1,1.3-4.3-1.1-4c-7,0.8-13.3,4.3-20.2,5.7
					c-8.7,1.9-16.8,0.8-24.8-3.3C313.4,306.2,312.1,307.6,313.1,308.5L313.1,308.5z"/>
			</g>
			<path class="st5" d="M367.3,273.9c-6.5-11.5-20.3-18.4-33.4-16.6c-11.2,1.5-20.8,8.6-28.9,16.5c5.3-4.5,12.7-5.7,19.6-5.7
				c4.3,0,8.6,0.5,12.9,0.9c9.3,0.9,18.7,1.9,28,2.8L367.3,273.9z"/>
			<g>
				<path class="st3" d="M331.1,344.2c-2.1-0.6-4.6-2.2-5.9-4.1c-1.9-2.7,1.6-3.5,3.7-3.8c1.7-0.3,10.8-1.3,9.9,2.8
					c-0.6,2.7-6.8,0.1-8-0.8c-0.1-0.1-1.8-2.1-2-2.1c-0.5-1-0.6-0.6-0.4,1c-0.6,1.6-0.3,1.9,1,1.1c2.1,0.8,3.2,0.6,3.9,3.4
					c0.8-1.9,1.5-3.8,2.3-5.7c-2.6,1.4-5,0.4-6.8-1.7c-0.7,2.7-1.5,5.5-2.2,8.2c1.6-0.5,2.5-0.3,4.1,0.2c5.1,1.6,7.8-5.6,3.5-8.4
					c-3.2-2-6.7-2.3-10.2-1.3c-3.8,1-4.5,5.5-2.2,8.2c4.7,5.6,12.5,6.7,18.9,3.4c2-1,2.8-3.6,2.3-5.7c-1.4-6.4-7-11.1-13.6-10.9
					c-6.2,0.2-12.7,5.1-10,11.8c4.1,10.1,24.6,16.1,28.9,3.1c1.8-5.3-0.8-11.5-5.6-14.4c-5.4-3.2-12.3-2.4-17.9-0.3
					c-5.3,2.1-10.3,7.5-7.6,13.5c2.3,4.9,8.7,8.4,13.9,7.7C334.1,349.3,333.6,345,331.1,344.2L331.1,344.2z"/>
			</g>
			<g>
				<path class="st6" d="M313.7,295.6c12.8-6,33.5-6.6,44.3,3.5c1.5,1.4,4.4-0.5,3-2.3c-10.4-13.9-35.3-11.2-48.3-2.8
					C311.7,294.6,312.6,296.1,313.7,295.6L313.7,295.6z"/>
			</g>
		</g>
		<g>
			<g>
				<path class="st5" d="M421.5,304.5c-4.4,3.3-8.4,4.8-13.8,2.6c-3.7-1.5-6.7-4.6-10.8-4.8c-1.7-0.1-2.6,1.9-1.9,3.3
					c2.7,4.7,10.5,7.3,15.8,7.3c5.1,0.1,9.7-2.2,12.2-6.8C423.6,305.2,422.5,303.8,421.5,304.5L421.5,304.5z"/>
			</g>
			<path class="st5" d="M392.7,275c3.6-10.4,11.2-16.6,18.4-15c6.2,1.4,11.5,7.7,15.9,14.9c-2.9-4.1-7-5.2-10.8-5.1
				c-2.4,0-4.8,0.4-7.1,0.8c-5.1,0.8-10.3,1.7-15.4,2.5L392.7,275z"/>
			<path class="st3" d="M421.9,329.5c-0.7,4-1.3,7.4-1.9,10.4c-1.6,2.1-3.9,3.9-6.5,3.8c-2.1,0.8-4.3,0.9-6.5,0.2
				c-4.5-1.5-6.6-6.1-6.3-10.6c0.3-4.3,2.4-8.7,6.5-10.6c4.2-1.9,9.7-0.3,12.7,3C420.7,326.9,421.4,328.2,421.9,329.5z"/>
			<g>
				<path class="st6" d="M423.2,293.1c-7.3-8.3-23.8-8.9-28,2.8c-0.8,2.2,2.3,3.1,3.5,1.5c3.2-4.3,6.2-6.1,11.8-6.1
					c4.3-0.1,8,0.8,11.5,3.4C422.9,295.4,423.9,293.9,423.2,293.1L423.2,293.1z"/>
			</g>
		</g>
		<path class="st1" d="M244.9,280.4c34.1,13.1,72.7-1,104.3-19.2c14.2-8.2,28.3-17.6,37.2-31.1s11.6-32,2.5-45.5
			c-39.1-12.6-82-25.2-120.4-10.7c-14.4,5.4-27.2,14.5-36.9,26.1c0,0-6.5-12.2-12.7,30.9c-6.2,43.1,4.4,63.8-8,96.5
			c-12.4,32.8-32.7,100.8-15.1,125c9.2-96.7,50.6,62.1,50.6,62.1s107.5,41.5,99.9-39.6c-4.6-48.5-15.1-97.8-42.3-138.6
			c-10.5-15.8-24.1-32.9-19.6-51.2L244.9,280.4z"/>
		<path class="st2" d="M210.5,651.2c0.3,0.4,0.6,0.7,0.9,1.1c24.1,3.5,49.5,2.2,72.9-4.9c-0.7-1.8-0.6-3.8-0.4-5.8
			c3.1-34.2,12.4-67.5,17.8-101.4c5.4-33.9,23.5-115.1-29.8-129.2c-12.8-3.4-39,32.7-47.2,57.2c-17.3,51.4-24.2,106.2-20.3,160.2
			C204.8,636.4,205.8,644.7,210.5,651.2z"/>
		<g>
			<path class="st6" d="M388.3,301.9c-1,4.6-1.1,9-0.5,13.7c0.7,5.1,6.4,17.9-2.9,18.2c-2.5,0.1-3.7,3.6-1.3,4.9
				c5.3,2.9,12.1-0.7,13.3-6.6c0.9-4.4-1.5-9-2.5-13.1c-1.4-5.6-2.1-11.4-3.3-17.1C390.8,300.5,388.6,300.5,388.3,301.9L388.3,301.9
				z"/>
		</g>
		<path class="st6" d="M369.7,404.8c-8.1-2.3-21.2-9.7-35.6-32.5c0.5,0.4,9,7.9,33.8,7.2v4.4C368,390.9,368.6,397.9,369.7,404.8z"/>
		<g>
			<path class="st1" d="M282.8,283.7c-4.5,15.4,4.5,31.5,13.5,43.5c10.9,14.7,23.4,27.9,33.2,43.4c22.6,35.5,31.2,74.6,21.9,115.9
				c-0.3,1.4,1.8,2.5,2.4,1c14.6-33.2,6.2-71.9-9.7-103c-8.2-16-18.7-30.8-30.2-44.6c-7.1-8.5-14.6-16.7-20.2-26.4
				c-5.5-9.6-7.5-19.1-9.1-29.9C284.4,282.7,283,282.9,282.8,283.7L282.8,283.7z"/>
		</g>
		<g>
			<path class="st1" d="M336.2,173.9c19.5,2.2,41,5,53.3,22.3c14.4,20.2,3.3,38.4-11.3,54.1c-27.1,29.2-60,52.5-101.6,48.9
				c-1.2-0.1-1.4,1.7-0.3,2c45.4,12,90.7-25.2,116.1-59.5c11.8-16,12.2-35.2-0.4-51c-13-16.4-35.6-22.3-55.8-19.7
				C334.4,171.2,334.4,173.6,336.2,173.9L336.2,173.9z"/>
		</g>
		<g>
			<path class="st1" d="M374.6,236.1c-12.9,13.5-26.9,27.5-42.7,37.7C315,284.7,296,284.6,276.7,286c-0.9,0.1-1,1.4,0,1.5
				c18,0.7,37.4-0.7,53.2-10.1c17.2-10.2,31.6-26.5,45-41.2C374.9,236.1,374.7,235.9,374.6,236.1L374.6,236.1z"/>
		</g>
		<path class="st7" d="M372.4,352.1c0.7,0.7,7.2,8.2,15.1,8.3c7.9,0.1,8.3-8.9,8.3-8.9L372.4,352.1z"/>
		<path class="st5" d="M372.4,352.1c0,0,12-5.8,12-5.3c0,0.5,3.3,2.6,3.3,2.6l4.6-2.9l3.6,5C395.8,351.5,385.1,354.5,372.4,352.1z"
			/>
		<path class="st2" d="M399.4,582.3c0,0-0.4,0.5-1.1,1.5c0,0,0,0,0,0c-1.3,1.7-3.8,4.6-7.3,8.4c-7.5,8.3-19.9,20.8-36,33
			c-4.9,3.7-10.1,7.3-15.6,10.9c-6.1,3.9-12.7,7.6-19.6,10.9c-13.7,6.7-28.8,11.9-45,14.3c-0.3,0.1-0.6,0.1-0.9,0.1
			c-13.8,2-28.3,2-43.4-1c-1.9-0.5-3.7-1-5.3-1.5c-6.1-2-10.4-4.2-13.5-6.8h0c-0.4-0.3-0.8-0.7-1.2-1.1c0,0-0.1,0-0.1-0.1
			c-3.4-3.3-4.7-7-4.6-10.7c0.4-13.4,19.1-27.2,19.1-27.2l29.2-8.6l5.3-1.6l14.8-4.4v0l17-5l15.8-4.7l22.8-6.7l10.9-3.2l36.9-10.9
			l6-1.8l2-0.6l3.2,3.8l0.6,0.7L399.4,582.3z"/>
	</g>
</g>
<g id="圖層_2" class="st8">
	<text transform="matrix(1 0 0 1 156.4801 355.1466)" class="st9 st10">class=&quot;image&quot; </text>
	<g class="st11">
		<path class="st5" d="M339.6,661.8c-6.6,0.3-13.3,0.4-20.2,0.5c-0.6-2.2-1.2-4.3-1.9-6.4c-1.1-3.3-2.3-6.6-3.5-9.8
			c-4-10.4-8.5-20.5-13.7-30.3l0,0l2.8-3.3l7.3-8.5l5.6-6.5c0.8,0.9,1.7,1.9,2.4,2.8c7.9,9.8,12.5,22,16,34.3
			c0.8,2.8,1.5,5.6,2.3,8.4c1.3,4.9,2.5,9.8,2.8,14.8C339.6,659.1,339.6,660.5,339.6,661.8z"/>
		<g>
			<path class="st7" d="M636.8,291.5c-11.4-12.6-33.5-13.2-45.7-1.4c-11.7,11.4-13,29.6-21.6,43.5c-4.9,7.9-12.5,14.5-21.7,16.3
				c-9.1,1.8-19.6-2.1-23.9-10.3c6.8,14.2,21.5,24.3,37.3,25.6c15.7,1.3,31.9-6.3,41-19.2c3.3-4.7,5.8-10.1,9.8-14.4
				c4-4.2,10.3-7.1,15.6-4.9c3.5,1.5,7.2,5,10.5,3.1c1.6-0.8,2.4-2.6,2.9-4.3c4.8-14.4-2.4-31.7-15.9-38.5L636.8,291.5z"/>
			<path class="st5" d="M639.2,315c2.2-5.7,9.9-7.4,15.5-5.3c5.7,2.1,9.8,7,13.7,11.7c16.7,20.1,33.5,40.7,44,64.6
				c0.9,2.1,1.8,4.4,1.1,6.5c-0.5,1.7-2,3-3.5,4.1c-16.5,12-41,6.3-55.8-7.7c-14.8-14-22.1-34.1-27.9-53.6L639.2,315z"/>
			<path class="st7" d="M706.8,394.5c21.6,18.4,5.5,56.8-13.9,77.4c-2.3,2.4-4.8,4.8-8,5.9c-10.1,3.5-18.9-7-27.7-13
				c-7.9-5.4-19.5-10.6-17.9-19.9c0.7-3.7,3.4-6.6,6.1-9.3c11.1-11.2,22.2-22.3,33.4-33.5C678.8,402.1,690.4,380.5,706.8,394.5z"/>
			<path class="st5" d="M673.8,473.5c1.5,4,5.4,6.7,4.5,10.9c-0.9,4.1-3.7,7.6-6.5,10.8c-15.2,17.1-34.5,30.5-55.9,38.6
				c-8.1,3.1-18.2,5.1-24.6-0.8c-7.8-7.1-4.3-19.7-0.2-29.4c5.5-13.1,11.2-26.5,21-36.8c9.8-10.3,24.7-16.9,38.4-13
				C650.5,453.7,667.9,457.5,673.8,473.5z"/>
			<path class="st7" d="M579,539.1c-13,8.4-28.3,13.1-43.8,13.6c-6.8,0.2-15-1.5-17.1-7.9c-1.2-3.7,0.2-7.8,1.5-11.4
				c4-10.6,8.1-21.5,15.2-30.3c7.1-8.8,18-15.5,29.3-14.6c7.4,0.6,14.1,4.2,20.6,7.9c0,0,19.3,5.7,19.3,16
				C604,522.7,579,539.1,579,539.1z"/>
			<path class="st5" d="M455.1,548.3c-12.4-9.1-15.5-29.8-4.1-40.2c2.5-2.3,5.6-4,8.7-5.5c19.9-9.3,44.3-8,63.1,3.3
				c0,0,21,16.8,7.5,30.2C516.8,549.7,494,570.4,455.1,548.3z"/>
		</g>
		<path class="st5" d="M204,372.4c10.6-11.2,28.8-11.9,43-6.1c14.3,5.7,25.8,16.5,37.5,26.6c28,24,59,44.6,92.1,61.1
			c26.9,13.4,57.4,26.3,70.7,53.2c1.6,3.3,3,6.9,2.7,10.6c-0.3,3.9-2.5,7.5-4.6,10.8c-9,14.2-19.2,29.3-35,35
			c-14.1,5.1-29.7,1.5-44.2-2.3c-40.1-10.4-81.7-22.8-111.7-51.3c-11.3-10.8-20.6-23.5-29.3-36.5c-8.8-13.2-17.3-27.2-20.9-42.7
			c-3.6-15.5-1.6-33.1,8.6-45.3L204,372.4z"/>
		<g>
			<path class="st5" d="M215.7,389c-20.4,8.3-42.3,12.1-64.1,15.8c-4.2,0.7-8.6,1.4-12.5-0.3c-3.9-1.7-6.6-6.7-4.3-10.3
				c1-1.6,2.8-2.6,4.5-3.4c8.1-3.7,16.9-5,25.7-6.3c16.8-2.5,33.5-5,50.3-7.5L215.7,389z"/>
			<path class="st5" d="M136.8,404.1c-8.2-3.4-16.4-6.9-24.6-10.3c-7.7-3.2-15.4-6.5-22.3-11.2c-17.9-12.4-27.8-33.9-30.7-55.4
				c-0.1-1.1-0.3-2.3,0.3-3.3c0.5-0.8,1.3-1.4,2.2-1.8c4.4-1.9,9.7-0.7,13.7,1.9c4,2.6,7.1,6.4,10.1,10.1
				c17.8,22.1,35.5,44.1,53.3,66.2L136.8,404.1z"/>
			<path class="st7" d="M61.4,324.9c-10.1-5.6-12.4-19.7-8.8-30.7S64.3,274.4,71,265c10.9-15.1,18.9-32.3,23.4-50.3
				c2.9-11.7,4.7-24.4,12.5-33.7c-7.2,19-10.1,39.6-8.4,59.9c14-17.5,24.6-37.7,31.2-59.1C129,207,127.9,234,113,254.5
				c-8.6,11.9-21.4,20.6-28.1,33.7c-6.6,12.8-6.6,27.8-6.4,42.2L61.4,324.9z"/>
		</g>
		<g>
			<path class="st5" d="M241.6,368.7c8.6-6.2,16.1-13.6,22.3-21.9c2.7-3.6,5.4-7.6,9.5-9.8c4.1-2.1,10.3-1.5,12.4,2.5
				c2,4-1,8.5-4.1,11.8c-10.5,11.1-24.1,19.5-39,24.1L241.6,368.7z"/>
			<path class="st5" d="M276.6,336.6c1.1-8.2-3-16.3-8.1-23.1c-5.1-6.7-11.5-12.6-16-19.7c-2.5-3.9-4.5-8.2-4.5-12.8
				c-0.1-4.6,2.1-9.3,6.3-11.6c5-2.7,11.6-1.1,16,2.5c4.3,3.6,6.7,8.8,8.5,13.9c5.7,16.3,6.3,34,1.8,50.6L276.6,336.6z"/>
			<path class="st7" d="M261,271.5c-5.2,5.3-15.2,5.6-20.7,0.5c-4.7-4.3-5.8-10.9-8.3-16.6c-6.5-14.5-22.6-22.7-36.8-31
				c-14.2-8.3-28.9-20.2-29.4-36c10.5,6.9,20.9,13.7,31.4,20.6c4.9,3.2,12.1,6.4,16.3,2.4c4.9-4.6-0.1-12.1-4.5-17.2
				c-6.7-7.8-12-16.8-15.4-26.4c22.9,24.9,45.8,49.7,68.7,74.6c4.2,4.5,8.5,9.3,10.1,15.1c1.6,5.8-0.5,13-6.3,15.5L261,271.5z"/>
		</g>
		<g>
			<path class="st5" d="M226.5,437.6c-25-2-48.8-16.7-73.6-12.8c-1.4,4.3,1.5,9,5.4,11.2c3.9,2.2,8.6,2.5,13,2.7
				c20.9,1.1,41.8,2.3,62.7,3.4L226.5,437.6z"/>
			<path class="st5" d="M148.1,436.8c8.6,8.7,17.2,17.4,25.8,26.1c4.2,4.2,8.4,8.5,11.6,13.5c7,11,8.5,25.4,3.8,37.7
				c2.2-4.7,3.8-9.8,3.5-15c-0.3-5-2.5-9.6-4.6-14.1c-8-17.1-16-34.2-24-51.4L148.1,436.8z"/>
		</g>
		<g>
			<path class="st5" d="M274.8,479.9c-22.5,14.1-43.4,30.8-62.1,49.7c-2.3,2.3-4.6,4.8-5.8,7.8c-1.2,3-1,6.9,1.4,9.1
				c1.5,1.4,3.6,2.1,5.7,2.2c8.9,0.7,16.5-6,22.9-12.2c13-12.6,25.7-25.5,38.2-38.5L274.8,479.9z"/>
			<path class="st5" d="M211.8,550.5c12.9,14.6,24,30.8,33.1,48.1c5.2-4.6,2.6-13.1-0.4-19.4c-5.7-12.1-11.5-24.2-17.2-36.2
				L211.8,550.5z"/>
			<path class="st5" d="M244,597c2.6,12.8,5.2,25.6,7.9,38.3c3.9-14.2,2.3-28.9-4.4-42.6L244,597z"/>
		</g>
		<path class="st5" d="M312.9,515.7c1.4,29.4-11.2,57.6-16.1,86.6c-0.7,4.3-1,9.4,2.1,12.4c3.4,3.2,9.3,2.2,12.7-0.9
			c3.4-3.2,5-7.8,6.4-12.3c8.4-27.4,13.4-55.9,14.7-84.6L312.9,515.7z"/>
		<g>
			<g>
				<path class="st7" d="M217.2,409.6c-0.6,29.6,27.1,51.6,48,68.3c12.3,9.8,25.3,18.8,38.8,26.9c13.1,7.9,28.8,18.4,43.9,21.5
					c2.6,0.5,4-2.7,1.8-4.3c-11.4-8-25.9-12.8-38.1-19.7c-12.9-7.4-25.4-15.6-37.4-24.5c-23.4-17.5-49.5-38.3-55.2-68.5
					C219,408.2,217.2,408.5,217.2,409.6L217.2,409.6z"/>
			</g>
			<g>
				<path class="st7" d="M237.7,434.8c-2.8-13.5,8-23.8,21.1-20.3c5.1,1.4,9.2,3.8,14.6,3.3c7-0.6,13.5-4.7,15.4-11.6
					c0.4-1.5-1.5-2.6-2.6-1.5c-4.1,3.9-7.9,8-14.2,8.1c-4.3,0.1-7.9-2.1-11.9-3.2c-5.3-1.5-10.5-1.6-15.6,0.6
					c-10.2,4.6-13.7,15.3-10.5,25.5C234.8,438.2,238.2,437.2,237.7,434.8L237.7,434.8z"/>
			</g>
			<g>
				<path class="st7" d="M282.8,462.9c4.9-6.4,11.4-11.2,19.8-11.4c5.7-0.2,11.1,2.4,16.8,2.4c8.1,0,13.9-4.8,18.1-11.3
					c0.8-1.2-0.8-2.8-2-2c-8.4,5.3-13.6,8.4-24.1,6.8c-4.1-0.6-8.1-1.2-12.3-0.4c-8.3,1.6-15.2,6.9-18.9,14.4
					C279.3,463.2,281.6,464.4,282.8,462.9L282.8,462.9z"/>
			</g>
			<g>
				<path class="st7" d="M338.5,499.5c5-7.9,12.3-11.4,21.5-11.8c5.5-0.2,10.2-0.1,15.4-2.4c6.8-3,13.1-8.8,13.5-16.5
					c0.1-1.3-1.7-2-2.6-1.1c-4.8,5-8,10.7-14.9,13.2c-5.4,2-11.2,0.9-16.8,1.9c-8.4,1.6-14.9,7.5-18.8,15
					C334.8,499.7,337.4,501.2,338.5,499.5L338.5,499.5z"/>
			</g>
			<g>
				<path class="st7" d="M146.6,433.9c1.2,5.1,8,7,11.4,2.7c1.2-1.6,1.7-3.6,1.2-5.5c-0.5-1.9-2-3.8-4-4.1c-2.4-0.5-4.4,0.3-5.7,2.3
					c-0.3,0.4-0.5,0.8-0.6,1.3c0.6-1.6,1.6-2.7,3.2-3.2c0.5-0.1,1-0.1,1.5-0.2c-0.1,0-0.1,0-0.2,0c0.5,0.1,1,0.1,1.6,0.2
					c-0.9-0.3-0.4,0.2,1.6,1.7c1.3,2,1.9,2.6,1.7,1.6c-0.2-1.4-1.6-2.9-2.8-3.6c-1.3-0.8-3.2-1.1-4.6-0.6
					C147.6,427.5,145.8,430.6,146.6,433.9L146.6,433.9z"/>
			</g>
			<g>
				<path class="st7" d="M215.4,551.3c2.7-0.8,5.9-2.9,6.5-5.9c0.3-1.9,0.1-3.8-1.4-5.2c-1.4-1.4-3.4-1.9-5.2-1.4
					c-0.6,0.2-1.7,0.4-2.1,0.9c0.9-0.4,1.1-0.4,0.5-0.2c-0.2,0.1-0.4,0.1-0.6,0.1c0.5-0.1,1-0.1,1.6-0.2c-0.3,0-0.6,0-0.9,0
					c-3.7-0.2-6.4,3.5-5.9,6.9C208.3,549.8,211.8,552.3,215.4,551.3L215.4,551.3z"/>
			</g>
			<g>
				<path class="st7" d="M310.3,603.7c-0.1-0.2-0.2-0.3-0.3-0.5c-2.5-3.6-7.3-3.6-9.8,0c-0.1,0.2-0.2,0.3-0.3,0.5
					c-2.7,3.9,0.9,9.1,5.2,9.1C309.4,612.8,313,607.6,310.3,603.7L310.3,603.7z"/>
			</g>
			<g>
				<path class="st7" d="M203.6,377.1c0.2,0.4-0.1-0.5-0.2-0.6c-0.1,0.7-0.2,1.4-0.3,2.1c0.2-0.3,0.4-0.7,0.5-1.1
					c0.1-1,0.1-1.1,0.1-0.5c0-0.1,0.1-0.2,0.1-0.4c0.1-0.2,0-0.2-0.1,0.2c0.1-0.2,0.2-0.3,0.3-0.4c0.2-0.3,0.2-0.3,0,0
					c-0.2,0.2-0.2,0.2,0,0c-0.4,0.3-0.5,0.4-0.1,0.2c-0.5,0.2-0.6,0.3-0.2,0.1c-0.2,0-0.4,0.1-0.6,0.1c0.2,0,0.3,0,0.5,0
					c-0.7-0.1-0.8-0.1-0.3,0c-0.2-0.1-0.3-0.2-0.5-0.2c0.2,0.1,0.3,0.2,0.5,0.3c-0.5-0.4-0.6-0.5-0.3-0.2c-0.4-0.6-0.5-0.6-0.3-0.2
					c0.2-1.8,0.5-3.6,0.7-5.3c-1,1.3-2.4,2.6-3.1,4c2.6,0.3,5.3,0.7,7.9,1c-0.2-0.8-0.5-1.6-0.9-2.4c-1.1-2.6-5.4-2.4-6.6,0
					c-0.4,0.8-0.7,1.6-1,2.4c-0.5,1.8,0.3,4,2,4.9c1.8,1,3.7,0.6,5.3-0.7c1-0.8,1.7-2.1,2.5-3.1c1.5-1.9,1.8-4.3,0-6.2
					c-2.5-2.6-6.5-3.4-9.6-1.4c-1.7,1.1-2.9,2.9-3,5c-0.1,1.9,0.5,3.9,2.3,4.8c-0.3-0.3-0.7-0.7-1-1c0.5,0.8,1,1.4,1.8,1.8
					c0.9,0.6,2.2,0.4,3-0.4C204,379.3,204.1,378.1,203.6,377.1L203.6,377.1z"/>
			</g>
			<g>
				<path class="st7" d="M241.6,364.9c-0.3,0.2-0.4,0.3-0.2,0.1c0.2-0.1,0.2-0.1-0.2,0.1c0.8,0.1-0.8,0,0.1-0.1c0.2,0,0.5,0,0.8-0.1
					c0.2,0,0.3,0,0.5,0c-0.5-0.1-0.6-0.1-0.3,0c0.2,0.1,0.5,0.2,0.7,0.2c-0.5-0.2-0.6-0.2-0.3-0.1c0.3,0.2,0.2,0.1-0.2-0.2
					c0.2,0.2,0.6,0.9,0.1,0c-0.3-0.5-0.2-0.5,0,0.1c0.6,3.3,5,4,7.2,1.9c3.2-3.1,1.1-9.5-3.7-9.1c-2.1,0.2-3.9,1.5-4.1,3.6
					c-0.2,1.9,0.9,4.2,3,4.6c-1.3-0.6-2-1.5-2.2-2.7c0.2-0.7,0.4-1.4,0.6-2.2c0.1-0.1,0.2-0.3,0.4-0.4c2.4,0.6,4.8,1.3,7.2,1.9
					c-1.5-6.5-11.6-8.5-14.7-2.2C234.3,364.2,238.5,367.6,241.6,364.9L241.6,364.9z"/>
			</g>
		</g>
	</g>
	<path class="st12" d="M385.4,565.9c1.6-0.8-6.4-5-3.1-19c0.3-3.7,6.3-5.3,3.8-21.8c12.4-0.8,4.5,18.8,8.2,19
		c3.7,0.2,7.2-10.6,9.6-16.6c2.4-6,9.4-16.4,11.8-14.7c2.5,1.7-3.4,15.4-6.5,22.7c4-7.6,8.5-15,13.5-22c2.5-3.5,5.2-7,9.1-8.7
		c0.4-0.2,1-0.4,1.4-0.1c0.4,0.3,0.5,0.8,0.5,1.3c0,12.1-13.2,32.8-11.6,34c1.6,1.2,15.3-28.8,18.4-26.8c3.1,2,0.4,7.5-0.7,11.1
		c-2.9,9.2-6.9,18.1-11.8,26.4c4.6-4.4,13.1-13.2,15.1-11.7c4.3,3-12.4,25-21.8,31.4c-3.3,2.3-6.7,4.2-10.2,6.1
		c-7.1,3.9-4.7,1.7-11.8,5.7L385.4,565.9z"/>
</g>
</svg>
