<svg id="圖層_1" data-name="圖層 1" xmlns="http://www.w3.org/2000/svg" viewBox="0 0 652.35 710.32"><defs><style>.cls-1{fill:#fff;}</style></defs><polygon class="cls-1" points="8.61 96.63 1.53 72.92 20.02 89.63 39.26 68.34 30.9 93.36 46.07 102.49 26.72 105.87 23.54 127.42 15.39 103.77 0 106.15 8.61 96.63"/><polygon class="cls-1" points="269.44 348.67 246.04 343.13 264.75 333.55 256.41 317.26 275 326.79 294.57 312.96 289.91 333.62 310.38 349.8 286.1 347 274.17 368.33 269.44 348.67"/><path class="cls-1" d="M268.59,334.15a5.76,5.76,0,1,1-3.71,7.25A5.76,5.76,0,0,1,268.59,334.15Z" transform="translate(-37.05 -7.98)"/><path class="cls-1" d="M235,328.48a5.76,5.76,0,1,1-3.71,7.25A5.76,5.76,0,0,1,235,328.48Z" transform="translate(-37.05 -7.98)"/><path class="cls-1" d="M477.09,662.23a5.76,5.76,0,1,1-5.33-6.16A5.76,5.76,0,0,1,477.09,662.23Z" transform="translate(-37.05 -7.98)"/><path class="cls-1" d="M505.31,674.63a5.76,5.76,0,1,1-5.34-6.16A5.76,5.76,0,0,1,505.31,674.63Z" transform="translate(-37.05 -7.98)"/><path class="cls-1" d="M602.69,647.41a5.76,5.76,0,1,1-8,1.67A5.75,5.75,0,0,1,602.69,647.41Z" transform="translate(-37.05 -7.98)"/><path class="cls-1" d="M627.23,628.77a5.76,5.76,0,1,1-8,1.67A5.75,5.75,0,0,1,627.23,628.77Z" transform="translate(-37.05 -7.98)"/><path class="cls-1" d="M445.18,425.89l1.38,27.57L432.41,436.6,400,442.81l26.37-22.12-4.86-24.1,17.08,20.35,19.85-5.09Z" transform="translate(-37.05 -7.98)"/><path class="cls-1" d="M397.37,406.13a5.62,5.62,0,1,1,3.82,7A5.62,5.62,0,0,1,397.37,406.13Z" transform="translate(-37.05 -7.98)"/><path class="cls-1" d="M375.56,390.34a5.62,5.62,0,1,1,3.82,7A5.62,5.62,0,0,1,375.56,390.34Z" transform="translate(-37.05 -7.98)"/><path class="cls-1" d="M353.88,374.64a5.62,5.62,0,1,1,3.82,7A5.61,5.61,0,0,1,353.88,374.64Z" transform="translate(-37.05 -7.98)"/><path class="cls-1" d="M96.8,68.65A5.62,5.62,0,1,1,89,69.86,5.6,5.6,0,0,1,96.8,68.65Z" transform="translate(-37.05 -7.98)"/><path class="cls-1" d="M121.91,51.64a5.62,5.62,0,1,1-7.86,1.2A5.61,5.61,0,0,1,121.91,51.64Z" transform="translate(-37.05 -7.98)"/><polygon class="cls-1" points="614.25 591.17 595.18 574.82 621.53 578.16 630.24 564.47 627.76 583.91 652.35 596.01 631.78 593.4 626.89 618.25 621.26 605.12 603.47 606.44 614.25 591.17"/><path class="cls-1" d="M219.57,79.77a5.76,5.76,0,1,1-2.78-7.66A5.76,5.76,0,0,1,219.57,79.77Z" transform="translate(-37.05 -7.98)"/><polygon class="cls-1" points="215.24 91.43 228.74 70.24 229.14 96.8 243.93 103.49 224.33 103.79 215.82 129.83 215.5 109.11 190.21 107.76 202.41 100.34 198.6 82.92 215.24 91.43"/><path class="cls-1" d="M379.15,629.11a5.76,5.76,0,1,1-7.6,2.94A5.77,5.77,0,0,1,379.15,629.11Z" transform="translate(-37.05 -7.98)"/><path class="cls-1" d="M496.67,519.81a5.62,5.62,0,1,1,2.67-7.48A5.61,5.61,0,0,1,496.67,519.81Z" transform="translate(-37.05 -7.98)"/><polygon class="cls-1" points="477.49 543.01 501.78 549.42 476.6 557.89 474.73 574.01 468.49 555.43 441.09 555.25 460.74 548.64 454.32 524.13 465.1 533.51 480.54 524.57 477.49 543.01"/><path class="cls-1" d="M123.71,312.11a5.62,5.62,0,1,1-6.45-4.64A5.62,5.62,0,0,1,123.71,312.11Z" transform="translate(-37.05 -7.98)"/><path class="cls-1" d="M151.4,317.16a5.62,5.62,0,1,1-6.45-4.64A5.62,5.62,0,0,1,151.4,317.16Z" transform="translate(-37.05 -7.98)"/><polygon class="cls-1" points="147.47 307.08 160.37 285.52 161.52 312.06 176.49 318.32 156.91 319.17 149.14 345.45 148.24 324.74 122.91 324.11 134.91 316.34 130.6 299.04 147.47 307.08"/><polygon class="cls-1" points="43.46 282.61 22.41 270.64 47.95 268.97 53.67 254.41 54.91 273.26 80.38 280.19 60.45 281.5 60.38 305.91 52.65 294.52 36.06 299.03 43.46 282.61"/><path class="cls-1" d="M74.08,242.92a5.76,5.76,0,1,1-2.18,7.85A5.77,5.77,0,0,1,74.08,242.92Z" transform="translate(-37.05 -7.98)"/><path class="cls-1" d="M69.2,214.94A5.76,5.76,0,1,1,67,222.79,5.76,5.76,0,0,1,69.2,214.94Z" transform="translate(-37.05 -7.98)"/><path class="cls-1" d="M63.91,184.58a5.76,5.76,0,1,1-2.18,7.85A5.76,5.76,0,0,1,63.91,184.58Z" transform="translate(-37.05 -7.98)"/><path class="cls-1" d="M58.57,153.94a5.76,5.76,0,1,1-2.18,7.85A5.76,5.76,0,0,1,58.57,153.94Z" transform="translate(-37.05 -7.98)"/><polygon class="cls-1" points="433.7 461.54 432.44 445.28 442.5 455.38 451.3 446.62 448.99 460.6 461.97 470.38 447.66 471.65 441.44 488.21 438.23 471.95 421.98 468.66 433.7 461.54"/><path class="cls-1" d="M539,623.4a5.76,5.76,0,1,1-8.12-.68A5.77,5.77,0,0,1,539,623.4Z" transform="translate(-37.05 -7.98)"/><path class="cls-1" d="M532,594.56a5.76,5.76,0,1,1-8.12-.68A5.76,5.76,0,0,1,532,594.56Z" transform="translate(-37.05 -7.98)"/><path class="cls-1" d="M317.21,610.09l12.46-15.93-.26,16.11,20.92,12.09L325.12,622l-8.87,15.67.31-19.46-13.44-6.69Z" transform="translate(-37.05 -7.98)"/><path class="cls-1" d="M146.35,38.94l-17.56-3.26,12.73-6.38L142.47,8l10,19.92,15.9.56L153,36.15s.22,13.26.23,13.26S146.35,38.94,146.35,38.94Z" transform="translate(-37.05 -7.98)"/><polygon class="cls-1" points="150.56 56.74 128.37 68.52 141.11 45.21 131.54 32.11 148.74 41.51 168.98 23.04 159.03 41.23 180.39 54.87 166.1 55.31 160.84 72.35 150.56 56.74"/><polygon class="cls-1" points="386.66 631.13 383.94 607.07 400.33 626.73 415.46 622.79 400.95 634.88 410.35 659.55 397.56 644.21 377.79 658.52 382.44 645.57 369.03 634.82 386.66 631.13"/><path class="cls-1" d="M551.38,664.53C554,661.43,574.17,643,574.17,643l-9.1,24.29,22.74,7.79-19.91,3.53,14,19.06L562.65,691l1.71,27.27L553,697.09l-13.62,16,5-21.55-26.63-2.19,24-7.22L517,662l23.11,6.32.14-22.13Z" transform="translate(-37.05 -7.98)"/></svg>