<?xml version="1.0" encoding="utf-8"?>
<!-- Generator: Adobe Illustrator 26.0.0, SVG Export Plug-In . SVG Version: 6.00 Build 0)  -->
<svg version="1.1" id="圖層_1" xmlns="http://www.w3.org/2000/svg" xmlns:xlink="http://www.w3.org/1999/xlink" x="0px" y="0px"
	 viewBox="0 0 725.67 725.67" style="enable-background:new 0 0 725.67 725.67;" xml:space="preserve">
<style type="text/css">
	.st0{fill:#FFFFFF;}
</style>
<g>
	<path class="st0" d="M345.29,420.5c1.77,1.78,12.12,15.1,12.12,15.1l-14.49-6.82l-5.93,13.61l-1.17-12.43l-12.44,7.68l5.04-11.54
		l-16.87-0.31l13.62-5.91l-9.16-9.18l13.02,4.16l2.68-16.27l3.24,15.1l13.63-14.19l-5.04,13.9l13.61,1.2L345.29,420.5z"/>
	<path class="st0" d="M406.14,441.29c0.12,1.91-1.34,3.56-3.25,3.67c-1.91,0.12-3.56-1.34-3.67-3.25c-0.12-1.91,1.34-3.56,3.25-3.67
		C404.38,437.92,406.03,439.37,406.14,441.29z"/>
	<path class="st0" d="M422.57,446.03c0.12,1.91-1.34,3.56-3.25,3.67c-1.91,0.12-3.56-1.34-3.67-3.25c-0.12-1.91,1.34-3.56,3.25-3.67
		C420.81,442.67,422.45,444.12,422.57,446.03z"/>
	<path class="st0" d="M439.27,450.86c0.12,1.91-1.34,3.56-3.25,3.67c-1.91,0.12-3.56-1.34-3.67-3.25c-0.12-1.91,1.34-3.56,3.25-3.67
		C437.5,447.49,439.15,448.95,439.27,450.86z"/>
	<path class="st0" d="M455.24,455.47c0.12,1.91-1.34,3.56-3.25,3.67c-1.91,0.12-3.56-1.34-3.67-3.25c-0.12-1.91,1.34-3.56,3.25-3.67
		C453.48,452.11,455.12,453.56,455.24,455.47z"/>
	<path class="st0" d="M471.11,460.06c0.12,1.91-1.34,3.56-3.25,3.67c-1.91,0.12-3.56-1.34-3.67-3.25c-0.12-1.91,1.34-3.56,3.25-3.67
		C469.35,456.69,471,458.15,471.11,460.06z"/>
	<path class="st0" d="M487.54,464.81c0.12,1.91-1.34,3.56-3.25,3.67c-1.91,0.12-3.56-1.34-3.67-3.25c-0.12-1.91,1.34-3.56,3.25-3.67
		C485.78,461.44,487.42,462.9,487.54,464.81z"/>
	<path class="st0" d="M375.03,432.46c0.12,1.91-1.34,3.56-3.25,3.67c-1.91,0.12-3.56-1.34-3.67-3.25c-0.12-1.91,1.34-3.56,3.25-3.67
		C373.26,429.1,374.91,430.55,375.03,432.46z"/>
	<path class="st0" d="M390.54,436.95c0.12,1.91-1.34,3.56-3.25,3.67c-1.91,0.12-3.56-1.34-3.67-3.25c-0.12-1.91,1.34-3.56,3.25-3.67
		C388.78,433.58,390.43,435.04,390.54,436.95z"/>
	<polygon class="st0" points="508.19,467.62 517.45,455.17 516.51,471.55 525.32,476.33 513.24,475.63 506.83,491.29 507.57,478.51 
		492.05,476.55 499.9,472.53 498.33,461.63 	"/>
	<path class="st0" d="M314.93,260.92c-0.19-1.91,1.2-3.61,3.1-3.8c1.91-0.19,3.61,1.2,3.8,3.1c0.19,1.91-1.2,3.61-3.1,3.8
		C316.82,264.21,315.12,262.82,314.93,260.92z"/>
	<path class="st0" d="M298.33,256.82c-0.19-1.91,1.2-3.61,3.1-3.8c1.91-0.19,3.61,1.2,3.8,3.1c0.19,1.91-1.2,3.61-3.1,3.8
		C300.22,260.12,298.52,258.73,298.33,256.82z"/>
	<path class="st0" d="M281.46,252.66c-0.19-1.91,1.2-3.61,3.1-3.8c1.91-0.19,3.61,1.2,3.8,3.1c0.19,1.91-1.2,3.61-3.1,3.8
		C283.35,255.95,281.65,254.56,281.46,252.66z"/>
	<path class="st0" d="M265.31,248.67c-0.19-1.91,1.2-3.61,3.1-3.8c1.91-0.19,3.61,1.2,3.8,3.1c0.19,1.91-1.2,3.61-3.1,3.8
		C267.21,251.97,265.51,250.58,265.31,248.67z"/>
	<path class="st0" d="M249.27,244.71c-0.19-1.91,1.2-3.61,3.1-3.8s3.61,1.2,3.8,3.1c0.19,1.91-1.2,3.61-3.1,3.8
		C251.17,248.01,249.46,246.62,249.27,244.71z"/>
	<path class="st0" d="M232.67,240.62c-0.19-1.91,1.2-3.61,3.1-3.8c1.91-0.19,3.61,1.2,3.8,3.1c0.19,1.91-1.2,3.61-3.1,3.8
		C234.57,243.91,232.86,242.52,232.67,240.62z"/>
	<polygon class="st0" points="211.92,238.62 203.16,251.42 203.45,235.02 194.47,230.59 206.57,230.81 212.35,214.91 212.12,227.71 
		227.7,229.06 220.02,233.39 222.02,244.22 	"/>
	<path class="st0" d="M205.45,612.95c1.96,0.19,3.38,1.93,3.19,3.89s-1.93,3.38-3.89,3.19c-1.96-0.19-3.38-1.93-3.19-3.89
		C201.75,614.18,203.49,612.75,205.45,612.95z"/>
	<path class="st0" d="M212.67,597.62c1.96,0.19,3.38,1.93,3.19,3.89c-0.19,1.96-1.93,3.38-3.89,3.19c-1.96-0.19-3.38-1.93-3.19-3.89
		C208.97,598.85,210.71,597.42,212.67,597.62z"/>
	<path class="st0" d="M220.14,581.75c1.96,0.19,3.38,1.93,3.19,3.89c-0.19,1.96-1.93,3.38-3.89,3.19c-1.96-0.19-3.38-1.93-3.19-3.89
		C216.44,582.99,218.18,581.56,220.14,581.75z"/>
	<path class="st0" d="M228.24,564.54c1.96,0.19,3.38,1.93,3.19,3.89c-0.19,1.96-1.93,3.38-3.89,3.19c-1.96-0.19-3.38-1.93-3.19-3.89
		S226.29,564.35,228.24,564.54z"/>
	<path class="st0" d="M237.03,549.15c1.96,0.19,3.38,1.93,3.19,3.89c-0.19,1.96-1.93,3.38-3.89,3.19c-1.96-0.19-3.38-1.93-3.19-3.89
		S235.07,548.96,237.03,549.15z"/>
	<path class="st0" d="M444.15,345.83c1.78-0.82,3.9-0.05,4.72,1.74c0.82,1.78,0.05,3.9-1.74,4.72c-1.78,0.82-3.9,0.05-4.72-1.74
		C441.58,348.76,442.36,346.65,444.15,345.83z"/>
	<path class="st0" d="M442.61,328.84c1.78-0.82,3.9-0.05,4.72,1.74c0.82,1.78,0.05,3.9-1.74,4.72c-1.78,0.82-3.9,0.05-4.72-1.74
		C440.04,331.78,440.82,329.67,442.61,328.84z"/>
	<path class="st0" d="M441.07,311.97c1.78-0.82,3.9-0.05,4.72,1.74c0.82,1.78,0.05,3.9-1.74,4.72c-1.78,0.82-3.9,0.05-4.72-1.74
		C438.51,314.9,439.29,312.79,441.07,311.97z"/>
	<path class="st0" d="M439.49,294.5c1.78-0.82,3.9-0.05,4.72,1.74c0.82,1.78,0.05,3.9-1.74,4.72s-3.9,0.05-4.72-1.74
		C436.93,297.44,437.71,295.33,439.49,294.5z"/>
	<path class="st0" d="M437.77,275.56c1.78-0.82,3.9-0.05,4.72,1.74c0.82,1.78,0.05,3.9-1.74,4.72c-1.78,0.82-3.9,0.05-4.72-1.74
		C435.21,278.49,435.99,276.38,437.77,275.56z"/>
	<path class="st0" d="M437.56,257.84c1.78-0.82,3.9-0.05,4.72,1.74c0.82,1.78,0.05,3.9-1.74,4.72c-1.78,0.82-3.9,0.05-4.72-1.74
		C435,260.78,435.77,258.66,437.56,257.84z"/>
	<path class="st0" d="M244.5,533.28c1.96,0.19,3.38,1.93,3.19,3.89c-0.19,1.96-1.93,3.38-3.89,3.19c-1.96-0.19-3.38-1.93-3.19-3.89
		C240.8,534.52,242.54,533.09,244.5,533.28z"/>
	<path class="st0" d="M252.6,516.07c1.96,0.19,3.38,1.93,3.19,3.89s-1.93,3.38-3.89,3.19c-1.96-0.19-3.38-1.93-3.19-3.89
		C248.9,517.31,250.65,515.88,252.6,516.07z"/>
	<path class="st0" d="M194.41,652.2c0.75,2.4,3.77,18.99,3.77,18.99l-9.71-12.74l-11.55,9.33l4.7-11.57l-14.58,1.07l9.8-7.9
		l-14.82-8.07l14.81,1.05l-3.89-12.38l9.63,9.7l9.89-13.2l-4.1,14.89l18.64-6.29l-10.9,10l11.52,7.35L194.41,652.2z"/>
	<polygon class="st0" points="454.85,33.43 450.83,51.4 446.05,34.46 430.93,34.94 444.44,27.24 436.32,10.84 446.45,18.25 
		452.76,6.37 456.28,17.45 469.59,13.56 459.68,23.35 470.02,30.81 	"/>
	<path class="st0" d="M313.41,447.62c0.84-1.78,2.96-2.53,4.74-1.69c1.78,0.84,2.53,2.96,1.69,4.74c-0.84,1.78-2.96,2.53-4.74,1.69
		C313.32,451.52,312.57,449.4,313.41,447.62z"/>
	<path class="st0" d="M297.58,461c0.84-1.78,2.96-2.53,4.74-1.69c1.78,0.84,2.53,2.96,1.69,4.74c-0.84,1.78-2.96,2.53-4.74,1.69
		C297.5,464.9,296.74,462.78,297.58,461z"/>
	<path class="st0" d="M283.16,472.31c0.84-1.78,2.96-2.53,4.74-1.69c1.78,0.84,2.53,2.96,1.69,4.74c-0.84,1.78-2.96,2.53-4.74,1.69
		C283.08,476.2,282.32,474.08,283.16,472.31z"/>
	<path class="st0" d="M340.65,387.81c1.82-0.73,3.89,0.15,4.63,1.97c0.73,1.82-0.15,3.89-1.97,4.63c-1.82,0.73-3.89-0.15-4.63-1.97
		C337.95,390.62,338.83,388.55,340.65,387.81z"/>
	<path class="st0" d="M339.95,370.29c1.82-0.73,3.89,0.15,4.63,1.97c0.73,1.82-0.15,3.89-1.97,4.63c-1.82,0.73-3.89-0.15-4.63-1.97
		C337.25,373.1,338.13,371.02,339.95,370.29z"/>
	<path class="st0" d="M339.24,352.48c1.82-0.73,3.89,0.15,4.63,1.97c0.73,1.82-0.15,3.89-1.97,4.63c-1.82,0.73-3.89-0.15-4.63-1.97
		C336.53,355.29,337.42,353.21,339.24,352.48z"/>
	<path class="st0" d="M338.56,335.44c1.82-0.73,3.89,0.15,4.63,1.97c0.73,1.82-0.15,3.89-1.97,4.63c-1.82,0.73-3.89-0.15-4.63-1.97
		C335.85,338.25,336.73,336.18,338.56,335.44z"/>
	<path class="st0" d="M337.88,318.51c1.82-0.73,3.89,0.15,4.63,1.97c0.73,1.82-0.15,3.89-1.97,4.63c-1.82,0.73-3.89-0.15-4.63-1.97
		C335.17,321.32,336.06,319.24,337.88,318.51z"/>
	<path class="st0" d="M337.18,300.99c1.82-0.73,3.89,0.15,4.63,1.97c0.73,1.82-0.15,3.89-1.97,4.63c-1.82,0.73-3.89-0.15-4.63-1.97
		C334.47,303.79,335.35,301.72,337.18,300.99z"/>
	<path class="st0" d="M443.96,200.53c1.94-0.29,3.75,1.05,4.04,2.99c0.29,1.94-1.05,3.75-2.99,4.04c-1.94,0.29-3.75-1.05-4.04-2.99
		C440.68,202.63,442.02,200.82,443.96,200.53z"/>
	<path class="st0" d="M447.64,181.86c1.94-0.29,3.75,1.05,4.04,3c0.29,1.94-1.05,3.75-2.99,4.04c-1.94,0.29-3.75-1.05-4.04-2.99
		C444.36,183.96,445.7,182.15,447.64,181.86z"/>
	<path class="st0" d="M450.19,158.36l-12.59-11.49l13.53,1.24l11.5-16.8l-1.95,21.16l12.6,8.45l-16.33-1.5
		c0,0-6.49,10.85-6.49,10.86C450.47,170.3,450.19,158.36,450.19,158.36z"/>
	<path class="st0" d="M342.15,287.2c1.18,1.51,0.93,3.69-0.58,4.87c-1.51,1.19-3.69,0.93-4.87-0.58c-1.19-1.5-0.93-3.69,0.58-4.87
		C338.78,285.43,340.96,285.69,342.15,287.2z"/>
	<path class="st0" d="M404.25,250.46c-0.78-1.75,0.02-3.8,1.77-4.58c1.75-0.78,3.8,0.02,4.58,1.77c0.78,1.75-0.02,3.8-1.77,4.58
		S405.02,252.21,404.25,250.46z"/>
	<path class="st0" d="M387.77,251.69c-0.78-1.75,0.02-3.8,1.77-4.58c1.75-0.78,3.8,0.02,4.58,1.77s-0.02,3.8-1.77,4.58
		C390.59,254.23,388.54,253.44,387.77,251.69z"/>
	<path class="st0" d="M370.72,252.96c-0.78-1.75,0.02-3.8,1.77-4.58c1.75-0.78,3.8,0.02,4.58,1.77c0.78,1.75-0.02,3.8-1.77,4.58
		C373.54,255.5,371.49,254.71,370.72,252.96z"/>
	<path class="st0" d="M272.58,499.18l-3.44,17.14l-6.06-12.55l-20.84-1.21l19.62-9.48l0.76-15.55l7.32,15.14
		c0,0,12.97-0.04,12.97-0.04C282.92,492.63,272.58,499.18,272.58,499.18z"/>
	<path class="st0" d="M496.13,502.37c-1.95-0.26-3.31-2.06-3.05-4c0.26-1.95,2.06-3.31,4-3.05c1.95,0.26,3.31,2.06,3.05,4
		C499.86,501.27,498.07,502.63,496.13,502.37z"/>
	<path class="st0" d="M488.34,517.42c-1.95-0.26-3.31-2.06-3.05-4c0.26-1.95,2.06-3.31,4-3.05c1.95,0.26,3.31,2.06,3.05,4
		C492.08,516.32,490.29,517.69,488.34,517.42z"/>
	<path class="st0" d="M480.29,533c-1.95-0.26-3.31-2.06-3.05-4c0.26-1.95,2.06-3.31,4-3.05c1.95,0.26,3.31,2.06,3.05,4
		C484.03,531.9,482.24,533.26,480.29,533z"/>
	<path class="st0" d="M471.55,549.9c-1.95-0.26-3.31-2.06-3.05-4c0.26-1.95,2.06-3.31,4-3.05c1.95,0.26,3.31,2.06,3.05,4
		C475.29,548.8,473.5,550.16,471.55,549.9z"/>
	<path class="st0" d="M462.21,564.95c-1.95-0.26-3.31-2.06-3.05-4c0.26-1.95,2.06-3.31,4-3.05c1.95,0.26,3.31,2.06,3.05,4
		S464.16,565.22,462.21,564.95z"/>
	<path class="st0" d="M454.16,580.53c-1.95-0.26-3.31-2.06-3.05-4c0.26-1.95,2.06-3.31,4-3.05c1.95,0.26,3.31,2.06,3.05,4
		C457.89,579.43,456.1,580.79,454.16,580.53z"/>
	<path class="st0" d="M445.42,597.43c-1.95-0.26-3.31-2.06-3.05-4c0.26-1.95,2.06-3.31,4-3.05c1.95,0.26,3.31,2.06,3.05,4
		C449.16,596.33,447.37,597.7,445.42,597.43z"/>
	<path class="st0" d="M416.89,622.26l-2.83-17.25l10.1,9.6l19.93-6.21l-15.02,15.79l4.77,14.82l-12.19-11.59
		c0,0-12.12,4.61-12.13,4.62C409.52,632.04,416.89,622.26,416.89,622.26z"/>
	<path class="st0" d="M497.61,448.12c1.7,0.98,2.29,3.15,1.31,4.86c-0.98,1.7-3.15,2.29-4.86,1.31c-1.7-0.98-2.29-3.15-1.31-4.86
		C493.73,447.73,495.91,447.14,497.61,448.12z"/>
	<path class="st0" d="M485.53,431.28c1.7,0.98,2.29,3.15,1.31,4.86c-0.98,1.7-3.15,2.29-4.86,1.31s-2.29-3.15-1.31-4.86
		C481.65,430.89,483.83,430.3,485.53,431.28z"/>
	<path class="st0" d="M475.41,416.01c1.7,0.98,2.29,3.15,1.31,4.86c-0.98,1.7-3.15,2.29-4.86,1.31c-1.7-0.98-2.29-3.15-1.31-4.86
		S473.71,415.03,475.41,416.01z"/>
	<path class="st0" d="M463.89,399.26c1.7,0.98,2.29,3.15,1.31,4.86c-0.98,1.7-3.15,2.29-4.86,1.31c-1.7-0.98-2.29-3.15-1.31-4.86
		C460.01,398.87,462.18,398.28,463.89,399.26z"/>
	<polygon class="st0" points="321.83,700.84 337.02,703.97 321.79,710.04 321.18,720.04 316.7,708.8 299.8,709.61 311.69,704.88 
		306.91,689.98 313.87,695.4 323.09,689.37 	"/>
	<path class="st0" d="M335.02,683c-0.17,1.96-1.89,3.41-3.85,3.24c-1.96-0.17-3.41-1.89-3.24-3.85c0.17-1.96,1.89-3.41,3.85-3.24
		C333.74,679.32,335.19,681.05,335.02,683z"/>
	<path class="st0" d="M345.18,664.94c-0.17,1.96-1.89,3.41-3.85,3.24c-1.96-0.17-3.41-1.89-3.24-3.85c0.17-1.96,1.89-3.41,3.85-3.24
		C343.89,661.26,345.34,662.98,345.18,664.94z"/>
	<path class="st0" d="M354.74,649.31c-0.17,1.96-1.89,3.41-3.85,3.24c-1.96-0.17-3.41-1.89-3.24-3.85s1.89-3.41,3.85-3.24
		C353.45,645.63,354.91,647.35,354.74,649.31z"/>
	<path class="st0" d="M365.05,631.79c-0.17,1.96-1.89,3.41-3.85,3.24c-1.96-0.17-3.41-1.89-3.24-3.85c0.17-1.96,1.89-3.41,3.85-3.24
		C363.76,628.11,365.22,629.83,365.05,631.79z"/>
	<path class="st0" d="M446.97,386.82l-16.81-4.79l12.99-5.05l2.87-20.68l7.89,20.31l15.44,1.99l-15.68,6.09
		c0,0-0.99,12.93-0.99,12.94C452.68,397.65,446.97,386.82,446.97,386.82z"/>
	<polygon class="st0" points="347.69,264.86 343.34,279.75 338.52,264.07 328.6,262.66 340.17,259.1 340.72,242.2 344.48,254.43 
		359.71,250.86 353.76,257.37 359.02,267.04 	"/>
	<polygon class="st0" points="435.23,229 441.32,214.73 444.24,230.87 453.92,233.45 442.01,235.61 439.45,252.33 437.17,239.73 
		421.63,241.46 428.32,235.71 424.24,225.48 	"/>
	
		<ellipse transform="matrix(0.9218 -0.3878 0.3878 0.9218 -206.8069 202.721)" class="st0" cx="398.95" cy="613.84" rx="3.56" ry="3.56"/>
	<polygon class="st0" points="371.11,610.67 356.27,608.88 370.42,601.83 370.2,592.18 375.4,602.61 391.56,600.48 380.52,605.98 
		386.31,619.9 379.19,615.26 370.82,621.78 	"/>
	<path class="st0" d="M454.16,116.25c1.87-0.61,3.88,0.42,4.48,2.29c0.61,1.87-0.42,3.87-2.29,4.48c-1.87,0.61-3.87-0.42-4.48-2.29
		C451.27,118.87,452.29,116.86,454.16,116.25z"/>
	<path class="st0" d="M454.7,97.24c1.87-0.61,3.88,0.42,4.48,2.29c0.61,1.87-0.42,3.87-2.29,4.48c-1.87,0.61-3.88-0.42-4.48-2.29
		C451.81,99.85,452.84,97.84,454.7,97.24z"/>
	<path class="st0" d="M455.25,78.04c1.87-0.61,3.88,0.42,4.48,2.29c0.61,1.87-0.42,3.88-2.29,4.48c-1.87,0.61-3.88-0.42-4.48-2.29
		C452.36,80.66,453.39,78.65,455.25,78.04z"/>
	<path class="st0" d="M455.77,59.99c1.87-0.61,3.88,0.42,4.48,2.29c0.61,1.87-0.42,3.87-2.29,4.48c-1.87,0.61-3.88-0.42-4.48-2.29
		C452.88,62.6,453.9,60.59,455.77,59.99z"/>
</g>
</svg>
